<svg xmlns="http://www.w3.org/2000/svg" viewBox="0 0 1200 630" width="1200" height="630" font-family="Helvetica, Arial, sans-serif">
  <rect x="0" y="0" width="1200" height="630" fill="#181818"/>

  <text x="60" y="72" fill="#ffffff" font-size="44" font-weight="700">Where to Watch UFC 329</text>
  <text x="60" y="108" fill="#9ca3af" font-size="22">McGregor vs Holloway 2 &#183; Saturday, July 11, 2026</text>
  <image href="../good-fights-hand.png" x="1088" y="18" width="56" height="56"/>
  <text x="1072" y="56" fill="#F5C518" font-size="24" font-weight="700" text-anchor="end">GOOD FIGHTS</text>

  <!-- Header -->
  <text x="90" y="170" fill="#9ca3af" font-size="17" font-weight="700" letter-spacing="1.5">COUNTRY</text>
  <text x="560" y="170" fill="#9ca3af" font-size="17" font-weight="700" letter-spacing="1.5">WHERE TO WATCH</text>

  <g stroke="#2e2e2e" stroke-width="1">
    <line x1="90" y1="188" x2="1110" y2="188"/>
    <line x1="90" y1="256" x2="1110" y2="256"/>
    <line x1="90" y1="324" x2="1110" y2="324"/>
    <line x1="90" y1="392" x2="1110" y2="392"/>
    <line x1="90" y1="460" x2="1110" y2="460"/>
    <line x1="90" y1="528" x2="1110" y2="528"/>
  </g>

  <!-- Countries -->
  <g fill="#ffffff" font-size="27" font-weight="700">
    <text x="90" y="231">United States</text>
    <text x="90" y="299">Canada</text>
    <text x="90" y="367">UK &amp; Ireland</text>
    <text x="90" y="435">Australia</text>
    <text x="90" y="503">Europe</text>
  </g>

  <!-- Broadcasters -->
  <g fill="#F5C518" font-size="26">
    <text x="560" y="231">Paramount+</text>
    <text x="560" y="299">Sportsnet+ (PPV)</text>
    <text x="560" y="367">TNT Sports / discovery+</text>
    <text x="560" y="435">Main Event (PPV)</text>
    <text x="560" y="503">DAZN (much of the continent)</text>
  </g>

  <text x="60" y="575" fill="#6b7280" font-size="17">Confirm the exact channel and PPV pricing for your country before fight night. UFC Fight Pass is the worldwide fallback.</text>
  <text x="1140" y="612" fill="#9ca3af" font-size="18" text-anchor="end">goodfights.app</text>
</svg>
