<svg xmlns="http://www.w3.org/2000/svg" viewBox="0 0 760 440" width="760" height="440" font-family="-apple-system, Segoe UI, Roboto, Helvetica, Arial, sans-serif" role="img" aria-label="UFC 329 main event odds movement: implied win probability for Conor McGregor and Max Holloway over time.">
<rect x="0" y="0" width="760" height="440" rx="14" fill="#0b0d10"/>
<text x="52" y="30" fill="#f5f5f5" font-size="19" font-weight="700">How the UFC 329 main event odds have moved</text>
<text x="52" y="50" fill="#9aa3ad" font-size="12.5">Implied win probability from the moneyline. Updated through Jun 23.</text>
<line x1="52" y1="384.0" x2="628" y2="384.0" stroke="#1c2127" stroke-width="1"/>
<text x="44" y="388.0" fill="#6b7480" font-size="11" text-anchor="end">0%</text>
<line x1="52" y1="304.0" x2="628" y2="304.0" stroke="#1c2127" stroke-width="1"/>
<text x="44" y="308.0" fill="#6b7480" font-size="11" text-anchor="end">25%</text>
<line x1="52" y1="224.0" x2="628" y2="224.0" stroke="#1c2127" stroke-width="1"/>
<text x="44" y="228.0" fill="#6b7480" font-size="11" text-anchor="end">50%</text>
<line x1="52" y1="144.0" x2="628" y2="144.0" stroke="#1c2127" stroke-width="1"/>
<text x="44" y="148.0" fill="#6b7480" font-size="11" text-anchor="end">75%</text>
<line x1="52" y1="64.0" x2="628" y2="64.0" stroke="#1c2127" stroke-width="1"/>
<text x="44" y="68.0" fill="#6b7480" font-size="11" text-anchor="end">100%</text>
<text x="52.0" y="404" fill="#6b7480" font-size="11" text-anchor="middle">May 16</text>
<text x="537.1" y="404" fill="#6b7480" font-size="11" text-anchor="middle">Jun 17</text>
<text x="567.4" y="404" fill="#6b7480" font-size="11" text-anchor="middle">Jun 19</text>
<text x="597.7" y="404" fill="#6b7480" font-size="11" text-anchor="middle">Jun 21</text>
<text x="628.0" y="404" fill="#6b7480" font-size="11" text-anchor="middle">Jun 23</text>
<polyline points="52.0,292.6 112.6,291.2 537.1,287.0 552.2,287.6 567.4,285.5 582.5,284.0 597.7,278.4 612.8,278.0 628.0,278.0" fill="none" stroke="#f97316" stroke-width="2.5" stroke-linejoin="round" stroke-linecap="round"/>
<circle cx="52.0" cy="292.6" r="3.2" fill="#0b0d10" stroke="#f97316" stroke-width="2"/>
<circle cx="112.6" cy="291.2" r="3.2" fill="#0b0d10" stroke="#f97316" stroke-width="2"/>
<circle cx="537.1" cy="287.0" r="3.2" fill="#0b0d10" stroke="#f97316" stroke-width="2"/>
<circle cx="552.2" cy="287.6" r="3.2" fill="#0b0d10" stroke="#f97316" stroke-width="2"/>
<circle cx="567.4" cy="285.5" r="3.2" fill="#0b0d10" stroke="#f97316" stroke-width="2"/>
<circle cx="582.5" cy="284.0" r="3.2" fill="#0b0d10" stroke="#f97316" stroke-width="2"/>
<circle cx="597.7" cy="278.4" r="3.2" fill="#0b0d10" stroke="#f97316" stroke-width="2"/>
<circle cx="612.8" cy="278.0" r="3.2" fill="#0b0d10" stroke="#f97316" stroke-width="2"/>
<circle cx="628.0" cy="278.0" r="3.2" fill="#0b0d10" stroke="#f97316" stroke-width="2"/>
<text x="638.0" y="274.0" fill="#f97316" font-size="13" font-weight="700">McGregor</text>
<text x="638.0" y="290.0" fill="#9aa3ad" font-size="11.5">33% (+202)</text>
<polyline points="52.0,142.0 112.6,150.5 537.1,146.3 552.2,145.6 567.4,147.6 582.5,148.7 597.7,154.1 612.8,154.9 628.0,154.9" fill="none" stroke="#60a5fa" stroke-width="2.5" stroke-linejoin="round" stroke-linecap="round"/>
<circle cx="52.0" cy="142.0" r="3.2" fill="#0b0d10" stroke="#60a5fa" stroke-width="2"/>
<circle cx="112.6" cy="150.5" r="3.2" fill="#0b0d10" stroke="#60a5fa" stroke-width="2"/>
<circle cx="537.1" cy="146.3" r="3.2" fill="#0b0d10" stroke="#60a5fa" stroke-width="2"/>
<circle cx="552.2" cy="145.6" r="3.2" fill="#0b0d10" stroke="#60a5fa" stroke-width="2"/>
<circle cx="567.4" cy="147.6" r="3.2" fill="#0b0d10" stroke="#60a5fa" stroke-width="2"/>
<circle cx="582.5" cy="148.7" r="3.2" fill="#0b0d10" stroke="#60a5fa" stroke-width="2"/>
<circle cx="597.7" cy="154.1" r="3.2" fill="#0b0d10" stroke="#60a5fa" stroke-width="2"/>
<circle cx="612.8" cy="154.9" r="3.2" fill="#0b0d10" stroke="#60a5fa" stroke-width="2"/>
<circle cx="628.0" cy="154.9" r="3.2" fill="#0b0d10" stroke="#60a5fa" stroke-width="2"/>
<text x="638.0" y="150.9" fill="#60a5fa" font-size="13" font-weight="700">Holloway</text>
<text x="638.0" y="166.9" fill="#9aa3ad" font-size="11.5">72% (-252)</text>
</svg>