<svg xmlns="http://www.w3.org/2000/svg" viewBox="0 0 760 440" width="760" height="440" font-family="-apple-system, Segoe UI, Roboto, Helvetica, Arial, sans-serif" role="img" aria-label="UFC 329 main event odds movement: implied win probability for Conor McGregor and Max Holloway over time.">
<rect x="0" y="0" width="760" height="440" rx="14" fill="#0b0d10"/>
<text x="52" y="30" fill="#f5f5f5" font-size="19" font-weight="700">How the UFC 329 main event odds have moved</text>
<text x="52" y="50" fill="#9aa3ad" font-size="12.5">Implied win probability from the moneyline. Updated through Jul 7.</text>
<line x1="52" y1="384.0" x2="628" y2="384.0" stroke="#1c2127" stroke-width="1"/>
<text x="44" y="388.0" fill="#6b7480" font-size="11" text-anchor="end">0%</text>
<line x1="52" y1="304.0" x2="628" y2="304.0" stroke="#1c2127" stroke-width="1"/>
<text x="44" y="308.0" fill="#6b7480" font-size="11" text-anchor="end">25%</text>
<line x1="52" y1="224.0" x2="628" y2="224.0" stroke="#1c2127" stroke-width="1"/>
<text x="44" y="228.0" fill="#6b7480" font-size="11" text-anchor="end">50%</text>
<line x1="52" y1="144.0" x2="628" y2="144.0" stroke="#1c2127" stroke-width="1"/>
<text x="44" y="148.0" fill="#6b7480" font-size="11" text-anchor="end">75%</text>
<line x1="52" y1="64.0" x2="628" y2="64.0" stroke="#1c2127" stroke-width="1"/>
<text x="44" y="68.0" fill="#6b7480" font-size="11" text-anchor="end">100%</text>
<text x="52.0" y="404" fill="#6b7480" font-size="11" text-anchor="middle">May 16</text>
<text x="417.5" y="404" fill="#6b7480" font-size="11" text-anchor="middle">Jun 18</text>
<text x="450.8" y="404" fill="#6b7480" font-size="11" text-anchor="middle">Jun 21</text>
<text x="484.0" y="404" fill="#6b7480" font-size="11" text-anchor="middle">Jun 24</text>
<text x="517.2" y="404" fill="#6b7480" font-size="11" text-anchor="middle">Jun 27</text>
<text x="550.5" y="404" fill="#6b7480" font-size="11" text-anchor="middle">Jun 30</text>
<text x="583.7" y="404" fill="#6b7480" font-size="11" text-anchor="middle">Jul 3</text>
<text x="616.9" y="404" fill="#6b7480" font-size="11" text-anchor="middle">Jul 6</text>
<text x="628.0" y="404" fill="#6b7480" font-size="11" text-anchor="middle">Jul 7</text>
<polyline points="52.0,292.6 96.3,291.2 406.5,287.0 417.5,287.6 428.6,285.5 439.7,284.0 450.8,278.4 461.8,278.0 472.9,278.0 484.0,278.0 495.1,279.8 506.2,277.3 517.2,277.3 528.3,273.7 539.4,273.7 550.5,274.8 561.5,272.5 572.6,275.5 583.7,275.5 594.8,273.7 605.8,271.7 616.9,271.7 628.0,271.7" fill="none" stroke="#f97316" stroke-width="2.5" stroke-linejoin="round" stroke-linecap="round"/>
<circle cx="52.0" cy="292.6" r="3.2" fill="#0b0d10" stroke="#f97316" stroke-width="2"/>
<circle cx="96.3" cy="291.2" r="3.2" fill="#0b0d10" stroke="#f97316" stroke-width="2"/>
<circle cx="406.5" cy="287.0" r="3.2" fill="#0b0d10" stroke="#f97316" stroke-width="2"/>
<circle cx="417.5" cy="287.6" r="3.2" fill="#0b0d10" stroke="#f97316" stroke-width="2"/>
<circle cx="428.6" cy="285.5" r="3.2" fill="#0b0d10" stroke="#f97316" stroke-width="2"/>
<circle cx="439.7" cy="284.0" r="3.2" fill="#0b0d10" stroke="#f97316" stroke-width="2"/>
<circle cx="450.8" cy="278.4" r="3.2" fill="#0b0d10" stroke="#f97316" stroke-width="2"/>
<circle cx="461.8" cy="278.0" r="3.2" fill="#0b0d10" stroke="#f97316" stroke-width="2"/>
<circle cx="472.9" cy="278.0" r="3.2" fill="#0b0d10" stroke="#f97316" stroke-width="2"/>
<circle cx="484.0" cy="278.0" r="3.2" fill="#0b0d10" stroke="#f97316" stroke-width="2"/>
<circle cx="495.1" cy="279.8" r="3.2" fill="#0b0d10" stroke="#f97316" stroke-width="2"/>
<circle cx="506.2" cy="277.3" r="3.2" fill="#0b0d10" stroke="#f97316" stroke-width="2"/>
<circle cx="517.2" cy="277.3" r="3.2" fill="#0b0d10" stroke="#f97316" stroke-width="2"/>
<circle cx="528.3" cy="273.7" r="3.2" fill="#0b0d10" stroke="#f97316" stroke-width="2"/>
<circle cx="539.4" cy="273.7" r="3.2" fill="#0b0d10" stroke="#f97316" stroke-width="2"/>
<circle cx="550.5" cy="274.8" r="3.2" fill="#0b0d10" stroke="#f97316" stroke-width="2"/>
<circle cx="561.5" cy="272.5" r="3.2" fill="#0b0d10" stroke="#f97316" stroke-width="2"/>
<circle cx="572.6" cy="275.5" r="3.2" fill="#0b0d10" stroke="#f97316" stroke-width="2"/>
<circle cx="583.7" cy="275.5" r="3.2" fill="#0b0d10" stroke="#f97316" stroke-width="2"/>
<circle cx="594.8" cy="273.7" r="3.2" fill="#0b0d10" stroke="#f97316" stroke-width="2"/>
<circle cx="605.8" cy="271.7" r="3.2" fill="#0b0d10" stroke="#f97316" stroke-width="2"/>
<circle cx="616.9" cy="271.7" r="3.2" fill="#0b0d10" stroke="#f97316" stroke-width="2"/>
<circle cx="628.0" cy="271.7" r="3.2" fill="#0b0d10" stroke="#f97316" stroke-width="2"/>
<text x="638.0" y="267.7" fill="#f97316" font-size="13" font-weight="700">McGregor</text>
<text x="638.0" y="283.7" fill="#9aa3ad" font-size="11.5">35% (+185)</text>
<polyline points="52.0,142.0 96.3,150.5 406.5,146.3 417.5,145.6 428.6,147.6 439.7,148.7 450.8,154.1 461.8,154.9 472.9,154.9 484.0,154.9 495.1,152.9 506.2,155.7 517.2,155.7 528.3,161.0 539.4,158.1 550.5,159.0 561.5,162.5 572.6,159.5 583.7,159.8 594.8,162.5 605.8,162.5 616.9,162.5 628.0,162.5" fill="none" stroke="#60a5fa" stroke-width="2.5" stroke-linejoin="round" stroke-linecap="round"/>
<circle cx="52.0" cy="142.0" r="3.2" fill="#0b0d10" stroke="#60a5fa" stroke-width="2"/>
<circle cx="96.3" cy="150.5" r="3.2" fill="#0b0d10" stroke="#60a5fa" stroke-width="2"/>
<circle cx="406.5" cy="146.3" r="3.2" fill="#0b0d10" stroke="#60a5fa" stroke-width="2"/>
<circle cx="417.5" cy="145.6" r="3.2" fill="#0b0d10" stroke="#60a5fa" stroke-width="2"/>
<circle cx="428.6" cy="147.6" r="3.2" fill="#0b0d10" stroke="#60a5fa" stroke-width="2"/>
<circle cx="439.7" cy="148.7" r="3.2" fill="#0b0d10" stroke="#60a5fa" stroke-width="2"/>
<circle cx="450.8" cy="154.1" r="3.2" fill="#0b0d10" stroke="#60a5fa" stroke-width="2"/>
<circle cx="461.8" cy="154.9" r="3.2" fill="#0b0d10" stroke="#60a5fa" stroke-width="2"/>
<circle cx="472.9" cy="154.9" r="3.2" fill="#0b0d10" stroke="#60a5fa" stroke-width="2"/>
<circle cx="484.0" cy="154.9" r="3.2" fill="#0b0d10" stroke="#60a5fa" stroke-width="2"/>
<circle cx="495.1" cy="152.9" r="3.2" fill="#0b0d10" stroke="#60a5fa" stroke-width="2"/>
<circle cx="506.2" cy="155.7" r="3.2" fill="#0b0d10" stroke="#60a5fa" stroke-width="2"/>
<circle cx="517.2" cy="155.7" r="3.2" fill="#0b0d10" stroke="#60a5fa" stroke-width="2"/>
<circle cx="528.3" cy="161.0" r="3.2" fill="#0b0d10" stroke="#60a5fa" stroke-width="2"/>
<circle cx="539.4" cy="158.1" r="3.2" fill="#0b0d10" stroke="#60a5fa" stroke-width="2"/>
<circle cx="550.5" cy="159.0" r="3.2" fill="#0b0d10" stroke="#60a5fa" stroke-width="2"/>
<circle cx="561.5" cy="162.5" r="3.2" fill="#0b0d10" stroke="#60a5fa" stroke-width="2"/>
<circle cx="572.6" cy="159.5" r="3.2" fill="#0b0d10" stroke="#60a5fa" stroke-width="2"/>
<circle cx="583.7" cy="159.8" r="3.2" fill="#0b0d10" stroke="#60a5fa" stroke-width="2"/>
<circle cx="594.8" cy="162.5" r="3.2" fill="#0b0d10" stroke="#60a5fa" stroke-width="2"/>
<circle cx="605.8" cy="162.5" r="3.2" fill="#0b0d10" stroke="#60a5fa" stroke-width="2"/>
<circle cx="616.9" cy="162.5" r="3.2" fill="#0b0d10" stroke="#60a5fa" stroke-width="2"/>
<circle cx="628.0" cy="162.5" r="3.2" fill="#0b0d10" stroke="#60a5fa" stroke-width="2"/>
<text x="638.0" y="158.5" fill="#60a5fa" font-size="13" font-weight="700">Holloway</text>
<text x="638.0" y="174.5" fill="#9aa3ad" font-size="11.5">69% (-225)</text>
</svg>