<?xml version="1.0" encoding="UTF-8" standalone="no"?>
<svg
   xmlns:dc="http://purl.org/dc/elements/1.1/"
   xmlns:cc="http://creativecommons.org/ns#"
   xmlns:rdf="http://www.w3.org/1999/02/22-rdf-syntax-ns#"
   xmlns:svg="http://www.w3.org/2000/svg"
   xmlns="http://www.w3.org/2000/svg"
   xmlns:sodipodi="http://sodipodi.sourceforge.net/DTD/sodipodi-0.dtd"
   xmlns:inkscape="http://www.inkscape.org/namespaces/inkscape"
   version="1.1"
   width="378"
   height="248"
   id="svg94"
   sodipodi:docname="dbx_logo_white.svg"
   inkscape:version="1.0.1 (3bc2e813f5, 2020-09-07)">
  <metadata
     id="metadata100">
    <rdf:RDF>
      <cc:Work
         rdf:about="">
        <dc:format>image/svg+xml</dc:format>
        <dc:type
           rdf:resource="http://purl.org/dc/dcmitype/StillImage" />
        <dc:title />
      </cc:Work>
    </rdf:RDF>
  </metadata>
  <defs
     id="defs98" />
  <sodipodi:namedview
     pagecolor="#ffffff"
     bordercolor="#666666"
     borderopacity="1"
     objecttolerance="10"
     gridtolerance="10"
     guidetolerance="10"
     inkscape:pageopacity="0"
     inkscape:pageshadow="2"
     inkscape:window-width="1920"
     inkscape:window-height="991"
     id="namedview96"
     showgrid="false"
     fit-margin-top="20"
     fit-margin-left="20"
     fit-margin-bottom="20"
     fit-margin-right="20"
     borderlayer="true"
     inkscape:zoom="1.4142136"
     inkscape:cx="113.1618"
     inkscape:cy="104.74685"
     inkscape:window-x="-9"
     inkscape:window-y="-9"
     inkscape:window-maximized="1"
     inkscape:current-layer="svg94"
     inkscape:document-rotation="0" />
  <path
     id="path4"
     d="M 20 20 L 20 228 L 102 228 C 103.7462 225.38069 105.39188 222.65337 107.53516 220.34766 C 108.02317 219.89003 108.49704 219.44613 108.9707 219.00195 C 119.91333 207.41526 119.91422 207.41634 119.36133 173.13867 C 119.28524 168.66263 119.25895 164.18757 119.25195 159.71094 C 119.24206 152.20012 119.19637 144.68997 119.10547 137.17969 C 118.98392 127.48662 118.90615 117.79536 118.87695 108.10156 C 118.85191 99.675364 118.80915 91.248305 118.75195 82.822266 C 118.73935 81.030933 118.72704 79.240554 118.71484 77.449219 C 118.68494 72.260597 118.65294 67.073108 118.58984 61.884766 C 118.56884 60.305882 118.55005 58.725396 118.53125 57.146484 C 118.51975 54.945719 118.50761 52.745476 118.47461 50.544922 C 118.45771 49.539448 118.45791 49.54025 118.44141 48.554688 C 118.40256 44.990291 118.40266 44.990336 118 42 L 115 38 L 102 20 L 20 20 z M 56 49 L 82 49 L 82 199 L 56 199 L 56 49 z "
     style="fill:#ffffff" />
  <path
     id="path6"
     d="M 137 20 L 137 228 L 219 228 C 222.09053 223.58496 225.07395 219.06436 228.61523 215.00195 C 235.28951 207.44231 236.29687 200.87549 236.13477 191.21094 C 236.10437 189.61899 236.08889 188.02583 236.08789 186.43359 C 236.09719 183.08194 236.09528 179.73226 236.05078 176.38086 C 235.98094 172.05652 235.92997 167.73514 235.94727 163.41016 C 235.96277 160.01223 235.96371 156.61469 235.94141 153.2168 C 235.92711 151.59503 235.91404 149.97335 235.90234 148.35156 C 235.92261 141.5813 237.21786 133.31326 232.12305 128.1582 C 229.17115 126.24165 229.17128 126.24125 227.5 124.56055 C 227.03246 124.07249 226.57878 123.5987 226.125 123.125 L 224 121 C 227.78337 119.73887 230.30227 118.18177 233.25977 115.50781 C 236.19059 111.28386 236.1903 111.2829 235.99805 99.324219 C 235.97005 97.783923 235.95514 96.243673 235.95312 94.703125 C 235.95992 91.473574 235.95672 88.244959 235.91602 85.015625 C 235.85242 80.835655 235.80471 76.659041 235.81641 72.478516 C 235.82751 69.206903 235.82549 65.935637 235.80469 62.664062 C 235.79159 61.099008 235.78053 59.533821 235.76953 57.96875 C 235.77313 55.734566 235.77333 53.503437 235.73633 51.269531 C 235.71563 50.225433 235.71571 50.224594 235.69531 49.201172 C 235.62584 42.670611 235.62511 42.670611 219 20 L 137 20 z M 173 49 L 199 49 L 199 106 L 173 106 L 173 49 z M 173 138 L 199 138 L 199 199 L 173 199 L 173 138 z "
     style="fill:#ffffff" />
  <path
     d="m 249,20 c 11.88,0 23.76,0 36,0 0.72187,2.619375 1.44375,5.23875 2.1875,7.9375 1.75048,6.331781 3.561,12.641977 5.4375,18.9375 1.71513,5.766547 3.30209,11.540874 4.68359,17.398437 0.64683,2.705898 0.64683,2.705898 1.53907,5.203125 C 301.94301,78.777033 301.25597,88.320687 301,98 c 1.32,0 2.64,0 4,0 -0.10441,-1.691895 -0.10441,-1.691895 -0.21094,-3.417969 -0.51313,-12.260991 1.69281,-22.339095 5.40723,-33.958984 1.29543,-4.227852 2.32983,-8.513197 3.36621,-12.810547 C 315.84274,38.481301 318.39059,29.244768 321,20 c 12.21,0 24.42,0 37,0 -3.3557,14.541387 -3.3557,14.541387 -5,19.625 -1.49595,4.736228 -2.88012,9.4798 -4.16406,14.277344 -0.62864,2.329472 -1.26916,4.653841 -1.92188,6.976562 C 344.52173,69.397619 342.21838,77.934235 340,86.5 c -1.86654,7.201758 -3.76311,14.39292 -5.75,21.5625 -0.19852,0.7193 -0.39703,1.43859 -0.60156,2.17969 -0.83811,3.00228 -1.70968,5.91348 -2.85157,8.8164 -1.75831,6.49024 0.99295,12.92625 2.95313,19.12891 2.15487,6.97694 4.09775,13.96473 5.8125,21.0625 1.6095,6.64527 3.43833,13.14895 5.55615,19.64868 2.04358,6.37631 3.63196,12.85331 5.18213,19.36499 0.97877,4.06842 2.05035,7.87727 3.69922,11.73633 1.61933,5.97128 2.78259,11.91295 4,18 -12.21,0 -24.42,0 -37,0 -1.0725,-4.16625 -2.145,-8.3325 -3.25,-12.625 -2.79584,-10.85175 -2.79584,-10.85175 -5.875,-21.625 -4.12597,-14.27945 -8.0418,-28.78905 -6.875,-43.75 -0.99,0 -1.98,0 -3,0 -0.0142,1.15113 -0.0284,2.30227 -0.043,3.48828 -0.27003,10.99651 -1.90836,20.74701 -5.01318,31.26563 -1.19016,4.09318 -2.32805,8.19991 -3.46338,12.30859 -0.22297,0.80672 -0.44593,1.61343 -0.67565,2.4446 -0.45614,1.65046 -0.91225,3.30094 -1.36833,4.95143 -0.67903,2.45204 -1.36156,4.90308 -2.04562,7.35373 -0.21561,0.77251 -0.43122,1.54502 -0.65337,2.34094 -0.40871,1.46349 -0.8178,2.92687 -1.22732,4.39013 -0.8776,3.14438 -1.7183,6.28914 -2.51018,9.45667 -11.88,0 -23.76,0 -36,0 1.92295,-13.46067 5.94757,-26.4001 9.71826,-39.43945 3.21129,-11.16945 6.18457,-22.39573 9.11401,-33.64185 1.74214,-6.66858 3.53685,-13.30032 5.62452,-19.87109 2.05722,-6.49636 3.45297,-11.4426 1.54321,-18.04761 -0.4892,-1.73637 -0.4892,-1.73637 -0.98828,-3.50781 -0.82579,-2.86369 -1.68531,-5.71569 -2.55469,-8.56641 C 269.82598,99.508496 268.40926,94.040955 267,88.5625 c -3.04813,-11.794947 -6.21654,-23.54169 -9.66789,-35.225769 -0.82319,-2.786908 -1.64249,-5.57496 -2.46233,-8.362854 -0.6071,-2.055921 -1.22131,-4.109623 -1.83584,-6.16333 -0.38141,-1.29353 -0.76253,-2.587146 -1.14332,-3.880859 -0.33999,-1.142271 -0.67998,-2.284542 -1.03027,-3.461426 C 250,28 250,28 249,20 Z"
     fill="#030303"
     id="path8"
     style="fill:#ffffff" />
</svg>
