<?xml version="1.0" encoding="UTF-8" standalone="no"?>
<svg
   xmlns:dc="http://purl.org/dc/elements/1.1/"
   xmlns:cc="http://creativecommons.org/ns#"
   xmlns:rdf="http://www.w3.org/1999/02/22-rdf-syntax-ns#"
   xmlns:svg="http://www.w3.org/2000/svg"
   xmlns="http://www.w3.org/2000/svg"
   xmlns:sodipodi="http://sodipodi.sourceforge.net/DTD/sodipodi-0.dtd"
   xmlns:inkscape="http://www.inkscape.org/namespaces/inkscape"
   version="1.1"
   width="378"
   height="248"
   id="svg94"
   sodipodi:docname="dbx_logo.svg"
   inkscape:version="1.0.1 (3bc2e813f5, 2020-09-07)">
  <metadata
     id="metadata100">
    <rdf:RDF>
      <cc:Work
         rdf:about="">
        <dc:format>image/svg+xml</dc:format>
        <dc:type
           rdf:resource="http://purl.org/dc/dcmitype/StillImage" />
        <dc:title></dc:title>
      </cc:Work>
    </rdf:RDF>
  </metadata>
  <defs
     id="defs98" />
  <sodipodi:namedview
     pagecolor="#ffffff"
     bordercolor="#666666"
     borderopacity="1"
     objecttolerance="10"
     gridtolerance="10"
     guidetolerance="10"
     inkscape:pageopacity="0"
     inkscape:pageshadow="2"
     inkscape:window-width="3200"
     inkscape:window-height="1711"
     id="namedview96"
     showgrid="false"
     fit-margin-top="20"
     fit-margin-left="20"
     fit-margin-bottom="20"
     fit-margin-right="20"
     borderlayer="true"
     inkscape:zoom="2.8284271"
     inkscape:cx="113.1618"
     inkscape:cy="139.39508"
     inkscape:window-x="2391"
     inkscape:window-y="-9"
     inkscape:window-maximized="1"
     inkscape:current-layer="svg94" />
  <path
     d="m -131,1 c 210.87,0 421.74,0 639,0 0,110.55 0,221.1 0,335 -210.87,0 -421.74,0 -639,0 0,-110.55 0,-221.1 0,-335 z"
     fill="#fdfdfd"
     id="path2" />
  <path
     d="m 20,20 c 27.06,0 54.12,0 82,0 4.29,5.94 8.58,11.88 13,18 0.99,1.32 1.98,2.64 3,4 0.40266,2.990336 0.40266,2.990336 0.44151,6.554733 0.0165,0.985563 0.0165,0.985563 0.0334,1.991037 0.033,2.200554 0.0446,4.400682 0.0561,6.601447 0.0188,1.578912 0.0387,3.15781 0.0597,4.736694 0.0631,5.188342 0.0942,10.376686 0.1241,15.565308 0.0122,1.791335 0.0245,3.582669 0.0371,5.374002 0.0572,8.426039 0.0998,16.852 0.12484,25.278199 0.0292,9.6938 0.10795,19.38553 0.2295,29.0786 0.0909,7.51028 0.13495,15.01997 0.14484,22.53079 0.007,4.47663 0.0333,8.95106 0.10939,13.4271 0.55289,34.27767 0.55289,34.27767 -10.38974,45.86436 -0.47366,0.44418 -0.94732,0.88835 -1.43533,1.34598 -2.14328,2.30571 -3.78919,5.03244 -5.53539,7.65175 -27.06,0 -54.12,0 -82,0 0,-68.64 0,-137.28 0,-208 z"
     fill="#020202"
     id="path4" />
  <path
     d="m 137,20 c 27.06,0 54.12,0 82,0 16.62511,22.670611 16.62511,22.670611 16.69458,29.201172 0.0204,1.023422 0.0204,1.023422 0.0411,2.06752 0.037,2.233906 0.0374,4.465874 0.0338,6.700058 0.011,1.565071 0.023,3.130135 0.0361,4.69519 0.0208,3.271573 0.0222,6.542474 0.0111,9.814087 -0.0117,4.180525 0.0359,8.358017 0.0995,12.537987 0.0407,3.229334 0.0444,6.457941 0.0376,9.687492 0.002,1.540548 0.017,3.081134 0.045,4.62143 0.19225,11.958684 0.19225,11.958684 -2.73857,16.182634 -2.9575,2.67396 -5.47673,4.2313 -9.2601,5.49243 0.70125,0.70125 1.4025,1.4025 2.125,2.125 0.45378,0.4737 0.90757,0.9474 1.37511,1.43546 1.67128,1.6807 1.67128,1.6807 4.62318,3.59725 5.09481,5.15506 3.79932,13.42359 3.77905,20.19385 0.0117,1.62179 0.0247,3.24356 0.039,4.86533 0.0223,3.39789 0.0215,6.79485 0.006,10.19278 -0.0173,4.32498 0.0332,8.64608 0.10304,12.97042 0.0445,3.3514 0.0468,6.7019 0.0375,10.05355 0.001,1.59224 0.017,3.18454 0.0474,4.77649 0.1621,9.66455 -0.84666,16.23154 -7.52094,23.79118 -3.54128,4.06241 -6.52348,8.58365 -9.61401,12.99869 -27.06,0 -54.12,0 -82,0 0,-68.64 0,-137.28 0,-208 z"
     fill="#020202"
     id="path6" />
  <path
     d="m 249,20 c 11.88,0 23.76,0 36,0 0.72187,2.619375 1.44375,5.23875 2.1875,7.9375 1.75048,6.331781 3.561,12.641977 5.4375,18.9375 1.71513,5.766547 3.30209,11.540874 4.68359,17.398437 0.64683,2.705898 0.64683,2.705898 1.53907,5.203125 C 301.94301,78.777033 301.25597,88.320687 301,98 c 1.32,0 2.64,0 4,0 -0.10441,-1.691895 -0.10441,-1.691895 -0.21094,-3.417969 -0.51313,-12.260991 1.69281,-22.339095 5.40723,-33.958984 1.29543,-4.227852 2.32983,-8.513197 3.36621,-12.810547 C 315.84274,38.481301 318.39059,29.244768 321,20 c 12.21,0 24.42,0 37,0 -3.3557,14.541387 -3.3557,14.541387 -5,19.625 -1.49595,4.736228 -2.88012,9.4798 -4.16406,14.277344 -0.62864,2.329472 -1.26916,4.653841 -1.92188,6.976562 C 344.52173,69.397619 342.21838,77.934235 340,86.5 c -1.86654,7.201758 -3.76311,14.39292 -5.75,21.5625 -0.19852,0.7193 -0.39703,1.43859 -0.60156,2.17969 -0.83811,3.00228 -1.70968,5.91348 -2.85157,8.8164 -1.75831,6.49024 0.99295,12.92625 2.95313,19.12891 2.15487,6.97694 4.09775,13.96473 5.8125,21.0625 1.6095,6.64527 3.43833,13.14895 5.55615,19.64868 2.04358,6.37631 3.63196,12.85331 5.18213,19.36499 0.97877,4.06842 2.05035,7.87727 3.69922,11.73633 1.61933,5.97128 2.78259,11.91295 4,18 -12.21,0 -24.42,0 -37,0 -1.0725,-4.16625 -2.145,-8.3325 -3.25,-12.625 -2.79584,-10.85175 -2.79584,-10.85175 -5.875,-21.625 -4.12597,-14.27945 -8.0418,-28.78905 -6.875,-43.75 -0.99,0 -1.98,0 -3,0 -0.0142,1.15113 -0.0284,2.30227 -0.043,3.48828 -0.27003,10.99651 -1.90836,20.74701 -5.01318,31.26563 -1.19016,4.09318 -2.32805,8.19991 -3.46338,12.30859 -0.22297,0.80672 -0.44593,1.61343 -0.67565,2.4446 -0.45614,1.65046 -0.91225,3.30094 -1.36833,4.95143 -0.67903,2.45204 -1.36156,4.90308 -2.04562,7.35373 -0.21561,0.77251 -0.43122,1.54502 -0.65337,2.34094 -0.40871,1.46349 -0.8178,2.92687 -1.22732,4.39013 -0.8776,3.14438 -1.7183,6.28914 -2.51018,9.45667 -11.88,0 -23.76,0 -36,0 1.92295,-13.46067 5.94757,-26.4001 9.71826,-39.43945 3.21129,-11.16945 6.18457,-22.39573 9.11401,-33.64185 1.74214,-6.66858 3.53685,-13.30032 5.62452,-19.87109 2.05722,-6.49636 3.45297,-11.4426 1.54321,-18.04761 -0.4892,-1.73637 -0.4892,-1.73637 -0.98828,-3.50781 -0.82579,-2.86369 -1.68531,-5.71569 -2.55469,-8.56641 C 269.82598,99.508496 268.40926,94.040955 267,88.5625 c -3.04813,-11.794947 -6.21654,-23.54169 -9.66789,-35.225769 -0.82319,-2.786908 -1.64249,-5.57496 -2.46233,-8.362854 -0.6071,-2.055921 -1.22131,-4.109623 -1.83584,-6.16333 -0.38141,-1.29353 -0.76253,-2.587146 -1.14332,-3.880859 -0.33999,-1.142271 -0.67998,-2.284542 -1.03027,-3.461426 C 250,28 250,28 249,20 Z"
     fill="#030303"
     id="path8" />
  <path
     d="m 56,49 c 8.58,0 17.16,0 26,0 0,49.5 0,99 0,150 -8.58,0 -17.16,0 -26,0 0,-49.5 0,-99 0,-150 z"
     fill="#fafafa"
     id="path10" />
  <path
     d="m 173,138 c 8.58,0 17.16,0 26,0 0,20.13 0,40.26 0,61 -8.58,0 -17.16,0 -26,0 0,-20.13 0,-40.26 0,-61 z"
     fill="#f8f8f8"
     id="path12" />
  <path
     d="m 173,49 c 8.58,0 17.16,0 26,0 0,18.81 0,37.62 0,57 -8.58,0 -17.16,0 -26,0 0,-18.81 0,-37.62 0,-57 z"
     fill="#f9f9f9"
     id="path14" />
</svg>
