<?xml version="1.0" encoding="UTF-8"?>
<svg version="1.1" xmlns="http://www.w3.org/2000/svg" width="1125" height="380">
<path d="M0 0 C371.25 0 742.5 0 1125 0 C1125 125.4 1125 250.8 1125 380 C753.75 380 382.5 380 0 380 C0 254.6 0 129.2 0 0 Z " fill="#000000" transform="translate(0,0)"/>
<path d="M0 0 C12.54 0 25.08 0 38 0 C38 62.7 38 125.4 38 190 C-3.91 190 -45.82 190 -89 190 C-89 177.46 -89 164.92 -89 152 C-59.63 152 -30.26 152 0 152 C0 101.84 0 51.68 0 0 Z " fill="#FCFCFC" transform="translate(269,98)"/>
<path d="M0 0 C41.91 0 83.82 0 127 0 C127 12.54 127 25.08 127 38 C97.63 38 68.26 38 38 38 C38 88.16 38 138.32 38 190 C25.46 190 12.92 190 0 190 C0 127.3 0 64.6 0 0 Z " fill="#FEFEFE" transform="translate(117,98)"/>
<path d="M0 0 C1.11915802 -0.00095673 2.23831604 -0.00191345 3.39138794 -0.00289917 C5.7496954 -0.00357713 8.10800476 -0.0017497 10.46630859 0.00244141 C14.05180106 0.00778491 17.6371677 0.0024885 21.22265625 -0.00390625 C23.52343777 -0.0032452 25.82421922 -0.00196349 28.125 0 C29.71609085 -0.00303635 29.71609085 -0.00303635 31.33932495 -0.00613403 C54.15221939 0.06474793 54.15221939 0.06474793 62.0859375 8.03125 C67.46811776 14.85042013 68.50495882 21.22175374 68.49609375 29.703125 C68.50037888 30.62060516 68.504664 31.53808533 68.50907898 32.48336792 C68.51480659 34.42152078 68.51533414 36.35969512 68.51098633 38.29785156 C68.5078449 41.2275986 68.53124071 44.15631645 68.55664062 47.0859375 C68.64708936 72.99432273 68.64708936 72.99432273 60.2890625 81.51171875 C53.45152921 86.80570441 45.00839326 88.24407021 36.5480957 88.27807617 C35.46289139 88.28445602 34.37768707 88.29083588 33.25959778 88.29740906 C32.10014145 88.29852188 30.94068512 88.2996347 29.74609375 88.30078125 C28.53769333 88.30410965 27.32929291 88.30743805 26.08427429 88.31086731 C23.52990091 88.31592286 20.97552095 88.31827606 18.42114258 88.31811523 C14.53911262 88.32029493 10.6573701 88.33844692 6.77539062 88.35742188 C4.2864593 88.36035754 1.79752663 88.36234118 -0.69140625 88.36328125 C-2.41540901 88.37405952 -2.41540901 88.37405952 -4.17424011 88.38505554 C-14.42975954 88.35639665 -24.67385059 88.06907147 -32.8046875 81.1328125 C-38.97992575 73.78928593 -40.26674984 65.24656788 -40.203125 55.9453125 C-40.20599518 55.00276611 -40.20886536 54.06021973 -40.21182251 53.08911133 C-40.21385127 51.10920608 -40.20840522 49.12928023 -40.19580078 47.14941406 C-40.17973024 44.14081461 -40.19569034 41.13355831 -40.21484375 38.125 C-40.21286111 36.19010124 -40.209017 34.25520331 -40.203125 32.3203125 C-40.20919769 31.43255127 -40.21527039 30.54479004 -40.2215271 29.63012695 C-40.12289801 20.75245844 -38.05989481 13.39307425 -31.890625 6.859375 C-22.9511968 -0.53992699 -10.96495251 -0.02084533 0 0 Z " fill="#FCFCFC" transform="translate(489.8046875,200.8671875)"/>
<path d="M0 0 C13.48875 -0.0825 26.9775 -0.165 40.875 -0.25 C45.11714355 -0.28641602 49.35928711 -0.32283203 53.72998047 -0.36035156 C58.95336914 -0.37841797 58.95336914 -0.37841797 61.40701294 -0.3817749 C63.10244967 -0.38787397 64.79787022 -0.40185173 66.49319458 -0.42230225 C88.20931186 -0.67092094 88.20931186 -0.67092094 95.5 6.4375 C98.79322048 12.06341832 99.33864747 16.53136921 99.3125 22.9375 C99.32861328 23.72318359 99.34472656 24.50886719 99.36132812 25.31835938 C99.36620103 31.14148376 98.22104562 35.22369298 94.5 39.875 C93 41 93 41 90 41 C90 41.66 90 42.32 90 43 C90.721875 43.0825 91.44375 43.165 92.1875 43.25 C96.18335683 44.31556182 98.96410574 46.28836593 101.12353516 49.85644531 C102.69297578 53.69479871 102.36902984 57.65446777 102.375 61.75 C102.39949219 62.61882812 102.42398438 63.48765625 102.44921875 64.3828125 C102.48194464 71.64796031 100.7952725 77.04943458 95.75 82.375 C89.65572775 85.97616087 83.18464779 86.29170283 76.2890625 86.22705078 C75.44556244 86.22729185 74.60206238 86.22753292 73.73300171 86.2277813 C71.0302233 86.22630068 68.3277284 86.21112595 65.625 86.1953125 C63.94531385 86.19236818 62.26562586 86.19033014 60.5859375 86.18920898 C54.39059683 86.17876676 48.19529556 86.15084423 42 86.125 C28.14 86.08375 14.28 86.0425 0 86 C0 57.62 0 29.24 0 0 Z " fill="#FCFCFC" transform="translate(715,202)"/>
<path d="M0 0 C12.87 0 25.74 0 39 0 C42.52010961 6.99831316 46.03945053 13.99692023 49.55140686 20.99931335 C51.18697306 24.25987212 52.82395612 27.51970178 54.46435547 30.77783203 C56.043424 33.91428329 57.61860815 37.05265664 59.19108582 40.19241714 C60.08582608 41.97638845 60.9846072 43.7583312 61.88342285 45.54025269 C62.42398315 46.62122223 62.96454346 47.70219177 63.52148438 48.81591797 C64.00113647 49.77078094 64.48078857 50.72564392 64.97497559 51.70944214 C66 54 66 54 66 56 C66.66 56 67.32 56 68 56 C68.27798431 55.11871429 68.55596863 54.23742859 68.84237671 53.32943726 C69.89162041 50.31171026 71.08948715 47.57950538 72.52197266 44.72900391 C73.02234039 43.72841949 73.52270813 42.72783508 74.03823853 41.69692993 C74.57476044 40.63420868 75.11128235 39.57148743 75.6640625 38.4765625 C76.21613373 37.37524994 76.76820496 36.27393738 77.33700562 35.13925171 C79.09591494 31.63260103 80.86037615 28.12877791 82.625 24.625 C83.82113154 22.24389985 85.01599623 19.86216676 86.2109375 17.48046875 C89.13574292 11.65116906 92.06804242 5.82572758 95 0 C107.87 0 120.74 0 134 0 C134 28.38 134 56.76 134 86 C126.41 86 118.82 86 111 86 C111 64.88 111 43.76 111 22 C101.88776823 38.6510248 101.88776823 38.6510248 93.2890625 55.484375 C88.13505261 65.79239478 82.496233 75.87210998 77 86 C70.4 86 63.8 86 57 86 C48.0987498 70.38633162 39.63403513 54.55306762 31.72436523 38.41210938 C29.3029009 33.49738345 26.67282613 28.81108703 24 24 C23.67 44.46 23.34 64.92 23 86 C15.41 86 7.82 86 0 86 C0 57.62 0 29.24 0 0 Z " fill="#FCFCFC" transform="translate(569,202)"/>
<path d="M0 0 C13.86 -0.0825 27.72 -0.165 42 -0.25 C48.54714844 -0.30462402 48.54714844 -0.30462402 55.2265625 -0.36035156 C60.5859375 -0.37841797 60.5859375 -0.37841797 63.10058594 -0.3817749 C64.84444265 -0.38788852 66.5882832 -0.40189719 68.33203125 -0.42230225 C70.98467049 -0.45177206 73.63628302 -0.45561788 76.2890625 -0.45410156 C77.05658844 -0.468494 77.82411438 -0.48288643 78.61489868 -0.497715 C85.23412409 -0.44738992 90.48064164 1.61682317 95.3125 6.1875 C101.54284467 16.57140778 101.38644386 29.52424051 99.3125 41.25 C97.7570361 45.69418256 96.43379622 47.80577096 93 51 C90.1875 51.875 90.1875 51.875 88 52 C88 52.66 88 53.32 88 54 C89.36125 54.0928125 89.36125 54.0928125 90.75 54.1875 C94.80470106 55.20117526 95.80952947 56.51147286 98 60 C99.01085499 63.10791588 99.11658635 65.94714825 99.09765625 69.203125 C99.09515869 70.08645508 99.09266113 70.96978516 99.09008789 71.87988281 C99.08098389 72.99202148 99.07187988 74.10416016 99.0625 75.25 C99.041875 78.7975 99.02125 82.345 99 86 C90.75 86 82.5 86 74 86 C73.75 77.75 73.75 77.75 73.70214844 75.17089844 C73.6715332 74.4905957 73.64091797 73.81029297 73.609375 73.109375 C73.58842773 72.41811523 73.56748047 71.72685547 73.54589844 71.01464844 C72.6935768 67.86913941 71.71215972 66.85697422 69 65 C65.59399768 64.38375677 62.21996571 64.39502911 58.765625 64.390625 C57.77246277 64.37408875 56.77930054 64.35755249 55.75604248 64.34051514 C52.58729914 64.29197231 49.41903594 64.27064988 46.25 64.25 C44.10023618 64.22184563 41.95049479 64.19191896 39.80078125 64.16015625 C34.53363195 64.08287761 29.2680071 64.04241552 24 64 C24 71.26 24 78.52 24 86 C16.08 86 8.16 86 0 86 C0 57.62 0 29.24 0 0 Z " fill="#FCFCFC" transform="translate(587,99)"/>
<path d="M0 0 C10.89 0 21.78 0 33 0 C38.66007604 10.64432211 44.19626303 21.32959745 49.5625 32.125 C53.23057815 39.50387045 56.92689855 46.858042 60.8125 54.125 C63.71348843 59.55998036 66.58471667 65.00717405 69.375 70.5 C69.69702393 71.12277832 70.01904785 71.74555664 70.35083008 72.38720703 C72.79244182 77.23424891 74.2377018 81.71310541 76 87 C67.42 87 58.84 87 50 87 C48.845 84.89625 47.69 82.7925 46.5 80.625 C46.13455078 79.9645166 45.76910156 79.3040332 45.39257812 78.62353516 C43 74.22222222 43 74.22222222 43 72 C25.84 72.33 8.68 72.66 -9 73 C-11.31 77.62 -13.62 82.24 -16 87 C-25.24 87 -34.48 87 -44 87 C-33.08823242 63.35783691 -20.89097382 40.32970515 -8.79174805 17.27832031 C-5.78863972 11.55055235 -2.89365631 5.78731263 0 0 Z " fill="#F9F9F9" transform="translate(743,98)"/>
<path d="M0 0 C1.39120471 0.00015906 2.78241534 0.00585033 4.17358398 0.01586914 C4.90463852 0.01728409 5.63569305 0.01869904 6.38890076 0.02015686 C8.73253406 0.02577131 11.07607313 0.03832617 13.41967773 0.05102539 C15.00496282 0.05603853 16.59024939 0.06060176 18.17553711 0.06469727 C22.06945383 0.07574542 25.96329979 0.09301967 29.85717773 0.11352539 C35.17073255 10.71746316 40.48212533 21.32248074 45.79076195 31.92888165 C48.25584866 36.85383688 50.72167808 41.77841729 53.18920898 46.70214844 C55.57054803 51.45395998 57.94993067 56.2067464 60.32796097 60.96021461 C61.23549439 62.77343401 62.14373178 64.58630124 63.05268478 66.39880943 C64.32580791 68.93779534 65.59642076 71.47802263 66.86645508 74.01855469 C67.24264481 74.76733887 67.61883453 75.51612305 68.00642395 76.28759766 C68.35415359 76.98443161 68.70188324 77.68126556 69.06015015 78.3992157 C69.36065466 78.99930293 69.66115917 79.59939016 69.97076988 80.21766186 C71.02617517 82.47497986 71.93172426 84.79989172 72.85717773 87.11352539 C63.94717773 87.11352539 55.03717773 87.11352539 45.85717773 87.11352539 C42.39217773 80.18352539 42.39217773 80.18352539 38.85717773 73.11352539 C21.69717773 73.11352539 4.53717773 73.11352539 -13.14282227 73.11352539 C-15.45282227 77.73352539 -17.76282227 82.35352539 -20.14282227 87.11352539 C-29.38282227 87.11352539 -38.62282227 87.11352539 -48.14282227 87.11352539 C-43.75666868 78.26146997 -39.32723495 69.45164446 -34.64111328 60.75439453 C-32.1712483 56.14323802 -29.81460596 51.47923265 -27.48266602 46.79711914 C-23.2092235 38.21729262 -18.85432872 29.68032196 -14.4765625 21.15332031 C-13.18037189 18.62740402 -11.88717447 16.0999683 -10.59399414 13.57250977 C-9.76800273 11.96239113 -8.94183778 10.35236151 -8.11547852 8.74243164 C-7.73013443 7.98845596 -7.34479034 7.23448029 -6.94776917 6.45765686 C-3.69413023 0.1334398 -3.69413023 0.1334398 0 0 Z " fill="#FAFAFA" transform="translate(504.142822265625,97.886474609375)"/>
<path d="M0 0 C11.22 0 22.44 0 34 0 C42.91988396 16.95896434 51.59235983 34.02593749 60.14990234 51.16943359 C61.92914891 54.73374907 63.71211937 58.29618795 65.49605179 61.85816002 C66.88202946 64.62652183 68.2661208 67.39582323 69.64962006 70.16542435 C70.30771945 71.48228938 70.9664114 72.79885846 71.62570953 74.11512375 C72.53397653 75.92913798 73.43942943 77.74456041 74.34472656 79.56005859 C74.85924377 80.58988861 75.37376099 81.61971863 75.90386963 82.68075562 C77 85 77 85 77 86 C68.09 86 59.18 86 50 86 C46.535 79.07 46.535 79.07 43 72 C25.84 71.67 8.68 71.34 -9 71 C-9.66 72.98 -10.32 74.96 -11 77 C-12.65 79.97 -14.3 82.94 -16 86 C-24.91 86 -33.82 86 -43 86 C-41.69744841 82.09234524 -40.55667904 78.86369336 -38.75 75.26953125 C-38.31196045 74.39466064 -37.8739209 73.51979004 -37.42260742 72.6184082 C-36.95314697 71.6924585 -36.48368652 70.76650879 -36 69.8125 C-35.50798096 68.83563232 -35.01596191 67.85876465 -34.5090332 66.85229492 C-30.67049014 59.25840085 -26.72890443 51.7220468 -22.74609375 44.203125 C-19.69164905 38.43019024 -16.67880404 32.63570966 -13.67129517 26.83822632 C-12.78053168 25.12134749 -11.88869786 23.40502411 -10.99682617 21.6887207 C-10.43584229 20.60679443 -9.8748584 19.52486816 -9.296875 18.41015625 C-8.80541992 17.46277588 -8.31396484 16.51539551 -7.80761719 15.53930664 C-5.17099164 10.37680522 -2.59242031 5.18484061 0 0 Z " fill="#FBFBFB" transform="translate(862,202)"/>
<path d="M0 0 C29.04 0 58.08 0 88 0 C88 6.6 88 13.2 88 20 C66.88 20 45.76 20 24 20 C24 24.95 24 29.9 24 35 C43.8 35 63.6 35 84 35 C84 40.61 84 46.22 84 52 C64.2 52 44.4 52 24 52 C24 56.95 24 61.9 24 67 C45.45 67 66.9 67 89 67 C89 73.6 89 80.2 89 87 C59.63 87 30.26 87 0 87 C0 58.29 0 29.58 0 0 Z " fill="#FAFAFA" transform="translate(922,98)"/>
<path d="M0 0 C1.06482101 -0.0066568 2.12964203 -0.0133136 3.22673035 -0.02017212 C5.4663217 -0.03023816 7.70594269 -0.03499103 9.94555664 -0.03466797 C13.33596172 -0.03903736 16.72505912 -0.07541319 20.11523438 -0.11328125 C46.65574311 -0.25444508 46.65574311 -0.25444508 56.54296875 8.3359375 C62.08883614 14.8988121 60.82978071 23.30520257 60.54296875 31.3359375 C52.95296875 31.3359375 45.36296875 31.3359375 37.54296875 31.3359375 C36.55296875 27.8709375 36.55296875 27.8709375 35.54296875 24.3359375 C31.54278815 21.62883854 26.81687555 22.04563616 22.13671875 22.0703125 C21.33439819 22.06839905 20.53207764 22.0664856 19.70544434 22.06451416 C18.01440109 22.06315725 16.32334726 22.06681913 14.63232422 22.07519531 C12.05151863 22.08590203 9.47140907 22.07528346 6.890625 22.0625 C5.24348805 22.06382168 3.59635154 22.06638426 1.94921875 22.0703125 C0.79746155 22.06423981 0.79746155 22.06423981 -0.37756348 22.05804443 C-4.47260414 22.09369012 -7.94196314 22.12750944 -11.45703125 24.3359375 C-14.15280705 28.45654973 -14.83993524 31.74410232 -14.85546875 36.6171875 C-14.85933594 37.78894531 -14.86320312 38.96070313 -14.8671875 40.16796875 C-14.85558594 41.37839844 -14.84398437 42.58882812 -14.83203125 43.8359375 C-14.84363281 45.04636719 -14.85523438 46.25679687 -14.8671875 47.50390625 C-14.86138672 49.26154297 -14.86138672 49.26154297 -14.85546875 51.0546875 C-14.85208496 52.11623047 -14.84870117 53.17777344 -14.84521484 54.27148438 C-14.37408003 57.99078261 -13.58074862 60.23250165 -11.45703125 63.3359375 C-6.56233505 66.1733504 -2.13592511 66.77382269 3.41796875 66.69921875 C4.51020752 66.69996651 4.51020752 66.69996651 5.62451172 66.70072937 C7.15399932 66.69840358 8.68349183 66.68876412 10.21289062 66.67211914 C12.53681129 66.64850008 14.85958315 66.65157292 17.18359375 66.65820312 C18.67839217 66.65262567 20.17318581 66.64551536 21.66796875 66.63671875 C22.35358887 66.63763016 23.03920898 66.63854156 23.74560547 66.63948059 C28.38412669 66.57224278 32.17647432 65.76036454 36.54296875 64.3359375 C37.20296875 61.3659375 37.86296875 58.3959375 38.54296875 55.3359375 C46.13296875 55.3359375 53.72296875 55.3359375 61.54296875 55.3359375 C61.99069421 73.24495586 61.99069421 73.24495586 58.54296875 79.3359375 C51.76539854 86.42874354 43.46055636 88.06532583 33.96469116 88.4367981 C31.03466606 88.48391815 28.10618508 88.50071239 25.17578125 88.50390625 C24.10101532 88.50723465 23.02624939 88.51056305 21.91891479 88.51399231 C19.65476914 88.51903452 17.39061611 88.52140148 15.12646484 88.52124023 C11.68574645 88.52342621 8.24534928 88.54160971 4.8046875 88.56054688 C2.59505317 88.56348157 0.38541733 88.56546586 -1.82421875 88.56640625 C-3.34968826 88.57718452 -3.34968826 88.57718452 -4.90597534 88.58818054 C-12.98554253 88.56267122 -21.61598943 88.3334089 -28.39453125 83.4609375 C-29.10480469 82.96851563 -29.81507813 82.47609375 -30.546875 81.96875 C-34.14746786 78.89094261 -35.81047918 75.93270834 -37.08203125 71.3984375 C-37.32179688 70.56441406 -37.5615625 69.73039062 -37.80859375 68.87109375 C-39.13045132 63.70310842 -39.61662232 58.87606556 -39.625 53.54296875 C-39.6283284 52.79689865 -39.6316568 52.05082855 -39.63508606 51.28215027 C-39.64013427 49.7062542 -39.64249504 48.13034751 -39.64233398 46.55444336 C-39.64450838 44.17348018 -39.66265276 41.79298999 -39.68164062 39.41210938 C-39.7714763 16.02831187 -39.7714763 16.02831187 -31.45703125 7.3359375 C-22.13310268 0.74488454 -11.07551164 0.02461831 0 0 Z " fill="#FAFAFA" transform="translate(379.45703125,200.6640625)"/>
<path d="M0 0 C7.92 0 15.84 0 24 0 C24 10.89 24 21.78 24 33 C36.11226547 33.2815355 36.11226547 33.2815355 40.8737793 28.94897461 C41.97163815 27.62524303 43.03760077 26.27456184 44.07421875 24.90234375 C45.31023613 23.43997872 46.55199244 21.98244904 47.79882812 20.52929688 C48.43248291 19.77511475 49.0661377 19.02093262 49.71899414 18.24389648 C66.1374886 -0.99280414 66.1374886 -0.99280414 78.64453125 -2.12109375 C86.81649647 -2.52213938 94.98660401 -1.55716215 103 0 C99.43485059 4.30111028 95.79903556 8.26848397 91.625 12 C90.57722141 12.94431087 89.53039988 13.88968439 88.484375 14.8359375 C87.92685547 15.33963867 87.36933594 15.84333984 86.79492188 16.36230469 C83.45271911 19.41174649 80.16815367 22.52280432 76.875 25.625 C70.98599981 31.1636809 65.04832949 36.63501543 59 42 C60.54572776 45.81628832 62.88771245 47.97025743 65.9375 50.6875 C66.42549072 51.12392822 66.91348145 51.56035645 67.41625977 52.01000977 C71.56518076 55.69017127 75.86723257 59.17101119 80.18359375 62.65234375 C83.73669445 65.61408234 87.11293002 68.74050138 90.49511719 71.89404297 C94.80595049 75.88769593 99.30826193 79.57577803 103.91796875 83.22265625 C106 85 106 85 107 87 C102.07490843 87.27466192 97.15438286 87.47271023 92.22338867 87.60424805 C90.5516997 87.65912876 88.88052797 87.73387405 87.21069336 87.82983398 C72.58702224 88.64833937 72.58702224 88.64833937 67.50927734 84.61889648 C64.70465515 81.98785888 62.36694287 79.02717379 60 76 C58.78248731 74.86011102 57.53959517 73.74515227 56.25 72.6875 C53.53596406 70.42857847 51.06393378 68.04748898 48.62890625 65.49609375 C48.00274414 64.8616333 47.37658203 64.22717285 46.73144531 63.57348633 C45.48630266 62.30917545 44.26374526 61.02206149 43.06933594 59.7097168 C36.7044442 53.35950264 34.40806647 54.8006205 24 54 C24 64.89 24 75.78 24 87 C16.08 87 8.16 87 0 87 C0 58.29 0 29.58 0 0 Z " fill="#FAFAFA" transform="translate(341,98)"/>
<path d="M0 0 C31.68 0 63.36 0 96 0 C96 7.26 96 14.52 96 22 C84.12 22 72.24 22 60 22 C60 43.45 60 64.9 60 87 C52.08 87 44.16 87 36 87 C36 65.55 36 44.1 36 22 C24.12 22 12.24 22 0 22 C0 14.74 0 7.48 0 0 Z " fill="#F9F9F9" transform="translate(812,98)"/>
<path d="M0 0 C29.37 0 58.74 0 89 0 C89 6.93 89 13.86 89 21 C80.09 21 71.18 21 62 21 C62 42.45 62 63.9 62 86 C54.08 86 46.16 86 38 86 C38 64.55 38 43.1 38 21 C25.46 21 12.92 21 0 21 C0 14.07 0 7.14 0 0 Z " fill="#FEFEFE" transform="translate(922,202)"/>
<path d="M0 0 C0.8211882 -0.0033284 1.6423764 -0.0066568 2.4884491 -0.01008606 C4.22414593 -0.01514184 5.95985245 -0.0174948 7.69555664 -0.01733398 C10.33561457 -0.01951485 12.97525062 -0.03766921 15.61523438 -0.05664062 C17.30598816 -0.05957605 18.99674392 -0.06155985 20.6875 -0.0625 C21.8612896 -0.07327827 21.8612896 -0.07327827 23.05879211 -0.08427429 C28.46372483 -0.06202368 33.97046912 0.19571903 38.41796875 3.60546875 C41.83532377 8.35179516 40.80496076 14.88769438 40.83813477 20.45483398 C40.85531893 22.46296067 40.89922299 24.47080049 40.94335938 26.47851562 C40.95173828 27.75404297 40.96011719 29.02957031 40.96875 30.34375 C40.98333252 31.50817627 40.99791504 32.67260254 41.01293945 33.87231445 C40.42279787 38.01066314 39.28984949 40.0221992 36.54296875 43.16796875 C31.21646241 46.25403171 26.556219 46.6236521 20.57421875 46.6015625 C19.73507935 46.60680435 18.89593994 46.6120462 18.03137207 46.6174469 C16.26653138 46.62383783 14.50164793 46.62256828 12.73681641 46.61401367 C10.0503301 46.6054921 7.36596493 46.63432276 4.6796875 46.66601562 C2.95703188 46.66762774 1.23437253 46.66704992 -0.48828125 46.6640625 C-1.68076477 46.68091347 -1.68076477 46.68091347 -2.89733887 46.69810486 C-8.52154189 46.62847137 -11.85923746 45.46101793 -16.45703125 42.16796875 C-20.47218624 36.88180291 -19.87585585 29.34589109 -19.76953125 23.04296875 C-19.77275391 22.08003906 -19.77597656 21.11710937 -19.77929688 20.125 C-19.73001225 13.61046878 -19.4358691 8.51132936 -15.08203125 3.35546875 C-10.49156412 -0.46992052 -5.77678113 0.00815185 0 0 Z " fill="#040404" transform="translate(493.45703125,221.83203125)"/>
<path d="M0 0 C6.62097253 -0.09181626 13.23973795 -0.17146077 19.86083984 -0.21972656 C22.11319461 -0.23984556 24.36549713 -0.26714408 26.61767578 -0.30175781 C29.85462331 -0.35026209 33.09088047 -0.37296605 36.328125 -0.390625 C37.83925873 -0.42159271 37.83925873 -0.42159271 39.38092041 -0.45318604 C46.37550715 -0.45543255 46.37550715 -0.45543255 49.60449219 1.89941406 C52.63867253 6.46660925 52.48209306 10.62085641 52 16 C50.6875 19.0625 50.6875 19.0625 49 21 C46.14512885 21.95162372 44.39545683 22.12163139 41.43676758 22.11352539 C40.51603958 22.11344986 39.59531158 22.11337433 38.64668274 22.11329651 C37.65597275 22.10813522 36.66526276 22.10297394 35.64453125 22.09765625 C34.62775803 22.0962413 33.6109848 22.09482635 32.56340027 22.09336853 C29.31307036 22.08776707 26.06280912 22.07521432 22.8125 22.0625 C20.61002704 22.05748519 18.40755299 22.05292225 16.20507812 22.04882812 C10.80333762 22.03864769 5.40174575 22.01907246 0 22 C0 14.74 0 7.48 0 0 Z " fill="#030303" transform="translate(611,120)"/>
<path d="M0 0 C7.1899005 -0.09882502 14.37940628 -0.17144928 21.56982422 -0.21972656 C24.01618333 -0.23985052 26.46249429 -0.2671526 28.90869141 -0.30175781 C32.42362341 -0.35023963 35.93791984 -0.37296128 39.453125 -0.390625 C40.5480426 -0.41127014 41.64296021 -0.43191528 42.77105713 -0.45318604 C43.79181335 -0.45348816 44.81256958 -0.45379028 45.86425781 -0.45410156 C46.76138489 -0.46298401 47.65851196 -0.47186646 48.58282471 -0.48101807 C51.81293254 0.16177364 53.00215222 1.42957863 55 4 C55.44902962 8.1909431 55.44565826 11.46738251 53 15 C50.51644959 16.24177521 48.86892378 16.12036681 46.09130859 16.11352539 C45.07040131 16.11344986 44.04949402 16.11337433 42.99765015 16.11329651 C41.33978989 16.10555458 41.33978989 16.10555458 39.6484375 16.09765625 C38.5192691 16.0962413 37.39010071 16.09482635 36.22671509 16.09336853 C32.60945012 16.08775744 28.99224636 16.07520303 25.375 16.0625 C22.92708423 16.05748643 20.47916748 16.05292328 18.03125 16.04882812 C12.02080964 16.03778439 6.01041521 16.02051229 0 16 C0 10.72 0 5.44 0 0 Z " fill="#090909" transform="translate(738,253)"/>
<path d="M0 0 C6.45950866 -0.0989613 12.91857494 -0.17151336 19.37866211 -0.21972656 C21.57568042 -0.23982767 23.77264532 -0.26711306 25.96948242 -0.30175781 C29.12952866 -0.35034093 32.28886687 -0.37298405 35.44921875 -0.390625 C36.91979988 -0.42159271 36.91979988 -0.42159271 38.42008972 -0.45318604 C42.75384876 -0.45460833 45.3124446 -0.39737124 49.12426758 1.80566406 C51 4 51 4 51.5625 7.5 C51 11 51 11 49.63183594 13.19433594 C45.45136549 16.06249544 41.27589352 15.49201978 36.328125 15.390625 C35.29057068 15.38496521 34.25301636 15.37930542 33.184021 15.37347412 C29.87221008 15.35109491 26.56148356 15.30089419 23.25 15.25 C21.00392188 15.22993706 18.75782679 15.21168594 16.51171875 15.1953125 C11.00739508 15.1512248 5.50388135 15.08218523 0 15 C0 10.05 0 5.1 0 0 Z " fill="#010101" transform="translate(739,221)"/>
<path d="M0 0 C0.66 0 1.32 0 2 0 C6.33333333 8.66666667 10.66666667 17.33333333 15 26 C15.83954224 27.61720947 15.83954224 27.61720947 16.69604492 29.26708984 C18 32 18 32 18 34 C6.78 34 -4.44 34 -16 34 C-14.38563085 29.96407713 -12.63982138 26.07041153 -10.7421875 22.16796875 C-10.43427277 21.53135818 -10.12635803 20.89474762 -9.80911255 20.23884583 C-8.83265837 18.22095933 -7.85386723 16.20421686 -6.875 14.1875 C-6.20948032 12.81322614 -5.54411412 11.43887794 -4.87890625 10.06445312 C-3.25437932 6.70877337 -1.6277556 3.35411502 0 0 Z " fill="#0E0E0E" transform="translate(516,118)"/>
<path d="M0 0 C0.66 0 1.32 0 2 0 C2.235979 0.50748779 2.47195801 1.01497559 2.71508789 1.5378418 C7.15184044 11.05530493 11.63975405 20.46985699 16.78515625 29.62890625 C18 32 18 32 18 34 C7.11 34 -3.78 34 -15 34 C-14.11809058 29.59045289 -13.09943205 26.85798678 -11.09375 22.9296875 C-10.22556641 21.21458984 -10.22556641 21.21458984 -9.33984375 19.46484375 C-8.72688967 18.26806154 -8.11360492 17.07144864 -7.5 15.875 C-6.29920785 13.51967312 -5.10241058 11.16237594 -3.90625 8.8046875 C-3.37322266 7.76296387 -2.84019531 6.72124023 -2.29101562 5.64794922 C-0.92428967 2.99204891 -0.92428967 2.99204891 0 0 Z " fill="#0A0A0A" transform="translate(878,221)"/>
<path d="M0 0 C3.08431564 2.63727954 4.55936095 5.74606083 6.35546875 9.34765625 C6.66196854 9.96015732 6.96846832 10.57265839 7.28425598 11.20372009 C7.92830913 12.49415996 8.56942177 13.78607112 9.20776367 15.0793457 C10.18756483 17.06263122 11.17798786 19.04033772 12.16992188 21.01757812 C17 30.72081243 17 30.72081243 17 33 C6.44 33 -4.12 33 -15 33 C-14.21807364 29.09036822 -13.52114235 26.63505115 -11.85546875 23.1640625 C-11.42556641 22.26429688 -10.99566406 21.36453125 -10.55273438 20.4375 C-10.10220703 19.509375 -9.65167969 18.58125 -9.1875 17.625 C-8.74857422 16.70460937 -8.30964844 15.78421875 -7.85742188 14.8359375 C-5.4212344 9.76808837 -2.86061578 4.84104209 0 0 Z " fill="#050505" transform="translate(759,118)"/>
<path d="M0 0 C0.66 0.33 1.32 0.66 2 1 C1.01 1.33 0.02 1.66 -1 2 C-2.64820195 4.60242414 -3 5.86248779 -3 9 C-4.98 9.66 -6.96 10.32 -9 11 C-7.59928507 5.70841026 -4.14512755 3.22521956 0 0 Z " fill="#E5E5E5" transform="translate(462,205)"/>
<path d="M0 0 C0.99 0.99 1.98 1.98 3 3 C3 3.66 3 4.32 3 5 C2.34 5 1.68 5 1 5 C0.67 5.66 0.34 6.32 0 7 C-1.98 7.99 -1.98 7.99 -4 9 C-2.68 6.03 -1.36 3.06 0 0 Z " fill="#E3E3E3" transform="translate(740,104)"/>
<path d="M0 0 C0.66 0.33 1.32 0.66 2 1 C2 1.66 2 2.32 2 3 C2.66 3.33 3.32 3.66 4 4 C3.01 4 2.02 4 1 4 C0.67 4.66 0.34 5.32 0 6 C-0.99 4.68 -1.98 3.36 -3 2 C-2.01 1.34 -1.02 0.68 0 0 Z " fill="#121212" transform="translate(436,169)"/>
<path d="M0 0 C0.99 0.33 1.98 0.66 3 1 C1.68 3.31 0.36 5.62 -1 8 C-1.66 7.34 -2.32 6.68 -3 6 C-2.01 4.02 -1.02 2.04 0 0 Z " fill="#EBEBEB" transform="translate(657,261)"/>
<path d="M0 0 C0.66 0.33 1.32 0.66 2 1 C0.25 6.75 0.25 6.75 -2 9 C-2.25 3.375 -2.25 3.375 0 0 Z " fill="#E5E5E5" transform="translate(876,221)"/>
</svg>
