<?xml version="1.0" encoding="UTF-8" standalone="no"?>
<svg
   xmlns:dc="http://purl.org/dc/elements/1.1/"
   xmlns:cc="http://creativecommons.org/ns#"
   xmlns:rdf="http://www.w3.org/1999/02/22-rdf-syntax-ns#"
   xmlns:svg="http://www.w3.org/2000/svg"
   xmlns="http://www.w3.org/2000/svg"
   xmlns:sodipodi="http://sodipodi.sourceforge.net/DTD/sodipodi-0.dtd"
   xmlns:inkscape="http://www.inkscape.org/namespaces/inkscape"
   version="1.1"
   width="1125"
   height="380"
   id="svg56"
   sodipodi:docname="karate_combat_logo_white.svg"
   inkscape:version="1.0.1 (3bc2e813f5, 2020-09-07)">
  <metadata
     id="metadata62">
    <rdf:RDF>
      <cc:Work
         rdf:about="">
        <dc:format>image/svg+xml</dc:format>
        <dc:type
           rdf:resource="http://purl.org/dc/dcmitype/StillImage" />
        <dc:title></dc:title>
      </cc:Work>
    </rdf:RDF>
  </metadata>
  <defs
     id="defs60" />
  <sodipodi:namedview
     pagecolor="#ffffff"
     bordercolor="#666666"
     borderopacity="1"
     objecttolerance="10"
     gridtolerance="10"
     guidetolerance="10"
     inkscape:pageopacity="0"
     inkscape:pageshadow="2"
     inkscape:window-width="1920"
     inkscape:window-height="991"
     id="namedview58"
     showgrid="false"
     inkscape:zoom="0.42174991"
     inkscape:cx="562.5"
     inkscape:cy="190"
     inkscape:window-x="-9"
     inkscape:window-y="-9"
     inkscape:window-maximized="1"
     inkscape:current-layer="svg56" />
  <path
     d="M0 0 C12.54 0 25.08 0 38 0 C38 62.7 38 125.4 38 190 C-3.91 190 -45.82 190 -89 190 C-89 177.46 -89 164.92 -89 152 C-59.63 152 -30.26 152 0 152 C0 101.84 0 51.68 0 0 Z "
     fill="#FCFCFC"
     transform="translate(269,98)"
     id="path4"
     style="fill:#ffffff" />
  <path
     d="M0 0 C41.91 0 83.82 0 127 0 C127 12.54 127 25.08 127 38 C97.63 38 68.26 38 38 38 C38 88.16 38 138.32 38 190 C25.46 190 12.92 190 0 190 C0 127.3 0 64.6 0 0 Z "
     fill="#FEFEFE"
     transform="translate(117,98)"
     id="path6"
     style="fill:#ffffff" />
  <path
     id="path8"
     style="fill:#ffffff"
     d="M 485.65234 200.85156 C 475.89022 200.8394 465.73606 201.25217 457.91406 207.72656 C 451.74479 214.26026 449.68261 221.62038 449.58398 230.49805 L 449.60156 233.1875 C 449.59567 235.12239 449.59183 237.05729 449.58984 238.99219 C 449.609 242.00075 449.62545 245.00703 449.60938 248.01562 C 449.59677 249.99549 449.59172 251.97713 449.59375 253.95703 L 449.60156 256.8125 C 449.53794 266.11376 450.82476 274.65647 457 282 C 465.13084 288.93626 475.37534 289.22329 485.63086 289.25195 L 489.11328 289.23047 C 491.60221 289.22953 494.09115 289.22755 496.58008 289.22461 C 500.46206 289.20563 504.34453 289.18773 508.22656 289.18555 C 510.78094 289.18571 513.3343 289.18279 515.88867 289.17773 L 519.55078 289.16797 L 523.06445 289.16406 L 526.35352 289.14453 C 534.81381 289.11053 543.25622 287.67289 550.09375 282.37891 C 558.45178 273.86151 558.45178 273.86151 558.36133 247.95312 C 558.33593 245.0235 558.31326 242.09381 558.31641 239.16406 C 558.32075 237.22591 558.32018 235.28776 558.31445 233.34961 L 558.30078 230.57031 C 558.30965 222.08894 557.27281 215.71761 551.89062 208.89844 C 543.95691 200.93194 543.95743 200.93221 521.14453 200.86133 L 517.92969 200.86719 C 515.62891 200.86522 513.32813 200.86394 511.02734 200.86328 C 507.44186 200.86968 503.85698 200.87448 500.27148 200.86914 C 497.91318 200.86495 495.55362 200.86456 493.19531 200.86523 L 489.80469 200.86719 C 488.43407 200.86458 487.04693 200.8533 485.65234 200.85156 z M 516.51562 221.74805 C 521.92056 221.7703 527.4275 222.02775 531.875 225.4375 C 535.29236 230.18383 534.26175 236.71997 534.29492 242.28711 C 534.31211 244.29524 534.35625 246.30283 534.40039 248.31055 L 534.42578 252.17578 L 534.4707 255.70508 C 533.88056 259.84343 532.74688 261.85423 530 265 C 524.67349 268.08606 520.01325 268.45568 514.03125 268.43359 L 511.48828 268.44922 C 509.72344 268.45561 507.95819 268.45387 506.19336 268.44531 C 503.50687 268.43679 500.823 268.46635 498.13672 268.49805 C 496.41406 268.49966 494.6914 268.49908 492.96875 268.49609 L 490.56055 268.5293 C 484.93634 268.45966 481.59779 267.29305 477 264 C 472.98485 258.71383 473.58118 251.17792 473.6875 244.875 L 473.67773 241.95703 C 473.72702 235.4425 474.02116 230.34336 478.375 225.1875 C 482.96547 221.36211 487.68025 221.84018 493.45703 221.83203 L 495.94531 221.82227 C 497.68101 221.81721 499.41664 221.81429 501.15234 221.81445 C 503.7924 221.81227 506.43228 221.79436 509.07227 221.77539 C 510.76302 221.77246 512.45378 221.77047 514.14453 221.76953 L 516.51562 221.74805 z " />
  <path
     id="path10"
     style="fill:#ffffff"
     d="M 788.67578 201.50977 C 786.58324 201.51968 784.20866 201.54706 781.49414 201.57812 C 779.79882 201.59858 778.10169 201.61304 776.40625 201.61914 C 773.95261 201.6225 773.95386 201.62256 768.73047 201.64062 L 755.875 201.75 L 715 202 L 715 288 L 757 288.125 C 763.1953 288.15084 769.3906 288.17901 775.58594 288.18945 C 777.26563 288.19057 778.94531 288.19237 780.625 288.19531 C 783.32773 288.21113 786.02964 288.22704 788.73242 288.22852 L 791.28906 288.22656 C 798.18465 288.29121 804.65573 287.97616 810.75 284.375 C 815.79527 279.04943 817.48194 273.64796 817.44922 266.38281 L 817.375 263.75 C 817.36903 259.65447 817.69249 255.69382 816.12305 251.85547 C 813.96362 248.28739 811.18336 246.31556 807.1875 245.25 L 805 245 L 805 243 C 808 243 808 243 809.5 241.875 C 813.22105 237.22369 814.3662 233.14148 814.36133 227.31836 L 814.3125 224.9375 C 814.33865 218.53137 813.79322 214.06342 810.5 208.4375 C 804.12065 202.21763 803.32356 201.4404 788.67578 201.50977 z M 777.41992 220.54688 C 781.75368 220.54545 784.31318 220.60165 788.125 222.80469 C 790.00073 224.99902 790 225 790.5625 228.5 C 790 232 790.00098 232.00098 788.63281 234.19531 C 784.45234 237.06347 780.27589 236.49202 775.32812 236.39062 L 772.18359 236.37305 C 768.87178 236.35067 765.56148 236.30089 762.25 236.25 C 760.00392 236.22994 757.75783 236.21169 755.51172 236.19531 C 750.0074 236.15122 744.50388 236.08219 739 236 L 739 221 C 745.45951 220.90104 751.91882 220.82946 758.37891 220.78125 C 760.57592 220.76115 762.77191 220.73386 764.96875 220.69922 C 768.1288 220.65064 771.28887 220.62702 774.44922 220.60938 L 777.41992 220.54688 z M 786.58203 252.51953 C 789.81214 253.16232 791.00215 254.42958 793 257 C 793.44903 261.19094 793.44566 264.46738 791 268 C 788.51645 269.24178 786.86941 269.12012 784.0918 269.11328 L 780.99805 269.11328 L 777.64844 269.09766 L 774.22656 269.09375 C 770.6093 269.08814 766.99225 269.0752 763.375 269.0625 C 760.92708 269.05749 758.47917 269.05292 756.03125 269.04883 C 750.02081 269.03778 744.01042 269.02051 738 269 L 738 253 C 745.1899 252.90117 752.37989 252.82953 759.57031 252.78125 C 762.01667 252.76113 764.46201 252.73382 766.9082 252.69922 C 770.42314 252.65074 773.93792 252.62704 777.45312 252.60938 L 780.77148 252.54688 L 783.86328 252.54688 L 786.58203 252.51953 z " />
  <path
     d="M0 0 C12.87 0 25.74 0 39 0 C42.52010961 6.99831316 46.03945053 13.99692023 49.55140686 20.99931335 C51.18697306 24.25987212 52.82395612 27.51970178 54.46435547 30.77783203 C56.043424 33.91428329 57.61860815 37.05265664 59.19108582 40.19241714 C60.08582608 41.97638845 60.9846072 43.7583312 61.88342285 45.54025269 C62.42398315 46.62122223 62.96454346 47.70219177 63.52148438 48.81591797 C64.00113647 49.77078094 64.48078857 50.72564392 64.97497559 51.70944214 C66 54 66 54 66 56 C66.66 56 67.32 56 68 56 C68.27798431 55.11871429 68.55596863 54.23742859 68.84237671 53.32943726 C69.89162041 50.31171026 71.08948715 47.57950538 72.52197266 44.72900391 C73.02234039 43.72841949 73.52270813 42.72783508 74.03823853 41.69692993 C74.57476044 40.63420868 75.11128235 39.57148743 75.6640625 38.4765625 C76.21613373 37.37524994 76.76820496 36.27393738 77.33700562 35.13925171 C79.09591494 31.63260103 80.86037615 28.12877791 82.625 24.625 C83.82113154 22.24389985 85.01599623 19.86216676 86.2109375 17.48046875 C89.13574292 11.65116906 92.06804242 5.82572758 95 0 C107.87 0 120.74 0 134 0 C134 28.38 134 56.76 134 86 C126.41 86 118.82 86 111 86 C111 64.88 111 43.76 111 22 C101.88776823 38.6510248 101.88776823 38.6510248 93.2890625 55.484375 C88.13505261 65.79239478 82.496233 75.87210998 77 86 C70.4 86 63.8 86 57 86 C48.0987498 70.38633162 39.63403513 54.55306762 31.72436523 38.41210938 C29.3029009 33.49738345 26.67282613 28.81108703 24 24 C23.67 44.46 23.34 64.92 23 86 C15.41 86 7.82 86 0 86 C0 57.62 0 29.24 0 0 Z "
     fill="#FCFCFC"
     transform="translate(569,202)"
     id="path12"
     style="fill:#ffffff" />
  <path
     id="path14"
     style="fill:#ffffff"
     d="M 665.61523 98.501953 L 663.28906 98.546875 C 660.63628 98.545359 657.98467 98.548655 655.33203 98.578125 C 653.58828 98.59853 651.84542 98.613027 650.10156 98.619141 C 647.58691 98.622498 647.58594 98.622559 642.22656 98.640625 L 629 98.75 L 587 99 L 587 185 L 611 185 L 611 163 C 616.26801 163.04242 621.53363 163.08288 626.80078 163.16016 C 628.95049 163.19192 631.10024 163.22185 633.25 163.25 C 636.41904 163.27065 639.58712 163.2913 642.75586 163.33984 L 645.76562 163.39062 C 649.21997 163.39503 652.594 163.38376 656 164 C 658.71216 165.85697 659.69455 166.87012 660.54688 170.01562 L 660.60938 172.10938 L 660.70312 174.17188 C 660.75098 176.75098 660.75 176.75 661 185 L 686 185 L 686.0625 174.25 L 686.08984 170.87891 L 686.09766 168.20312 C 686.11659 164.94715 686.01085 162.10792 685 159 C 682.80953 155.51147 681.8047 154.20118 677.75 153.1875 L 675 153 L 675 151 C 677.1875 150.875 677.1875 150.875 680 150 C 683.4338 146.80577 684.75704 144.69418 686.3125 140.25 C 688.38644 128.52424 688.54284 115.57141 682.3125 105.1875 C 677.48064 100.61682 672.23446 98.552278 665.61523 98.501953 z M 650.38086 119.54688 C 657.37545 119.54463 657.37648 119.54359 660.60547 121.89844 C 663.63965 126.46563 663.48209 130.62086 663 136 C 661.6875 139.0625 661.6875 139.0625 660 141 C 657.14513 141.95162 655.39619 142.12139 652.4375 142.11328 L 649.64648 142.11328 L 646.64453 142.09766 L 643.5625 142.09375 C 640.31217 142.08815 637.06281 142.07521 633.8125 142.0625 C 631.61003 142.05749 629.40755 142.05292 627.20508 142.04883 C 621.80334 142.03865 616.40175 142.01907 611 142 L 611 120 C 617.62097 119.90818 624.24023 119.82952 630.86133 119.78125 C 633.11368 119.76113 635.36501 119.73383 637.61719 119.69922 C 640.85414 119.65071 644.09088 119.62703 647.32812 119.60938 L 650.38086 119.54688 z " />
  <path
     id="path16"
     style="fill:#ffffff"
     d="M 743 98 C 740.10634 103.78731 737.21209 109.54958 734.20898 115.27734 C 722.10976 138.32873 709.91177 161.35784 699 185 L 727 185 L 734 171 L 786 170 C 786 172.22222 786 172.22173 788.39258 176.62305 L 789.5 178.625 L 793 185 L 819 185 C 817.2377 179.71311 815.79317 175.23376 813.35156 170.38672 L 812.375 168.5 C 809.58472 163.00717 806.71349 157.55998 803.8125 152.125 C 799.9269 144.85804 796.23058 137.50387 792.5625 130.125 C 787.19626 119.3296 781.66008 108.64432 776 98 L 743 98 z M 759 118 C 762.08432 120.63728 763.55936 123.74606 765.35547 127.34766 L 766.28516 129.20312 C 766.92921 130.49356 767.56869 131.7868 768.20703 133.08008 C 769.18683 135.06336 770.17799 137.04034 771.16992 139.01758 C 776 148.72081 776 148.72081 776 151 L 744 151 C 744.78193 147.09037 745.47886 144.63505 747.14453 141.16406 L 748.44727 138.4375 L 749.8125 135.625 L 751.14258 132.83594 C 753.57877 127.76809 756.13938 122.84104 759 118 z " />
  <path
     id="path18"
     style="fill:#ffffff"
     d="M 504.14258 97.886719 C 500.44845 98.020159 500.44895 98.019533 497.19531 104.34375 L 496.02734 106.62891 C 495.20098 108.23884 494.37482 109.84887 493.54883 111.45898 C 492.25565 113.98644 490.96221 116.51315 489.66602 119.03906 C 485.28825 127.56606 480.9336 136.10377 476.66016 144.68359 C 474.32822 149.36571 471.97182 154.02947 469.50195 158.64062 C 464.81583 167.33787 460.38615 176.14794 456 185 L 484 185 L 491 171 L 543 171 L 550 185 L 577 185 C 576.07455 182.68637 575.16869 180.36083 574.11328 178.10352 L 573.20312 176.28516 L 572.14844 174.17383 L 571.00977 171.9043 C 569.73973 169.36376 568.46844 166.82414 567.19531 164.28516 C 566.28636 162.47265 565.37824 160.66088 564.4707 158.84766 C 562.09267 154.09419 559.71337 149.3397 557.33203 144.58789 C 554.8645 139.66416 552.39868 134.73941 549.93359 129.81445 C 544.62496 119.20805 539.31355 108.60394 534 98 C 530.10612 97.979494 526.21228 97.96222 522.31836 97.951172 C 520.73307 97.947076 519.14779 97.942513 517.5625 97.9375 C 515.2189 97.924801 512.87488 97.911864 510.53125 97.90625 L 508.31641 97.902344 C 506.92524 97.892325 505.53378 97.886878 504.14258 97.886719 z M 516 118 L 518 118 L 531 144 L 532.69531 147.26758 C 533.99927 150.00049 534 150 534 152 L 500 152 C 501.61437 147.96408 503.36018 144.07041 505.25781 140.16797 L 506.19141 138.23828 C 507.16786 136.22039 508.14613 134.20422 509.125 132.1875 C 509.79052 130.81323 510.45589 129.43888 511.12109 128.06445 C 512.74562 124.70877 514.37224 121.35412 516 118 z " />
  <path
     id="path20"
     style="fill:#ffffff"
     d="M 862 202 C 859.40758 207.18484 856.82803 212.37656 854.19141 217.53906 L 852.70312 220.41016 L 851.00391 223.68945 C 850.11203 225.40576 849.21889 227.12101 848.32812 228.83789 C 845.32062 234.63537 842.30835 240.43019 839.25391 246.20312 C 835.2711 253.72205 831.32878 261.25767 827.49023 268.85156 L 826 271.8125 L 824.57812 274.61914 L 823.25 277.26953 C 821.44332 280.86369 820.30255 284.09235 819 288 L 846 288 L 851 279 L 853 273 L 905 274 L 912 288 L 939 288 C 939 287 939.00043 287.00089 937.9043 284.68164 L 936.34375 281.56055 C 935.43845 279.74505 934.53327 277.92925 933.625 276.11523 C 932.9657 274.79897 932.30849 273.48288 931.65039 272.16602 C 930.26689 269.39641 928.88207 266.62578 927.49609 263.85742 C 925.71216 260.29545 923.92964 256.73424 922.15039 253.16992 C 913.59285 236.02643 904.91988 218.95896 896 202 L 862 202 z M 878 221 L 880 221 L 880.71484 222.53711 C 885.1516 232.05457 889.63975 241.46986 894.78516 250.62891 C 896 253 896 253 896 255 L 863 255 C 863.88191 250.59045 864.90057 247.85799 866.90625 243.92969 L 868.66016 240.46484 C 869.27311 239.26806 869.8864 238.07145 870.5 236.875 C 871.70079 234.51967 872.89759 232.16238 874.09375 229.80469 L 875.70898 226.64844 C 877.07571 223.99254 877.07571 223.99205 878 221 z " />
  <path
     d="M0 0 C29.04 0 58.08 0 88 0 C88 6.6 88 13.2 88 20 C66.88 20 45.76 20 24 20 C24 24.95 24 29.9 24 35 C43.8 35 63.6 35 84 35 C84 40.61 84 46.22 84 52 C64.2 52 44.4 52 24 52 C24 56.95 24 61.9 24 67 C45.45 67 66.9 67 89 67 C89 73.6 89 80.2 89 87 C59.63 87 30.26 87 0 87 C0 58.29 0 29.58 0 0 Z "
     fill="#FAFAFA"
     transform="translate(922,98)"
     id="path22"
     style="fill:#ffffff" />
  <path
     d="M0 0 C1.06482101 -0.0066568 2.12964203 -0.0133136 3.22673035 -0.02017212 C5.4663217 -0.03023816 7.70594269 -0.03499103 9.94555664 -0.03466797 C13.33596172 -0.03903736 16.72505912 -0.07541319 20.11523438 -0.11328125 C46.65574311 -0.25444508 46.65574311 -0.25444508 56.54296875 8.3359375 C62.08883614 14.8988121 60.82978071 23.30520257 60.54296875 31.3359375 C52.95296875 31.3359375 45.36296875 31.3359375 37.54296875 31.3359375 C36.55296875 27.8709375 36.55296875 27.8709375 35.54296875 24.3359375 C31.54278815 21.62883854 26.81687555 22.04563616 22.13671875 22.0703125 C21.33439819 22.06839905 20.53207764 22.0664856 19.70544434 22.06451416 C18.01440109 22.06315725 16.32334726 22.06681913 14.63232422 22.07519531 C12.05151863 22.08590203 9.47140907 22.07528346 6.890625 22.0625 C5.24348805 22.06382168 3.59635154 22.06638426 1.94921875 22.0703125 C0.79746155 22.06423981 0.79746155 22.06423981 -0.37756348 22.05804443 C-4.47260414 22.09369012 -7.94196314 22.12750944 -11.45703125 24.3359375 C-14.15280705 28.45654973 -14.83993524 31.74410232 -14.85546875 36.6171875 C-14.85933594 37.78894531 -14.86320312 38.96070313 -14.8671875 40.16796875 C-14.85558594 41.37839844 -14.84398437 42.58882812 -14.83203125 43.8359375 C-14.84363281 45.04636719 -14.85523438 46.25679687 -14.8671875 47.50390625 C-14.86138672 49.26154297 -14.86138672 49.26154297 -14.85546875 51.0546875 C-14.85208496 52.11623047 -14.84870117 53.17777344 -14.84521484 54.27148438 C-14.37408003 57.99078261 -13.58074862 60.23250165 -11.45703125 63.3359375 C-6.56233505 66.1733504 -2.13592511 66.77382269 3.41796875 66.69921875 C4.51020752 66.69996651 4.51020752 66.69996651 5.62451172 66.70072937 C7.15399932 66.69840358 8.68349183 66.68876412 10.21289062 66.67211914 C12.53681129 66.64850008 14.85958315 66.65157292 17.18359375 66.65820312 C18.67839217 66.65262567 20.17318581 66.64551536 21.66796875 66.63671875 C22.35358887 66.63763016 23.03920898 66.63854156 23.74560547 66.63948059 C28.38412669 66.57224278 32.17647432 65.76036454 36.54296875 64.3359375 C37.20296875 61.3659375 37.86296875 58.3959375 38.54296875 55.3359375 C46.13296875 55.3359375 53.72296875 55.3359375 61.54296875 55.3359375 C61.99069421 73.24495586 61.99069421 73.24495586 58.54296875 79.3359375 C51.76539854 86.42874354 43.46055636 88.06532583 33.96469116 88.4367981 C31.03466606 88.48391815 28.10618508 88.50071239 25.17578125 88.50390625 C24.10101532 88.50723465 23.02624939 88.51056305 21.91891479 88.51399231 C19.65476914 88.51903452 17.39061611 88.52140148 15.12646484 88.52124023 C11.68574645 88.52342621 8.24534928 88.54160971 4.8046875 88.56054688 C2.59505317 88.56348157 0.38541733 88.56546586 -1.82421875 88.56640625 C-3.34968826 88.57718452 -3.34968826 88.57718452 -4.90597534 88.58818054 C-12.98554253 88.56267122 -21.61598943 88.3334089 -28.39453125 83.4609375 C-29.10480469 82.96851563 -29.81507813 82.47609375 -30.546875 81.96875 C-34.14746786 78.89094261 -35.81047918 75.93270834 -37.08203125 71.3984375 C-37.32179688 70.56441406 -37.5615625 69.73039062 -37.80859375 68.87109375 C-39.13045132 63.70310842 -39.61662232 58.87606556 -39.625 53.54296875 C-39.6283284 52.79689865 -39.6316568 52.05082855 -39.63508606 51.28215027 C-39.64013427 49.7062542 -39.64249504 48.13034751 -39.64233398 46.55444336 C-39.64450838 44.17348018 -39.66265276 41.79298999 -39.68164062 39.41210938 C-39.7714763 16.02831187 -39.7714763 16.02831187 -31.45703125 7.3359375 C-22.13310268 0.74488454 -11.07551164 0.02461831 0 0 Z "
     fill="#FAFAFA"
     transform="translate(379.45703125,200.6640625)"
     id="path24"
     style="fill:#ffffff" />
  <path
     d="M0 0 C7.92 0 15.84 0 24 0 C24 10.89 24 21.78 24 33 C36.11226547 33.2815355 36.11226547 33.2815355 40.8737793 28.94897461 C41.97163815 27.62524303 43.03760077 26.27456184 44.07421875 24.90234375 C45.31023613 23.43997872 46.55199244 21.98244904 47.79882812 20.52929688 C48.43248291 19.77511475 49.0661377 19.02093262 49.71899414 18.24389648 C66.1374886 -0.99280414 66.1374886 -0.99280414 78.64453125 -2.12109375 C86.81649647 -2.52213938 94.98660401 -1.55716215 103 0 C99.43485059 4.30111028 95.79903556 8.26848397 91.625 12 C90.57722141 12.94431087 89.53039988 13.88968439 88.484375 14.8359375 C87.92685547 15.33963867 87.36933594 15.84333984 86.79492188 16.36230469 C83.45271911 19.41174649 80.16815367 22.52280432 76.875 25.625 C70.98599981 31.1636809 65.04832949 36.63501543 59 42 C60.54572776 45.81628832 62.88771245 47.97025743 65.9375 50.6875 C66.42549072 51.12392822 66.91348145 51.56035645 67.41625977 52.01000977 C71.56518076 55.69017127 75.86723257 59.17101119 80.18359375 62.65234375 C83.73669445 65.61408234 87.11293002 68.74050138 90.49511719 71.89404297 C94.80595049 75.88769593 99.30826193 79.57577803 103.91796875 83.22265625 C106 85 106 85 107 87 C102.07490843 87.27466192 97.15438286 87.47271023 92.22338867 87.60424805 C90.5516997 87.65912876 88.88052797 87.73387405 87.21069336 87.82983398 C72.58702224 88.64833937 72.58702224 88.64833937 67.50927734 84.61889648 C64.70465515 81.98785888 62.36694287 79.02717379 60 76 C58.78248731 74.86011102 57.53959517 73.74515227 56.25 72.6875 C53.53596406 70.42857847 51.06393378 68.04748898 48.62890625 65.49609375 C48.00274414 64.8616333 47.37658203 64.22717285 46.73144531 63.57348633 C45.48630266 62.30917545 44.26374526 61.02206149 43.06933594 59.7097168 C36.7044442 53.35950264 34.40806647 54.8006205 24 54 C24 64.89 24 75.78 24 87 C16.08 87 8.16 87 0 87 C0 58.29 0 29.58 0 0 Z "
     fill="#FAFAFA"
     transform="translate(341,98)"
     id="path26"
     style="fill:#ffffff" />
  <path
     d="M0 0 C31.68 0 63.36 0 96 0 C96 7.26 96 14.52 96 22 C84.12 22 72.24 22 60 22 C60 43.45 60 64.9 60 87 C52.08 87 44.16 87 36 87 C36 65.55 36 44.1 36 22 C24.12 22 12.24 22 0 22 C0 14.74 0 7.48 0 0 Z "
     fill="#F9F9F9"
     transform="translate(812,98)"
     id="path28"
     style="fill:#ffffff" />
  <path
     d="M0 0 C29.37 0 58.74 0 89 0 C89 6.93 89 13.86 89 21 C80.09 21 71.18 21 62 21 C62 42.45 62 63.9 62 86 C54.08 86 46.16 86 38 86 C38 64.55 38 43.1 38 21 C25.46 21 12.92 21 0 21 C0 14.07 0 7.14 0 0 Z "
     fill="#FEFEFE"
     transform="translate(922,202)"
     id="path30"
     style="fill:#ffffff" />
  <path
     d="M0 0 C0.66 0.33 1.32 0.66 2 1 C1.01 1.33 0.02 1.66 -1 2 C-2.64820195 4.60242414 -3 5.86248779 -3 9 C-4.98 9.66 -6.96 10.32 -9 11 C-7.59928507 5.70841026 -4.14512755 3.22521956 0 0 Z "
     fill="#E5E5E5"
     transform="translate(462,205)"
     id="path46"
     style="fill:#ffffff" />
  <path
     d="M0 0 C0.99 0.99 1.98 1.98 3 3 C3 3.66 3 4.32 3 5 C2.34 5 1.68 5 1 5 C0.67 5.66 0.34 6.32 0 7 C-1.98 7.99 -1.98 7.99 -4 9 C-2.68 6.03 -1.36 3.06 0 0 Z "
     fill="#E3E3E3"
     transform="translate(740,104)"
     id="path48"
     style="fill:#ffffff" />
  <path
     d="M0 0 C0.66 0.33 1.32 0.66 2 1 C2 1.66 2 2.32 2 3 C2.66 3.33 3.32 3.66 4 4 C3.01 4 2.02 4 1 4 C0.67 4.66 0.34 5.32 0 6 C-0.99 4.68 -1.98 3.36 -3 2 C-2.01 1.34 -1.02 0.68 0 0 Z "
     fill="#121212"
     transform="translate(436,169)"
     id="path50"
     style="fill:#ffffff" />
  <path
     d="M0 0 C0.99 0.33 1.98 0.66 3 1 C1.68 3.31 0.36 5.62 -1 8 C-1.66 7.34 -2.32 6.68 -3 6 C-2.01 4.02 -1.02 2.04 0 0 Z "
     fill="#EBEBEB"
     transform="translate(657,261)"
     id="path52"
     style="fill:#ffffff" />
  <path
     d="M0 0 C0.66 0.33 1.32 0.66 2 1 C0.25 6.75 0.25 6.75 -2 9 C-2.25 3.375 -2.25 3.375 0 0 Z "
     fill="#E5E5E5"
     transform="translate(876,221)"
     id="path54"
     style="fill:#ffffff" />
</svg>
