<svg class="" fill="none" height="124" viewBox="0 0 358 124" width="358" xmlns="http://www.w3.org/2000/svg">
<g clip-path="url(#clip0_220_5114)">
<path d="M151.861 0.0337048L63.1835 0C75.7807 0 82.8982 14.2066 75.249 24.0231L0.309082 123.958H0.377685L0.351959 124H58.287L151.861 0.0337048Z" fill="#FFFFF0"></path>
<path d="M251.807 0.0337048L163.129 0C175.726 0 182.844 14.2066 175.195 24.0231L100.255 123.958H100.323L100.298 124H158.233L251.807 0.0337048Z" fill="#FFFFF0"></path>
<path d="M342.294 0.0284524C342.199 0.0200262 342.114 0.0116 342.028 0.0200262C341.925 0.0116 341.814 0.0116 341.702 0.0116C341.599 0.00317383 341.505 0.00317383 341.393 0.00317383H263.504C266.651 0.00317383 269.472 0.871073 271.779 2.30353C279.059 6.67673 281.795 16.6281 275.835 24.0263L200.475 124.003H255.117C273.074 124.003 297.736 110.083 310.325 92.9021C312.898 89.3715 314.767 85.9757 315.933 82.8159C316.045 82.5462 316.139 82.2766 316.225 82.007C316.679 80.5408 316.937 78.9567 316.937 77.3389C316.937 70.2946 312.22 64.3288 305.72 62.3486H305.711C304.674 62.1548 303.559 62.0285 302.384 61.961L302.564 61.7083L302.959 61.1605C303.13 61.1605 303.387 61.1605 303.542 61.0847C320.255 57.9839 339.961 45.6563 350.732 30.9358C352.85 28.054 354.488 25.2481 355.663 22.5938L355.697 22.5264C356.152 21.5995 356.537 20.6221 356.803 19.6025C356.812 19.5857 356.812 19.5604 356.82 19.5351C357.146 18.288 357.326 16.9735 357.326 15.6254C357.326 7.28341 350.689 0.475041 342.32 0.0284524H342.294Z" fill="#FFFFF0"></path>
</g>
<defs>
<clipPath id="clip0_220_5114">
<rect fill="white" height="124" transform="translate(0.309082)" width="357"></rect>
</clipPath>
</defs>
</svg>