<?xml version="1.0" encoding="UTF-8" standalone="no"?>
<svg
   xmlns:dc="http://purl.org/dc/elements/1.1/"
   xmlns:cc="http://creativecommons.org/ns#"
   xmlns:rdf="http://www.w3.org/1999/02/22-rdf-syntax-ns#"
   xmlns:svg="http://www.w3.org/2000/svg"
   xmlns="http://www.w3.org/2000/svg"
   xmlns:sodipodi="http://sodipodi.sourceforge.net/DTD/sodipodi-0.dtd"
   xmlns:inkscape="http://www.inkscape.org/namespaces/inkscape"
   version="1.1"
   width="900"
   height="900"
   id="svg38"
   sodipodi:docname="MVP_Logo_white.svg"
   inkscape:version="1.0.1 (3bc2e813f5, 2020-09-07)">
  <metadata
     id="metadata44">
    <rdf:RDF>
      <cc:Work
         rdf:about="">
        <dc:format>image/svg+xml</dc:format>
        <dc:type
           rdf:resource="http://purl.org/dc/dcmitype/StillImage" />
        <dc:title></dc:title>
      </cc:Work>
    </rdf:RDF>
  </metadata>
  <defs
     id="defs42" />
  <sodipodi:namedview
     pagecolor="#ffffff"
     bordercolor="#666666"
     borderopacity="1"
     objecttolerance="10"
     gridtolerance="10"
     guidetolerance="10"
     inkscape:pageopacity="0"
     inkscape:pageshadow="2"
     inkscape:window-width="1920"
     inkscape:window-height="991"
     id="namedview40"
     showgrid="false"
     inkscape:zoom="0.46555556"
     inkscape:cx="450"
     inkscape:cy="450"
     inkscape:window-x="-9"
     inkscape:window-y="-9"
     inkscape:window-maximized="1"
     inkscape:current-layer="svg38" />
  <path
     d="M0 0 C33.66 0 67.32 0 102 0 C101.15685416 4.21572922 100.07382954 7.94831242 98.6875 12 C94.87580919 23.2620634 91.49095228 34.64618534 88.1484375 46.0546875 C87.9534668 46.71952148 87.75849609 47.38435547 87.55761719 48.06933594 C87.03535326 49.87759474 86.53634614 51.69252506 86.0390625 53.5078125 C85.10069734 56.66156609 83.98873619 59.69735478 82.81201172 62.76806641 C81.20687287 67.18002651 79.9081407 71.69109084 78.5625 76.1875 C77.98069828 78.11855875 77.39866515 80.0495478 76.81640625 81.98046875 C76.52137207 82.96055908 76.22633789 83.94064941 75.92236328 84.95043945 C73.64929769 92.46575504 71.32086251 99.96418393 69 107.46484375 C63.8308843 124.18236265 63.8308843 124.18236265 59 141 C58.34 141 57.68 141 57 141 C56.90460938 141.92039062 56.80921875 142.84078125 56.7109375 143.7890625 C55.94374173 149.14328142 54.23508083 154.22540262 52.625 159.375 C52.32078125 160.365 52.0165625 161.355 51.703125 162.375 C46.68435659 178.63237802 46.68435659 178.63237802 44.0625 184.5625 C42.11980285 189.33890578 40.90336879 194.17325741 39.71337891 199.18383789 C38.17918533 205.52541602 36.33910561 211.75968786 34.4375 218 C34.14447998 218.96703857 33.85145996 219.93407715 33.54956055 220.93041992 C32.28131933 225.05980189 30.9796435 229.14015667 29.40625 233.1640625 C27.86928463 237.15763202 26.95309266 241.19742359 26.0625 245.375 C24.82645186 250.87807555 23.41014308 255.99856722 21.14453125 261.1796875 C19.17455611 266.03402897 17.62819327 271.03796193 16.01806641 276.02124023 C14.10117835 281.89882165 14.10117835 281.89882165 13 283 C9.86440114 283.09534958 6.75086387 283.12550879 3.61499023 283.11352539 C2.13710526 283.11374443 2.13710526 283.11374443 0.62936401 283.1139679 C-2.64424807 283.11326832 -5.91780404 283.10547385 -9.19140625 283.09765625 C-11.45442168 283.09579223 -13.71743751 283.09436825 -15.98045349 283.09336853 C-21.94978948 283.0895421 -27.91910132 283.07971075 -33.88842773 283.06866455 C-39.97444329 283.05845312 -46.06046273 283.05387149 -52.14648438 283.04882812 C-64.09766689 283.03808859 -76.04883144 283.02101068 -88 283 C-87.86784831 281.55774513 -87.72771939 280.11621972 -87.58422852 278.67504883 C-87.50705093 277.87222977 -87.42987335 277.06941071 -87.35035706 276.24226379 C-86.86533237 273.1381354 -85.43923827 270.78661027 -84 268 C-82.71954542 263.97453819 -81.64852498 259.89412381 -80.5625 255.8125 C-78.64513785 248.6385495 -76.58897716 241.62480339 -73.98413086 234.66870117 C-72.35113517 230.24045114 -70.9256684 225.74848 -69.5 221.25 C-69.19594238 220.29552979 -68.89188477 219.34105957 -68.57861328 218.35766602 C-66.86226214 212.91400134 -65.28762133 207.46739568 -63.875 201.9375 C-62.71839497 197.4336016 -61.36496011 193.18635686 -59.625 188.875 C-56.94742812 182.22239086 -55.03115772 175.41800372 -53.14306641 168.50927734 C-51.86336867 163.86084758 -50.45792902 159.34338597 -48.71435547 154.84790039 C-44.32675055 143.4980092 -41.15889483 131.73495823 -38 120 C-37.34 120 -36.68 120 -36 120 C-35.89042969 119.2265625 -35.78085937 118.453125 -35.66796875 117.65625 C-35.43013672 116.09390625 -35.43013672 116.09390625 -35.1875 114.5 C-35.03667969 113.4790625 -34.88585937 112.458125 -34.73046875 111.40625 C-34.02786377 108.12993158 -33.02553741 105.26216638 -31.80932617 102.15576172 C-30.35196179 98.27385298 -29.22960464 94.28931519 -28.0625 90.3125 C-27.53558847 88.53372608 -27.00824486 86.75508009 -26.48046875 84.9765625 C-26.10027588 83.69313965 -26.10027588 83.69313965 -25.71240234 82.38378906 C-24.79372001 79.30976087 -23.83585856 76.24857508 -22.875 73.1875 C-21.43526857 68.55168429 -20.16014194 63.88431893 -18.9375 59.1875 C-17.76045743 54.71290625 -16.54803474 50.35482421 -14.82104492 46.0625 C-11.39630054 37.45939547 -8.68754857 28.74146012 -6.25 19.8125 C-5.93417969 18.66974609 -5.61835937 17.52699219 -5.29296875 16.34960938 C-4.52467966 13.5674716 -3.76043118 10.78429375 -3 8 C-2.34 8 -1.68 8 -1 8 C-0.67 5.36 -0.34 2.72 0 0 Z "
     fill="#010101"
     transform="translate(608,326)"
     id="path4"
     style="fill:#ffffff" />
  <path
     d="M0 0 C33.66 0 67.32 0 102 0 C103.76390282 4.70374086 105.44671454 9.23554759 106.90234375 14.01171875 C107.23556641 15.10033203 107.56878906 16.18894531 107.91210938 17.31054688 C108.25048828 18.42494141 108.58886719 19.53933594 108.9375 20.6875 C109.27201172 21.78255859 109.60652344 22.87761719 109.95117188 24.00585938 C111.31610819 28.47411911 112.67809883 32.94327511 114.03955078 37.41259766 C115.70554648 42.85896972 117.4108989 48.28364381 119.23144531 53.68017578 C120.85334246 58.57574969 122.35734304 63.50883551 123.875 68.4375 C124.22796143 69.58041504 124.58092285 70.72333008 124.94458008 71.90087891 C126.97869474 78.53048255 128.89950167 85.17530376 130.6875 91.875 C132.25583546 97.72179083 134.24691347 103.17385681 136.6875 108.7109375 C139.35891926 115.40538695 141.20396456 122.38786713 143.20751953 129.30517578 C144.01891818 132.06433114 144.86198378 134.81198933 145.71484375 137.55859375 C145.99271729 138.45964844 146.27059082 139.36070312 146.55688477 140.2890625 C147.09029053 142.01582637 147.6283208 143.74117054 148.17163086 145.46484375 C149.37911568 149.41056505 150.35464375 152.82027007 150 157 C150.66 157 151.32 157 152 157 C154.08386889 162.27913453 154.57910004 167.39538469 155 173 C155.66 173 156.32 173 157 173 C157.2266333 173.77077881 157.4532666 174.54155762 157.68676758 175.33569336 C158.72702199 178.87011882 159.76974253 182.40381224 160.8125 185.9375 C161.16892578 187.14986328 161.52535156 188.36222656 161.89257812 189.61132812 C164.02085575 196.81623127 166.24830362 203.96349964 168.71606445 211.05883789 C169.40738625 213.05580375 170.07995438 215.0583103 170.75 217.0625 C170.98332031 217.71798828 171.21664062 218.37347656 171.45703125 219.04882812 C173.44317313 225.09645174 173.03102624 229.90692127 171 236 C170.34 236 169.68 236 169 236 C168.01 242.435 168.01 242.435 167 249 C166.34 249 165.68 249 165 249 C164.87044922 250.03833984 164.87044922 250.03833984 164.73828125 251.09765625 C163.66340208 258.58236532 161.71535029 265.35542127 159.21875 272.45703125 C158.02350976 275.93165591 157.00945028 279.46692402 156 283 C133.56 283 111.12 283 88 283 C87.34 280.36 86.68 277.72 86 275 C85.47242836 273.29430801 84.92326411 271.59500114 84.34375 269.90625 C84.04339844 269.02066406 83.74304688 268.13507813 83.43359375 267.22265625 C83.12550781 266.32417969 82.81742187 265.42570312 82.5 264.5 C77 248.46025105 77 248.46025105 77 242 C76.34 242 75.68 242 75 242 C66.87040158 216.37717042 66.87040158 216.37717042 64.62890625 204.7890625 C63.84979231 201.33386155 62.58025594 198.27833867 61.171875 195.0390625 C59.1700954 189.84778073 57.71228086 184.48018017 56.1940918 179.13037109 C55.18183756 175.6310282 54.22237199 172.42695422 52.53515625 169.1875 C50.08994292 164.11041583 48.90355157 158.69259299 47.5 153.25 C43.67098849 138.47667259 43.67098849 138.47667259 38.74609375 124.046875 C37.62835122 120.9803981 36.73965623 117.85326359 35.8203125 114.72265625 C34.06835852 108.90783757 32.2878188 103.04055413 29.91796875 97.4453125 C28.98378061 94.95679431 28.61136258 92.82688215 28.375 90.1875 C28.30023438 89.39730469 28.22546875 88.60710937 28.1484375 87.79296875 C28.09945313 87.20128906 28.05046875 86.60960937 28 86 C27.34 86 26.68 86 26 86 C25.84966309 85.45811035 25.69932617 84.9162207 25.54443359 84.35791016 C22.61604747 73.84626562 19.64066126 63.39038807 15.91748047 53.12744141 C14.14632169 48.07404005 13.44500793 43.34009518 13 38 C12.34 38 11.68 38 11 38 C10.32900016 35.39688008 9.66304662 32.79264602 9 30.1875 C8.80921875 29.44951172 8.6184375 28.71152344 8.421875 27.95117188 C7.64737086 24.89464659 7 22.16626522 7 19 C6.34 19 5.68 19 5 19 C3.86235649 14.73383684 3 11.43513689 3 7 C2.34 7 1.68 7 1 7 C0.67 4.69 0.34 2.38 0 0 Z "
     fill="#020202"
     transform="translate(347,298)"
     id="path6"
     style="fill:#ffffff" />
  <path
     d="M0 0 C22.11 0 44.22 0 67 0 C68.75272379 4.67393011 70.39438228 9.06963033 71.75390625 13.8203125 C72.05103516 14.85027344 72.34816406 15.88023437 72.65429688 16.94140625 C72.95400391 17.99199219 73.25371094 19.04257812 73.5625 20.125 C74.16690495 22.23207627 74.77234215 24.33885677 75.37890625 26.4453125 C75.65879395 27.42016602 75.93868164 28.39501953 76.22705078 29.39941406 C76.8356837 31.44715816 77.51294435 33.47450885 78.21484375 35.4921875 C79 38 79 38 79 42 C79.66 42 80.32 42 81 42 C81.34611328 43.36318359 81.34611328 43.36318359 81.69921875 44.75390625 C83.39590039 51.2925015 85.18652133 57.7295429 87.375 64.125 C89.7878825 71.18491547 91.85634981 78.31750751 93.85693359 85.50439453 C95.75840865 92.30207024 97.79462786 99.0127734 100.4375 105.5625 C102.23875474 110.24953459 103.33539622 115.13117916 104.46655273 120.01391602 C105.44125745 124.12445147 106.68477627 128.00084397 108.21484375 131.9375 C109.88727856 136.3307616 111.28666166 140.82283195 112.75 145.2890625 C113.94712793 148.91785653 115.18091004 152.5135798 116.55859375 156.078125 C118.4870124 161.14854694 119.71006819 166.35159586 121.03515625 171.609375 C121.81722564 174.35769982 122.69655354 176.49672834 124 179 C124.33677352 180.30165637 124.62645536 181.61615551 124.875 182.9375 C126.16149559 189.08634112 128.08676126 195.02205951 130 201 C130.38865234 202.22783203 130.38865234 202.22783203 130.78515625 203.48046875 C132.02456883 207.30707043 133.40353903 211.03148762 134.9375 214.75 C138.48597155 223.49928481 141.0186945 232.55657955 143.09375 241.7578125 C143.89140218 244.61148194 144.82840409 247.3110158 145.859375 250.0859375 C148.0995741 256.14904047 149.95552469 262.29250171 151.75 268.5 C152.06582031 269.56992187 152.38164062 270.63984375 152.70703125 271.7421875 C153.00480469 272.76570313 153.30257812 273.78921875 153.609375 274.84375 C153.87717773 275.76349609 154.14498047 276.68324219 154.42089844 277.63085938 C155 280 155 280 155 283 C121.67 283 88.34 283 54 283 C53.67 281.02 53.34 279.04 53 277 C52.34 277 51.68 277 51 277 C50.74605469 276.01 50.49210937 275.02 50.23046875 274 C48.20992068 265.89124868 48.20992068 265.89124868 45.5 258 C44.00523421 254.29944469 43.04824155 250.48451717 42.0625 246.625 C40.71341051 241.36309849 39.06315622 236.39705096 36.9375 231.3984375 C35.59062206 227.95267477 34.69716739 224.42334661 33.80859375 220.8359375 C33.00053211 217.84153543 33.00053211 217.84153543 31.6171875 214.40625 C29.58403274 209.08992218 28.17227464 203.6143066 26.6875 198.125 C23.99114555 188.3197493 20.99106892 178.682921 17.69970703 169.06445312 C14.56241494 159.80801839 11.71454829 150.55695616 9.7734375 140.96484375 C9.03298526 138.1264435 7.99150167 135.58665226 6.79833984 132.9128418 C5.3090333 129.34442688 4.25052384 125.63323873 3.125 121.9375 C1.40120451 116.35929139 -0.38447733 110.84295147 -2.4375 105.375 C-5.21611994 97.78070113 -7.27321859 90.00142103 -9.3984375 82.20336914 C-11.31736436 75.22876743 -13.46867966 68.4916352 -16.15234375 61.76953125 C-17.67210832 56.80403317 -17.10756415 52.60310669 -15.6875 47.6875 C-15.44386719 46.82511719 -15.20023438 45.96273437 -14.94921875 45.07421875 C-13.69941607 41.02650389 -12.35032158 37.01510491 -11 33 C-10.42658861 31.28141499 -9.85368466 29.56266059 -9.28125 27.84375 C-6.1875 18.5625 -3.09375 9.28125 0 0 Z "
     fill="#020202"
     transform="translate(263,326)"
     id="path8"
     style="fill:#ffffff" />
  <path
     d="M0 0 C22.11 0 44.22 0 67 0 C69.31 7.59 71.62 15.18 74 23 C75.65524681 27.85834092 75.65524681 27.85834092 77.37109375 32.6953125 C78.05989401 35.21948735 78.11585809 37.39551013 78 40 C78.66 40 79.32 40 80 40 C82.25433614 45.56069582 82.59961828 51.0785651 83 57 C83.66 57 84.32 57 85 57 C85.18175781 57.78503906 85.36351562 58.57007813 85.55078125 59.37890625 C86.94412259 65.20235851 88.5235484 70.53116938 91 76 C92.66208695 80.33725546 94.05146576 84.48715594 94.5 89.125 C94.93591765 92.50336179 95.70919786 94.69267193 97.06835938 97.74267578 C99.17277821 102.84158997 100.77875478 108.13741553 102.5 113.375 C102.89058594 114.55578125 103.28117187 115.7365625 103.68359375 116.953125 C104.44528384 119.25614756 105.20471642 121.55991824 105.96166992 123.86450195 C106.59888117 125.78872109 107.24535951 127.70993853 107.9074707 129.62573242 C109.3918915 133.92488699 110.51251828 138.04531463 111.1875 142.5625 C111.34605469 143.59503906 111.50460938 144.62757813 111.66796875 145.69140625 C111.77753906 146.45324219 111.88710937 147.21507812 112 148 C112.66 148 113.32 148 114 148 C114.17740723 148.67224609 114.35481445 149.34449219 114.53759766 150.03710938 C116.29348582 156.5951634 118.26285411 163.04926489 120.375 169.5 C122.74719706 176.85046085 124.96737241 184.21870137 126.9375 191.6875 C127.14874512 192.48285156 127.35999023 193.27820313 127.57763672 194.09765625 C128.36323097 197.14124993 129 199.84330216 129 203 C129.66 203 130.32 203 131 203 C131.30550781 204.06089844 131.61101562 205.12179687 131.92578125 206.21484375 C135.67003621 219.02472994 139.84091361 231.67413844 144.12817383 244.31030273 C146.40194767 251.03538799 148.58548118 257.75230467 150.36572266 264.62915039 C151.27514018 268.02843968 152.35855033 271.36622102 153.44921875 274.7109375 C154 277 154 277 154 282 C120.67 282 87.34 282 53 282 C52.01 277.38 51.02 272.76 50 268 C49.505 266.515 49.505 266.515 49 265 C48.34 265 47.68 265 47 265 C46.82984375 264.35675781 46.6596875 263.71351563 46.484375 263.05078125 C44.75130243 256.58863299 42.83422579 250.21186453 40.76953125 243.84765625 C40 241 40 241 40 237 C39.34 237 38.68 237 38 237 C37.34 232.71 36.68 228.42 36 224 C35.34 224 34.68 224 34 224 C33.83508057 223.43007324 33.67016113 222.86014648 33.50024414 222.27294922 C30.00719048 210.21601085 26.48022298 198.16896637 22.89376831 186.13946533 C22.32617824 184.2334331 21.76180401 182.32644418 21.19750977 180.41943359 C19.27063363 173.97452971 17.19642003 167.63359887 14.8503418 161.3293457 C13.84832726 158.58452208 13.00593467 155.82215612 12.25 153 C11.88648438 151.6696875 11.88648438 151.6696875 11.515625 150.3125 C11 148 11 148 11 145 C10.34 145 9.68 145 9 145 C8.81824219 144.2265625 8.63648438 143.453125 8.44921875 142.65625 C6.82487453 135.79332531 6.82487453 135.79332531 4.5625 129.125 C3.22821822 125.75850444 2.22142979 122.36387975 1.25 118.875 C-0.60097179 112.27055979 -2.61724638 105.72642032 -4.6875 99.1875 C-4.99719727 98.20185059 -5.30689453 97.21620117 -5.62597656 96.20068359 C-5.91827148 95.2823877 -6.21056641 94.3640918 -6.51171875 93.41796875 C-6.77428467 92.59063232 -7.03685059 91.7632959 -7.30737305 90.91088867 C-7.84078259 89.01794259 -7.84078259 89.01794259 -9 88 C-9.32504884 86.31861101 -9.60970362 84.62934619 -9.875 82.9375 C-10.92090852 76.95428801 -12.85688034 71.78611199 -15.15234375 66.19140625 C-17.87367796 58.99865422 -18.31794212 54.3191542 -16 47 C-15.62479113 45.62505698 -15.24976683 44.25006357 -14.875 42.875 C-14.58625 41.92625 -14.2975 40.9775 -14 40 C-13.34 40 -12.68 40 -12 40 C-11.95101562 39.25234375 -11.90203125 38.5046875 -11.8515625 37.734375 C-11.73941406 36.25710938 -11.73941406 36.25710938 -11.625 34.75 C-11.55539063 33.77546875 -11.48578125 32.8009375 -11.4140625 31.796875 C-11.00809958 29.05471034 -10.30229305 27.40726897 -9 25 C-8.5845535 23.59466244 -8.20799564 22.17712415 -7.875 20.75 C-7.58625 19.5125 -7.2975 18.275 -7 17 C-6.34 17 -5.68 17 -5 17 C-4.83564453 15.91332031 -4.83564453 15.91332031 -4.66796875 14.8046875 C-4.43013672 13.35449219 -4.43013672 13.35449219 -4.1875 11.875 C-4.03667969 10.92367188 -3.88585937 9.97234375 -3.73046875 8.9921875 C-3 6 -3 6 0 0 Z "
     fill="#020202"
     transform="translate(136,327)"
     id="path10"
     style="fill:#ffffff" />
  <path
     d="M0 0 C6.97008481 -0.10260389 13.93997037 -0.17196259 20.91064453 -0.21972656 C23.27497637 -0.23966787 25.63926002 -0.26683088 28.00341797 -0.30175781 C62.90902581 -0.80399677 62.90902581 -0.80399677 76 10 C76.68320312 10.47824219 77.36640625 10.95648438 78.0703125 11.44921875 C85.27251845 16.88510423 89.98166126 25.69516561 91.671875 34.5 C93.02653796 48.9497382 90.99941702 60.14882228 85.85913086 73.64916992 C83.98506104 78.77716602 82.35580839 83.98979254 80.6875 89.1875 C80.09038208 91.03903687 80.09038208 91.03903687 79.48120117 92.92797852 C77.0933992 100.39160937 74.87817478 107.87924715 72.8125 115.4375 C70.60808522 123.43845642 67.73472836 130.57286314 64 138 C62.96504383 140.39050482 61.95180793 142.7878621 60.95703125 145.1953125 C59.8806234 147.22511016 58.65942335 148.41582496 57 150 C55.64737097 151.60897405 54.31553815 153.23556041 53 154.875 C52.319375 155.71804688 51.63875 156.56109375 50.9375 157.4296875 C48.96060763 159.91492766 48.96060763 159.91492766 47.625 162.5703125 C45.5459036 165.67896145 43.16316216 167.03625249 40 169 C38.18253653 170.43121942 36.37016861 171.86892918 34.5625 173.3125 C29.89633303 176.84428553 25.24268368 179.59935603 19.9375 182.0625 C18.97275757 182.5107312 18.97275757 182.5107312 17.98852539 182.96801758 C15.14715426 184.23248629 13.14452262 185 10 185 C10 185.66 10 186.32 10 187 C2.20966578 190.18445062 -4.64779114 190.3951705 -13.00390625 190.29296875 C-14.32293442 190.28872391 -15.64196259 190.28447906 -17.0009613 190.28010559 C-20.47805385 190.26874678 -23.95475996 190.23935931 -27.43170166 190.20599365 C-30.991524 190.1750972 -34.55140985 190.16155879 -38.11132812 190.14648438 C-45.07437574 190.114479 -52.03716922 190.06339386 -59 190 C-58.36868062 185.31079449 -57.51202494 181.00720207 -56.0625 176.5 C-55.70800781 175.38238281 -55.35351562 174.26476562 -54.98828125 173.11328125 C-54.66214844 172.08589844 -54.33601562 171.05851563 -54 170 C-53.31252753 167.67170926 -52.65256147 165.33834527 -52 163 C-51.34 163 -50.68 163 -50 163 C-49.67 160.03 -49.34 157.06 -49 154 C-48.34 154 -47.68 154 -47 154 C-47.08894531 152.28490234 -47.08894531 152.28490234 -47.1796875 150.53515625 C-47.17757557 145.73791789 -45.84911476 141.86807397 -44.125 137.4375 C-43.58394936 135.99944436 -43.04486201 134.56064842 -42.5078125 133.12109375 C-42.25032227 132.43515137 -41.99283203 131.74920898 -41.72753906 131.04248047 C-40.66680984 128.06460775 -39.82581508 125.05070522 -39 122 C-38.34 122 -37.68 122 -37 122 C-36.91363281 121.3915625 -36.82726562 120.783125 -36.73828125 120.15625 C-35.73953228 113.92552251 -34.17895152 108.04003792 -32.24169922 102.0378418 C-29.6660073 94.04472781 -27.31291508 85.9876959 -24.94287109 77.93164062 C-19.22668569 58.53713438 -19.22668569 58.53713438 -16.0625 49.25 C-14.38927019 44.30905078 -12.93193508 39.32672378 -11.5 34.3125 C-9.98453309 29.02657918 -8.29694988 24.07783946 -5.90625 19.11328125 C-4.45965298 15.73996665 -3.60573632 12.22865894 -2.7109375 8.67578125 C-1.93000373 5.73655249 -0.9718548 2.8810504 0 0 Z "
     fill="#020202"
     transform="translate(736,326)"
     id="path12"
     style="fill:#ffffff" />
  <path
     d="M0 0 C38.28 0 76.56 0 116 0 C115.27545308 2.8981877 114.5149721 5.76196785 113.6953125 8.6328125 C113.44136719 9.52226562 113.18742188 10.41171875 112.92578125 11.328125 C112.66152344 12.25109375 112.39726563 13.1740625 112.125 14.125 C111.86847656 15.02476562 111.61195313 15.92453125 111.34765625 16.8515625 C109.61371689 22.91599364 107.82725266 28.9630446 106 35 C105.34 35 104.68 35 104 35 C103.96261719 35.56847656 103.92523437 36.13695312 103.88671875 36.72265625 C103.43114811 42.07337804 102.20534105 46.06003604 100 51 C99.43734593 53.22597449 98.98206241 55.46220875 98.51953125 57.7109375 C97.85655744 60.63201006 96.89758846 63.39626093 95.9140625 66.22265625 C94.69326359 69.93200677 93.63857263 73.68407072 92.5625 77.4375 C91.20082844 82.16480295 89.79184432 86.77376518 87.875 91.3125 C86.00462981 95.7415366 84.88168444 100.20367956 83.7734375 104.875 C81.76564498 112.98729302 79.0458655 120.8993349 76.375 128.8125 C74.68194843 133.8447702 73.16268613 138.8207618 72 144 C71.34 144 70.68 144 70 144 C69.90203125 144.73863281 69.8040625 145.47726562 69.703125 146.23828125 C68.75755292 152.65349872 67.291788 158.36984521 64.94140625 164.40625 C63.81224793 167.51729202 63.15269169 170.61348019 62.50390625 173.8515625 C61.67768557 177.37420881 60.34232211 180.64419473 59 184 C58.34 184 57.68 184 57 184 C54.79600832 179.44508386 54.41153737 174.97093824 54 170 C53.34 170 52.68 170 52 170 C51.03581666 166.5432712 50.07976067 163.08434213 49.125 159.625 C48.85558594 158.65949219 48.58617187 157.69398438 48.30859375 156.69921875 C46.60449384 150.50627028 45.1635376 144.31709015 44 138 C43.34 138 42.68 138 42 138 C38.24738355 126.55863316 34.63185942 115.15867644 31.84375 103.44140625 C30.88844897 99.54501642 29.75033892 95.73376016 28.515625 91.91796875 C28 90 28 90 28 87 C27.34 87 26.68 87 26 87 C25.82984375 86.18917969 25.6596875 85.37835938 25.484375 84.54296875 C23.85419718 77.0944435 21.76096626 70.09962752 19 63 C16.7562695 57.23040728 14.84919927 51.6273353 13.5625 45.5625 C12.62106129 41.22679309 11.42262207 37.36694979 9.625 33.3125 C7.39130974 28.23777167 5.77748095 23.14733513 4.3125 17.8125 C4.11027832 17.07620361 3.90805664 16.33990723 3.69970703 15.58129883 C2.31267679 10.40909655 1.163622 5.236299 0 0 Z "
     fill="#040404"
     transform="translate(475,298)"
     id="path14"
     style="fill:#ffffff" />
  <path
     d="M0 0 C0.66 0 1.32 0 2 0 C4.91396467 6.72691843 7.05551397 13.50635934 9 20.5703125 C9.87203105 23.5611065 10.87149316 26.41188475 12 29.3125 C13.77234802 33.9926065 14.91555471 38.68964113 16 43.5625 C17.21663707 49.02228452 18.66771207 53.98911834 20.92578125 59.12109375 C22.79018511 64.11769608 23.982808 69.31402396 25.24975586 74.48974609 C25.44835205 75.28590332 25.64694824 76.08206055 25.8515625 76.90234375 C26.02510254 77.61898193 26.19864258 78.33562012 26.37744141 79.07397461 C26.99769247 81.29109824 26.99769247 81.29109824 29 84 C29.62255859 86.04956055 29.62255859 86.04956055 30.1484375 88.38671875 C30.45007813 89.6715918 30.45007813 89.6715918 30.7578125 90.98242188 C31.16464919 92.76555102 31.56836967 94.54939444 31.96875 96.33398438 C33.14219551 101.30627403 34.62869405 105.51669601 37.03662109 110.0144043 C38.74681482 113.53924099 39.65001257 117.28121652 40.625 121.0625 C41.03369208 122.59509531 41.44254405 124.127648 41.8515625 125.66015625 C42.13821777 126.75094482 42.13821777 126.75094482 42.43066406 127.86376953 C43.24560992 130.92156379 44.11999492 133.96034944 45 137 C45.66 137 46.32 137 47 137 C47.14695312 137.87398437 47.29390625 138.74796875 47.4453125 139.6484375 C49.23276418 149.44860362 52.04773483 158.61601327 55.31738281 168.01464844 C56.22030217 170.64073578 57.06216571 173.28224133 57.875 175.9375 C58.09929687 176.66839844 58.32359375 177.39929688 58.5546875 178.15234375 C59 180 59 180 59 183 C21.05 183 -16.9 183 -56 183 C-54.88227848 171.82278481 -54.88227848 171.82278481 -52.8125 167 C-48.50914479 156.42925828 -44.46693125 145.65208714 -42.54296875 134.375 C-41.88650978 131.50358234 -40.85420208 128.91839725 -39.75 126.1875 C-37.05284142 119.48836277 -35.10545133 112.65677818 -33.23144531 105.6862793 C-31.78498123 100.40046621 -30.00265013 95.41465421 -27.91235352 90.35083008 C-26.61325893 87.00349751 -25.80760657 83.68833027 -25 80.1875 C-22.7415943 70.69814512 -19.85159652 61.44867542 -16.7265625 52.2109375 C-15.39771525 48.16724103 -14.2018611 44.08291819 -13 40 C-12.01 40 -11.02 40 -10 40 C-10.04125 38.948125 -10.0825 37.89625 -10.125 36.8125 C-10.00224187 33.06837691 -9.37367122 31.38580933 -8 28 C-7.34368211 25.48227635 -6.71980237 22.96934717 -6.125 20.4375 C-4.44724882 13.48910794 -2.39907666 6.73783231 0 0 Z "
     fill="#030303"
     transform="translate(104,426)"
     id="path16"
     style="fill:#ffffff" />
  <path
     d="M0 0 C33.66 0 67.32 0 102 0 C101.67 1.65 101.34 3.3 101 5 C100.505 3.515 100.505 3.515 100 2 C67 2 34 2 0 2 C0 1.34 0 0.68 0 0 Z "
     fill="#505050"
     transform="translate(608,326)"
     id="path18"
     style="fill:#ffffff" />
  <path
     d="M0 0 C2.87193652 2.39983736 3.54537958 4.28784123 4.1875 7.9375 C4.34605469 8.79214844 4.50460938 9.64679687 4.66796875 10.52734375 C5 13 5 13 5 17 C38.33 17 71.66 17 106 17 C106.33 15.68 106.66 14.36 107 13 C107 14.65 107 16.3 107 18 C73.01 18 39.02 18 4 18 C0 4 0 4 0 0 Z "
     fill="#ABA7AA"
     transform="translate(184,592)"
     id="path20"
     style="fill:#ffffff" />
  <path
     d="M0 0 C1.32177077 3.69738581 0.69120478 6.36940839 -0.25 10.125 C-0.62898437 11.70667969 -0.62898437 11.70667969 -1.015625 13.3203125 C-2 16 -2 16 -5 18 C-4.27595226 13.95295419 -3.16553713 10.10929598 -1.9375 6.1875 C-1.57527344 5.02605469 -1.21304688 3.86460937 -0.83984375 2.66796875 C-0.56269531 1.78753906 -0.28554687 0.90710938 0 0 Z "
     fill="#5E5E5E"
     transform="translate(254,354)"
     id="path22"
     style="fill:#ffffff" />
  <path
     d="M0 0 C2.35953094 2.35953094 2.49141413 3.77895617 3 7 C3.66 7 4.32 7 5 7 C5.33 10.3 5.66 13.6 6 17 C5.34 16.67 4.68 16.34 4 16 C3.2863409 13.68060793 2.6252708 11.34476551 2 9 C1.62875 8.113125 1.2575 7.22625 0.875 6.3125 C0 4 0 4 0 0 Z "
     fill="#717171"
     transform="translate(146,556)"
     id="path24"
     style="fill:#ffffff" />
  <path
     d="M0 0 C3.01632531 4.52448797 4.76065686 8.66129109 6 14 C5.55078125 16.21875 5.55078125 16.21875 5 18 C1.90787824 11.91643021 0.43300764 6.81987029 0 0 Z "
     fill="#939393"
     transform="translate(269,457)"
     id="path26"
     style="fill:#ffffff" />
  <path
     d="M0 0 C1.13529002 3.34491489 0.86633118 5.26065531 -0.3125 8.5625 C-0.57675781 9.32691406 -0.84101562 10.09132813 -1.11328125 10.87890625 C-2 13 -2 13 -4 16 C-3.6083965 10.04492601 -2.62875405 5.37180176 0 0 Z "
     fill="#626262"
     transform="translate(89,473)"
     id="path28"
     style="fill:#ffffff" />
  <path
     d="M0 0 C0.66 0 1.32 0 2 0 C1.74412595 1.77305664 1.46972261 3.54344608 1.1875 5.3125 C1.03667969 6.29863281 0.88585937 7.28476562 0.73046875 8.30078125 C-0.03436705 11.12699269 -0.75258762 12.1959128 -3 14 C-3.40652968 8.57960425 -2.03993514 4.92984325 0 0 Z "
     fill="#B9B9B9"
     transform="translate(732,332)"
     id="path30"
     style="fill:#ffffff" />
  <path
     d="M0 0 C1.08030956 3.31809364 0.92122208 5.71803947 0.25 9.125 C0.01023438 10.42824219 0.01023438 10.42824219 -0.234375 11.7578125 C-1 14 -1 14 -4 16 C-3.31092878 12.34056353 -2.43178734 8.77558041 -1.4375 5.1875 C-1.16808594 4.21167969 -0.89867187 3.23585938 -0.62109375 2.23046875 C-0.41613281 1.49441406 -0.21117187 0.75835937 0 0 Z "
     fill="#747474"
     transform="translate(129,344)"
     id="path32"
     style="fill:#ffffff" />
  <path
     d="M0 0 C0.66 0 1.32 0 2 0 C2.36552803 1.41377782 2.71695495 2.83120576 3.0625 4.25 C3.25972656 5.03890625 3.45695313 5.8278125 3.66015625 6.640625 C4.01497267 9.10394822 3.76877544 10.65604132 3 13 C0.78145293 8.37802694 -0.38281159 5.23175837 0 0 Z "
     fill="#A7A7A7"
     transform="translate(230,414)"
     id="path34"
     style="fill:#ffffff" />
  <path
     d="M0 0 C2.475 0.495 2.475 0.495 5 1 C4.67 2.98 4.34 4.96 4 7 C3.34 7 2.68 7 2 7 C1.34 4.69 0.68 2.38 0 0 Z "
     fill="#434343"
     transform="translate(530,475)"
     id="path36"
     style="fill:#ffffff" />
</svg>
