<?xml version="1.0" encoding="UTF-8" standalone="no"?>
<svg
   xmlns:dc="http://purl.org/dc/elements/1.1/"
   xmlns:cc="http://creativecommons.org/ns#"
   xmlns:rdf="http://www.w3.org/1999/02/22-rdf-syntax-ns#"
   xmlns:svg="http://www.w3.org/2000/svg"
   xmlns="http://www.w3.org/2000/svg"
   xmlns:sodipodi="http://sodipodi.sourceforge.net/DTD/sodipodi-0.dtd"
   xmlns:inkscape="http://www.inkscape.org/namespaces/inkscape"
   version="1.1"
   width="800"
   height="310"
   id="svg64"
   sodipodi:docname="rizin_logo_white.svg"
   inkscape:version="1.0.1 (3bc2e813f5, 2020-09-07)">
  <metadata
     id="metadata70">
    <rdf:RDF>
      <cc:Work
         rdf:about="">
        <dc:format>image/svg+xml</dc:format>
        <dc:type
           rdf:resource="http://purl.org/dc/dcmitype/StillImage" />
        <dc:title></dc:title>
      </cc:Work>
    </rdf:RDF>
  </metadata>
  <defs
     id="defs68" />
  <sodipodi:namedview
     pagecolor="#ffffff"
     bordercolor="#666666"
     borderopacity="1"
     objecttolerance="10"
     gridtolerance="10"
     guidetolerance="10"
     inkscape:pageopacity="0"
     inkscape:pageshadow="2"
     inkscape:window-width="3200"
     inkscape:window-height="1711"
     id="namedview66"
     showgrid="false"
     inkscape:zoom="1.6775"
     inkscape:cx="400"
     inkscape:cy="155"
     inkscape:window-x="2391"
     inkscape:window-y="-9"
     inkscape:window-maximized="1"
     inkscape:current-layer="svg64" />
  <path
     d="M0 0 C10.92620428 -0.56172256 21.84886519 -0.98520234 32.78668213 -1.24349213 C37.869399 -1.36763022 42.94209859 -1.53509465 48.01904297 -1.81054688 C84.86181518 -3.7590171 84.86181518 -3.7590171 96.95617676 7.04692841 C102.26571008 12.18850097 106.83477301 17.90377131 111 24 C111.26554688 22.9378125 111.53109375 21.875625 111.8046875 20.78125 C113.53645833 13.85416667 115.26822917 6.92708333 117 0 C136.14 0 155.28 0 175 0 C173.80738584 7.75199206 172.61374365 15.3433436 170.95288086 22.98120117 C170.6622451 24.33985291 170.6622451 24.33985291 170.36573792 25.72595215 C169.73583538 28.66577297 169.10051801 31.60439103 168.46484375 34.54296875 C168.02143914 36.60462582 167.57829268 38.66633842 167.13539124 40.72810364 C166.21237601 45.0208368 165.28675028 49.3129958 164.35913086 53.60473633 C163.16873808 59.11292738 161.9842281 64.62236372 160.80153561 70.13221264 C159.88997957 74.37642981 158.97574335 78.62006599 158.06064034 82.86351967 C157.62251144 84.89640641 157.18513473 86.92945541 156.74851799 88.96266747 C156.14092711 91.78974311 155.52982828 94.6160372 154.91772461 97.44213867 C154.6473085 98.70514549 154.6473085 98.70514549 154.37142944 99.9936676 C153.11435827 105.77128345 153.11435827 105.77128345 152 108 C132.86 108 113.72 108 94 108 C95.32 101.4 96.64 94.8 98 88 C96.86299985 83.4519994 95.62042869 82.25703135 92.34375 79.015625 C91.88141968 78.55516785 91.41908936 78.09471069 90.94274902 77.62030029 C89.96776957 76.65202583 88.98920742 75.68734721 88.00732422 74.72607422 C86.49829149 73.24832691 85.00031497 71.76005053 83.50390625 70.26953125 C79.65640823 65.58174788 79.65640823 65.58174788 75 63 C74.7326001 64.29212402 74.4652002 65.58424805 74.18969727 66.91552734 C73.19918146 71.69817723 72.20500947 76.48006088 71.2097168 81.26171875 C70.77902661 83.33345066 70.34933533 85.40539049 69.9206543 87.47753906 C69.30518354 90.45172145 68.6861532 93.42514363 68.06640625 96.3984375 C67.87470352 97.32868744 67.68300079 98.25893738 67.48548889 99.21737671 C67.30537766 100.07811798 67.12526642 100.93885925 66.93969727 101.82568359 C66.78203384 102.58513275 66.62437042 103.34458191 66.46192932 104.12704468 C66 106 66 106 65 108 C45.86 108 26.72 108 7 108 C7.63631723 102.27314495 8.29504489 97.09754492 9.50634766 91.54003906 C9.65440353 90.85425278 9.80245941 90.16846649 9.95500183 89.4618988 C10.27284831 87.99163611 10.59263885 86.52179253 10.91423416 85.05234528 C11.42312511 82.72416346 11.92540248 80.39464182 12.4258728 78.06463623 C13.84823151 71.44676769 15.27982563 64.83093374 16.72167969 58.21728516 C17.60655157 54.15625735 18.48179959 50.09325306 19.35108566 46.028862 C19.6831113 44.48592482 20.01883354 42.9437782 20.35835648 41.40247345 C20.83208955 39.25094655 21.29357187 37.09712111 21.75244141 34.94238281 C22.1509581 33.1077951 22.1509581 33.1077951 22.55752563 31.23614502 C22.99084216 28.06697814 22.96726895 26.02819612 22 23 C19.85483606 20.3201017 19.85483606 20.3201017 17.08984375 17.734375 C16.60294571 17.25550842 16.11604767 16.77664185 15.61439514 16.28326416 C14.06463257 14.76240481 12.50182172 13.25586713 10.9375 11.75 C9.37233449 10.22729185 7.80999821 8.7017811 6.24989319 7.17388916 C4.83960384 5.79523835 3.42179832 4.42428884 2.00366211 3.05371094 C0 1 0 1 0 0 Z "
     fill="#251A17"
     transform="translate(610,81)"
     id="path2"
     style="fill:#ffffff" />
  <path
     d="M0 0 C1.57911919 -0.01496269 1.57911919 -0.01496269 3.19013977 -0.03022766 C4.34497864 -0.03089233 5.4998175 -0.03155701 6.68965149 -0.03224182 C7.90618912 -0.04056534 9.12272675 -0.04888885 10.37612915 -0.0574646 C13.71529548 -0.07745709 17.05421221 -0.08821048 20.39341712 -0.09329104 C22.48151531 -0.09693503 24.56958955 -0.10317547 26.6576786 -0.11029243 C33.94829485 -0.13479601 41.23883992 -0.14783963 48.52949524 -0.15138245 C55.3148008 -0.1550128 62.09965266 -0.18486936 68.88481969 -0.22678703 C74.71681976 -0.26154694 80.54866999 -0.27693191 86.38077289 -0.27762848 C89.86096867 -0.27841973 93.34070289 -0.28708616 96.82079124 -0.31562614 C100.70824363 -0.34679227 104.59505158 -0.33771983 108.48262024 -0.32521057 C109.62733795 -0.34004486 110.77205566 -0.35487915 111.95146179 -0.37016296 C118.82642649 -0.3072441 123.65339784 0.63939571 128.90962219 5.27415466 C132.21641037 10.03592965 130.44649572 16.03441317 129.54917908 21.44923401 C128.68934971 26.08808467 127.71753647 30.7052415 126.74580383 35.32176208 C126.39669249 36.99831033 126.0565133 38.67674339 125.72529602 40.35691833 C121.76443548 60.43560029 121.76443548 60.43560029 112.15962219 67.08665466 C109.08516323 68.85420978 106.04719847 69.93090869 102.64399719 70.91087341 C101.30933411 71.29892151 101.30933411 71.29892151 99.94770813 71.69480896 C99.27513977 71.88599304 98.60257141 72.07717712 97.90962219 72.27415466 C98.30230286 72.9738739 98.69498352 73.67359314 99.0995636 74.39451599 C100.91191879 77.62485406 102.72327526 80.85575113 104.53462219 84.08665466 C105.15208313 85.18686951 105.76954407 86.28708435 106.40571594 87.42063904 C107.01802063 88.51311951 107.63032532 89.60559998 108.26118469 90.73118591 C108.81628723 91.72094421 109.37138977 92.71070251 109.9433136 93.73045349 C112.63517063 98.55828286 115.26757261 103.41895877 117.90962219 108.27415466 C110.13044401 108.64664806 102.3533879 108.92999195 94.56750679 109.10314941 C90.95045598 109.18632185 87.339543 109.29878995 83.72602844 109.48118591 C60.48859109 110.62342656 60.48859109 110.62342656 54.68397522 106.81321716 C51.20365506 103.16340288 49.33345542 98.97377068 47.65821838 94.26683044 C46.62965695 91.52891982 45.13380859 89.20822233 43.52680969 86.77415466 C42.61172747 85.27477653 41.69779637 83.77469562 40.78462219 82.27415466 C39.17587219 79.63415466 37.56712219 76.99415466 35.90962219 74.27415466 C33.26962219 85.49415466 30.62962219 96.71415466 27.90962219 108.27415466 C8.43962219 108.27415466 -11.03037781 108.27415466 -31.09037781 108.27415466 C-26.48636659 85.25409855 -26.48636659 85.25409855 -24.10990906 74.21165466 C-23.85158798 73.00646179 -23.59326691 71.80126892 -23.32711792 70.55955505 C-22.79093082 68.05933361 -22.25409231 65.55925177 -21.71659851 63.05931091 C-20.89231488 59.22501945 -20.07029808 55.39024689 -19.24858093 51.55540466 C-18.72332047 49.10746006 -18.19793461 46.65954237 -17.67240906 44.21165466 C-17.42763321 43.07010925 -17.18285736 41.92856384 -16.93066406 40.75242615 C-16.70340134 39.69612 -16.47613861 38.63981384 -16.24198914 37.55149841 C-16.04309586 36.62587097 -15.84420258 35.70024353 -15.63928223 34.74656677 C-15.15848069 32.58090823 -14.62841602 30.42630752 -14.09037781 28.27415466 C-20.03037781 27.94415466 -25.97037781 27.61415466 -32.09037781 27.27415466 C-30.32292287 23.73924478 -29.31625784 22.29393589 -26.53569031 19.74290466 C-25.48961609 18.77417419 -25.48961609 18.77417419 -24.42240906 17.78587341 C-23.69408875 17.12200623 -22.96576843 16.45813904 -22.21537781 15.77415466 C-20.78000133 14.45175952 -19.34509147 13.12885767 -17.91069031 11.80540466 C-17.24070007 11.19181091 -16.57070984 10.57821716 -15.88041687 9.94602966 C-14.44836723 8.60851248 -13.06839821 7.21531679 -11.70756531 5.80540466 C-10.09037781 4.27415466 -10.09037781 4.27415466 -8.09037781 4.27415466 C-8.09037781 3.61415466 -8.09037781 2.95415466 -8.09037781 2.27415466 C-4.80099697 0.08123411 -3.81940639 0.01939078 0 0 Z M44.90962219 28.27415466 C44.24962219 30.81102966 43.58962219 33.34790466 42.90962219 35.96165466 C42.59638 37.14634338 42.59638 37.14634338 42.27680969 38.35496521 C42.11438782 38.99216492 41.95196594 39.62936462 41.78462219 40.28587341 C41.533255 41.25206604 41.533255 41.25206604 41.27680969 42.23777771 C40.76174518 44.74939303 40.76174518 44.74939303 40.90962219 49.27415466 C50.14962219 49.27415466 59.38962219 49.27415466 68.90962219 49.27415466 C69.56962219 46.55165466 70.22962219 43.82915466 70.90962219 41.02415466 C71.11845032 40.17305115 71.32727844 39.32194763 71.54243469 38.4450531 C71.7860675 37.424599 71.7860675 37.424599 72.03462219 36.38352966 C72.20220032 35.6922699 72.36977844 35.00101013 72.54243469 34.2888031 C73.02915891 31.95959843 73.02915891 31.95959843 72.90962219 28.27415466 C63.66962219 28.27415466 54.42962219 28.27415466 44.90962219 28.27415466 Z "
     fill="#251B18"
     transform="translate(56.09037780761719,80.72584533691406)"
     id="path4"
     style="fill:#ffffff" />
  <path
     d="M0 0 C1.76426108 0.00197488 3.52852791 0.00086548 5.29278564 -0.00309753 C10.08003101 -0.00510662 14.86604953 0.03605687 19.65300965 0.08492017 C24.65644252 0.12866943 29.6599033 0.13279049 34.66349792 0.14109802 C44.13737404 0.16285785 53.61068495 0.22030515 63.08431214 0.29054445 C73.87011633 0.36877715 84.65594747 0.40727173 95.44196475 0.4424125 C117.62853615 0.51558734 139.81459868 0.63871768 162.00073242 0.79467773 C160.22091445 4.60169368 157.80530608 7.38925889 154.93823242 10.41967773 C153.92596728 11.50380323 152.91425445 12.58844468 151.90307617 13.67358398 C151.15453369 14.4743335 151.15453369 14.4743335 150.39086914 15.29125977 C148.5536497 17.27819291 146.78090222 19.31911613 145.00073242 21.35717773 C140.32192929 26.57094383 135.3831398 31.5216399 130.43823242 36.48217773 C129.63450195 37.29050049 128.83077148 38.09882324 128.00268555 38.93164062 C123.70345047 43.21985428 119.3274445 47.3495479 114.72314453 51.30859375 C112.61807369 53.12483276 110.59510266 55.02224126 108.56323242 56.91967773 C81.0047992 81.79467773 81.0047992 81.79467773 74.00073242 81.79467773 C72.34448242 80.07983398 72.34448242 80.07983398 70.50073242 77.85717773 C68.11146243 74.87422595 68.11146243 74.87422595 65.00073242 72.79467773 C65.62504391 67.48248883 67.34883337 63.00963158 69.37963867 58.11499023 C69.7111644 57.30222626 70.04269012 56.48946228 70.38426208 55.65206909 C71.43813666 53.07219356 72.50053969 50.4959317 73.56323242 47.91967773 C74.28189843 46.1647015 75.00000353 44.40949547 75.7175293 42.65405273 C77.47211417 38.3649066 79.23435309 34.07897932 81.00073242 29.79467773 C80.58098145 30.51445801 80.16123047 31.23423828 79.72875977 31.97583008 C76.58436235 37.3670945 73.43862897 42.7575657 70.28979492 48.14624023 C69.38293945 49.69891602 69.38293945 49.69891602 68.45776367 51.28295898 C67.21343626 53.41343854 65.96862771 55.54363713 64.72338867 57.67358398 C63.82813477 59.20692383 63.82813477 59.20692383 62.91479492 60.77124023 C62.37806152 61.6898584 61.84132813 62.60847656 61.28833008 63.55493164 C60.48798408 64.94711484 59.71888669 66.3583692 59.00073242 67.79467773 C52.40073242 67.46467773 45.80073242 67.13467773 39.00073242 66.79467773 C37.26823242 63.14405273 37.26823242 63.14405273 35.50073242 59.41967773 C35.1352832 58.65478027 34.76983398 57.88988281 34.39331055 57.10180664 C32.00073242 52.01689996 32.00073242 52.01689996 32.00073242 49.79467773 C32.60433594 49.53364258 33.20793945 49.27260742 33.82983398 49.00366211 C58.63273588 39.03573628 58.63273588 39.03573628 76.00073242 19.79467773 C37.68761307 22.8224737 4.61432041 32.99036985 -31.04492188 47.06713867 C-32.45536522 47.62048637 -32.45536522 47.62048637 -33.89430237 48.18501282 C-35.67280714 48.88303106 -37.44948722 49.58572306 -39.22398376 50.29386902 C-43.48292611 51.96128626 -47.41895787 53.26532546 -51.99926758 53.79467773 C-46.34366346 43.63599257 -39.91957405 34.07982292 -33.37426758 24.48217773 C-32.34007537 22.95831856 -31.30621924 21.43423124 -30.27270508 19.90991211 C-26.46728027 14.30589226 -26.46728027 14.30589226 -24.56713867 11.52001953 C-24.19076263 10.96775192 -23.8143866 10.41548431 -23.42660522 9.84648132 C-22.9555838 9.16938614 -22.48456238 8.49229095 -21.99926758 7.79467773 C-21.77631799 7.2130465 -21.5533684 6.63141527 -21.32366276 6.03215885 C-17.42879516 -2.07755644 -7.68590017 -0.11969877 0 0 Z "
     fill="#E50919"
     transform="translate(348.999267578125,79.205322265625)"
     id="path6"
     style="fill:#ffffff" />
  <path
     d="M0 0 C1.48558914 0.00666183 1.48558914 0.00666183 3.00119019 0.01345825 C4.68270676 0.01368484 4.68270676 0.01368484 6.39819336 0.01391602 C7.61280243 0.02423859 8.8274115 0.03456116 10.0788269 0.04519653 C11.31897552 0.04802643 12.55912415 0.05085632 13.83685303 0.05377197 C17.13476073 0.06308729 20.43247413 0.08106014 23.73031616 0.10317993 C27.0951601 0.12363429 30.46003247 0.1327728 33.82492065 0.14285278 C40.42786163 0.16494385 47.03067212 0.19844421 53.6335144 0.24050903 C53.00887446 6.72832404 51.96630594 12.98228712 50.59225464 19.35012817 C50.38728363 20.3170459 50.18231262 21.28396362 49.97113037 22.28018188 C49.2989144 25.44623661 48.62056211 28.61094199 47.94210815 31.77566528 C47.47233151 33.9823256 47.0029413 36.18906823 46.53392029 38.39588928 C45.30314885 44.18179583 44.06715474 49.96657444 42.83004761 55.75112915 C41.34427338 62.70377834 39.86502857 69.6578193 38.3846817 76.61162567 C36.13927671 87.15565797 33.88561592 97.69789501 31.6335144 108.24050903 C12.1635144 108.24050903 -7.3064856 108.24050903 -27.3664856 108.24050903 C-25.11610882 94.73824835 -25.11610882 94.73824835 -23.87014771 88.86721802 C-23.73491196 88.22654892 -23.59967621 87.58587982 -23.46034241 86.92579651 C-23.0240497 84.86218286 -22.58406865 82.79937774 -22.14382935 80.73660278 C-21.8350219 79.281242 -21.52639597 77.82584269 -21.21794128 76.3704071 C-20.57663498 73.34718219 -19.9335575 70.32434155 -19.28909302 67.30178833 C-18.46340991 63.42888034 -17.64165074 59.5551523 -16.82111263 55.68115139 C-16.18676157 52.68777883 -15.55067871 49.69477642 -14.91403389 46.70189095 C-14.6101613 45.27264294 -14.30675539 43.84329562 -14.00382805 42.41384697 C-13.58207876 40.42528279 -13.15781332 38.43725276 -12.73342896 36.44924927 C-12.49297348 35.31962265 -12.25251801 34.18999603 -12.004776 33.02613831 C-11.3664856 30.24050903 -11.3664856 30.24050903 -10.3664856 27.24050903 C-16.6364856 27.24050903 -22.9064856 27.24050903 -29.3664856 27.24050903 C-29.3664856 26.58050903 -29.3664856 25.92050903 -29.3664856 25.24050903 C-27.92849731 23.80618286 -27.92849731 23.80618286 -25.9211731 22.13504028 C-21.30343916 18.20823657 -16.89312232 14.09411958 -12.4914856 9.92800903 C-11.73351685 9.21322388 -10.9755481 8.49843872 -10.1946106 7.76199341 C-2.20962767 0.22456736 -2.20962767 0.22456736 0 0 Z "
     fill="#251B18"
     transform="translate(228.36648559570313,80.75949096679688)"
     id="path8"
     style="fill:#ffffff" />
  <path
     d="M0 0 C1.22882904 0.01273453 2.45765808 0.02546906 3.72372437 0.03858948 C7.61737211 0.08864628 11.50621833 0.20150412 15.3984375 0.31640625 C18.05071355 0.3615879 20.70306326 0.40264597 23.35546875 0.43945312 C29.82974071 0.53824788 36.30124607 0.68850817 42.7734375 0.87890625 C38.92927853 21.63076839 34.5865987 42.2701875 30.18798828 62.91015625 C29.20367928 67.52921137 28.22425245 72.14928717 27.24608231 76.76964569 C26.48627651 80.35585068 25.72389404 83.94150403 24.96071625 87.5269928 C24.59786696 89.23330766 24.23584477 90.93979862 23.87467194 92.64646912 C23.37514545 95.00511924 22.87213523 97.3629993 22.36816406 99.72070312 C22.22065201 100.42072449 22.07313995 101.12074585 21.92115784 101.84197998 C20.88770493 106.65037138 20.88770493 106.65037138 19.7734375 108.87890625 C0.6334375 108.87890625 -18.5065625 108.87890625 -38.2265625 108.87890625 C-37.61051333 102.71841455 -37.02243613 97.26319613 -35.73608398 91.31787109 C-35.5896344 90.63366089 -35.44318481 89.94945068 -35.29229736 89.24450684 C-34.81593277 87.02513231 -34.33189325 84.80751259 -33.84765625 82.58984375 C-33.51230164 81.0348223 -33.17743534 79.47969547 -32.84303284 77.92446899 C-31.96836435 73.86289144 -31.08713854 69.80276481 -30.20446777 65.74291992 C-29.30221381 61.58729349 -28.40626774 57.43030785 -27.50976562 53.2734375 C-25.75481481 45.14059314 -23.9923412 37.00940657 -22.2265625 28.87890625 C-28.1665625 28.54890625 -34.1065625 28.21890625 -40.2265625 27.87890625 C-38.53480527 24.49539179 -37.72121939 23.1444281 -35.1015625 20.7421875 C-34.47636719 20.16404297 -33.85117187 19.58589844 -33.20703125 18.99023438 C-32.55347656 18.39662109 -31.89992188 17.80300781 -31.2265625 17.19140625 C-30.60394531 16.61712891 -29.98132813 16.04285156 -29.33984375 15.45117188 C-28.06273648 14.27638862 -26.77517488 13.11286335 -25.47714233 11.96124268 C-23.18875871 9.89871915 -23.18875871 9.89871915 -21.09512329 7.56988525 C-14.36379418 0.63407926 -9.4622809 -0.37461072 0 0 Z "
     fill="#261B18"
     transform="translate(554.2265625,80.12109375)"
     id="path10"
     style="fill:#ffffff" />
  <path
     d="M0 0 C0 0.66 0 1.32 0 2 C-1.0415625 2.46148437 -2.083125 2.92296875 -3.15625 3.3984375 C-15.97251575 9.18798401 -28.72287921 15.74985247 -39.32421875 25.13671875 C-41.88539536 26.45611276 -43.27117872 25.83993506 -46 25 C-48.48600541 23.95621443 -50.9284471 22.87805845 -53.375 21.75 C-67.21301948 15.57284999 -81.11829898 11.65108147 -96 9 C-97.26328125 8.77183594 -98.5265625 8.54367188 -99.828125 8.30859375 C-120.96969975 5.19825919 -143.9160315 5.9212458 -165 9 C-164 6 -164 6 -160.9296875 4.16796875 C-159.58428313 3.49535107 -158.23217833 2.83603254 -156.875 2.1875 C-155.79617554 1.6630127 -155.79617554 1.6630127 -154.69555664 1.12792969 C-105.06368117 -22.66408241 -50.28782434 -20.23568274 0 0 Z "
     fill="#291F1C"
     transform="translate(447,202)"
     id="path12"
     style="fill:#ffffff" />
  <path
     d="M0 0 C2.08208481 1.02235969 4.12690245 2.12225637 6.140625 3.2734375 C6.70827576 3.59784821 7.27592651 3.92225891 7.86077881 4.25650024 C9.05278129 4.94056835 10.24271715 5.62824895 11.43066406 6.31933594 C13.25179517 7.37604164 15.08225257 8.41506667 16.9140625 9.453125 C18.07351869 10.12135234 19.23239413 10.79058858 20.390625 11.4609375 C21.9689209 12.37045166 21.9689209 12.37045166 23.57910156 13.29833984 C26 15 26 15 27 18 C26.66015625 20.26171875 26.66015625 20.26171875 26.0625 22.6875 C25.86785156 23.49574219 25.67320312 24.30398437 25.47265625 25.13671875 C25.23869141 26.05904297 25.23869141 26.05904297 25 27 C24.37246826 27.06993164 23.74493652 27.13986328 23.09838867 27.21191406 C-8.07876786 30.74451109 -34.95593113 37.39092331 -61.5234375 54.53125 C-64 56 -64 56 -66 56 C-57.52405406 31.8018331 -28.42792841 11.80536695 -7.296875 -0.20703125 C-4.35644002 -1.22218142 -2.99652512 -0.82468515 0 0 Z "
     fill="#E50A1A"
     transform="translate(337,152)"
     id="path14"
     style="fill:#ffffff" />
  <path
     d="M0 0 C0 0.66 0 1.32 0 2 C-0.83660156 2.17128418 -1.67320312 2.34256836 -2.53515625 2.51904297 C-5.67394843 3.16253013 -8.8124174 3.80756617 -11.95068359 4.45361328 C-13.30244636 4.73156688 -14.65433196 5.00892387 -16.00634766 5.28564453 C-17.9628967 5.68620926 -19.91895211 6.08918266 -21.875 6.4921875 C-23.1220874 6.74581055 -24.3691748 6.99943359 -25.65405273 7.26074219 C-28.31309198 7.84823368 -30.82314179 8.55389831 -33.41015625 9.3828125 C-38.24186461 10.21350882 -41.04900808 8.93152608 -45.4375 7 C-67.03548481 -1.63748607 -90.10773663 -4.72244908 -113 -8 C-110.58047788 -10.41952212 -109.70471051 -10.3435409 -106.37109375 -10.6328125 C-105.42758057 -10.71692383 -104.48406738 -10.80103516 -103.51196289 -10.88769531 C-102.49739014 -10.96600586 -101.48281738 -11.04431641 -100.4375 -11.125 C-99.39263428 -11.2084668 -98.34776855 -11.29193359 -97.27124023 -11.37792969 C-64.04477676 -13.87367079 -32.04635878 -8.49575403 0 0 Z "
     fill="#2C211F"
     transform="translate(498,188)"
     id="path16"
     style="fill:#ffffff" />
  <path
     d="M0 0 C0.69969682 2.24623699 1.38435043 4.49716414 2.0625 6.75 C2.44535156 8.00296875 2.82820313 9.2559375 3.22265625 10.546875 C4.31580387 15.40286746 4.31580387 15.40286746 3 18 C1.0390625 19.78125 1.0390625 19.78125 -1.375 21.5 C-4.51532861 23.75039835 -6.82128017 25.79517341 -9 29 C-12.89017121 28.34695118 -16.30443912 27.19461184 -19.95703125 25.71484375 C-21.62475586 25.04291992 -21.62475586 25.04291992 -23.32617188 24.35742188 C-24.47666016 23.88884766 -25.62714844 23.42027344 -26.8125 22.9375 C-27.98232422 22.46505859 -29.15214844 21.99261719 -30.35742188 21.50585938 C-33.23987543 20.34111284 -36.12063965 19.17236766 -39 18 C-39 17.34 -39 16.68 -39 16 C-18.70274818 6.20874053 -18.70274818 6.20874053 -9.9375 2.375 C-8.34228516 1.67503906 -8.34228516 1.67503906 -6.71484375 0.9609375 C-4 0 -4 0 0 0 Z "
     fill="#E6101F"
     transform="translate(377,132)"
     id="path18"
     style="fill:#ffffff" />
  <path
     d="M0 0 C11.15286791 -0.25567714 22.30503094 -0.45072302 33.46024036 -0.56993389 C38.64113708 -0.62717233 43.82001882 -0.7047062 48.99975586 -0.82983398 C54.00554145 -0.94999286 59.00939859 -1.01525494 64.01651573 -1.04364967 C65.91962723 -1.06386373 67.82264148 -1.10334093 69.72492409 -1.16303062 C86.1834149 -1.65858544 86.1834149 -1.65858544 92.29507732 4.0107069 C94.37074581 6.2211786 96.23318686 8.53758539 98 11 C97.34 11.66 96.68 12.32 96 13 C96 12.34 96 11.68 96 11 C95.01 10.67 94.02 10.34 93 10 C92.29991694 8.83738755 91.61895075 7.66319432 90.94995117 6.48242188 C88.50079977 3.55591292 87.176301 3.03037969 83.35171509 2.37133789 C78.50233629 2.07644164 73.65514021 2.18633372 68.80078125 2.28125 C67.00051824 2.2917768 65.20023568 2.29934206 63.39994812 2.30407715 C58.67074007 2.32508509 53.94302217 2.38897745 49.21435547 2.46105957 C45.34922323 2.51292635 41.48419515 2.53489169 37.61878681 2.55518341 C29.63927522 2.59746638 21.65970256 2.65900427 13.6809082 2.77539062 C12.57511162 2.78649368 12.57511162 2.78649368 11.44697571 2.79782104 C8.36990964 2.85004841 5.94176817 3.01941061 3 4 C2.01 2.68 1.02 1.36 0 0 Z "
     fill="#312725"
     transform="translate(610,81)"
     id="path20"
     style="fill:#ffffff" />
  <path
     d="M0 0 C0 0.33 0 0.66 0 1 C-11.88 1.33 -23.76 1.66 -36 2 C-36 2.66 -36 3.32 -36 4 C-33.36 4 -30.72 4 -28 4 C-28 4.66 -28 5.32 -28 6 C-27.34 6.33 -26.68 6.66 -26 7 C-36.35936415 5.82108931 -46.68654553 4.53639417 -57 3 C-54.58047788 0.58047788 -53.70471051 0.6564591 -50.37109375 0.3671875 C-49.42685547 0.28315674 -48.48261719 0.19912598 -47.50976562 0.11254883 C-46.49591797 0.03415771 -45.48207031 -0.0442334 -44.4375 -0.125 C-43.39916016 -0.20919189 -42.36082031 -0.29338379 -41.29101562 -0.38012695 C-27.44259838 -1.43283704 -13.83450808 -1.12770372 0 0 Z "
     fill="#534B49"
     transform="translate(442,177)"
     id="path22"
     style="fill:#ffffff" />
  <path
     d="M0 0 C0.99 0.33 1.98 0.66 3 1 C3.495 2.485 3.495 2.485 4 4 C-16.13 4 -36.26 4 -57 4 C-56.67 3.01 -56.34 2.02 -56 1 C-37.52 1.33 -19.04 1.66 0 2 C0 1.34 0 0.68 0 0 Z "
     fill="#392F2C"
     transform="translate(170,185)"
     id="path24"
     style="fill:#ffffff" />
  <path
     d="M0 0 C0.66 0.33 1.32 0.66 2 1 C-3.39771367 6.9723752 -8.82898196 12.91181302 -14.4375 18.6875 C-15.61119141 19.89986328 -15.61119141 19.89986328 -16.80859375 21.13671875 C-18.97554275 22.9792048 -20.22036792 23.62642758 -23 24 C-19.38425686 18.77725991 -15.4200473 14.22705062 -10.9375 9.75 C-10.4312207 9.24307617 -9.92494141 8.73615234 -9.40332031 8.21386719 C-6.41384129 5.26717837 -3.32422169 2.56178552 0 0 Z "
     fill="#E82B34"
     transform="translate(304,169)"
     id="path26"
     style="fill:#ffffff" />
  <path
     d="M0 0 C1.68128998 0.00045319 1.68128998 0.00045319 3.39654541 0.00091553 C4.60083191 0.02156067 5.80511841 0.04220581 7.04589844 0.06347656 C8.28321716 0.06913635 9.52053589 0.07479614 10.79534912 0.08062744 C14.0770528 0.09921905 17.35796625 0.13512658 20.6394043 0.17944336 C23.9909741 0.22043991 27.34257788 0.23830655 30.69433594 0.25878906 C37.26495734 0.30290252 43.83505076 0.36985079 50.40527344 0.45410156 C50.07527344 3.42410156 49.74527344 6.39410156 49.40527344 9.45410156 C48.74527344 8.79410156 48.08527344 8.13410156 47.40527344 7.45410156 C47.40527344 6.13410156 47.40527344 4.81410156 47.40527344 3.45410156 C48.06527344 3.45410156 48.72527344 3.45410156 49.40527344 3.45410156 C49.40527344 2.79410156 49.40527344 2.13410156 49.40527344 1.45410156 C41.76945594 1.52097215 34.13415569 1.61072732 26.4987793 1.71655273 C23.90020901 1.749849 21.30156557 1.7778661 18.70288086 1.80053711 C14.97185025 1.83399607 11.24149283 1.88630885 7.51074219 1.94238281 C5.76219185 1.9519677 5.76219185 1.9519677 3.97831726 1.96174622 C2.35697624 1.99143745 2.35697624 1.99143745 0.70288086 2.02172852 C-0.24976151 2.03283157 -1.20240387 2.04393463 -2.18391418 2.05537415 C-4.97397474 2.51682592 -5.86429743 3.27351916 -7.59472656 5.45410156 C-8.25472656 5.12410156 -8.91472656 4.79410156 -9.59472656 4.45410156 C-6.51621609 0.77626127 -4.77305631 -0.04300051 0 0 Z "
     fill="#514846"
     transform="translate(231.5947265625,80.5458984375)"
     id="path28"
     style="fill:#ffffff" />
  <path
     d="M0 0 C0.99 0.33 1.98 0.66 3 1 C0.93132437 3.20319933 -1.15281794 5.38672975 -3.25 7.5625 C-4.12978516 8.50512695 -4.12978516 8.50512695 -5.02734375 9.46679688 C-5.60097656 10.05654297 -6.17460937 10.64628906 -6.765625 11.25390625 C-7.28930664 11.80377197 -7.81298828 12.3536377 -8.35253906 12.92016602 C-10 14 -10 14 -12.20214844 13.67163086 C-12.79543945 13.44999268 -13.38873047 13.22835449 -14 13 C-12.04468135 11.0177733 -10.08594334 9.03914884 -8.125 7.0625 C-7.56941406 6.49853516 -7.01382813 5.93457031 -6.44140625 5.35351562 C-2.2265625 1.11328125 -2.2265625 1.11328125 0 0 Z "
     fill="#3C3330"
     transform="translate(215,92)"
     id="path30"
     style="fill:#ffffff" />
  <path
     d="M0 0 C0.66 0.33 1.32 0.66 2 1 C1.01 2.485 1.01 2.485 0 4 C2.97 4.33 5.94 4.66 9 5 C9 5.33 9 5.66 9 6 C-0.405 6.99 -0.405 6.99 -10 8 C-8.7820245 4.34607349 -7.85603494 4.04168301 -4.5625 2.25 C-3.75941406 1.80140625 -2.95632813 1.3528125 -2.12890625 0.890625 C-1.07509766 0.44976562 -1.07509766 0.44976562 0 0 Z "
     fill="#625B59"
     transform="translate(292,203)"
     id="path32"
     style="fill:#ffffff" />
  <path
     d="M0 0 C0.33 0.99 0.66 1.98 1 3 C-3.62 7.62 -8.24 12.24 -13 17 C-13.66 16.34 -14.32 15.68 -15 15 C-10.05 10.05 -5.1 5.1 0 0 Z "
     fill="#E82F35"
     transform="translate(489,102)"
     id="path34"
     style="fill:#ffffff" />
  <path
     d="M0 0 C3.3 0.66 6.6 1.32 10 2 C10 2.66 10 3.32 10 4 C7.41842632 4.53132389 4.83538244 5.05034379 2.25 5.5625 C1.52039063 5.71396484 0.79078125 5.86542969 0.0390625 6.02148438 C-3.66557073 6.74557178 -6.39322322 7.09817231 -10 6 C-9.01 6 -8.02 6 -7 6 C-7 5.34 -7 4.68 -7 4 C-4.03 4 -1.06 4 2 4 C2 3.01 2 2.02 2 1 C1.34 0.67 0.68 0.34 0 0 Z "
     fill="#665F5D"
     transform="translate(488,186)"
     id="path36"
     style="fill:#ffffff" />
  <path
     d="M0 0 C1.9375 0.3125 1.9375 0.3125 4 1 C4.33 1.99 4.66 2.98 5 4 C6.31952498 4.69359646 7.65525957 5.35665296 9 6 C10.921875 7.7265625 10.921875 7.7265625 12.75 9.625 C13.36359375 10.25664063 13.9771875 10.88828125 14.609375 11.5390625 C15.29773438 12.26222656 15.29773438 12.26222656 16 13 C15.34 13.66 14.68 14.32 14 15 C11.66265901 12.69152056 9.33081534 10.37756659 7 8.0625 C6.33226562 7.40314453 5.66453125 6.74378906 4.9765625 6.06445312 C4.34492187 5.43603516 3.71328125 4.80761719 3.0625 4.16015625 C2.47597656 3.57886963 1.88945313 2.99758301 1.28515625 2.39868164 C0 1 0 1 0 0 Z "
     fill="#453C3A"
     transform="translate(614,85)"
     id="path38"
     style="fill:#ffffff" />
  <path
     d="M0 0 C0.33 0.99 0.66 1.98 1 3 C-0.40078398 4.53547475 -1.82120903 6.05305148 -3.25 7.5625 C-4.43335938 8.83287109 -4.43335938 8.83287109 -5.640625 10.12890625 C-6.41921875 10.74636719 -7.1978125 11.36382812 -8 12 C-9.32 11.67 -10.64 11.34 -12 11 C-8.04 7.37 -4.08 3.74 0 0 Z "
     fill="#3E3532"
     transform="translate(37,94)"
     id="path40"
     style="fill:#ffffff" />
  <path
     d="M0 0 C0.33 0.66 0.66 1.32 1 2 C-0.04714924 3.32477959 -1.11344669 4.63443746 -2.1875 5.9375 C-2.77917969 6.66839844 -3.37085938 7.39929688 -3.98046875 8.15234375 C-6.32505203 10.29738803 -7.88391498 10.66094412 -11 11 C-7.6381774 6.74828319 -4.25171681 3.3618226 0 0 Z "
     fill="#463D3B"
     transform="translate(526,95)"
     id="path42"
     style="fill:#ffffff" />
  <path
     d="M0 0 C-1.3418344 4.02550319 -3.4227573 4.88285636 -7 7 C-7.66 7 -8.32 7 -9 7 C-10.625 4.5 -10.625 4.5 -12 2 C-11.0925 2.226875 -10.185 2.45375 -9.25 2.6875 C-6.01560852 3.33556459 -6.01560852 3.33556459 -3.75 1.5625 C-2 0 -2 0 0 0 Z "
     fill="#EA3B41"
     transform="translate(432,154)"
     id="path44"
     style="fill:#ffffff" />
  <path
     d="M0 0 C-1.24993996 3.74981988 -2.7230706 4.86618551 -6 7 C-8.3125 6.75 -8.3125 6.75 -10 6 C-10 5.34 -10 4.68 -10 4 C-8.71086513 3.32845067 -7.41859796 2.66291141 -6.125 2 C-5.40570313 1.62875 -4.68640625 1.2575 -3.9453125 0.875 C-2 0 -2 0 0 0 Z "
     fill="#E93139"
     transform="translate(348,144)"
     id="path46"
     style="fill:#ffffff" />
  <path
     d="M0 0 C0 0.33 0 0.66 0 1 C-2.10320063 1.50404808 -4.20759791 2.00310508 -6.3125 2.5 C-8.07013672 2.91765625 -8.07013672 2.91765625 -9.86328125 3.34375 C-13 4 -13 4 -16 4 C-16 3.34 -16 2.68 -16 2 C-14.02 2 -12.04 2 -10 2 C-10 1.34 -10 0.68 -10 0 C-6.42355152 -1.2380014 -3.66305234 -0.74926071 0 0 Z "
     fill="#EB434B"
     transform="translate(332,182)"
     id="path48"
     style="fill:#ffffff" />
  <path
     d="M0 0 C4.95 0 9.9 0 15 0 C15 0.66 15 1.32 15 2 C15.66 2.33 16.32 2.66 17 3 C11.39 2.34 5.78 1.68 0 1 C0 0.67 0 0.34 0 0 Z "
     fill="#67605D"
     transform="translate(399,181)"
     id="path50"
     style="fill:#ffffff" />
  <path
     d="M0 0 C1.17369141 -0.02513672 1.17369141 -0.02513672 2.37109375 -0.05078125 C5.02377163 0.38896749 5.885467 1.26878454 7.5625 3.3125 C2.7291528 3.39583357 -1.67442563 3.26511487 -6.4375 2.3125 C-4.02263057 -0.10236943 -3.31042211 0.0163075 0 0 Z "
     fill="#756E6C"
     transform="translate(391.4375,177.6875)"
     id="path52"
     style="fill:#ffffff" />
  <path
     d="M0 0 C1.44977894 2.34112451 2.04314411 3.5796929 1.7578125 6.359375 C1.54898438 7.14828125 1.34015625 7.9371875 1.125 8.75 C0.92132812 9.54921875 0.71765625 10.3484375 0.5078125 11.171875 C0.34023438 11.77515625 0.17265625 12.3784375 0 13 C-0.66 13 -1.32 13 -2 13 C-1.85769192 11.58297487 -1.71099254 10.1663904 -1.5625 8.75 C-1.48128906 7.96109375 -1.40007813 7.1721875 -1.31640625 6.359375 C-1.02365007 4.17635361 -0.57935581 2.1226818 0 0 Z "
     fill="#514946"
     transform="translate(532,109)"
     id="path54"
     style="fill:#ffffff" />
  <path
     d="M0 0 C5.26053037 -0.31563182 8.44573816 0.33409063 13 3 C12.67 3.66 12.34 4.32 12 5 C10.56068883 4.54738642 9.12361001 4.08767021 7.6875 3.625 C6.88699219 3.36976563 6.08648437 3.11453125 5.26171875 2.8515625 C3 2 3 2 0 0 Z "
     fill="#5D5554"
     transform="translate(382,218)"
     id="path56"
     style="fill:#ffffff" />
  <path
     d="M0 0 C4.29 0.33 8.58 0.66 13 1 C13 1.33 13 1.66 13 2 C7.06 2.33 1.12 2.66 -5 3 C-5 2.67 -5 2.34 -5 2 C-3.35 2 -1.7 2 0 2 C0 1.34 0 0.68 0 0 Z "
     fill="#F06E77"
     transform="translate(400,98)"
     id="path58"
     style="fill:#ffffff" />
  <path
     d="M0 0 C0.99 0.66 1.98 1.32 3 2 C1.71086513 2.67154933 0.41859796 3.33708859 -0.875 4 C-1.59429687 4.37125 -2.31359375 4.7425 -3.0546875 5.125 C-5 6 -5 6 -7 6 C-7 5.34 -7 4.68 -7 4 C-4.69 2.68 -2.38 1.36 0 0 Z "
     fill="#E9333A"
     transform="translate(294,192)"
     id="path60"
     style="fill:#ffffff" />
  <path
     d="M0 0 C0.33 0.66 0.66 1.32 1 2 C1.66 2 2.32 2 3 2 C3 1.34 3 0.68 3 0 C4.32 0.33 5.64 0.66 7 1 C3.81237635 3.12508244 1.73487777 3.5020163 -2 4 C-1.34 2.68 -0.68 1.36 0 0 Z "
     fill="#ED535C"
     transform="translate(299,129)"
     id="path62"
     style="fill:#ffffff" />
</svg>
