<svg xmlns="http://www.w3.org/2000/svg" width="1064" height="395.092"><path d="m192.152 20.024.581-.002q1.53-.006 3.061-.007 1.23-.002 2.462-.01c7.49-.052 14.937.317 22.359 1.382l.556.078c19.834 2.779 38.889 8.69 67.395 23.198q.981.588 1.97 1.163c6.14 3.596 11.914 7.791 17.458 12.244l.695.556c4.32 3.496 8.383 7.256 12.32 11.177l.594.591a60 60 0 0 1 3.009 3.233c.485.563.987 1.111 1.49 1.66 3.14 3.485 3.14 3.485 3.14 4.28l-.846.149c-8.73 1.628-16.3 5.942-22.738 11.984-.527.49-1.06.956-1.616 1.413-.754.64-1.394 1.341-2.032 2.095q-.58.684-1.178 1.355c-14.984 16.972-22.166 40.365-28.52 84.507l-.045.622c-.421 5.948-.57 11.898-.565 17.86v.95c.029 21.508 2.575 43.049 9.296 63.542l.27.833c3.243 9.94 7.681 19.845 13.728 28.413l.562.814a79 79 0 0 0 7.937 9.685l.415.431c6.54 6.759 14.338 11.567 23.332 14.317a6.3 6.3 0 0 1-1.226 1.83l-.435.464-.464.487-.476.504c-1.704 1.799-3.416 3.577-5.302 5.188a78 78 0 0 0-1.933 1.78c-1.449 1.368-2.91 2.69-4.469 3.932a49 49 0 0 0-1.465 1.235c-2.286 2.007-4.688 3.83-7.135 5.636q-.78.581-1.546 1.18c-6.524 5.06-13.782 9.36-21.043 13.26-.208.111-.415.224-.63.34-6.273 3.377-12.729 6.324-19.368 8.908l-.804.316c-14.58 5.695-30.088 9.172-45.643 10.76l-.603.062c-4.087.412-8.157.65-12.265.661l-1.132.005a860 860 0 0 1-4.21.007c-5.956.002-11.876-.037-17.797-.749q-.852-.101-1.704-.198c-20.241-2.337-39.807-8.013-70.351-23.427q-.794-.48-1.592-.952a138 138 0 0 1-6.58-4.17l-.492-.33c-3.884-2.599-7.656-5.31-11.304-8.232l-.657-.519a163 163 0 0 1-4.667-3.869q-.629-.533-1.261-1.064c-3.613-3.043-6.977-6.338-10.32-9.671l-.426-.425c-3.378-3.366-3.378-3.366-4.417-4.7v-.25l.507-.053c13.259-1.415 24.483-7.194 33.145-17.523q.554-.705 1.094-1.421l.357-.463c10.922-14.236 14.446-31.796 12.202-49.369-1.87-13.87-7.065-26.86-16.059-37.657l-.348-.422c-2.875-3.46-5.929-6.753-9.285-9.75q-.517-.463-1.026-.932c-1.485-1.356-3.022-2.634-4.589-3.894l-.832-.677c-3.486-2.826-7.093-5.493-10.737-8.112a548 548 0 0 1-5.83-4.268 540 540 0 0 0-1.795-1.317c-4.785-3.501-9.42-7.125-13.801-11.123l-.76-.68c-1.427-1.284-2.761-2.592-3.99-4.07l-.629-.713c-1.625-1.854-3.037-3.79-4.357-5.872a55 55 0 0 0-.682-1.04c-5.023-7.784-6.457-18.42-4.528-27.366.451-1.93 1.115-3.705 1.947-5.503l.342-.746c1.89-3.78 5.08-6.312 8.985-7.769 4.352-1.337 9.562-.823 13.608 1.172 5.203 3.104 7.47 8.497 8.951 14.123 1.662 6.613 1.672 13.432 1.86 20.217h37.495c-.569-20.483-1.857-43.5-16.748-59.243l-.61-.66c-2.941-3.072-6.367-5.406-10.138-7.339l-.505-.261c-4.194-2.15-8.642-3.517-13.244-4.488 0-1.074.639-1.53 1.344-2.266l.41-.436c1.05-1.11 2.13-2.19 3.22-3.262.423-.43.808-.86 1.182-1.332.612-.725 1.264-1.295 1.984-1.907.775-.695 1.503-1.43 2.234-2.17 1.016-1.027 2.037-2.024 3.138-2.96.575-.49 1.131-1 1.69-1.509 2.252-2.03 4.64-3.898 7.034-5.757q.526-.41 1.048-.823c4.149-3.283 8.533-6.186 12.962-9.074l.74-.485c5.296-3.453 10.869-6.416 16.508-9.264l.758-.385c19.138-9.664 40.405-15.111 62.264-17.172l.513-.048a159 159 0 0 1 1.706-.142l.827-.066c2.357-.173 4.703-.229 7.065-.235m-62.635 64.043v232.97h40.495V216.05h43.994v100.987h40.245V84.067h-40.245v93.988h-44.244V84.067zM401.232 87.066h37.746c.293 1.761.579 3.491.77 5.26l.07.63.227 2.069.167 1.506.454 4.125.491 4.455.906 8.221.837 7.605.056.51.226 2.053 2.12 19.247 1.878 17.053.12 1.093.06.545.3 2.721.06.543 1.687 15.317.057.513.112 1.022 1.788 16.233.485 4.403c.665 6.033 1.32 12.065 1.877 18.11h.5l.028-.579c.164-2.778.57-5.506.983-8.257l.239-1.609q.326-2.198.656-4.394l.705-4.735q.607-4.089 1.218-8.176a25057 25057 0 0 0 2.575-17.283l.082-.553 1.25-8.394q2.283-15.322 4.555-30.646l.077-.517 3.412-23.014.27-1.82.393-2.65 1.184-7.986.202-1.364q.835-5.628 1.668-11.257h37.745l4.738 34.712.07.52 1.53 11.203.75 5.495.075.552 4.891 35.845.352 2.579 1.177 8.62 1.947 14.269.11.811q.413 3.015.822 6.032.286 2.096.574 4.19l.524 3.815q.114.814.224 1.628l.126.917c.077.691.106 1.35.088 2.045h.5l.04-.646c.14-2.093.346-4.168.603-6.25l.12-.98q.162-1.335.327-2.669l.354-2.897.616-5.038.909-7.425q.747-6.117 1.497-12.235l1.415-11.559.086-.703.515-4.21.775-6.343.087-.706 2.08-16.988a26728 26728 0 0 0 3.205-26.291l.092-.754 1.419-11.667 1.029-8.463.468-3.855q.083-.694.17-1.387c.03-.258.062-.515.094-.78.097-.637.097-.637.347-1.387h181.227v227.221h-41.745V122.562h-37.745v191.725h-41.495V122.562h-34.995l-.75 6.499a611 611 0 0 1-.649 5.06l-.376 2.87-.41 3.142-.717 5.475-1.06 8.105q-.886 6.78-1.773 13.558l-2.518 19.246-.889 6.8-.223 1.71-1.58 12.078a147956 147956 0 0 0-6.494 49.721 355494 355494 0 0 0-6.948 53.253l-.1.774-.094.712-.08.61c-.1.706-.219 1.41-.336 2.112h-37.995l-2.96-21.47-.076-.548-1.132-8.213-.244-1.772c-2.886-20.94-5.77-41.88-10.862-78.92l-.252-1.835-4.222-30.723c-.506.506-.452 1.472-.548 2.168l-.09.618-.293 2.08-.213 1.494q-.293 2.061-.584 4.124l-.629 4.426-1.087 7.665q-.57 4.033-1.143 8.066l-.072.507-.29 2.038a73362 73362 0 0 0-4.787 33.778 144037 144037 0 0 0-6.202 43.792q-.8 5.663-1.597 11.327l-.921 6.544q-.379 2.683-.754 5.365l-.679 4.826-.294 2.09-.086.62c-.2 1.396-.2 1.396-.478 1.953H431.48c-.59-3.833-1.175-7.66-1.683-11.503l-.187-1.398-.504-3.785q-.273-2.064-.55-4.127l-.957-7.189q-.705-5.301-1.412-10.603a110309 110309 0 0 1-4.727-35.501l-1.086-8.15-.145-1.09-2.77-20.794a96358 96358 0 0 0-9.55-71.53c-.035-.256-.07-.511-.104-.774q-1.201-8.981-2.405-17.962l-1.575-11.772q-.459-3.439-.921-6.877a5359 5359 0 0 1-.952-7.105l-.368-2.756-.11-.804-.097-.74-.084-.633c-.067-.706-.06-1.418-.06-2.128zM747.438 87.066h55.243c.36 1.264.644 2.457.845 3.745.03.195.062.389.094.59l.309 1.95.225 1.414.616 3.88.663 4.176q.575 3.61 1.147 7.222.827 5.216 1.656 10.43 1.296 8.15 2.588 16.297 1.762 11.093 3.525 22.184a168716 168716 0 0 1 6.484 40.797l.14.872.12.75c.082.651.102 1.273.086 1.928h.5l.117-.866c.544-3.952 1.203-7.885 1.868-11.818l.5-2.977.87-5.168 2.238-13.319.373-2.217q1.927-11.474 3.838-22.95l.129-.771 2.37-14.232q1.533-9.222 3.073-18.443l.248-1.484a12844 12844 0 0 1 2.212-13.206l.802-4.781.295-1.753.086-.52c.2-1.173.2-1.173.478-1.73h53.993v227.221h-37.245l-.25-165.978c-5.1 30.213-5.1 30.213-10.193 60.428l-2.202 13.066-.118.703q-2.568 15.24-5.14 30.477l-.104.609-.613 3.633-.82 4.861-.206 1.22-5.404 32.03-.474 2.812-.577 3.42-.103.61-2.042 12.11H806.43c-.563-2.25-.563-2.25-.737-3.296l-.122-.723-.128-.778-.141-.842q-.235-1.401-.467-2.802l-.338-2.026q-.368-2.203-.735-4.408l-1.093-6.555-1.951-11.706-1.707-10.242-.114-.686-.46-2.756-4.309-25.86q-1.914-11.495-3.831-22.988l-4.304-25.818-.458-2.75-.114-.684-1.707-10.24a34164 34164 0 0 1-3.025-18.154 5915 5915 0 0 1-1.138-6.828l-.444-2.667-.132-.785-.118-.715-.102-.617c-.072-.554-.072-.554-.072-1.553h-.5v166.478h-30.746zM915.417 87.066h93.738v35.496H956.91v57.492h38.495V217.3h-38.495v61.492h54.493v35.495h-95.987z" style="fill:#fff;stroke-width:.249968"/><path d="m354.173 121.301 1.264 1.139c14.796 13.798 17.4 41.422 19.127 60.49l.062.68a159 159 0 0 1 .656 15.112c-.028 16.45-1.958 33.06-6.795 48.824l-.226.74c-3.15 10.181-8.21 22.78-18.171 28.091-3.723 1.817-7.862 1.72-11.756.486-2.617-.996-4.774-2.45-6.843-4.32q-.309-.28-.63-.568c-13.06-12.402-16.196-34.77-18.07-51.8l-.076-.675c-.812-7.388-1.067-14.765-1.05-22.192l.002-1.927c.01-6.104.084-12.179.763-18.251q.101-.914.198-1.827c.609-5.633 1.445-11.201 2.616-16.746l.2-.954c2.176-10.152 5.256-21.093 11.548-29.542l.311-.42c3.691-4.947 8.083-8.738 14.281-10 4.65-.401 8.956.618 12.59 3.66zM20.031 194.303c.95.443 1.583 1.008 2.344 1.734a52 52 0 0 0 3.785 3.2q1.418 1.095 2.799 2.237c2.372 1.954 4.832 3.774 7.32 5.577l1.152.838a465 465 0 0 0 5.472 3.911 482 482 0 0 1 6.044 4.328l1.177.854a151 151 0 0 1 8.152 6.317l.46.38c3.391 2.813 6.443 5.798 9.04 9.369l.328.45c5.875 8.157 7.68 18.443 6.17 28.296-1.097 5.98-3.777 11.634-8.773 15.32-4.061 2.64-8.675 3.678-13.474 2.928-3.705-.802-6.894-2.513-9.749-5l-.63-.53c-1.567-1.352-2.867-2.825-4.119-4.47-.195-.253-.39-.506-.59-.768-10.905-14.526-14.46-34.257-16.158-51.974l-.057-.59c-.711-7.472-.784-14.907-.693-22.407M1039.9 294.79c2.007 1.575 3.475 3.987 4 6.499.317 3.6-.04 6.735-2.274 9.687-1.93 2.278-4.51 3.852-7.498 4.264-3.572.23-6.705-.558-9.438-2.93-2.22-2.161-3.53-4.882-3.61-7.99-.032-3.537.88-6.225 3.348-8.836 4.376-4.137 10.718-4.319 15.473-.694m-14.74 2.516c-1.754 2.08-2.677 4.672-2.453 7.396.377 2.582 1.501 4.827 3.445 6.586 2.336 1.734 4.842 2.55 7.75 2.25 2.89-.529 5.327-2.085 6.998-4.5 1.351-2.4 1.874-4.986 1.22-7.687-.945-2.917-2.526-5.011-5.282-6.42-4.172-1.984-8.545-.908-11.679 2.375" style="fill:#fff;stroke-width:.249968"/><path d="m1027.902 297.79 3-.048.933-.02c1.772-.014 3.38.032 4.8 1.223.545 1.217.65 2.377.282 3.656-.69.92-1.512 1.399-2.516 1.937l.558.373c.872.79 1.274 1.606 1.77 2.658l.272.552c.65 1.34.65 1.34.65 1.917h-2.25l-.385-.84-.52-1.097-.252-.553c-.581-1.206-1.088-1.92-2.342-2.51l-2.25-.25v5.25h-1.75zm1.75 1.5v3.999c2.623.165 2.623.165 5-.75.583-.721.583-.721.484-1.625-.148-.885-.148-.885-.744-1.302-.952-.415-1.803-.405-2.818-.37z" style="fill:#fff;stroke-width:.249968"/></svg>