<?xml version="1.0" encoding="UTF-8" standalone="no"?>
<svg
   xmlns:dc="http://purl.org/dc/elements/1.1/"
   xmlns:cc="http://creativecommons.org/ns#"
   xmlns:rdf="http://www.w3.org/1999/02/22-rdf-syntax-ns#"
   xmlns:svg="http://www.w3.org/2000/svg"
   xmlns="http://www.w3.org/2000/svg"
   xmlns:sodipodi="http://sodipodi.sourceforge.net/DTD/sodipodi-0.dtd"
   xmlns:inkscape="http://www.inkscape.org/namespaces/inkscape"
   version="1.1"
   width="1064"
   height="395.09167"
   id="svg18"
   sodipodi:docname="showtime_logo_white_min.svg"
   inkscape:version="1.0.1 (3bc2e813f5, 2020-09-07)">
  <metadata
     id="metadata24">
    <rdf:RDF>
      <cc:Work
         rdf:about="">
        <dc:format>image/svg+xml</dc:format>
        <dc:type
           rdf:resource="http://purl.org/dc/dcmitype/StillImage" />
        <dc:title></dc:title>
      </cc:Work>
    </rdf:RDF>
  </metadata>
  <defs
     id="defs22" />
  <sodipodi:namedview
     pagecolor="#ffffff"
     bordercolor="#666666"
     borderopacity="1"
     objecttolerance="10"
     gridtolerance="10"
     guidetolerance="10"
     inkscape:pageopacity="0"
     inkscape:pageshadow="2"
     inkscape:window-width="1920"
     inkscape:window-height="991"
     id="namedview20"
     showgrid="false"
     inkscape:zoom="0.5"
     inkscape:cx="786.1253"
     inkscape:cy="730.29984"
     inkscape:window-x="-9"
     inkscape:window-y="-9"
     inkscape:window-maximized="1"
     inkscape:current-layer="svg18"
     inkscape:document-rotation="0"
     fit-margin-top="20"
     fit-margin-left="20"
     fit-margin-right="20"
     fit-margin-bottom="20" />
  <path
     d="m 192.15184,20.024175 c 0.19185,-7.06e-4 0.38371,-0.0014 0.58137,-0.0021 1.02041,-0.0037 2.04081,-0.006 3.06123,-0.0071 0.82048,-0.0011 1.6409,-0.0045 2.46136,-0.01025 7.49079,-0.05132 14.93677,0.316941 22.35919,1.382635 0.18365,0.02565 0.3673,0.05129 0.55651,0.07772 19.83337,2.778593 38.88849,8.690493 67.39475,23.198108 0.65368,0.392494 1.31076,0.778455 1.96947,1.162449 6.13953,3.59672 11.91431,7.791595 17.4587,12.244525 0.2291,0.183345 0.4582,0.366691 0.69425,0.555592 4.32098,3.496126 8.38283,7.256445 12.31971,11.177279 0.29447,0.292721 0.29447,0.292721 0.59489,0.591355 1.04297,1.045866 2.04508,2.11278 3.00871,3.232191 0.48542,0.563639 0.98731,1.111422 1.4895,1.660127 3.14022,3.485539 3.14022,3.485539 3.14022,4.280701 -0.27905,0.04898 -0.55809,0.09796 -0.8456,0.148419 -8.73032,1.628424 -16.30019,5.941824 -22.73829,11.983816 -0.5273,0.49002 -1.06032,0.956225 -1.61601,1.412904 -0.7536,0.640018 -1.39333,1.341589 -2.03196,2.095435 -0.38688,0.456615 -0.7806,0.907443 -1.17759,1.355295 -14.98454,16.971264 -22.16593,40.364664 -28.52076,84.506754 -0.0148,0.20525 -0.0296,0.41051 -0.0449,0.62199 -0.42072,5.94827 -0.56979,11.89784 -0.56441,17.86001 1.5e-4,0.31361 3e-4,0.62721 4.5e-4,0.95032 0.0279,21.50747 2.5739,43.04863 9.29523,63.54142 0.0892,0.27498 0.17835,0.54996 0.27023,0.83327 3.24289,9.94081 7.68098,19.84536 13.72798,28.41298 0.18528,0.26874 0.37055,0.53747 0.56145,0.81435 2.3871,3.433 5.03844,6.67089 7.93746,9.68431 0.13698,0.14246 0.27397,0.28492 0.41511,0.43171 6.53927,6.75828 14.33784,11.56708 23.33184,14.3164 -0.328,0.71845 -0.68555,1.25583 -1.2264,1.82984 -0.14351,0.15322 -0.28702,0.30644 -0.43488,0.4643 -0.15294,0.16063 -0.30587,0.32126 -0.46344,0.48675 -0.23569,0.24964 -0.23569,0.24964 -0.47614,0.50433 -1.70456,1.79885 -3.4165,3.57725 -5.30242,5.1883 -0.65757,0.57996 -1.29457,1.17876 -1.93225,1.78041 -1.4493,1.36721 -2.91062,2.68849 -4.46927,3.93175 -0.4979,0.40392 -0.98334,0.81154 -1.46466,1.23422 -2.28667,2.00749 -4.68831,3.82975 -7.13568,5.63648 -0.52004,0.38738 -1.0343,0.78055 -1.54582,1.17905 -6.5235,5.06032 -13.78234,9.36078 -21.04321,13.26002 -0.20759,0.11217 -0.41518,0.22435 -0.62907,0.33992 -6.27356,3.37745 -12.72963,6.32519 -19.36836,8.90889 -0.26536,0.10424 -0.53071,0.20848 -0.8041,0.31588 -14.58061,5.69541 -30.08811,9.17161 -45.64308,10.76083 -0.19894,0.0204 -0.39787,0.0407 -0.60284,0.0617 -4.08747,0.41192 -8.15779,0.64897 -12.26563,0.6609 -0.37721,0.002 -0.75442,0.004 -1.13163,0.005 -1.19713,0.005 -2.39425,0.006 -3.59139,0.006 -0.2041,1.1e-4 -0.40819,2.2e-4 -0.61847,3.4e-4 -5.95572,0.002 -11.87578,-0.0369 -17.79699,-0.74863 -0.56788,-0.068 -1.13604,-0.13319 -1.70428,-0.19812 -20.24132,-2.33736 -39.80646,-8.01327 -70.35127,-23.42717 -0.52908,-0.32001 -1.05941,-0.63701 -1.59172,-0.95154 -2.23867,-1.32585 -4.42046,-2.72163 -6.58088,-4.1711 -0.162099,-0.10843 -0.324198,-0.21685 -0.491209,-0.32856 -3.883876,-2.59932 -7.655734,-5.31134 -11.304155,-8.23284 -0.216857,-0.1711 -0.433714,-0.3422 -0.657142,-0.51849 -1.585309,-1.25451 -3.128917,-2.55653 -4.666395,-3.86877 -0.419077,-0.35648 -0.840086,-0.71055 -1.261557,-1.06419 -3.61211,-3.04315 -6.976639,-6.33827 -10.31899,-9.67161 -0.140762,-0.1401 -0.281523,-0.28019 -0.426551,-0.42453 -3.37855,-3.36633 -3.37855,-3.36633 -4.416578,-4.69982 0,-0.0825 0,-0.16498 0,-0.24997 0.167053,-0.0175 0.334106,-0.035 0.506221,-0.053 13.259161,-1.41498 24.483367,-7.19471 33.145717,-17.5229 0.368928,-0.47049 0.733011,-0.94479 1.093609,-1.42169 0.11769,-0.1527 0.23538,-0.30539 0.35664,-0.46271 10.92198,-14.23573 14.44637,-31.79576 12.20281,-49.36864 -1.87127,-13.86987 -7.065,-26.86011 -16.059001,-37.65744 -0.115115,-0.13916 -0.230229,-0.27832 -0.348832,-0.4217 -2.874446,-3.46056 -5.928455,-6.75287 -9.285066,-9.75034 -0.344212,-0.30817 -0.685153,-0.61998 -1.025869,-0.93201 -1.484423,-1.35585 -3.022039,-2.63414 -4.588279,-3.89403 -0.277357,-0.2255 -0.554663,-0.45106 -0.831925,-0.67667 -3.486758,-2.82573 -7.093473,-5.4929 -10.737272,-8.11175 -1.955708,-1.40595 -3.892724,-2.83679 -5.829697,-4.26838 -0.597581,-0.44057 -1.196523,-0.87923 -1.795912,-1.31733 -4.784955,-3.50112 -9.419148,-7.12504 -13.800966,-11.1226 -0.253104,-0.22699 -0.506332,-0.45385 -0.759669,-0.68058 -1.427357,-1.28329 -2.761447,-2.59121 -3.989723,-4.06881 -0.207512,-0.23555 -0.415025,-0.4711 -0.628826,-0.71378 -1.625482,-1.85387 -3.037311,-3.79035 -4.357229,-5.87217 -0.222654,-0.34941 -0.451719,-0.69473 -0.682164,-1.03905 -5.022985,-7.78495 -6.457015,-18.4209 -4.527923,-27.36716 0.45107,-1.92931 1.115002,-3.70444 1.947199,-5.50266 0.112779,-0.24617 0.225557,-0.49235 0.341753,-0.74599 1.890004,-3.78001 5.07934,-6.3115 8.985177,-7.76854 4.352108,-1.33697 9.561518,-0.823 13.607631,1.17172 5.203491,3.10357 7.469566,8.49667 8.951124,14.12271 1.662246,6.61281 1.671533,13.43214 1.859991,20.21665 12.373415,0 24.746829,0 37.495198,0 -0.56895,-20.4821 -1.85674,-43.49895 -16.747856,-59.242414 -0.201713,-0.217824 -0.403425,-0.435648 -0.61125,-0.660072 -2.940173,-3.071822 -6.36573,-5.4058 -10.137373,-7.338903 -0.166429,-0.08628 -0.332858,-0.172552 -0.50433,-0.261442 -4.194813,-2.149891 -8.642403,-3.51699 -13.243908,-4.48795 0,-1.073304 0.638543,-1.530467 1.343577,-2.265335 0.135355,-0.143893 0.270709,-0.287786 0.410165,-0.43604 1.05043,-1.11071 2.13055,-2.189579 3.219253,-3.262704 0.423438,-0.430509 0.808289,-0.859478 1.182466,-1.331861 0.612013,-0.724753 1.263823,-1.294456 1.984121,-1.906982 0.775277,-0.69452 1.502903,-1.430218 2.234088,-2.170621 1.015636,-1.026051 2.037138,-2.023333 3.13827,-2.958605 0.574337,-0.4913 1.130866,-1.000212 1.689237,-1.509572 2.252455,-2.029609 4.64038,-3.897986 7.034377,-5.756587 0.350187,-0.273064 0.699297,-0.547513 1.047473,-0.823136 4.149122,-3.283413 8.533862,-6.18645 12.96233,-9.074521 0.36685,-0.240037 0.36685,-0.240037 0.74111,-0.484923 5.29515,-3.452526 10.86808,-6.416169 16.50668,-9.263828 0.25037,-0.127198 0.50073,-0.254396 0.75869,-0.385449 19.13746,-9.663571 40.40498,-15.110934 62.26352,-17.171162 0.16919,-0.01581 0.33837,-0.03162 0.51269,-0.04791 0.56868,-0.05104 1.13755,-0.09757 1.70676,-0.142491 0.27296,-0.02165 0.54592,-0.0433 0.82716,-0.06561 2.35664,-0.173042 4.70242,-0.229082 7.0644,-0.235131 z m -62.63455,64.042576 c 0,76.880149 0,153.760299 0,232.970149 13.36329,0 26.72658,0 40.49481,0 0,-33.32573 0,-66.65146 0,-100.98706 14.51814,0 29.03628,0 43.99436,0 0,33.32573 0,66.65146 0,100.98706 13.2808,0 26.5616,0 40.24485,0 0,-76.88015 0,-153.7603 0,-232.970149 -13.2808,0 -26.5616,0 -40.24485,0 0,31.016029 0,62.032049 0,93.987959 -14.60063,0 -29.20125,0 -44.24433,0 0,-31.01603 0,-62.03205 0,-93.987959 -13.28079,0 -26.56159,0 -40.24484,0 z"
     fill="#000000"
     id="path2"
     style="fill:#ffffff;stroke-width:0.249968" />
  <path
     d="m 401.23247,87.066366 c 12.45591,0 24.91181,0 37.74517,0 0.29349,1.760927 0.57912,3.490633 0.77016,5.259949 0.0347,0.311909 0.0347,0.311909 0.0701,0.630118 0.0765,0.689282 0.15184,1.378688 0.22716,2.0681 0.0555,0.502297 0.11108,1.004587 0.16673,1.506868 0.15207,1.374695 0.30311,2.749501 0.45397,4.124329 0.16315,1.48516 0.32727,2.97021 0.49127,4.45528 0.30247,2.7404 0.60419,5.48088 0.90553,8.22141 0.27874,2.53495 0.55782,5.06988 0.83724,7.60476 0.0186,0.16848 0.0371,0.33695 0.0563,0.51053 0.0754,0.68403 0.1508,1.36807 0.2262,2.0521 0.7072,6.41556 1.41347,12.83122 2.1193,19.24693 0.62536,5.68434 1.2514,11.3686 1.87805,17.0528 0.0402,0.36433 0.0803,0.72867 0.1205,1.093 0.0199,0.18013 0.0397,0.36026 0.0602,0.54585 0.1,0.90699 0.19998,1.81398 0.29997,2.72097 0.0296,0.26847 0.0296,0.26847 0.0598,0.54237 0.52507,4.76301 1.04964,9.52607 1.57406,14.28915 0.0187,0.16984 0.0374,0.33968 0.0567,0.51467 0.028,0.25428 0.028,0.25428 0.0566,0.51369 0.0279,0.25377 0.0279,0.25377 0.0564,0.51268 0.0375,0.34069 0.075,0.68139 0.11253,1.02209 0.26002,2.36165 0.52022,4.72329 0.78054,7.08491 0.33612,3.04927 0.67189,6.09859 1.00709,9.14796 0.16134,1.46762 0.32283,2.93523 0.48478,4.40278 0.66562,6.03299 1.31934,12.06556 1.877,18.10964 0.16498,0 0.32996,0 0.49993,0 0.009,-0.19073 0.0184,-0.38145 0.0279,-0.57796 0.164,-2.77867 0.56969,-5.50652 0.98356,-8.25697 0.0797,-0.53642 0.15931,-1.07286 0.2388,-1.60932 0.21742,-1.465 0.43647,-2.92975 0.65579,-4.39447 0.23601,-1.57821 0.47047,-3.15664 0.70511,-4.73505 0.40533,-2.72532 0.81159,-5.4505 1.2185,-8.17559 0.61454,-4.11569 1.22742,-8.23163 1.83991,-12.34763 0.24483,-1.64516 0.48969,-3.29031 0.73456,-4.93546 0.0407,-0.27343 0.0407,-0.27343 0.0822,-0.55238 0.41649,-2.7982 0.83327,-5.59636 1.25021,-8.39449 1.52199,-10.21464 3.04016,-20.42985 4.55483,-30.64558 0.038,-0.25605 0.038,-0.25605 0.0767,-0.51728 0.57087,-3.85017 1.14161,-7.70036 1.71228,-11.55056 0.56639,-3.82134 1.13302,-7.64264 1.69972,-11.46394 0.0899,-0.60633 0.17983,-1.21265 0.26975,-1.81898 0.13102,-0.88352 0.26204,-1.76705 0.39307,-2.65057 0.39477,-2.66204 0.78952,-5.32409 1.18424,-7.986139 0.0674,-0.45468 0.13483,-0.90936 0.20225,-1.364039 0.55638,-3.752125 1.11222,-7.504328 1.66811,-11.256526 12.4559,0 24.9118,0 37.74516,0 3.16719,23.207344 3.16719,23.207344 4.73714,34.711694 0.0234,0.17175 0.0469,0.3435 0.071,0.52045 0.50958,3.73414 1.01916,7.46828 1.52874,11.20243 0.24996,1.8317 0.49992,3.66341 0.74989,5.49511 0.0249,0.18226 0.0497,0.36452 0.0754,0.5523 0.80353,5.8882 1.6071,11.77638 2.41069,17.66457 0.82706,6.06008 1.65407,12.12017 2.48103,18.18027 0.11729,0.85953 0.23458,1.71905 0.35187,2.57857 0.0231,0.16914 0.0462,0.33828 0.07,0.51254 0.36881,2.70271 0.73767,5.40542 1.10654,8.10813 0.37249,2.72919 0.74493,5.45839 1.11733,8.18759 0.20111,1.47384 0.40223,2.94767 0.60341,4.4215 0.0755,0.55317 0.15101,1.10634 0.22652,1.6595 0.0365,0.26772 0.0731,0.53544 0.11073,0.81128 0.27438,2.01048 0.54812,4.02104 0.82168,6.03163 0.19023,1.3971 0.38165,2.79402 0.57407,4.19082 0.11985,0.87075 0.23906,1.74159 0.35815,2.61245 0.0549,0.40064 0.11018,0.80123 0.16574,1.20178 0.0752,0.54265 0.14946,1.08543 0.22345,1.62825 0.0417,0.30254 0.0833,0.60507 0.12628,0.91678 0.0765,0.69129 0.10605,1.35089 0.0881,2.04529 0.16498,0 0.32996,0 0.49994,0 0.0202,-0.31984 0.0202,-0.31984 0.0408,-0.64614 0.13981,-2.09284 0.34467,-4.16809 0.60242,-6.24941 0.0394,-0.3238 0.0788,-0.64759 0.11934,-0.9812 0.10822,-0.88959 0.21752,-1.77905 0.32701,-2.66849 0.11865,-0.96546 0.23627,-1.93105 0.35403,-2.89662 0.20496,-1.67953 0.41057,-3.35898 0.61661,-5.03837 0.30363,-2.47487 0.60624,-4.94986 0.90865,-7.42487 0.49834,-4.07847 0.99746,-8.15684 1.49707,-12.23516 0.47199,-3.85281 0.94367,-7.70566 1.41486,-11.55858 0.0284,-0.23201 0.0567,-0.46401 0.086,-0.70305 0.17162,-1.40341 0.34324,-2.80682 0.51485,-4.21024 0.25856,-2.11448 0.51713,-4.22895 0.77573,-6.34343 0.0427,-0.34932 0.0427,-0.34932 0.0863,-0.7057 0.40299,-3.29511 0.8063,-6.59019 1.20983,-9.88524 0.26093,-2.13067 0.52181,-4.26133 0.78267,-6.392 0.0287,-0.23446 0.0574,-0.46891 0.087,-0.71047 0.85377,-6.97383 1.70448,-13.94803 2.55275,-20.92253 0.21767,-1.78964 0.43547,-3.57925 0.65335,-5.36886 0.0303,-0.24874 0.0606,-0.49748 0.0918,-0.75376 0.1211,-0.99469 0.2422,-1.98938 0.36332,-2.98407 0.35239,-2.89419 0.7043,-5.78844 1.05541,-8.68279 0.21717,-1.78999 0.43489,-3.579915 0.65304,-5.369787 0.12567,-1.03127 0.25107,-2.06257 0.37578,-3.093956 0.11404,-0.943102 0.22879,-1.886115 0.34411,-2.829061 0.0417,-0.341758 0.0831,-0.68355 0.12417,-1.025376 0.0557,-0.462547 0.11238,-0.924967 0.16915,-1.387379 0.0313,-0.257317 0.0625,-0.514634 0.0947,-0.779748 0.0972,-0.636743 0.0972,-0.636743 0.34717,-1.386647 59.80483,0 119.60967,0 181.22678,0 0,74.982894 0,149.965784 0,227.220884 -13.77574,0 -27.55147,0 -41.74466,0 0,-63.26939 0,-126.53878 0,-191.72543 -12.4559,0 -24.9118,0 -37.74516,0 0,63.26939 0,126.53879 0,191.72543 -13.69324,0 -27.38649,0 -41.49468,0 0,-63.26939 0,-126.53878 0,-191.72543 -11.54852,0 -23.09704,0 -34.99552,0 -0.3712,3.21709 -0.3712,3.21709 -0.7499,6.49917 -0.16627,1.33121 -0.33461,2.6616 -0.50964,3.99162 -0.0465,0.35582 -0.0929,0.71166 -0.13923,1.0675 -0.12483,0.957 -0.25026,1.91392 -0.3758,2.87083 -0.13728,1.04727 -0.27398,2.09461 -0.41076,3.14193 -0.23842,1.82504 -0.47719,3.65004 -0.71621,5.475 -0.35384,2.70159 -0.70708,5.40325 -1.06021,8.10493 -0.59075,4.51953 -1.18193,9.039 -1.77338,13.55844 -0.83951,6.41507 -1.67846,12.83021 -2.51726,19.24537 -0.2964,2.26687 -0.5928,4.53375 -0.88921,6.80062 -0.0745,0.56978 -0.149,1.13955 -0.2235,1.70933 -0.52645,4.02619 -1.05297,8.05238 -1.57954,12.07855 -1.93806,14.81849 -3.87398,29.63725 -5.80755,44.45633 -0.22897,1.75485 -0.45795,3.50969 -0.68695,5.26454 -1.13988,8.73519 -2.27972,17.47039 -3.41895,26.20566 -0.48124,3.68995 -0.96267,7.37988 -1.44428,11.06979 -0.28407,2.17642 -0.56797,4.35286 -0.85165,6.52933 -0.18833,1.44479 -0.37684,2.88955 -0.56551,4.3343 -0.10731,0.82173 -0.2145,1.64348 -0.32151,2.46525 -0.11497,0.88276 -0.23027,1.76548 -0.34565,2.64819 -0.0332,0.25553 -0.0664,0.51105 -0.1006,0.77432 -0.0308,0.23509 -0.0616,0.47017 -0.0933,0.71238 -0.0263,0.2014 -0.0525,0.4028 -0.0796,0.6103 -0.0999,0.70577 -0.2194,1.40865 -0.33658,2.11175 -12.5384,0 -25.07679,0 -37.99514,0 -2.14066,-15.52565 -2.14066,-15.52565 -2.96001,-21.4696 -0.025,-0.18121 -0.05,-0.36242 -0.0757,-0.54913 -0.37735,-2.73747 -0.75469,-5.47495 -1.13201,-8.21243 -0.0814,-0.59081 -0.16288,-1.18163 -0.24431,-1.77245 -2.88624,-20.93942 -5.76997,-41.87919 -10.8616,-78.91933 -0.0841,-0.61182 -0.16817,-1.22364 -0.25225,-1.83546 -1.40743,-10.24104 -2.81464,-20.48211 -4.2216,-30.72321 -0.50627,0.50627 -0.45208,1.47253 -0.54885,2.16793 -0.0293,0.20424 -0.0585,0.40848 -0.0887,0.61891 -0.099,0.69292 -0.19652,1.38604 -0.29405,2.07917 -0.0709,0.49818 -0.14183,0.99634 -0.21288,1.49449 -0.19573,1.37434 -0.39015,2.74886 -0.58436,4.12342 -0.20872,1.47569 -0.41865,2.95122 -0.62843,4.42676 -0.36304,2.55476 -0.72531,5.10964 -1.08703,7.66459 -0.38067,2.68872 -0.76176,5.37738 -1.14342,8.06597 -0.0238,0.16741 -0.0475,0.33482 -0.072,0.5073 -0.0964,0.67917 -0.19283,1.35834 -0.28924,2.03751 -1.09595,7.71983 -2.18995,15.43994 -3.28344,23.16013 -0.5013,3.53927 -1.00285,7.07851 -1.50445,10.61774 -1.61797,11.41616 -3.23517,22.83243 -4.8504,34.24899 -0.22658,1.60137 -0.45325,3.20274 -0.68001,4.80409 -0.18644,1.31666 -0.37284,2.63332 -0.5592,3.94999 -0.0369,0.26061 -0.0738,0.52123 -0.11178,0.78974 -0.53428,3.7753 -1.06632,7.55092 -1.59716,11.32671 -0.3067,2.18141 -0.61398,4.36274 -0.92139,6.54405 -0.25197,1.78829 -0.50317,3.57669 -0.75381,5.36517 -0.15397,1.09741 -0.30866,2.19472 -0.46357,3.292 -0.072,0.51105 -0.14367,1.02214 -0.21503,1.53328 -0.0973,0.69677 -0.1957,1.39337 -0.29436,2.08995 -0.0425,0.30738 -0.0425,0.30738 -0.0859,0.62097 -0.19937,1.39578 -0.19937,1.39578 -0.47786,1.95275 -12.04345,0 -24.08691,0 -36.49532,0 -0.58977,-3.8335 -1.17432,-7.65953 -1.68299,-11.50317 -0.0622,-0.46598 -0.12441,-0.93194 -0.1867,-1.3979 -0.16847,-1.26159 -0.33614,-2.52328 -0.50367,-3.785 -0.18282,-1.3758 -0.36641,-2.7515 -0.54991,-4.12721 -0.31951,-2.39625 -0.63855,-4.79257 -0.95726,-7.18893 -0.47007,-3.53433 -0.94091,-7.06856 -1.41193,-10.60276 -0.78386,-5.88163 -1.56712,-11.76333 -2.35003,-17.64508 -0.76823,-5.77151 -1.53667,-11.543 -2.30543,-17.31443 -0.0238,-0.17883 -0.0476,-0.35765 -0.0722,-0.54189 -0.36187,-2.71673 -0.72377,-5.43345 -1.08567,-8.15018 -0.0484,-0.36322 -0.0968,-0.72644 -0.14515,-1.08967 -0.43639,-3.27593 -0.87279,-6.55185 -1.3092,-9.82778 -0.48697,-3.65552 -0.97392,-7.31103 -1.46079,-10.96656 -2.49257,-18.71476 -4.989,-37.429 -7.49257,-56.14229 -0.36813,-2.7517 -0.73613,-5.50342 -1.10412,-8.25514 -0.31795,-2.37756 -0.63593,-4.75512 -0.95392,-7.13267 -0.0341,-0.25531 -0.0683,-0.51062 -0.10347,-0.77367 -0.80074,-5.98726 -1.60196,-11.97446 -2.40428,-17.96152 -0.52582,-3.92393 -1.05099,-7.84795 -1.57545,-11.77206 -0.30645,-2.29269 -0.61347,-4.58529 -0.92133,-6.87779 -0.20291,-1.511349 -0.40512,-3.022793 -0.60674,-4.534316 -0.11434,-0.856968 -0.22899,-1.713891 -0.34451,-2.5707 -0.12365,-0.918254 -0.24609,-1.83666 -0.36822,-2.755116 -0.0361,-0.265603 -0.0721,-0.531206 -0.10927,-0.804857 -0.0322,-0.243946 -0.0644,-0.487892 -0.0975,-0.73923 -0.028,-0.209004 -0.056,-0.418009 -0.0848,-0.633346 -0.0664,-0.706369 -0.059,-1.41814 -0.059,-2.127619 z"
     fill="#000000"
     id="path4"
     style="fill:#ffffff;stroke-width:0.249968" />
  <path
     d="m 747.43811,87.066366 c 18.23017,0 36.46033,0 55.24292,0 0.36091,1.263163 0.64389,2.457007 0.8445,3.744916 0.0312,0.194377 0.0623,0.388754 0.0945,0.589021 0.104,0.650325 0.20647,1.300883 0.30894,1.951452 0.075,0.471123 0.15014,0.942231 0.22534,1.413325 0.2061,1.292891 0.41086,2.585993 0.6154,3.879132 0.22045,1.392228 0.44216,2.784258 0.66372,4.176318 0.38298,2.4074 0.76517,4.81493 1.14683,7.22254 0.55118,3.47703 1.10354,6.95386 1.6562,10.43065 0.86341,5.43185 1.726,10.86384 2.58801,16.29591 1.17349,7.39493 2.34859,14.78961 3.52432,22.18419 1.49853,9.42485 2.99678,18.84974 4.49371,28.27484 0.1611,1.01432 0.32224,2.02864 0.48341,3.04295 0.18554,1.16765 0.371,2.33533 0.55639,3.50301 0.0668,0.42058 0.13361,0.84116 0.20045,1.26173 0.17365,1.0926 0.34655,2.18532 0.51869,3.27816 0.076,0.47889 0.15359,0.95751 0.23124,1.43612 0.046,0.28777 0.092,0.57554 0.13945,0.87203 0.0401,0.24755 0.0803,0.49511 0.12163,0.75016 0.0815,0.65133 0.10076,1.2731 0.085,1.92865 0.16498,0 0.32996,0 0.49994,0 0.0387,-0.28601 0.0774,-0.57202 0.11722,-0.8667 0.54457,-3.95216 1.20339,-7.88427 1.8676,-11.81767 0.16741,-0.99238 0.33403,-1.98489 0.50074,-2.97739 0.28945,-1.72273 0.57931,-3.44539 0.86946,-5.16801 0.74767,-4.43919 1.49304,-8.87876 2.23856,-13.31831 0.12411,-0.73903 0.24825,-1.47805 0.37239,-2.21708 1.28489,-7.64926 2.56387,-15.29949 3.83844,-22.95048 0.0424,-0.25452 0.0848,-0.50904 0.12849,-0.77127 0.79031,-4.74388 1.58014,-9.48784 2.36945,-14.23189 1.02286,-6.14775 2.04688,-12.2953 3.07418,-18.44231 0.0827,-0.49469 0.16534,-0.98939 0.248,-1.48409 0.5683,-3.40104 1.13774,-6.80188 1.70878,-10.202467 0.1681,-1.001223 0.33583,-2.002508 0.50323,-3.003848 0.1948,-1.165079 0.39037,-2.330028 0.58655,-3.494876 0.072,-0.428646 0.14383,-0.857338 0.21533,-1.286079 0.0975,-0.58456 0.19603,-1.168945 0.2948,-1.753296 0.0284,-0.171678 0.0568,-0.343357 0.0861,-0.520237 0.1997,-1.172097 0.1997,-1.172097 0.4782,-1.729101 17.81772,0 35.63544,0 53.99308,0 0,74.982894 0,149.965784 0,227.220884 -12.29092,0 -24.58185,0 -37.24522,0 -0.0825,-54.77298 -0.16498,-109.54596 -0.24997,-165.97873 -5.09923,30.21358 -5.09923,30.21358 -10.19304,60.42807 -0.7338,4.3555 -1.46782,8.71096 -2.20186,13.06642 -0.0391,0.23201 -0.0782,0.46403 -0.11849,0.70307 -1.71212,10.15908 -3.42605,20.31786 -5.1406,30.47653 -0.0339,0.20101 -0.0678,0.40203 -0.10281,0.60913 -0.20438,1.21096 -0.40876,2.42192 -0.61315,3.63288 -0.27351,1.62055 -0.54702,3.24109 -0.82053,4.86164 -0.0686,0.40631 -0.13715,0.81261 -0.20573,1.21892 -1.80198,10.67658 -3.60286,21.35335 -5.40369,32.03014 -0.15812,0.93748 -0.31624,1.87496 -0.47436,2.81244 -0.19235,1.14038 -0.3847,2.28077 -0.57704,3.42115 -0.0339,0.20086 -0.0678,0.40171 -0.10266,0.60865 -0.68084,4.03656 -1.36164,8.07313 -2.04245,12.10969 -7.67152,0 -15.34304,0 -23.24703,0 -0.56242,-2.24971 -0.56242,-2.24971 -0.73673,-3.29519 -0.0402,-0.23857 -0.0804,-0.47714 -0.12175,-0.72294 -0.0636,-0.38511 -0.0636,-0.38511 -0.12849,-0.778 -0.0466,-0.27802 -0.0931,-0.55604 -0.14115,-0.84248 -0.1562,-0.9336 -0.31126,-1.86739 -0.46631,-2.80118 -0.11266,-0.67536 -0.22557,-1.35067 -0.33846,-2.02599 -0.24548,-1.4693 -0.49036,-2.93869 -0.73485,-4.40814 -0.36355,-2.18508 -0.72802,-4.37 -1.09268,-6.5549 -0.65119,-3.90188 -1.30145,-7.80391 -1.95132,-11.70601 -0.5686,-3.41411 -1.1375,-6.82817 -1.7067,-10.24218 -0.0566,-0.33954 -0.0566,-0.33954 -0.11436,-0.68593 -0.15319,-0.91882 -0.30638,-1.83763 -0.45957,-2.75644 -1.43718,-8.62004 -2.87342,-17.24024 -4.30923,-25.8605 -1.27632,-7.66265 -2.55348,-15.32516 -3.83134,-22.98755 -1.43517,-8.60568 -2.86982,-17.21145 -4.30362,-25.81737 -0.15276,-0.91684 -0.30551,-1.83368 -0.45827,-2.75052 -0.0376,-0.22576 -0.0752,-0.45151 -0.11398,-0.68411 -0.56866,-3.41309 -1.13772,-6.82612 -1.70697,-10.23912 -0.64695,-3.87887 -1.29333,-7.75783 -1.93894,-11.63692 -0.36159,-2.17252 -0.72364,-4.34495 -1.08632,-6.51729 -0.24191,-1.44919 -0.48323,-2.89848 -0.72406,-4.34785 -0.13743,-0.82698 -0.27521,-1.6539 -0.41352,-2.48073 -0.14864,-0.88884 -0.2963,-1.77784 -0.4437,-2.66689 -0.0436,-0.25908 -0.0871,-0.51816 -0.13203,-0.78509 -0.0389,-0.23607 -0.0779,-0.47214 -0.11796,-0.71536 -0.0339,-0.20339 -0.0678,-0.40679 -0.10269,-0.61634 -0.0714,-0.55377 -0.0714,-0.55377 -0.0714,-1.55365 -0.16498,0 -0.32996,0 -0.49994,0 0,54.93796 0,109.87593 0,166.47867 -10.1462,0 -20.2924,0 -30.74606,0 0,-74.98289 0,-149.96578 0,-227.220884 z"
     fill="#000000"
     id="path6"
     style="fill:#ffffff;stroke-width:0.249968" />
  <path
     d="m 915.41659,87.066366 c 30.93354,0 61.86707,0 93.73801,0 0,11.713499 0,23.426994 0,35.495454 -17.24031,0 -34.4806,0 -52.24333,0 0,18.97257 0,37.94514 0,57.49263 12.70338,0 25.40675,0 38.49507,0 0,12.29093 0,24.58185 0,37.24523 -12.70337,0 -25.40674,0 -38.49507,0 0,20.2924 0,40.5848 0,61.49212 17.9827,0 35.96539,0 54.49303,0 0,11.7135 0,23.427 0,35.49545 -31.67595,0 -63.35189,0 -95.98771,0 0,-74.98289 0,-149.96578 0,-227.220884 z"
     fill="#000000"
     id="path8"
     style="fill:#ffffff;stroke-width:0.249968" />
  <path
     d="m 354.17307,121.30124 c 0.27986,0.25278 0.27986,0.25278 0.56536,0.51068 0.23039,0.20719 0.46078,0.41438 0.69815,0.62784 14.79634,13.79861 17.40109,41.42252 19.12744,60.48932 0.0203,0.22458 0.0407,0.44915 0.0617,0.68053 0.42845,4.79921 0.66277,9.57706 0.65699,14.39567 -1.5e-4,0.23639 -3e-4,0.47279 -4.5e-4,0.71635 -0.0282,16.45082 -1.95832,33.06066 -6.79555,48.82417 -0.0746,0.24437 -0.14919,0.48874 -0.22605,0.74051 -3.14903,10.18111 -8.20937,22.77907 -18.17101,28.09076 -3.72298,1.81661 -7.862,1.72063 -11.75533,0.48627 -2.61715,-0.99658 -4.77422,-2.44999 -6.84287,-4.32074 -0.20783,-0.18721 -0.41567,-0.37442 -0.6298,-0.56731 -13.06033,-12.40217 -16.19649,-34.76944 -18.07093,-51.80098 -0.0373,-0.33361 -0.0373,-0.33361 -0.0753,-0.67395 -0.81284,-7.38816 -1.0676,-14.76523 -1.05097,-22.19194 0.001,-0.64253 0.002,-1.28505 0.003,-1.92758 0.009,-6.10405 0.0837,-12.17858 0.76253,-18.25132 0.0679,-0.60874 0.1331,-1.21773 0.19812,-1.82678 0.60881,-5.63317 1.4447,-11.20092 2.61563,-16.74553 0.0663,-0.31486 0.13268,-0.62971 0.20103,-0.9541 2.17556,-10.15221 5.25558,-21.09289 11.54747,-29.542 0.10267,-0.13859 0.20533,-0.27719 0.31111,-0.41999 3.69083,-4.9467 8.08257,-8.73795 14.28077,-10.00055 4.64956,-0.40082 8.95575,0.61823 12.5892,3.66067 z"
     fill="#000000"
     id="path10"
     style="fill:#ffffff;stroke-width:0.249968" />
  <path
     d="m 20.031322,194.30263 c 0.949134,0.44387 1.582802,1.00789 2.343449,1.73415 1.212504,1.13714 2.469547,2.18438 3.784855,3.19991 0.946212,0.73073 1.87702,1.47639 2.799385,2.23701 2.372175,1.95401 4.831886,3.77472 7.320229,5.57729 0.384072,0.27925 0.768138,0.55852 1.152196,0.83779 1.814795,1.317 3.638296,2.621 5.471955,3.9116 2.026369,1.42625 4.039525,2.87001 6.043659,4.32733 0.39195,0.28498 0.784159,0.5696 1.176607,0.8539 2.789691,2.0228 5.507652,4.10867 8.152764,6.3173 0.151688,0.12559 0.303375,0.25118 0.459658,0.38057 3.391264,2.81293 6.443351,5.79705 9.039125,9.36818 0.10859,0.14883 0.21718,0.29766 0.32906,0.45099 5.874735,8.15668 7.679094,18.44202 6.170108,28.29533 -1.097338,5.97976 -3.777323,11.63378 -8.77329,15.31932 -4.061187,2.64002 -8.675501,3.67824 -13.47386,2.92834 -3.705685,-0.80213 -6.894433,-2.51229 -9.748751,-4.99936 -0.312235,-0.26245 -0.312235,-0.26245 -0.630778,-0.5302 -1.566443,-1.35196 -2.866517,-2.82484 -4.118613,-4.46916 -0.194946,-0.25359 -0.389892,-0.50718 -0.590745,-0.76845 -10.904259,-14.5266 -14.458562,-34.25759 -16.157109,-51.97479 -0.0188,-0.1948 -0.03759,-0.3896 -0.05695,-0.5903 -0.711589,-7.47121 -0.783965,-14.90621 -0.69295,-22.40675 z"
     fill="#000000"
     id="path12"
     style="fill:#ffffff;stroke-width:0.249968" />
  <path
     d="m 1039.9006,294.78975 c 2.0066,1.57561 3.4743,3.98739 3.9995,6.49917 0.3174,3.60024 -0.04,6.73479 -2.2741,9.68723 -1.9296,2.27831 -4.5094,3.85187 -7.4981,4.26411 -3.572,0.23045 -6.7045,-0.55832 -9.4382,-2.92932 -2.2189,-2.16244 -3.5289,-4.88297 -3.6098,-7.9911 -0.032,-3.53734 0.8798,-6.22533 3.3481,-8.83584 4.3765,-4.1368 10.7182,-4.3188 15.4726,-0.69425 z m -14.7412,2.51628 c -1.7529,2.08031 -2.6765,4.67222 -2.4519,7.39554 0.3767,2.58234 1.5006,4.82714 3.4449,6.58607 2.3356,1.73403 4.8419,2.55001 7.749,2.24971 2.8905,-0.52795 5.3274,-2.08477 6.9991,-4.49942 1.3509,-2.39937 1.874,-4.98575 1.2186,-7.68652 -0.9444,-2.91791 -2.5253,-5.01155 -5.2806,-6.42105 -4.1725,-1.98355 -8.545,-0.90746 -11.6791,2.37567 z"
     fill="#000000"
     id="path14"
     style="fill:#ffffff;stroke-width:0.249968" />
  <path
     d="m 1027.9022,297.78937 c 0.9898,-0.0155 1.9797,-0.0309 2.9996,-0.0469 0.308,-0.007 0.6161,-0.0137 0.9335,-0.0207 1.772,-0.0133 3.3798,0.0324 4.8001,1.22366 0.5441,1.21607 0.6502,2.37682 0.2812,3.65578 -0.6903,0.92046 -1.5119,1.39862 -2.5153,1.93725 0.184,0.12309 0.368,0.24618 0.5576,0.373 0.8724,0.78994 1.2742,1.60544 1.7703,2.65786 0.09,0.18206 0.1794,0.36412 0.2719,0.55169 0.6498,1.33925 0.6498,1.33925 0.6498,1.91675 -0.7424,0 -1.4848,0 -2.2497,0 -0.1269,-0.27712 -0.2539,-0.55423 -0.3847,-0.83974 -0.1736,-0.36594 -0.3474,-0.73177 -0.5214,-1.09751 -0.083,-0.18238 -0.1656,-0.36476 -0.251,-0.55267 -0.5811,-1.20613 -1.0883,-1.91961 -2.3424,-2.50944 -0.7424,-0.0825 -1.4848,-0.16498 -2.2497,-0.24997 0,1.73228 0,3.46456 0,5.24933 -0.5775,0 -1.1549,0 -1.7498,0 0,-4.04199 0,-8.08397 0,-12.24843 z m 1.7498,1.4998 c 0,1.31984 0,2.63967 0,3.99949 2.6225,0.16572 2.6225,0.16572 4.9993,-0.7499 0.5835,-0.72106 0.5835,-0.72106 0.4843,-1.62479 -0.1472,-0.88501 -0.1472,-0.88501 -0.744,-1.30159 -0.9515,-0.41551 -1.8023,-0.4052 -2.818,-0.37007 -0.6342,0.0155 -1.2683,0.0309 -1.9216,0.0469 z"
     fill="#000000"
     id="path16"
     style="fill:#ffffff;stroke-width:0.249968" />
</svg>
