<?xml version="1.0" encoding="UTF-8"?>
<svg version="1.1" xmlns="http://www.w3.org/2000/svg" width="4096" height="1420">
<path d="M0 0 C0.76750454 -0.00282738 1.53500908 -0.00565475 2.32577133 -0.00856781 C6.40793936 -0.02344537 10.49007326 -0.03274015 14.57226562 -0.03710938 C17.85460861 -0.04144038 21.13668074 -0.05513683 24.41894531 -0.078125 C54.3859658 -0.28344571 84.17368643 1.18980363 113.8671875 5.453125 C114.60187256 5.55572632 115.33655762 5.65832764 116.09350586 5.76403809 C195.43714331 16.87983356 271.66738662 40.5304652 385.70703125 98.56835938 C388.32211902 100.13853761 390.95076329 101.68257702 393.5859375 103.21875 C418.14720105 117.607475 441.24929887 134.38912259 463.4296875 152.203125 C464.34621094 152.93660156 465.26273438 153.67007813 466.20703125 154.42578125 C483.49317582 168.41207444 499.74266865 183.45527764 515.4921875 199.140625 C516.67022949 200.31165771 516.67022949 200.31165771 517.87207031 201.50634766 C522.04445489 205.69034701 526.05341992 209.9585487 529.90844727 214.43676758 C531.85038894 216.69161399 533.85817734 218.88302505 535.8671875 221.078125 C548.4296875 235.0220683 548.4296875 235.0220683 548.4296875 238.203125 C547.31335937 238.3990625 546.19703125 238.595 545.046875 238.796875 C510.12111821 245.31140632 479.83773027 262.56721618 454.08203125 286.73828125 C451.97257686 288.69861368 449.84022808 290.56367183 447.6171875 292.390625 C444.60240998 294.95102218 442.04315174 297.7576661 439.48828125 300.7734375 C437.94058304 302.60013254 436.36549288 304.40367446 434.77734375 306.1953125 C374.83149192 374.08906389 346.10226424 467.67464243 320.6796875 644.265625 C320.62043091 645.08675781 320.56117432 645.90789063 320.50012207 646.75390625 C318.81704517 670.55004272 318.22066928 694.35137045 318.2421875 718.203125 C318.24279175 719.45770508 318.243396 720.71228516 318.24401855 722.00488281 C318.35551277 808.04578565 328.54091622 894.221473 355.4296875 976.203125 C355.78643555 977.30317871 356.14318359 978.40323242 356.51074219 979.53662109 C369.48396908 1019.30496208 387.23858282 1058.92825389 411.4296875 1093.203125 C412.17089844 1094.27820312 412.91210938 1095.35328125 413.67578125 1096.4609375 C423.2253977 1110.19469425 433.8321121 1123.14790111 445.4296875 1135.203125 C445.9777002 1135.77305176 446.52571289 1136.34297852 447.09033203 1136.93017578 C473.25077934 1163.96677538 504.44905044 1183.20443564 540.4296875 1194.203125 C539.11748091 1197.07729589 537.68711121 1199.22708568 535.5234375 1201.5234375 C534.94932129 1202.13638672 534.37520508 1202.74933594 533.78369141 1203.38085938 C533.17187012 1204.02345703 532.56004883 1204.66605469 531.9296875 1205.328125 C530.98681885 1206.32682617 530.98681885 1206.32682617 530.02490234 1207.34570312 C523.20578911 1214.54201431 516.35714938 1221.65653813 508.8125 1228.1015625 C506.18187657 1230.42168611 503.63353626 1232.8171926 501.08251953 1235.22412109 C495.28455389 1240.69365539 489.43853202 1245.9794279 483.203125 1250.953125 C481.2112987 1252.56902915 479.2692646 1254.19969691 477.34375 1255.890625 C468.19588208 1263.92164151 458.5880841 1271.21158087 448.79736328 1278.43945312 C446.71694536 1279.98914781 444.65963174 1281.56203198 442.61328125 1283.15625 C416.51593872 1303.40011481 387.47687068 1320.60416441 358.4296875 1336.203125 C357.59920898 1336.65187988 356.76873047 1337.10063477 355.91308594 1337.56298828 C330.81561622 1351.07451799 304.98801271 1362.86699724 278.4296875 1373.203125 C277.36814453 1373.62013672 276.30660156 1374.03714844 275.21289062 1374.46679688 C216.88297752 1397.25136378 154.84503605 1411.15794599 92.6171875 1417.515625 C91.8213324 1417.59702728 91.02547729 1417.67842957 90.20550537 1417.76229858 C73.85352146 1419.41017128 57.57016739 1420.35850876 41.13671875 1420.40625 C39.62768526 1420.4132747 38.11865207 1420.4203615 36.60961914 1420.42750549 C31.82047081 1420.44687777 27.03137107 1420.45193913 22.2421875 1420.453125 C21.42570614 1420.45356686 20.60922478 1420.45400871 19.76800156 1420.45446396 C-4.05791304 1420.46122381 -27.74120567 1420.3067283 -51.42907715 1417.45959473 C-53.70088022 1417.18748605 -55.9738212 1416.92672877 -58.24707031 1416.66699219 C-139.22274227 1407.31635357 -217.49332587 1384.60982591 -339.68823242 1322.94628906 C-341.80482613 1321.66611294 -343.9263948 1320.39794633 -346.0559082 1319.13964844 C-355.01175202 1313.83558645 -363.74002607 1308.25173486 -372.3828125 1302.453125 C-373.0312915 1302.01936554 -373.67977051 1301.58560608 -374.34790039 1301.13870239 C-389.88539228 1290.74010585 -404.97475835 1279.89061161 -419.5703125 1268.203125 C-420.43785156 1267.51863281 -421.30539062 1266.83414062 -422.19921875 1266.12890625 C-428.5412644 1261.11024091 -434.71648775 1255.9014636 -440.8671875 1250.65185547 C-442.54371238 1249.22575188 -444.22796542 1247.8092967 -445.9140625 1246.39453125 C-460.36435581 1234.22036796 -473.82419501 1221.03820048 -487.1953125 1207.703125 C-487.7584314 1207.14268494 -488.32155029 1206.58224487 -488.9017334 1206.00482178 C-502.41766824 1192.53774685 -502.41766824 1192.53774685 -506.5703125 1187.203125 C-506.5703125 1186.873125 -506.5703125 1186.543125 -506.5703125 1186.203125 C-505.90201416 1186.13319336 -505.23371582 1186.06326172 -504.54516602 1185.99121094 C-451.50172768 1180.33057464 -406.59914981 1157.2086618 -371.9453125 1115.890625 C-370.46941106 1114.00843609 -369.01289192 1112.1109732 -367.5703125 1110.203125 C-367.09948242 1109.59227051 -366.62865234 1108.98141602 -366.14355469 1108.35205078 C-322.45006563 1051.4018415 -308.35069029 981.15270745 -317.32606506 910.85218811 C-324.81211867 855.36561271 -345.58969681 803.39799661 -381.5703125 760.203125 C-382.03083008 759.64641113 -382.49134766 759.08969727 -382.96582031 758.51611328 C-394.46507597 744.67208136 -406.68267774 731.50118729 -420.11083984 719.50976562 C-421.48786802 718.27693612 -422.85180435 717.02952833 -424.21484375 715.78125 C-430.15329477 710.357153 -436.30454832 705.24333168 -442.5703125 700.203125 C-443.67988033 699.30101838 -444.78924691 698.39866417 -445.8984375 697.49609375 C-459.84725769 686.1917454 -474.275966 675.5216838 -488.85302734 665.04492188 C-496.67686381 659.42041271 -504.42591927 653.69633169 -512.17480469 647.96923828 C-514.56543477 646.20672116 -516.96151183 644.45187965 -519.359375 642.69921875 C-538.50164765 628.6929639 -557.04079265 614.1954408 -574.5703125 598.203125 C-575.58285565 597.29504 -576.59589968 596.38751328 -577.609375 595.48046875 C-583.31953575 590.3466441 -588.65658052 585.11430258 -593.5703125 579.203125 C-594.40046875 578.26082031 -595.230625 577.31851563 -596.0859375 576.34765625 C-602.5887006 568.9312342 -608.23673886 561.18429732 -613.51708984 552.85595703 C-614.40781908 551.45812743 -615.32419678 550.07669185 -616.24609375 548.69921875 C-636.34060941 517.55542763 -642.0774627 475.00619335 -634.36010742 439.21655273 C-632.55559568 431.49834648 -629.89952768 424.39690654 -626.5703125 417.203125 C-626.11914062 416.21828125 -625.66796875 415.2334375 -625.203125 414.21875 C-617.64214105 399.0967821 -604.88316329 388.96951761 -589.2578125 383.140625 C-571.847151 377.79205234 -551.00684089 379.84821185 -534.8203125 387.828125 C-514.00368462 400.24397724 -504.93822093 421.81913735 -499.01123047 444.32617188 C-492.36139497 470.78082119 -492.32424339 498.06161283 -491.5703125 525.203125 C-442.0703125 525.203125 -392.5703125 525.203125 -341.5703125 525.203125 C-343.84639261 443.2642409 -348.99822315 351.18506458 -408.5703125 288.203125 C-409.37726563 287.33171875 -410.18421875 286.4603125 -411.015625 285.5625 C-422.77782357 273.27363583 -436.48180795 263.93652921 -451.5703125 256.203125 C-452.23611328 255.85797852 -452.90191406 255.51283203 -453.58789062 255.15722656 C-470.36929088 246.55655704 -488.16193172 241.08746223 -506.5703125 237.203125 C-506.5703125 232.90935987 -504.01581062 231.08047319 -501.1953125 228.140625 C-500.65382568 227.56497803 -500.11233887 226.98933105 -499.55444336 226.39624023 C-495.3521841 221.95283244 -491.03115163 217.63680188 -486.67578125 213.34375 C-484.98181307 211.62149663 -483.44221171 209.90539809 -481.9453125 208.015625 C-479.49694587 205.11624346 -476.88937394 202.83713747 -474.0078125 200.38671875 C-470.90630396 197.60828401 -467.99542743 194.66511288 -465.0703125 191.703125 C-461.00724758 187.59839356 -456.92071882 183.60875254 -452.515625 179.8671875 C-450.21798318 177.90173486 -447.99158127 175.86582629 -445.7578125 173.828125 C-436.74683872 165.70864786 -427.1939142 158.2341816 -417.61669922 150.79882812 C-416.2157716 149.70643217 -414.81915356 148.60849314 -413.42626953 147.50585938 C-396.82765652 134.37052454 -379.28644781 122.75688855 -361.5703125 111.203125 C-360.10271484 110.242854 -360.10271484 110.242854 -358.60546875 109.26318359 C-337.42216084 95.45131217 -315.12759393 83.5952195 -292.5703125 72.203125 C-291.56871094 71.69426758 -290.56710937 71.18541016 -289.53515625 70.66113281 C-212.97557411 31.99905355 -127.89460091 10.20680863 -40.44921875 1.96484375 C-39.77239044 1.90158905 -39.09556213 1.83833435 -38.39822388 1.77316284 C-36.12319204 1.56898163 -33.84741632 1.38284365 -31.5703125 1.203125 C-30.47831543 1.11650604 -29.38631836 1.02988708 -28.26123047 0.94064331 C-18.83345578 0.24838707 -9.44913568 0.02419687 0 0 Z M-250.5703125 256.203125 C-250.5703125 563.763125 -250.5703125 871.323125 -250.5703125 1188.203125 C-197.1103125 1188.203125 -143.6503125 1188.203125 -88.5703125 1188.203125 C-88.5703125 1054.883125 -88.5703125 921.563125 -88.5703125 784.203125 C-30.4903125 784.203125 27.5896875 784.203125 87.4296875 784.203125 C87.4296875 917.523125 87.4296875 1050.843125 87.4296875 1188.203125 C140.5596875 1188.203125 193.6896875 1188.203125 248.4296875 1188.203125 C248.4296875 880.643125 248.4296875 573.083125 248.4296875 256.203125 C195.2996875 256.203125 142.1696875 256.203125 87.4296875 256.203125 C87.4296875 380.283125 87.4296875 504.363125 87.4296875 632.203125 C29.0196875 632.203125 -29.3903125 632.203125 -89.5703125 632.203125 C-89.5703125 508.123125 -89.5703125 384.043125 -89.5703125 256.203125 C-142.7003125 256.203125 -195.8303125 256.203125 -250.5703125 256.203125 Z " fill="#000000" transform="translate(688.5703125,-0.203125)"/>
<path d="M0 0 C49.83 0 99.66 0 151 0 C152.1741018 7.04461078 153.31677498 13.9643218 154.08105373 21.04249287 C154.21992535 22.29028549 154.21992535 22.29028549 154.36160246 23.56328604 C154.66767987 26.32076741 154.96903325 29.07874314 155.27037048 31.83674622 C155.492414 33.84619296 155.71475021 35.85560737 155.93735224 37.86499232 C156.54573257 43.36447384 157.14995546 48.86440525 157.75347555 54.36442196 C158.40616745 60.30582124 159.06272817 66.24679315 159.71879578 72.18782043 C160.92885281 83.1508242 162.13589229 94.11415797 163.34140372 105.07766239 C164.45650777 115.21879599 165.5729747 125.35977846 166.69076729 135.50061607 C166.76505716 136.17460225 166.83934703 136.84858843 166.91588811 137.54299844 C167.21751846 140.27947936 167.51915627 143.01595946 167.82080453 145.75243841 C170.64996099 171.41796302 173.47542619 197.08389276 176.29908049 222.75002322 C178.80086551 245.49029335 181.30532891 268.23026686 183.81225586 290.9699707 C183.97293885 292.42749358 184.13362179 293.88501646 184.29430466 295.34253935 C184.37374741 296.06314847 184.45319016 296.78375759 184.53504026 297.52620335 C184.93505036 301.15462601 185.3350548 304.7830493 185.73505306 308.41147327 C185.85345513 309.48550665 185.85345513 309.48550665 185.97424916 310.58123766 C188.07478971 329.63570801 190.1733556 348.69039582 192.27129561 367.74515265 C192.34610511 368.42461379 192.42091462 369.10407494 192.49799108 369.80412581 C192.60998849 370.82134808 192.60998849 370.82134808 192.72424849 371.85912031 C192.83602749 372.87435728 192.83602749 372.87435728 192.95006465 373.91010409 C193.10012802 375.27306665 193.25018975 376.63602939 193.40024984 377.99899232 C194.44045468 387.44682226 195.48137873 396.89457271 196.52280316 406.3422683 C197.86746325 418.54093015 199.21069061 430.73974861 200.55169099 442.93881337 C201.19712635 448.8100466 201.84317111 454.68121084 202.49102783 460.55217743 C205.15385179 484.68724771 207.7690882 508.82059248 210 533 C210.66 533 211.32 533 212 533 C212.03684465 532.23700151 212.07368931 531.47400303 212.11165047 530.68788338 C212.76773992 519.57177469 214.39069638 508.65899001 216.04638672 497.65576172 C216.36528418 495.5097966 216.6837125 493.36376173 217.00171471 491.21766376 C217.87149286 485.35690702 218.7478049 479.49714352 219.62520313 473.63752341 C220.56936771 467.32389671 221.50731944 461.00934684 222.44598389 454.69490051 C224.06752527 443.79222544 225.69276273 432.89010692 227.32061768 421.9883728 C229.77911443 405.52348988 232.23092042 389.05761499 234.68122944 372.59151183 C235.66063775 366.01003953 236.64023819 359.42859583 237.61984253 352.84715271 C237.78265313 351.75329053 237.78265313 351.75329053 237.94875284 350.63733012 C239.61492988 339.4430969 241.28226463 328.24903648 242.95022583 317.05506897 C249.03898453 276.19125825 255.11241005 235.32519595 261.171875 194.45703125 C261.32375419 193.43269934 261.32375419 193.43269934 261.47870165 192.38767385 C263.76247561 176.98501736 266.04572504 161.58228315 268.32867432 146.17950439 C270.59451754 130.89218384 272.86134399 115.60500917 275.12841797 100.31787109 C275.48813167 97.89224981 275.84784492 95.46662846 276.20755768 93.04100704 C276.73172068 89.50646667 277.25588418 85.97192637 277.78005028 82.43738645 C279.35935248 71.78785032 280.9385467 61.13829819 282.51760507 50.4887259 C282.78731099 48.66977414 283.05702283 46.85082327 283.32674193 45.03187346 C285.55252452 30.02145071 287.77619031 15.01071542 290 0 C339.83 0 389.66 0 441 0 C453.67038946 92.84128899 453.67038946 92.84128899 459.95100403 138.86457825 C460.04476616 139.55165127 460.13852829 140.23872429 460.23513169 140.94661771 C462.27372714 155.88510283 464.31231183 170.82358942 466.35088546 185.76207752 C467.350865 193.08983906 468.35084692 200.41760028 469.35083008 207.74536133 C469.45033074 208.47449101 469.54983141 209.20362068 469.65234725 209.9548452 C472.86688799 233.51062972 476.08158484 257.06639294 479.29636424 280.6221449 C482.60499684 304.86559658 485.91346879 329.10907018 489.22174378 353.35257066 C489.69096739 356.7911062 490.16019281 360.2296415 490.62941933 363.66817665 C490.72175329 364.34480889 490.81408726 365.02144112 490.90921923 365.71857736 C492.38467512 376.53082638 493.86029618 387.34305284 495.33598186 398.1552705 C496.82612287 409.07342814 498.31607924 419.99161097 499.80586912 430.90981653 C500.61039777 436.80591768 501.41499992 442.70200877 502.21982002 448.59807014 C502.52188043 450.81103091 502.82393775 453.0239921 503.12599182 455.23695374 C503.27218219 456.30797006 503.41837257 457.37898637 503.56899295 458.48245773 C504.66663287 466.5254028 505.76174016 474.56869112 506.85613438 482.61207839 C507.61712608 488.20117862 508.38290898 493.78959709 509.15269321 499.37749296 C509.63213768 502.8609615 510.10904618 506.34477432 510.58545861 509.82865868 C510.80527011 511.43140128 511.02625045 513.0339841 511.24850365 514.63638993 C511.5495126 516.80726051 511.84644868 518.97865145 512.14243031 521.15021229 C512.30914449 522.3605176 512.47585867 523.57082292 512.64762479 524.81780416 C512.95385879 527.58331248 513.07186337 530.22204958 513 533 C513.66 533 514.32 533 515 533 C515.08089996 531.72048594 515.08089996 531.72048594 515.16343427 530.41512311 C515.72275115 522.04270727 516.54226324 513.74061608 517.57342529 505.41427612 C517.73097203 504.11892948 517.88851878 502.82358284 518.05083966 501.48898327 C518.48377815 497.9301512 518.92102106 494.37185987 519.3590312 490.81364894 C519.83368727 486.95130399 520.30424701 483.08845962 520.77532959 479.22567749 C521.59529736 472.50670624 522.41782585 465.78805247 523.24208832 459.06960678 C524.45676047 449.16888259 525.66738999 439.26766707 526.87715283 429.36634196 C528.87077505 413.0503712 530.86750579 396.73478242 532.86621094 380.41943359 C534.75439524 365.0062012 536.64137836 349.59282276 538.52636719 334.17919922 C538.63987532 333.25104612 538.75338345 332.32289302 538.87033123 331.36661407 C539.55692558 325.75225494 540.24346698 320.13788932 540.92999113 314.5235216 C541.96436154 306.06452045 542.99880339 297.60552804 544.0333252 289.14654541 C544.20423088 287.74908551 544.20423088 287.74908551 544.37858921 286.32339409 C545.99077759 273.14123516 547.60420275 259.95922808 549.21853858 246.77733198 C550.26239254 238.25359292 551.30605211 229.72983007 552.34960938 221.20605469 C552.46444117 220.26812016 552.57927296 219.33018563 552.69758451 218.36382884 C556.11309906 190.46492838 559.51637357 162.56455603 562.90991293 134.6629742 C563.78070043 127.50353094 564.65198969 120.3441489 565.52362442 113.18480873 C565.64477043 112.18971971 565.76591645 111.1946307 565.89073355 110.16938747 C566.3751907 106.19011368 566.85965584 102.21084087 567.34417775 98.23157497 C568.75393345 86.65332085 570.16176679 75.07483689 571.56635159 63.4959543 C572.43515731 56.33507147 573.30614484 49.1744562 574.17886502 42.01404938 C574.68161252 37.8884424 575.18328385 33.76271151 575.68219852 29.63663912 C576.13841292 25.86374902 576.59745322 22.09121422 577.05879441 18.31894769 C577.22547685 16.95173767 577.3910878 15.58439653 577.55554661 14.21691726 C577.77823572 12.36649336 578.00511263 10.51657485 578.23222733 8.66668892 C578.35726804 7.63728978 578.48230875 6.60789065 578.61113858 5.5472976 C579 3 579 3 580 0 C819.25 0 1058.5 0 1305 0 C1305 299.97 1305 599.94 1305 909 C1249.89 909 1194.78 909 1138 909 C1138 655.89 1138 402.78 1138 142 C1088.17 142 1038.34 142 987 142 C987 395.11 987 648.22 987 909 C932.22 909 877.44 909 821 909 C821 655.89 821 402.78 821 142 C774.8 142 728.6 142 681 142 C679.515 154.87 679.515 154.87 678 168 C677.33484727 173.3255475 676.66140965 178.64776151 675.9611969 183.96852112 C675.77536469 185.39202004 675.58970524 186.81554152 675.40419745 188.23908275 C674.90480275 192.06758298 674.40303542 195.89576866 673.90080346 199.72389758 C673.35160748 203.91348502 672.80474219 208.10337684 672.25756359 212.29322815 C671.30375665 219.59432434 670.34852839 226.89523342 669.39232635 234.19601631 C667.97682136 245.00375669 666.56364264 255.81180037 665.15094648 266.61990821 C662.78765054 284.70033413 660.42261785 302.78053245 658.05654907 320.8605957 C654.69807454 346.52415202 651.3418396 372.18800089 647.98622011 397.85193065 C646.80046798 406.92059688 645.61468269 415.98925878 644.42890178 425.05792125 C644.13085891 427.33731162 643.83281752 429.61670218 643.53477759 431.89609294 C641.42873937 448.00293356 639.32238072 464.10973226 637.21581725 480.2165042 C629.46259824 539.4980462 621.71790128 598.78069469 613.9826443 658.0645831 C613.066647 665.08488213 612.15059176 672.1051736 611.23449516 679.12545967 C606.67439686 714.07069776 602.11446003 749.01595684 597.55693068 783.96153007 C595.63172422 798.72323803 593.7057658 813.48484773 591.77906311 828.24636048 C590.64266419 836.95315061 589.50689588 845.66002247 588.37203682 854.36701344 C587.61863606 860.14691915 586.86447908 865.92672585 586.10969543 871.70645114 C585.68041874 874.99380374 585.25160289 878.2812153 584.82349217 881.56871998 C584.36355689 885.1002225 583.9023222 888.6315529 583.44075012 892.1628418 C583.30793884 893.18507416 583.17512756 894.20730653 583.03829169 895.26051563 C582.9150922 896.20097659 582.79189271 897.14143756 582.66495991 898.11039734 C582.55986585 898.91610011 582.45477179 899.72180288 582.34649307 900.55192089 C581.94687403 903.37535115 581.46879529 906.18722827 581 909 C530.84 909 480.68 909 429 909 C420.43626154 846.88942097 420.43626154 846.88942097 417.15844727 823.1105957 C417.05851662 822.38565336 416.95858598 821.66071102 416.85562713 820.91380073 C415.34603222 809.96249574 413.83649512 799.01118278 412.32699949 788.0598641 C412.00121212 785.69629386 411.67542293 783.33272387 411.34963369 780.96915388 C399.80321771 697.20071548 388.26682243 613.43090553 367.89767647 465.25138623 C367.56130217 462.80378408 367.22492608 460.35618218 366.8885498 457.9085803 C361.25809808 416.93918201 355.62853078 375.96966224 350 335 C347.97464847 337.02535153 348.19144041 340.89088969 347.80430603 343.6728363 C347.68723089 344.48990535 347.57015574 345.3069744 347.44953287 346.14880311 C347.05340482 348.92083023 346.66334525 351.69367863 346.27319336 354.46655273 C345.989676 356.45950433 345.70579027 358.45240356 345.42156506 360.44525433 C344.63852105 365.94332787 343.86076149 371.44213818 343.08383226 376.94107866 C342.24882612 382.84459963 341.40902091 388.74743799 340.5697937 394.65036011 C339.11743919 404.8707298 337.66818318 415.09153531 336.22109985 425.31265259 C334.69824405 436.06892507 333.17366409 446.82495084 331.64682007 457.58065796 C331.55174971 458.25038292 331.45667935 458.92010788 331.35872807 459.61012753 C330.97302829 462.32716119 330.5873172 465.04419325 330.20159115 467.76122318 C325.81722988 498.64451457 321.44069691 529.52891292 317.06617833 560.4135998 C315.06070241 574.57250104 313.0542411 588.73126252 311.04757559 602.88999522 C304.57490443 648.5605093 298.10523701 694.23144803 291.64349145 739.90350932 C290.73707542 746.30984086 289.8302679 752.71611682 288.9231109 759.12234348 C288.17724886 764.38964371 287.4315874 769.65697232 286.68603516 774.92431641 C286.53846177 775.96691372 286.39088839 777.00951103 286.23884308 778.08370221 C284.10146842 793.18684954 281.97304019 808.29124123 279.84939671 823.39632511 C278.62242463 832.12308766 277.39316092 840.84952698 276.16335768 849.57589096 C275.15534971 856.72997745 274.150413 863.88448665 273.14775133 871.03932428 C272.5317821 875.42953026 271.91292203 879.81932504 271.29323411 884.2090075 C271.00523759 886.25347387 270.71847237 888.29811409 270.4329927 890.34293342 C270.04368031 893.13034663 269.65010026 895.91712415 269.25541687 898.70378113 C269.08526785 899.93346216 269.08526785 899.93346216 268.91168147 901.18798524 C268.11409111 906.77181778 268.11409111 906.77181778 267 909 C218.82 909 170.64 909 121 909 C118.64062003 893.6640302 116.30211644 878.35794952 114.26716614 862.98139954 C114.01843043 861.11727524 113.76946299 859.25318186 113.52028984 857.38911599 C112.84630781 852.34210698 112.17553924 847.2946757 111.5053634 842.24716008 C110.77398564 836.74325618 110.03950661 831.23976597 109.30543137 825.73622131 C108.02721435 816.14997425 106.75090796 806.56347438 105.47589302 796.97680092 C103.59538808 782.83766161 101.71175605 768.69894013 99.82744747 754.56030729 C96.69160937 731.0307963 93.55817451 707.50096582 90.42614746 683.97094727 C87.35281291 660.88195142 84.27867686 637.79306257 81.20324707 614.7043457 C81.10795872 613.98896917 81.01267036 613.27359264 80.91449448 612.53653803 C79.46682784 601.66822977 78.01907198 590.7999334 76.57128906 579.93164062 C76.37772295 578.47856414 76.18415688 577.02548765 75.99059084 575.57241115 C74.24480342 562.46701174 72.49899964 549.36161451 70.75313437 536.25622547 C68.8049797 521.6322997 66.85696025 507.00835593 64.90923691 492.38437271 C54.93767818 417.51573985 44.95067383 342.64920267 34.93510785 267.78644129 C33.46239249 256.77823112 31.99019683 245.76995148 30.51805779 234.76166423 C29.24607735 225.25019834 27.97398936 215.73874683 26.7019043 206.22729492 C26.56530587 205.20592747 26.42870744 204.18456002 26.28796966 203.13224204 C23.08457382 179.18011207 19.8792735 155.2282392 16.66961876 131.27694709 C14.56604288 115.57921743 12.46511793 99.88113493 10.36697501 84.18267816 C9.14101824 75.01076635 7.91278574 65.83916598 6.68120318 56.66800785 C5.86947172 50.6218251 5.0605246 44.57527425 4.25391138 38.52840656 C3.79650918 35.10009482 3.33784543 31.67196472 2.87569869 28.24428904 C2.38106795 24.57080214 1.89123285 20.89670737 1.40264893 17.22241211 C1.25838642 16.15986574 1.11412391 15.09731937 0.9654898 14.00257462 C0.83672913 13.02666503 0.70796845 12.05075544 0.57530594 11.04527283 C0.46331651 10.20914931 0.35132708 9.3730258 0.23594403 8.51156521 C-0.02952357 5.68572896 0 2.83827827 0 0 Z " fill="#000000" transform="translate(1525,268)"/>
<path d="M0 0 C72.93 0 145.86 0 221 0 C222.44379939 5.05329787 223.57589032 9.82928738 224.37841797 14.98158264 C224.50310333 15.75919 224.6277887 16.53679737 224.75625241 17.33796859 C225.1723327 19.93960187 225.58224455 22.54216854 225.9921875 25.14477539 C226.29230354 27.0295093 226.59280006 28.91418266 226.89364433 30.79880047 C227.71816986 35.97102826 228.53730651 41.14409719 229.35556936 46.31731892 C230.23750229 51.88695091 231.12443592 57.45578669 232.01077271 63.02471924 C233.54289586 72.65557032 235.07187025 82.28691701 236.59869385 91.91860962 C238.80370406 105.82848219 241.0134295 119.7376024 243.22436452 133.64653432 C246.67844755 155.37672817 250.12921947 177.10744583 253.57770392 198.83852865 C258.27229515 228.4220554 262.97327959 258.00456261 267.67679596 287.58667183 C273.6716937 325.29088986 279.6654608 362.99528807 285.65395737 400.70052338 C286.29844079 404.7583208 286.94306873 408.81609522 287.5878334 412.87384796 C288.33007099 417.54508572 289.07200241 422.21637201 289.81369019 426.8876971 C290.08088422 428.57023968 290.34818164 430.25276584 290.61559677 431.93527329 C291.31027311 436.30624444 292.0019437 440.67767049 292.69059229 445.04959512 C292.9945082 446.96538149 293.30503806 448.88011488 293.61568832 450.79482079 C293.79978382 451.94604235 293.98387932 453.09726391 294.17355347 454.28337097 C294.33412169 455.27370929 294.4946899 456.2640476 294.66012383 457.28439617 C294.9862386 459.89004666 295.06322028 462.37744154 295 465 C295.66 465 296.32 465 297 465 C297.15474792 463.855811 297.30949585 462.71162201 297.46893311 461.53276062 C299.64751187 445.72209079 302.28312648 429.99162041 304.94028735 414.25602317 C305.61002734 410.28599387 306.27659092 406.31543113 306.9434967 402.34492493 C308.10144458 395.45310918 309.26104689 388.56157364 310.42178345 381.67022705 C313.41284908 363.91120659 316.39472448 346.15064097 319.37719178 328.39017487 C319.87370366 325.43367797 320.37031458 322.47719773 320.86694908 319.52072144 C326.00713891 288.9197533 331.12373118 258.31490139 336.22265625 227.70703125 C336.39228709 226.68882585 336.56191792 225.67062045 336.73668909 224.62156034 C339.8983245 205.64359278 343.05806961 186.66531065 346.21569824 167.68667603 C350.30768281 143.09254099 354.40427925 118.49918349 358.51400852 93.90800667 C358.84474778 91.92897616 359.17545472 89.94994026 359.50613308 87.97089958 C361.77962568 74.36499285 364.05768684 60.7598621 366.34212303 47.15578842 C367.01461196 43.1503827 367.68561249 39.14473208 368.35531044 35.1388588 C369.13460022 30.47794202 369.91696224 25.81755168 370.70178056 21.15756273 C370.990049 19.44275946 371.27721231 17.72777001 371.56321883 16.01258802 C371.95336482 13.67404715 372.34745783 11.33620577 372.74259949 8.99850464 C372.85622796 8.31170313 372.96985643 7.62490162 373.08692819 6.91728795 C373.88585024 2.22829952 373.88585024 2.22829952 375 0 C446.28 0 517.56 0 591 0 C591 299.97 591 599.94 591 909 C541.83 909 492.66 909 442 909 C441.67 689.88 441.34 470.76 441 245 C420.60047844 365.86979289 420.60047844 365.86979289 400.22262144 486.74323177 C397.2870636 504.16746874 394.35057331 521.59154861 391.4140625 539.015625 C391.25763669 539.94380067 391.10121087 540.87197634 390.94004488 541.82827854 C384.09067849 582.46980572 377.23406738 623.11010906 370.375 663.75 C370.23927692 664.55415848 370.10355384 665.35831696 369.96371794 666.18684387 C369.14608583 671.0313026 368.32844795 675.87576036 367.51080763 680.7202177 C366.41661309 687.20323863 365.32242303 693.68626032 364.22823834 700.16928291 C363.95390335 701.79470906 363.67956733 703.42013504 363.40523028 705.04556084 C356.19639229 747.75738227 348.99192564 790.469941 341.78771305 833.1825428 C341.15514218 836.93294769 340.52256719 840.68335189 339.88999236 844.43375611 C339.12050711 848.99587611 338.35102455 853.55799657 337.58154297 858.12011719 C337.44601462 858.92364073 337.31048626 859.72716428 337.17085099 860.55503702 C334.44715966 876.70334548 331.72359103 892.85167463 329 909 C298.31 909 267.62 909 236 909 C233.74999803 899.99999211 233.74999803 899.99999211 233.05269182 895.81754756 C232.89195476 894.86313926 232.73121769 893.90873097 232.56560981 892.92540121 C232.31118037 891.38477758 232.31118037 891.38477758 232.05161095 889.81303024 C231.86527053 888.70080148 231.67893011 887.58857273 231.48694301 886.44264007 C230.86202779 882.70777074 230.24174379 878.97214724 229.62142944 875.23651123 C229.17073444 872.53473205 228.71906426 869.83311611 228.26744139 867.1314919 C227.28538137 861.25357258 226.30573327 855.37525525 225.32766914 849.49666977 C223.87328517 840.75523863 222.41519501 832.01442854 220.95637478 823.2737368 C218.35127753 807.66422051 215.74989383 792.05408706 213.15008609 776.44368901 C210.87539637 762.78549315 208.59950287 749.12749856 206.32240677 735.46970367 C206.09594529 734.11139311 206.09594529 734.11139311 205.86490883 732.72564192 C205.25207978 729.04991294 204.63924614 725.37418473 204.02640496 721.69845777 C198.27693681 687.21388651 192.53125315 652.72868563 186.78726027 618.243202 C181.68133943 587.58868758 176.57206206 556.93473437 171.45996094 526.28125 C165.71853541 491.85410144 159.97920015 457.4266055 154.24325144 422.99854398 C153.632159 419.33070638 153.02106143 415.66286964 152.4099617 411.99503326 C152.2594913 411.09189454 152.1090209 410.18875583 151.95399079 409.25824927 C149.67906208 395.60412204 147.40252963 381.95026283 145.12522507 368.29653168 C142.53707795 352.77906599 139.95123611 337.26121813 137.36846636 321.74285647 C135.92190121 313.05169079 134.47353996 304.36082889 133.02262424 295.67038842 C132.05488237 289.87287479 131.08948103 284.07497464 130.12602067 278.27674795 C129.57622338 274.96840674 129.02503274 271.6603139 128.47171836 268.35255799 C127.87707221 264.79672766 127.28636859 261.24026492 126.69670677 257.68360519 C126.52240481 256.64715811 126.34810286 255.61071103 126.16851902 254.54285645 C126.012789 253.59846223 125.85705897 252.65406801 125.69660985 251.68105578 C125.56104223 250.867379 125.4254746 250.05370221 125.28579887 249.21536855 C125 247 125 247 125 243 C124.34 243 123.68 243 123 243 C123 462.78 123 682.56 123 909 C82.41 909 41.82 909 0 909 C0 609.03 0 309.06 0 0 Z " fill="#000000" transform="translate(2910,268)"/>
<path d="M0 0 C123.75 0 247.5 0 375 0 C375 46.86 375 93.72 375 142 C306.03 142 237.06 142 166 142 C166 217.9 166 293.8 166 372 C216.82 372 267.64 372 320 372 C320 421.17 320 470.34 320 521 C269.18 521 218.36 521 166 521 C166 602.18 166 683.36 166 767 C237.94 767 309.88 767 384 767 C384 813.86 384 860.72 384 909 C257.28 909 130.56 909 0 909 C0 609.03 0 309.06 0 0 Z " fill="#000000" transform="translate(3582,268)"/>
<path d="M0 0 C1.11955078 1.01126953 1.11955078 1.01126953 2.26171875 2.04296875 C3.18339844 2.87183594 4.10507813 3.70070313 5.0546875 4.5546875 C64.24760422 59.75619969 74.66795976 170.26597308 81.57421875 246.54296875 C81.65562103 247.44137482 81.73702332 248.33978088 81.82089233 249.26541138 C83.53491379 268.46470783 84.47232588 287.57856017 84.44921875 306.85546875 C84.4486145 307.80117737 84.44801025 308.74688599 84.4473877 309.72125244 C84.33473169 375.5329685 76.61311304 441.98081515 57.26171875 505.04296875 C56.96330078 506.02056152 56.66488281 506.9981543 56.35742188 508.00537109 C43.75965421 548.73504593 23.51571942 599.13331637 -16.3359375 620.3828125 C-31.22978739 627.65019046 -47.78798538 627.26620176 -63.36328125 622.328125 C-73.83325343 618.34129532 -82.46262978 612.5269286 -90.73828125 605.04296875 C-91.56972656 604.29402344 -92.40117188 603.54507813 -93.2578125 602.7734375 C-145.50582908 553.15839184 -158.05208177 463.67784037 -165.55078125 395.54296875 C-165.69983414 394.20836609 -165.69983414 394.20836609 -165.85189819 392.84680176 C-169.10367974 363.29038735 -170.12286502 333.77834893 -170.05633926 304.0676651 C-170.05068057 301.49723752 -170.04787188 298.92681659 -170.04525757 296.35638428 C-170.00917539 271.93703924 -169.71047708 247.63580751 -166.99475098 223.34173584 C-166.72305413 220.90648635 -166.46226267 218.47020373 -166.20214844 216.03369141 C-163.76660048 193.49811738 -160.42261995 171.22426992 -155.73828125 149.04296875 C-155.47289551 147.78339355 -155.20750977 146.52381836 -154.93408203 145.22607422 C-146.23070258 104.61203755 -133.90905754 60.84372549 -108.73828125 27.04296875 C-108.32755371 26.48851074 -107.91682617 25.93405273 -107.49365234 25.36279297 C-92.72846668 5.57345504 -75.15925703 -9.59349915 -50.36328125 -14.64453125 C-31.76264983 -16.24803396 -14.53569768 -12.17129584 0 0 Z " fill="#000000" transform="translate(1336.73828125,404.95703125)"/>
<path d="M0 0 C3.79702215 1.77573432 6.33201944 4.03207883 9.375 6.9375 C14.22563667 11.48665925 19.25445093 15.6761559 24.51635742 19.73876953 C28.30168994 22.66209564 32.02539942 25.64511869 35.71533203 28.68798828 C45.20524695 36.50500906 55.0453545 43.78879284 65 51 C66.53648542 52.11715025 68.07294417 53.23433718 69.609375 54.3515625 C76.8694852 59.62026561 84.16442504 64.83692295 91.5 70 C99.60651409 75.70569548 107.66016968 81.48150094 115.67773438 87.31152344 C117.24573387 88.45158699 118.81477072 89.59022498 120.38476562 90.72753906 C131.54495841 98.8198084 142.41819652 107.16433224 153 116 C153.60682617 116.50241211 154.21365234 117.00482422 154.83886719 117.52246094 C168.40566021 128.77565083 180.61557111 140.7136607 191 155 C191.43441406 155.59538574 191.86882812 156.19077148 192.31640625 156.80419922 C215.81835922 189.43508243 223.03671959 230.58170034 217 270 C212.61008757 293.92210212 201.88877321 316.54106894 181.90234375 331.28515625 C165.65551751 341.84658035 147.19589478 345.9999713 128 343 C113.17535881 339.79106257 100.41873528 332.94954947 89 323 C87.75089844 321.95005859 87.75089844 321.95005859 86.4765625 320.87890625 C80.20999052 315.47037259 75.00902453 309.57811655 70 303 C69.22011719 301.98550781 68.44023438 300.97101563 67.63671875 299.92578125 C24.0140922 241.81195661 9.79506206 162.87786922 3 92 C2.9248114 91.22070129 2.8496228 90.44140259 2.77215576 89.63848877 C-0.07456373 59.74982537 -0.36410529 30.00601027 0 0 Z " fill="#000000" transform="translate(0,697)"/>
<path d="M0 0 C8.02742822 6.30322709 13.89884342 15.95161171 16 26 C17.26970403 40.40282202 15.8411235 52.94262222 6.90234375 64.75390625 C-0.81716195 73.86831236 -11.13744601 80.16335462 -23.09375 81.8125 C-37.38391871 82.73444637 -49.91527707 79.57894254 -60.8515625 70.09375 C-69.7284138 61.44285491 -74.96876106 50.5593429 -75.29272461 38.12524414 C-75.4206394 23.97407847 -71.77283879 13.22071611 -61.8984375 2.77734375 C-44.39019898 -13.77196298 -19.02030666 -14.50004859 0 0 Z M-58.97265625 10.06640625 C-65.98481922 18.38869733 -69.67977841 28.75768677 -68.78125 39.65234375 C-67.2743878 49.98304325 -62.77811212 58.96338106 -55 66 C-45.6562764 72.93700692 -35.6298879 76.20136575 -24 75 C-12.43639853 72.88792667 -2.68760037 66.65986721 4 57 C9.40430879 47.4013023 11.49700755 37.05447937 8.875 26.25 C5.09690486 14.57687196 -1.22761374 6.20123597 -12.25 0.5625 C-28.94207046 -7.37272003 -46.43434464 -3.06778552 -58.97265625 10.06640625 Z " fill="#000000" transform="translate(4080,1099)"/>
<path d="M0 0 C3.96 -0.061875 7.92 -0.12375 12 -0.1875 C13.23234375 -0.21481201 14.4646875 -0.24212402 15.734375 -0.27026367 C22.82354377 -0.32363905 29.25536183 -0.14066427 34.9375 4.625 C37.11390829 9.48991264 37.53840932 14.13351436 36.0625 19.25 C33.30076779 22.93230961 30.01407029 24.84517842 26 27 C26.73605469 27.49242187 27.47210937 27.98484375 28.23046875 28.4921875 C31.72043764 31.65235679 33.32788662 34.91475758 35.3125 39.125 C35.67150391 39.85332031 36.03050781 40.58164063 36.40039062 41.33203125 C39 46.68970238 39 46.68970238 39 49 C36.03 49 33.06 49 30 49 C29.49210937 47.89140625 28.98421875 46.7828125 28.4609375 45.640625 C27.76649701 44.17666937 27.07113555 42.71315036 26.375 41.25 C26.04371094 40.52039062 25.71242188 39.79078125 25.37109375 39.0390625 C23.04625608 34.2139277 21.01723821 31.35965122 16 29 C13.03 28.67 10.06 28.34 7 28 C7 34.93 7 41.86 7 49 C4.69 49 2.38 49 0 49 C0 32.83 0 16.66 0 0 Z M7 6 C7 11.28 7 16.56 7 22 C17.49153057 22.66294184 17.49153057 22.66294184 27 19 C29.3343558 16.11538937 29.3343558 16.11538937 28.9375 12.5 C28.348378 8.95953174 28.348378 8.95953174 25.9609375 7.29296875 C22.15438935 5.63074258 18.75100867 5.67197879 14.6875 5.8125 C12.150625 5.874375 9.61375 5.93625 7 6 Z " fill="#000000" transform="translate(4032,1111)"/>
</svg>
