<svg data-v-3c4cc634="" fill="none" height="24" viewBox="0 0 214 24" width="214" xmlns="http://www.w3.org/2000/svg"><path clip-rule="evenodd" d="M24.7258 0H1.39696L0.0401216 4.15441H6.59453L0 23.9635H10.2237L16.8146 4.15441H23.369L24.7258 0ZM88.6318 23.9635H88.633L88.6318 23.9672V23.9635ZM88.633 23.9635L96.5832 0.00366211H115.827C118.11 0.00366211 121.663 1.23649 120.131 5.84318L118.697 10.0742C117.997 12.2079 116.192 14.6407 113.168 15.6146L114.806 23.9635H104.06L102.729 16.6724H100.552L98.1808 23.9635H88.633ZM109.284 3.93193C110.593 3.93193 111.129 4.34409 110.571 6.02919L109.262 9.99758C108.795 11.4565 107.89 12.1313 106.617 12.1313H102.124L104.826 3.93193H109.284ZM48.2772 0C50.3344 0 51.611 0.561702 52.2493 1.68511L52.2456 1.67781C52.8912 2.76109 52.8474 4.5228 52.0122 7.06869L48.7186 16.9167C47.9234 19.386 46.8328 21.1842 45.414 22.3076C44.0681 23.3945 42.383 23.9562 40.3222 23.9562H25.459C23.4383 23.9562 22.0815 23.4711 21.4432 22.3477C20.8414 21.3264 20.8961 19.3751 23.4055 12.0219C23.4894 11.7775 24.3648 9.22796 25.0067 7.36413L35.3654 5.66808L31.0942 18.4559C30.766 19.4663 31.1818 19.9915 32.3818 19.9915H35.9781C37.1745 19.9915 37.9915 19.5027 38.3234 18.4559L42.6347 5.53678C42.9629 4.52644 42.5107 4.00122 41.3107 4.00122H37.718C37.5502 4.00122 37.397 4.01216 37.2474 4.02675H26.3635C27.0055 2.76474 27.2097 2.55684 28.2857 1.68511C29.6681 0.598176 31.3532 0 33.4104 0H48.2772ZM77.6207 0H58.2346L50.2869 23.9635H59.8322L62.2432 16.6979H71.493C74.6407 16.6979 78.6201 15.3155 80.1994 10.5593L81.7751 5.83951C83.4018 0.97386 79.9076 0 77.6207 0ZM70.7343 10.5191C70.1799 12.2043 69.4395 12.5799 68.1337 12.5799H63.6L66.4815 3.93191H71.2742C72.5836 3.93191 72.8243 4.30395 72.2663 5.98906L70.738 10.5191H70.7343ZM156.142 23.9635H146.403L151.893 7.41887L162.189 5.73376L156.142 23.9635ZM174.084 0H154.355L152.998 4.08875H162.737V4.08146H167.869C168.956 4.08146 169.233 4.4535 168.861 5.54407L162.733 23.9635H172.016L177.866 6.40122C179.168 2.4693 178.505 0 174.084 0ZM203.329 0H208.793L200.845 6.55076L203.84 23.9635H193.025L191.431 13.8164L188.426 16.2529L185.869 23.9635H176.134L184.081 0H193.816L190.286 10.6723L203.329 0ZM116.746 24H121.316L126.127 16.6687H133.666L133.185 24H143.518L144.167 0H132.372L116.746 24ZM133.586 12.4778H128.83L134.104 4.53374L133.586 12.4778ZM211.991 3.74224C213.042 3.74224 213.87 2.92157 213.87 1.893C213.87 0.864429 213.067 0.0583496 212.002 0.0583496C210.937 0.0583496 210.098 0.864429 210.098 1.893C210.098 2.92157 210.941 3.74224 211.991 3.74224ZM212.002 3.35926C211.185 3.35926 210.569 2.71002 210.569 1.893C210.569 1.08692 211.163 0.426739 211.98 0.426739C212.798 0.426739 213.403 1.08692 213.403 1.90394C213.399 2.71002 212.798 3.3702 212.002 3.35926ZM211.277 2.84862H211.7H211.703V2.11914H211.904C212.137 2.11914 212.25 2.20668 212.283 2.39634L212.294 2.44149C212.343 2.64053 212.378 2.78385 212.429 2.84498H212.878C212.845 2.77932 212.798 2.67719 212.743 2.39634C212.688 2.15197 212.597 2.00607 212.418 1.95136V1.92947C212.63 1.86017 212.798 1.71428 212.798 1.49178C212.798 1.31306 212.721 1.18175 212.608 1.10151C212.484 1.01033 212.327 0.955614 211.98 0.955614C211.686 0.955614 211.454 0.986626 211.291 1.00846L211.277 1.01033V2.84862ZM211.915 1.8164H211.714V1.81276V1.28753L211.732 1.28479C211.78 1.2771 211.851 1.26564 211.951 1.26564C212.218 1.26564 212.342 1.38236 212.342 1.5465C212.342 1.73981 212.148 1.8164 211.915 1.8164Z" data-v-3c4cc634="" fill="white" fill-rule="evenodd"></path></svg>