<?xml version="1.0" encoding="UTF-8"?>
<svg version="1.1" xmlns="http://www.w3.org/2000/svg" width="1080" height="1080">
<path d="M0 0 C356.4 0 712.8 0 1080 0 C1080 356.4 1080 712.8 1080 1080 C723.6 1080 367.2 1080 0 1080 C0 723.6 0 367.2 0 0 Z " fill="#FDFDFD" transform="translate(0,0)"/>
<path d="M0 0 C39.93 0 79.86 0 121 0 C121 0.66 121 1.32 121 2 C121.66 2 122.32 2 123 2 C124.24926758 3.32592773 124.24926758 3.32592773 125.64453125 5.18359375 C126.40975098 6.19848877 126.40975098 6.19848877 127.19042969 7.23388672 C127.72571289 7.9610791 128.26099609 8.68827148 128.8125 9.4375 C129.35422852 10.16727051 129.89595703 10.89704102 130.45410156 11.64892578 C140 24.66684845 140 24.66684845 140 29 C140.66 29 141.32 29 142 29 C142 29.66 142 30.32 142 31 C142.66 31 143.32 31 144 31 C145.14695805 33.2939161 145.12338652 34.56337149 145.12025452 37.11282349 C145.12231651 38.40431305 145.12231651 38.40431305 145.12442017 39.72189331 C145.12082489 40.66847809 145.11722961 41.61506287 145.11352539 42.59033203 C145.11367142 43.58548828 145.11381744 44.58064453 145.1139679 45.60595703 C145.11326931 48.90659743 145.10547944 52.20718192 145.09765625 55.5078125 C145.09579188 57.79181894 145.09436807 60.07582578 145.09336853 62.35983276 C145.08954487 68.38011778 145.07971586 74.40037879 145.06866455 80.4206543 C145.05844718 86.56038081 145.05387021 92.70011119 145.04882812 98.83984375 C145.03809348 110.89323973 145.02101885 122.94661787 145 135 C142.03 135.99 142.03 135.99 139 137 C139 137.66 139 138.32 139 139 C137.5390625 140.5078125 137.5390625 140.5078125 135.625 142.125 C134.99851563 142.66382813 134.37203125 143.20265625 133.7265625 143.7578125 C132 145 132 145 130 145 C129.58129447 147.33071879 129.58129447 147.33071879 130 150 C132.2094183 152.10183458 132.2094183 152.10183458 135 154 C136.66666667 155.66666667 138.33333333 157.33333333 140 159 C141.29286423 159.75815002 141.29286423 159.75815002 142.61184692 160.53161621 C146.26644008 164.30898651 145.73078187 167.91786086 145.71044922 172.99414062 C145.72563599 174.0093277 145.74082275 175.02451477 145.75646973 176.07046509 C145.79892328 179.43272926 145.80376689 182.79373428 145.8046875 186.15625 C145.8182173 188.49833698 145.83264469 190.84041894 145.84793091 193.18249512 C145.87337776 198.09868068 145.87861882 203.01442264 145.87158203 207.93066406 C145.86550389 214.20796331 145.92320604 220.48283603 145.99824333 226.75962067 C146.04653444 231.60184674 146.05328111 236.4434963 146.0485878 241.28593445 C146.05262308 243.59827179 146.07100049 245.91063286 146.10439682 248.22273254 C146.38783611 270.09801521 146.38783611 270.09801521 138.22463989 278.73815918 C137.49050873 279.48456665 136.75637756 280.23097412 136 281 C134.95847167 282.6410352 133.94930215 284.30394481 133 286 C132.13702209 287.16737261 131.2501293 288.31759665 130.3359375 289.4453125 C129.85382813 290.04730469 129.37171875 290.64929688 128.875 291.26953125 C127.86809239 292.51505499 126.86026703 293.75983732 125.8515625 295.00390625 C123.73376536 297.65115267 122.0812543 299.75623709 121 303 C81.07 303 41.14 303 0 303 C0 203.01 0 103.02 0 0 Z " fill="#070A0A" transform="translate(0,471)"/>
<path d="M0 0 C39.6 0 79.2 0 120 0 C130 13 130 13 134 20 C135.55418452 21.67003573 137.11532208 23.33362636 138.6831665 24.99084473 C145.46691358 33.99883422 144.21097004 44.32094868 144.06933594 55.14648438 C144.07171129 57.48656909 144.07801145 59.82665259 144.08792114 62.16671753 C144.1032626 68.4930907 144.06284982 74.81798853 144.01134014 81.14412498 C143.97069407 87.09761611 143.96998012 93.05101246 143.96821049 99.00462204 C143.96315889 110.79338442 143.91585679 122.58159014 143.84375 134.37011719 C143.77386108 145.80440902 143.73145664 157.2383479 143.72070312 168.67285156 C143.72003482 169.37834222 143.71936652 170.08383287 143.71867797 170.81070203 C143.71735015 172.23198049 143.71602407 173.65325896 143.71469976 175.07453743 C143.71404106 175.77566967 143.71338236 176.47680192 143.7127037 177.1991806 C143.71173177 178.24826053 143.71173177 178.24826053 143.71074019 179.31853399 C143.69897166 190.88747128 143.66088705 202.45633812 143.62166309 214.02520943 C143.60936316 217.97254846 143.60058822 221.91988404 143.59227753 225.86723328 C143.57761427 232.05947317 143.54703139 238.25144084 143.50396347 244.4435463 C143.49038188 246.71878222 143.48187548 248.99405477 143.47874069 251.26932907 C143.47351261 254.36793764 143.44989079 257.46586256 143.42132568 260.56433105 C143.42392513 261.47053995 143.42652458 262.37674884 143.4292028 263.31041861 C143.32643859 270.70876937 143.32643859 270.70876937 140 274 C139.00847791 275.71914096 138.08255397 277.46180196 137.16015625 279.21875 C135.70531862 281.4524401 133.88393122 283.11606878 132 285 C130.7347391 286.68177535 129.50546363 288.39119169 128.3125 290.125 C127.40951172 291.42824219 127.40951172 291.42824219 126.48828125 292.7578125 C124.99448786 294.90932666 124.99448786 294.90932666 124 297 C123.34 297 122.68 297 122 297 C121.5359375 298.2065625 121.5359375 298.2065625 121.0625 299.4375 C120 302 120 302 119 303 C79.73 303 40.46 303 0 303 C0 203.01 0 103.02 0 0 Z " fill="#060909" transform="translate(119,125)"/>
<path d="M0 0 C3.12311284 -0.30724079 6.04898616 -0.41961395 9.17553711 -0.40405273 C10.1268602 -0.41091599 11.07818329 -0.41777924 12.05833435 -0.42485046 C15.21482105 -0.44320804 18.37081494 -0.43926813 21.52734375 -0.43359375 C23.71448429 -0.43815136 25.90162338 -0.44345566 28.08876038 -0.44947815 C32.6779664 -0.45842695 37.26699857 -0.45596612 41.85620117 -0.44604492 C47.74582362 -0.43455506 53.63484657 -0.45475839 59.52439022 -0.48396206 C64.04276867 -0.50228296 68.56100239 -0.50203976 73.07940865 -0.49632454 C75.25119429 -0.49617081 77.42298943 -0.50225748 79.59473991 -0.51461601 C82.62856837 -0.52944594 85.66127569 -0.51890756 88.69506836 -0.50170898 C90.04873505 -0.51621094 90.04873505 -0.51621094 91.42974854 -0.53100586 C97.49911102 -0.45872996 97.49911102 -0.45872996 100.08155823 1.90635681 C101 4 101 4 101 6 C101.66 6 102.32 6 103 6 C103.495 7.485 103.495 7.485 104 9 C104.99 9.495 104.99 9.495 106 10 C106 10.66 106 11.32 106 12 C106.66 12 107.32 12 108 12 C112 20 112 20 112.96875 22.1015625 C114.04072224 24.28907099 114.04072224 24.28907099 116.625 26.625 C119 29 119 29 119 31 C119.66 31 120.32 31 121 31 C122.72018981 34.44037962 122.15183233 38.40401081 122.15390015 42.19084167 C122.16047353 43.63769937 122.16047353 43.63769937 122.1671797 45.11378652 C122.18060201 48.36646831 122.18675427 51.619123 122.19287109 54.87182617 C122.20076938 57.19571049 122.20903815 59.51959357 122.21765137 61.84347534 C122.24390381 69.49329451 122.25918252 77.14311924 122.2734375 84.79296875 C122.27879591 87.42341936 122.28417341 90.05386992 122.28956985 92.68432045 C122.31120356 103.62436403 122.33009253 114.5644063 122.34119225 125.50446606 C122.34412197 128.34420463 122.34708363 131.18394316 122.35009766 134.02368164 C122.35084371 134.72949017 122.35158976 135.43529869 122.35235842 136.16249535 C122.36500946 147.59376741 122.39822833 159.02488383 122.43989949 170.45608314 C122.48232848 182.19136009 122.50588845 193.92655739 122.51111281 205.66191083 C122.5147706 212.25124834 122.52683766 218.84032214 122.55921555 225.42958641 C122.58924074 231.62907686 122.5956275 237.82814329 122.58383179 244.02769089 C122.58361059 246.30331183 122.59195369 248.57895212 122.60948563 250.85450554 C122.63212119 253.9615962 122.62390732 257.06714208 122.60800171 260.17424011 C122.6218838 261.07464073 122.63576588 261.97504135 122.65006864 262.90272683 C122.57159804 269.12480529 121.24091144 272.38071166 117 277 C116.01 277 115.02 277 114 277 C113.67 278.32 113.34 279.64 113 281 C112.34 281 111.68 281 111 281 C110.79375 281.99 110.5875 282.98 110.375 284 C109.05589445 288.67422183 106.33877604 292.50698702 103 296 C102.34 296 101.68 296 101 296 C100.690625 296.61875 100.38125 297.2375 100.0625 297.875 C99.375 299.25 98.6875 300.625 98 302 C85.50878492 302.27848652 73.01831225 302.49147996 60.52462101 302.62174606 C54.72257128 302.68428135 48.92265049 302.76903855 43.12182617 302.90527344 C37.51952275 303.03601703 31.91926147 303.10748082 26.31554985 303.13852692 C24.18189784 303.16063865 22.04835326 303.20382341 19.91557503 303.26876068 C3.65078807 303.74411729 3.65078807 303.74411729 -0.74092484 300.85453796 C-4.00774641 297.72302822 -5.94300606 293.97266902 -8 290 C-9.42028183 288.11652723 -10.87360383 286.25697236 -12.375 284.4375 C-13.31472656 283.25994141 -13.31472656 283.25994141 -14.2734375 282.05859375 C-15.91148906 280.00233255 -15.91148906 280.00233255 -17.7265625 278.47265625 C-19 277 -19 277 -19 273 C-19.99 272.67 -20.98 272.34 -22 272 C-22.90343211 269.28970368 -23.12588906 267.73749831 -23.12863445 264.9563303 C-23.1318589 264.13074259 -23.13508335 263.30515489 -23.1384055 262.45454937 C-23.1368569 261.54775258 -23.1353083 260.64095578 -23.13371277 259.7066803 C-23.1371111 258.26149125 -23.1371111 258.26149125 -23.14057809 256.78710645 C-23.14693075 253.54433823 -23.14608792 250.30161167 -23.14526367 247.05883789 C-23.14825435 244.73979132 -23.15165667 242.42074524 -23.15544128 240.10169983 C-23.16429424 233.79189012 -23.16661993 227.48209396 -23.16725707 221.17227864 C-23.16820508 215.91106377 -23.1718821 210.64985208 -23.17542917 205.38863844 C-23.18311264 193.6894775 -23.18609734 181.99032319 -23.18542381 170.29115994 C-23.18538386 169.58897608 -23.1853439 168.88679223 -23.18530273 168.16333008 C-23.18526185 167.46029074 -23.18522097 166.7572514 -23.18517885 166.03290784 C-23.18477227 154.63530049 -23.19434461 143.23772616 -23.2084411 131.84012837 C-23.2227952 120.14212283 -23.22952856 108.44413492 -23.22884732 96.74612039 C-23.22859186 90.17655265 -23.23146956 83.60702227 -23.24202538 77.03746223 C-23.2516782 70.86104831 -23.25180494 64.68470769 -23.24450874 58.50829124 C-23.24345942 56.23787454 -23.24584624 53.96745333 -23.2518692 51.69704437 C-23.25954303 48.60471006 -23.25497496 45.51263182 -23.24723816 42.42030334 C-23.25238172 41.51573727 -23.25752529 40.6111712 -23.26282471 39.67919403 C-23.25822592 38.85099858 -23.25362712 38.02280313 -23.24888897 37.16951084 C-23.24910634 36.45574396 -23.24932371 35.74197707 -23.24954766 35.00658089 C-22.95886333 32.66922527 -22.15330374 31.03776148 -21 29 C-20.34 29 -19.68 29 -19 29 C-19 28.34 -19 27.68 -19 27 C-18.34 27 -17.68 27 -17 27 C-16.34 25.02 -15.68 23.04 -15 21 C-14.34 21 -13.68 21 -13 21 C-12.88068115 20.40904541 -12.7613623 19.81809082 -12.63842773 19.20922852 C-11.97991271 16.93048952 -11.17982084 15.55308916 -9.78515625 13.65234375 C-9.34623047 13.04712891 -8.90730469 12.44191406 -8.45507812 11.81835938 C-7.99552734 11.19767578 -7.53597656 10.57699219 -7.0625 9.9375 C-6.15727495 8.69681673 -5.25231743 7.45593823 -4.34765625 6.21484375 C-3.57292969 5.15394531 -2.79820312 4.09304688 -2 3 C-1.34 2.01 -0.68 1.02 0 0 Z " fill="#050808" transform="translate(958,471)"/>
<path d="M0 0 C0.94650421 -0.0131424 1.89300842 -0.02628479 2.86819458 -0.03982544 C6.01011448 -0.07934525 9.15184294 -0.10262847 12.29394531 -0.12255859 C13.36581337 -0.13070965 14.43768143 -0.1388607 15.54203033 -0.14725876 C21.21583795 -0.18900433 26.8895485 -0.21759639 32.56347656 -0.23632812 C38.42635826 -0.2584568 44.28772153 -0.32724513 50.15006638 -0.40667152 C54.65568879 -0.45895216 59.16094816 -0.47570691 63.66684723 -0.48289108 C65.82787577 -0.49263769 67.9888873 -0.5159089 70.14962006 -0.55296707 C73.17649131 -0.60165051 76.19942 -0.59984533 79.2265625 -0.5859375 C80.56405045 -0.62436768 80.56405045 -0.62436768 81.92855835 -0.66357422 C85.70193135 -0.6004336 87.95487462 -0.4896204 90.80045319 2.12770462 C94.87207031 7.38006752 94.87207031 7.38006752 94.87207031 10.35400391 C95.53207031 10.35400391 96.19207031 10.35400391 96.87207031 10.35400391 C97.12730469 11.07201172 97.38253906 11.79001953 97.64550781 12.52978516 C98.95345923 15.54140577 100.55480948 17.89986931 102.49707031 20.54150391 C105.87207031 25.13563656 105.87207031 25.13563656 105.87207031 27.35400391 C106.53207031 27.35400391 107.19207031 27.35400391 107.87207031 27.35400391 C111.77006683 33.08493757 112.45027002 37.21295884 112.38673401 44.0634613 C112.39367954 45.02343256 112.40062507 45.98340381 112.40778106 46.9724651 C112.42603507 50.17987978 112.41579093 53.38655348 112.40551758 56.59399414 C112.41257683 58.89729363 112.42132187 61.20058847 112.43162537 63.50387573 C112.45412808 69.75387506 112.45117744 76.00362125 112.4423039 82.25364566 C112.43719406 87.47244965 112.44448655 92.69120606 112.45177597 97.91000515 C112.46974965 110.92564709 112.46336144 123.94114786 112.44560616 136.95678467 C112.43091111 148.25129022 112.44553664 159.5455297 112.47437633 170.84000098 C112.50379445 182.44778125 112.51422775 194.05542796 112.50519413 205.66324383 C112.50026441 212.17593294 112.50248338 218.68841525 112.52298164 225.20107841 C112.5413342 231.32517828 112.53538448 237.44878363 112.51078224 243.5728569 C112.50577318 245.81901744 112.50926648 248.06521563 112.52193069 250.31134605 C112.53786573 253.38065299 112.52290485 256.44833247 112.5002594 259.51756287 C112.51209513 260.40385815 112.52393086 261.29015343 112.53612524 262.20330614 C112.44576552 268.2423716 110.98837488 272.79191588 106.87207031 277.35400391 C106.21207031 277.35400391 105.55207031 277.35400391 104.87207031 277.35400391 C104.87207031 278.01400391 104.87207031 278.67400391 104.87207031 279.35400391 C104.21207031 279.35400391 103.55207031 279.35400391 102.87207031 279.35400391 C102.64519531 280.03462891 102.41832031 280.71525391 102.18457031 281.41650391 C100.81720928 284.47678812 99.15272393 286.84387152 97.16894531 289.52197266 C95.90171811 291.31212192 94.81340962 293.12619445 93.74707031 295.04150391 C93.12832031 296.13462891 92.50957031 297.22775391 91.87207031 298.35400391 C91.52867615 299.06968536 91.18528198 299.78536682 90.83148193 300.5227356 C87.59844972 303.54433115 83.91325997 302.96045651 79.64648438 302.96679688 C78.22891846 302.99176743 78.22891846 302.99176743 76.78271484 303.01724243 C73.65087514 303.06552805 70.51986805 303.08299703 67.38769531 303.09619141 C65.21156562 303.11412039 63.03543849 303.13236401 60.85931396 303.15090942 C56.29286709 303.18391949 51.72671394 303.19929448 47.16015625 303.20507812 C41.31371851 303.21583869 35.4700497 303.2911447 29.62439346 303.38256645 C25.12723786 303.44212119 20.63074777 303.45652544 16.13323212 303.45853043 C13.97858775 303.46693579 11.82394149 303.49180996 9.66968536 303.53356552 C-7.20135607 303.83448493 -7.20135607 303.83448493 -11.93444824 300.19732666 C-13.74753926 297.63383869 -14.93084798 295.24496281 -16.12792969 292.35400391 C-17.10942328 290.9506522 -18.1248444 289.56962081 -19.19042969 288.22900391 C-19.67382812 287.58833984 -20.15722656 286.94767578 -20.65527344 286.28759766 C-21.66358597 284.96368597 -22.67686025 283.64354266 -23.69433594 282.32666016 C-24.20867187 281.65505859 -24.72300781 280.98345703 -25.25292969 280.29150391 C-25.93742188 279.40785156 -25.93742188 279.40785156 -26.63574219 278.50634766 C-31.29163077 271.79065496 -32.71554398 267.6814323 -32.62240601 259.54170227 C-32.62964925 258.08526134 -32.62964925 258.08526134 -32.63703883 256.59939736 C-32.6482854 253.35496998 -32.63100873 250.11133501 -32.61376953 246.86694336 C-32.61591595 244.53745307 -32.61979448 242.20796383 -32.62527466 239.878479 C-32.63496364 233.55847293 -32.61967112 227.23874959 -32.59936857 220.9187777 C-32.58357976 214.97771508 -32.58504399 209.03667517 -32.58591922 203.09559538 C-32.58691955 191.32645757 -32.56862012 179.55742862 -32.53955078 167.78833008 C-32.51135848 156.36838804 -32.49721014 144.94854177 -32.49853516 133.52856445 C-32.49861507 132.82474718 -32.49869498 132.1209299 -32.49877732 131.39578483 C-32.49885802 130.69318215 -32.49893873 129.99057946 -32.49902189 129.26668578 C-32.50033144 116.92046643 -32.49004022 104.57428651 -32.47343826 92.22807884 C-32.46636905 86.97018313 -32.46271127 81.71230125 -32.46165085 76.45440102 C-32.45964519 70.26806363 -32.4474618 64.08182717 -32.42731857 57.89552307 C-32.42146611 55.62188523 -32.41901834 53.34823577 -32.42017365 51.07459068 C-32.42115186 47.97807057 -32.40987534 44.88183515 -32.39535522 41.78535461 C-32.39845243 40.87962607 -32.40154963 39.97389753 -32.40474069 39.04072267 C-32.3982918 38.21151061 -32.39184291 37.38229856 -32.38519859 36.52795887 C-32.38378974 35.81332251 -32.38238089 35.09868616 -32.38092935 34.36239415 C-32.08143561 31.98491939 -31.38062231 30.38921335 -30.12792969 28.35400391 C-29.46792969 28.02400391 -28.80792969 27.69400391 -28.12792969 27.35400391 C-27.17129089 25.63865157 -26.21637356 23.92227687 -25.27636719 22.19775391 C-23.61528486 19.53098228 -21.37004558 17.53552207 -19.12792969 15.35400391 C-18.79792969 14.36400391 -18.46792969 13.37400391 -18.12792969 12.35400391 C-17.46792969 12.35400391 -16.80792969 12.35400391 -16.12792969 12.35400391 C-15.85980469 11.81775391 -15.59167969 11.28150391 -15.31542969 10.72900391 C-14.92355469 9.94525391 -14.53167969 9.16150391 -14.12792969 8.35400391 C-13.63292969 7.32275391 -13.13792969 6.29150391 -12.62792969 5.22900391 C-9.54963934 -0.67105259 -6.08540345 0.03637224 0 0 Z " fill="#050808" transform="translate(237.1279296875,470.64599609375)"/>
<path d="M0 0 C17.82 0 35.64 0 54 0 C54 100.32 54 200.64 54 304 C35.85 304 17.7 304 -1 304 C-2.77966736 295.69488564 -4.52838234 287.44638699 -5.9921875 279.09179688 C-6.3658761 275.76041251 -6.3658761 275.76041251 -8 273 C-8.04080783 271.00041636 -8.04254356 268.99954746 -8 267 C-8.66 267 -9.32 267 -10 267 C-10.16081055 266.351521 -10.32162109 265.70304199 -10.48730469 265.03491211 C-11.24020261 262.00210823 -11.99486497 258.96974765 -12.75 255.9375 C-13.02150879 254.84598633 -13.29301758 253.75447266 -13.57275391 252.62988281 C-15.39527885 245.33331634 -17.30265006 238.06861198 -19.3359375 230.828125 C-20 228 -20 228 -20 224 C-20.66 224 -21.32 224 -22 224 C-22.33 220.37 -22.66 216.74 -23 213 C-23.66 213 -24.32 213 -25 213 C-26.04716526 208.36255386 -27.06903105 203.72473341 -28 199.0625 C-28.24943359 197.81339844 -28.24943359 197.81339844 -28.50390625 196.5390625 C-28.8342582 194.84828481 -29.15460461 193.15552101 -29.46484375 191.4609375 C-30.36959163 186.63063065 -31.57660875 182.12669187 -33.2109375 177.49609375 C-34.50504602 173.40235443 -35.35697914 169.21141961 -36.25390625 165.015625 C-36.92220638 162.01205571 -36.92220638 162.01205571 -38.08203125 159.31640625 C-39.21920439 156.44685872 -39.14222488 154.05783496 -39 151 C-39.66 151 -40.32 151 -41 151 C-41 201.49 -41 251.98 -41 304 C-58.49 304 -75.98 304 -94 304 C-94 204.01 -94 104.02 -94 1 C-76.51 1 -59.02 1 -41 1 C-40.0318352 4.8726592 -39.92377142 8.03611362 -40 12 C-39.34 12 -38.68 12 -38 12 C-36.04513265 16.26060832 -35.32559322 20.53086253 -34.625 25.125 C-33.63608903 31.23435907 -32.16884818 36.66013296 -29.8515625 42.41796875 C-28.39234139 46.84248779 -28.17914675 51.36905659 -28 56 C-27.34 56 -26.68 56 -26 56 C-26 57.65 -26 59.3 -26 61 C-25.34 61 -24.68 61 -24 61 C-23.81824219 61.92941406 -23.63648438 62.85882812 -23.44921875 63.81640625 C-21.97273955 71.34992031 -21.97273955 71.34992031 -19.4375 78.5625 C-16.49810035 85.59149916 -15.85198385 93.42840486 -16 101 C-15.34 101 -14.68 101 -14 101 C-13.37280115 103.62449228 -12.74786574 106.24947836 -12.125 108.875 C-11.939375 109.65496338 -11.75375 110.43492676 -11.5625 111.23852539 C-10.60616876 115.29241016 -9.72443877 119.33454226 -9 123.4375 C-8.0196397 128.57563834 -6.03261402 133.20169804 -4 138 C-2.37453392 142.22621182 -1.78411241 145.46636067 -2 150 C-1.34 150 -0.68 150 0 150 C0 100.5 0 51 0 0 Z " fill="#040707" transform="translate(820,470)"/>
<path d="M0 0 C39.93 0 79.86 0 121 0 C122.98 2.97 124.96 5.94 127 9 C127.90492188 10.32257813 127.90492188 10.32257813 128.828125 11.671875 C129.29734375 12.35765625 129.7665625 13.0434375 130.25 13.75 C130.72953125 14.44609375 131.2090625 15.1421875 131.703125 15.859375 C133.09919197 18.1637265 134.06502918 20.47734289 135 23 C135.66 23 136.32 23 137 23 C138.38442 24.96498322 139.71203834 26.97048465 141 29 C141.52940437 29.63167367 142.05880875 30.26334734 142.60425568 30.91416264 C144.25136518 33.3756468 144.38074207 34.68745008 144.39440918 37.62339783 C144.40575897 38.54722763 144.41710876 39.47105743 144.42880249 40.42288208 C144.42587189 41.42922699 144.42294128 42.4355719 144.41992188 43.47241211 C144.42839142 44.53785751 144.43686096 45.60330292 144.44558716 46.70103455 C144.46900595 50.22659202 144.46997814 53.75171434 144.46875 57.27734375 C144.47584847 59.72587764 144.483547 62.17440986 144.49182129 64.62294006 C144.50527725 69.75673038 144.50682972 74.89036689 144.50097656 80.02416992 C144.49507879 86.60638476 144.52567117 93.18786244 144.56609344 99.76993465 C144.59192907 104.82711267 144.59485159 109.88411221 144.59120178 114.94134712 C144.59289682 117.36827002 144.60257595 119.79520082 144.62034607 122.22205925 C144.64245339 125.61460747 144.63287427 129.00565077 144.61523438 132.39819336 C144.62849762 133.40251404 144.64176086 134.40683472 144.65542603 135.44158936 C144.57243915 142.30224763 144.57243915 142.30224763 141.5592041 145.97511292 C140.71466675 146.64332565 139.87012939 147.31153839 139 148 C137.96708324 149.98320018 136.9662501 151.98347806 136 154 C133.9375 156.875 133.9375 156.875 132 159 C131.34 159 130.68 159 130 159 C129.773125 159.680625 129.54625 160.36125 129.3125 161.0625 C127.93085675 164.15474919 126.24586389 166.58147853 124.234375 169.28515625 C122.84556108 171.15289438 122.84556108 171.15289438 121.3125 173.9375 C120.879375 174.618125 120.44625 175.29875 120 176 C119.34 176 118.68 176 118 176 C121.716266 192.17567539 121.716266 192.17567539 126.0625 208.1875 C128.07624687 214.98076228 129.60393149 221.86128934 131.14697266 228.77294922 C132.63281826 235.42230723 134.23148975 242.02831441 135.90625 248.6328125 C138.10338144 257.34286927 140.15345572 266.08982979 142.23876953 274.82714844 C142.9834408 277.93098032 143.73821737 281.03218143 144.49609375 284.1328125 C144.7288501 285.0916333 144.96160645 286.0504541 145.20141602 287.03833008 C145.6397741 288.84371716 146.08149355 290.64829249 146.52709961 292.4519043 C146.72182861 293.25797119 146.91655762 294.06403809 147.1171875 294.89453125 C147.28847168 295.59425049 147.45975586 296.29396973 147.63623047 297.01489258 C148 299 148 299 148 303 C130.18 303 112.36 303 94 303 C90.62843002 294.00914672 90.62843002 294.00914672 89.90234375 289.8359375 C89.65967773 288.49402344 89.65967773 288.49402344 89.41210938 287.125 C89.25548828 286.2175 89.09886719 285.31 88.9375 284.375 C87.94797942 278.73195092 86.8300832 273.43731332 85 268 C84.598052 265.56992221 84.24459745 263.13137631 83.9375 260.6875 C83.75370582 256.51908503 83.75370582 256.51908503 82 253 C81.43304405 250.78211534 80.92146481 248.54996049 80.4375 246.3125 C80.16808594 245.09175781 79.89867187 243.87101563 79.62109375 242.61328125 C79.05417531 239.3151708 78.88215199 236.33561101 79 233 C78.34 233 77.68 233 77 233 C76.84442627 232.08935791 76.68885254 231.17871582 76.52856445 230.24047852 C74.26143832 204.49836163 74.26143832 204.49836163 65 182 C65 180.02 65 178.04 65 176 C61.04 176 57.08 176 53 176 C53 217.91 53 259.82 53 303 C35.51 303 18.02 303 0 303 C0 203.01 0 103.02 0 0 Z " fill="#060909" transform="translate(441,125)"/>
<path d="M0 0 C17.82 0 35.64 0 54 0 C57.375 14.625 57.375 14.625 57 21 C57.66 21 58.32 21 59 21 C62.08023201 32.26074799 65.15860274 43.52137791 68.140625 54.80859375 C69.82162962 61.2495651 69.82162962 61.2495651 72.02734375 67.51953125 C73.20757031 70.52934598 73.87483776 73.53001422 74.5625 76.6875 C75.43044309 80.96753928 75.43044309 80.96753928 77 85 C77.15411106 87.0307477 77.24982453 89.06606421 77.31640625 91.1015625 C77.35830078 92.31328125 77.40019531 93.525 77.44335938 94.7734375 C77.48267578 96.04445313 77.52199219 97.31546875 77.5625 98.625 C77.60568359 99.90375 77.64886719 101.1825 77.69335938 102.5 C77.79969886 105.66655348 77.90172833 108.83318753 78 112 C79.98 112.495 79.98 112.495 82 113 C82.03758423 111.82026611 82.03758423 111.82026611 82.07592773 110.61669922 C82.19232866 107.03598506 82.31485487 103.4555055 82.4375 99.875 C82.47681641 98.6375 82.51613281 97.4 82.55664062 96.125 C82.59853516 94.92617188 82.64042969 93.72734375 82.68359375 92.4921875 C82.72025146 91.39245605 82.75690918 90.29272461 82.79467773 89.15966797 C82.99683479 86.04870884 83.43289894 83.06355662 84 80 C84.66 80 85.32 80 86 80 C86.33 76.37 86.66 72.74 87 69 C87.66 69 88.32 69 89 69 C88.979375 67.9275 88.95875 66.855 88.9375 65.75 C88.9857984 62.85209576 89.13155885 60.71387859 90 58 C90.66 58 91.32 58 92 58 C92.01417969 57.40316406 92.02835937 56.80632813 92.04296875 56.19140625 C92.45050723 48.77861169 94.28598809 42.07802804 96.46484375 35.0390625 C98.67366511 27.89657331 100.61056206 20.67542418 102.58837891 13.46630859 C102.87245605 12.44102051 103.1565332 11.41573242 103.44921875 10.359375 C103.82566528 8.98990723 103.82566528 8.98990723 104.2097168 7.59277344 C104.99588204 5.01351026 105.99857658 2.50355856 107 0 C124.49 0 141.98 0 160 0 C158.88446656 10.039801 158.88446656 10.039801 157.0625 14 C155.06925354 18.62433179 153.95612509 23.06002037 153 28 C152.34 28 151.68 28 151 28 C150.95101562 28.65226562 150.90203125 29.30453125 150.8515625 29.9765625 C150.42408343 34.97364541 149.73733452 39.27058936 148 44 C147.23661783 46.76623433 146.50592423 49.53980118 145.78125 52.31640625 C145 55 145 55 143.96875 57.50390625 C142.94511728 60.14141152 142.44769158 62.58492214 142 65.375 C141.12206012 70.47802557 140.16866378 75.39188449 138.0390625 80.14453125 C136.64805621 83.96718386 136.03293715 87.80781111 135.375 91.8125 C135.17390625 92.99489258 135.17390625 92.99489258 134.96875 94.20117188 C134.6408771 96.13328006 134.31975763 98.0665322 134 100 C133.34 100 132.68 100 132 100 C131.69255859 101.39025391 131.69255859 101.39025391 131.37890625 102.80859375 C130.97478516 104.60490234 130.97478516 104.60490234 130.5625 106.4375 C130.29566406 107.63246094 130.02882813 108.82742188 129.75390625 110.05859375 C129 113 129 113 128 114 C127.46178208 116.73631801 127.03521964 119.4842058 126.59765625 122.23828125 C126.03646111 124.83151631 125.20801493 126.66644505 124 129 C123.61250787 131.32495277 123.27017161 133.65851268 123 136 C122.34 136 121.68 136 121 136 C119.90644985 149.16693493 119.00291401 161.3935635 125.11328125 173.5234375 C126.98794546 178.7592838 126.84315114 184.48676256 127 190 C127.66 190 128.32 190 129 190 C129.33 192.97 129.66 195.94 130 199 C130.66 199 131.32 199 132 199 C132.20496094 200.12019531 132.40992188 201.24039063 132.62109375 202.39453125 C132.89311689 203.86720824 133.16525849 205.33986336 133.4375 206.8125 C133.63956055 207.91948242 133.63956055 207.91948242 133.84570312 209.04882812 C134.41419737 212.11315076 135.01309651 215.03928953 136 218 C136.66 218 137.32 218 138 218 C138.12117187 218.80824219 138.24234375 219.61648438 138.3671875 220.44921875 C138.53476562 221.51785156 138.70234375 222.58648438 138.875 223.6875 C139.03742188 224.74324219 139.19984375 225.79898438 139.3671875 226.88671875 C139.95998326 229.80312754 140.87353272 232.25892962 142 235 C142.125 237.8125 142.125 237.8125 142 240 C142.66 240 143.32 240 144 240 C144.12117187 240.96421875 144.24234375 241.9284375 144.3671875 242.921875 C144.53476562 244.18515625 144.70234375 245.4484375 144.875 246.75 C145.11863281 248.62945313 145.11863281 248.62945313 145.3671875 250.546875 C145.92193086 253.57399311 146.64277351 255.32932852 148 258 C148.4140625 260.796875 148.4140625 260.796875 148.625 263.75 C148.73714844 265.22726562 148.73714844 265.22726562 148.8515625 266.734375 C148.90054688 267.48203125 148.94953125 268.2296875 149 269 C149.66 269 150.32 269 151 269 C153.38613989 272.87747732 153.81345839 277.02024599 154.5 281.4375 C155.25415134 286.26489733 156.16741995 290.45549706 158 295 C158.33 297.31 158.66 299.62 159 302 C141.84 302 124.68 302 107 302 C101.37906852 287.38557816 101.37906852 287.38557816 99.83203125 280.6875 C99.66628098 279.9852832 99.5005307 279.28306641 99.32975769 278.55957031 C98.81536205 276.37495393 98.31309369 274.18781589 97.8125 272 C97.29926869 269.78413651 96.78333459 267.56896798 96.2631073 265.35473633 C95.79720206 263.36799553 95.33938419 261.3793632 94.88208008 259.390625 C94.11690165 256.44935792 93.18002937 253.79221661 92 251 C91.42307793 249.0098835 90.88236864 247.00897482 90.375 245 C89.98441406 243.4840625 89.98441406 243.4840625 89.5859375 241.9375 C89.03899008 239.19547026 88.88737218 236.78497886 89 234 C88.34 234 87.68 234 87 234 C84.70387244 222.47835991 84.70387244 222.47835991 85 217 C84.34 217 83.68 217 83 217 C82.67 208.09 82.34 199.18 82 190 C80.68 190 79.36 190 78 190 C77.98018066 190.78125244 77.96036133 191.56250488 77.93994141 192.36743164 C77.84424528 195.93277318 77.73474661 199.49756442 77.625 203.0625 C77.5940625 204.29162109 77.563125 205.52074219 77.53125 206.78710938 C77.33471104 212.86343898 77.08436382 218.27185943 75 224 C74.7421875 224.75925781 74.484375 225.51851562 74.21875 226.30078125 C73.9815625 226.96464844 73.744375 227.62851562 73.5 228.3125 C72.11945489 232.3847612 71.25204318 236.44657698 70.4609375 240.66796875 C69.83367652 243.84148403 68.92431085 246.90084008 68 250 C66.54798633 255.14091328 65.12311018 260.26265061 64.0625 265.5 C63.3412939 268.88966867 62.29760705 272.01252243 61.0625 275.25 C57.56558897 284.54476352 55.94289702 294.28551488 54 304 C36.18 304 18.36 304 0 304 C0.33 300.7 0.66 297.4 1 294 C1.66 294 2.32 294 3 294 C4.41621567 286.34640892 5.7399707 278.68081691 7 271 C7.66 271 8.32 271 9 271 C9.04898437 270.40832031 9.09796875 269.81664062 9.1484375 269.20703125 C9.22320312 268.41683594 9.29796875 267.62664062 9.375 266.8125 C9.44460938 266.03519531 9.51421875 265.25789063 9.5859375 264.45703125 C10.04318058 261.74376805 10.97743215 259.55458706 12 257 C12.77120484 254.22748972 13.41781236 251.42926868 14.0625 248.625 C14.23587891 247.89539063 14.40925781 247.16578125 14.58789062 246.4140625 C15.62654946 241.95698243 16.41907971 237.53956269 17 233 C17.66 233 18.32 233 19 233 C19.12117188 232.43152344 19.24234375 231.86304688 19.3671875 231.27734375 C20.56276651 225.76848353 21.81335693 220.30335775 23.72265625 214.98828125 C25.63490913 209.63589506 26.69062535 204.42749746 27.47265625 198.796875 C28.00416247 195.97792351 28.90488844 193.64264372 30 191 C30.41088563 189.40464778 30.78804166 187.80008636 31.125 186.1875 C31.29257812 185.39730469 31.46015625 184.60710937 31.6328125 183.79296875 C31.75398438 183.20128906 31.87515625 182.60960937 32 182 C32.66 182 33.32 182 34 182 C34.65025118 178.92833727 35.19422036 175.85049607 35.68359375 172.75 C35.80669922 171.9765625 35.92980469 171.203125 36.05664062 170.40625 C36.31045212 168.80268197 36.56045636 167.19850668 36.80664062 165.59375 C37.47464027 161.44038433 38.41387003 157.90967125 40 154 C40.30316103 146.34879315 37.55756129 138.22438208 34.94140625 131.12890625 C33.87187502 127.57415721 33.58456864 124.32737925 33.375 120.625 C33.30023438 119.37976563 33.22546875 118.13453125 33.1484375 116.8515625 C33.09945312 115.91054688 33.05046875 114.96953125 33 114 C32.34 114 31.68 114 31 114 C30.87882812 113.40832031 30.75765625 112.81664062 30.6328125 112.20703125 C29.72673947 107.93454844 28.67522614 104.04025127 27 100 C26.21818561 97.46015974 25.47396836 94.91067316 24.73046875 92.359375 C24.01553918 89.90100888 24.01553918 89.90100888 22.8125 87.25 C21.79124612 84.42191233 21.86130175 81.98201244 22 79 C21.34 79 20.68 79 20 79 C19.80664062 77.92621094 19.61328125 76.85242188 19.4140625 75.74609375 C19.15122282 74.30986267 18.88819176 72.8736666 18.625 71.4375 C18.49867188 70.73302734 18.37234375 70.02855469 18.2421875 69.30273438 C17.40769054 64.77558838 16.31316692 60.41790357 15 56 C14.60179717 54.54266492 14.20748081 53.0842641 13.81640625 51.625 C13.61080078 50.86703125 13.40519531 50.1090625 13.19335938 49.328125 C12.7730525 47.77702348 12.35637895 46.22493283 11.94335938 44.671875 C10.97527058 41.12523195 9.93797223 37.85763602 8.46484375 34.4765625 C6.78212578 30.48291185 5.86813021 26.6052955 5 22.375 C3.41523111 14.89435363 1.72026695 7.45449014 0 0 Z " fill="#070A0A" transform="translate(397,471)"/>
<path d="M0 0 C17.49 0 34.98 0 53 0 C57 17 57 17 57 22 C57.66 22 58.32 22 59 22 C59.67429967 25.39436356 60.3380828 28.79070193 61 32.1875 C61.19078125 33.14720703 61.3815625 34.10691406 61.578125 35.09570312 C61.75859375 36.02705078 61.9390625 36.95839844 62.125 37.91796875 C62.37636719 39.19837036 62.37636719 39.19837036 62.6328125 40.50463867 C63.00595229 43.04045103 63.06412996 45.44081397 63 48 C63.66 48 64.32 48 65 48 C67.29612756 62.59681093 67.29612756 62.59681093 67 70 C67.66 70 68.32 70 69 70 C69.50546036 72.08201528 70.00416835 74.16567067 70.5 76.25 C70.7784375 77.41015625 71.056875 78.5703125 71.34375 79.765625 C72 83 72 83 72 87 C72.66 87 73.32 87 74 87 C74.13277344 87.91523438 74.26554688 88.83046875 74.40234375 89.7734375 C74.66724609 91.55621094 74.66724609 91.55621094 74.9375 93.375 C75.19853516 95.15003906 75.19853516 95.15003906 75.46484375 96.9609375 C75.83462786 99.90702381 75.83462786 99.90702381 77 102 C77.15411106 104.0307477 77.24982453 106.06606421 77.31640625 108.1015625 C77.35830078 109.31328125 77.40019531 110.525 77.44335938 111.7734375 C77.48267578 113.04445313 77.52199219 114.31546875 77.5625 115.625 C77.60568359 116.90375 77.64886719 118.1825 77.69335938 119.5 C77.79969886 122.66655348 77.90172833 125.83318753 78 129 C78.99 129 79.98 129 81 129 C81.03758423 127.78268188 81.03758423 127.78268188 81.07592773 126.54077148 C81.19245817 122.83954284 81.314925 119.13853319 81.4375 115.4375 C81.47681641 114.16068359 81.51613281 112.88386719 81.55664062 111.56835938 C81.59853516 110.32763672 81.64042969 109.08691406 81.68359375 107.80859375 C81.72025146 106.67220459 81.75690918 105.53581543 81.79467773 104.36499023 C82.00804301 100.86818455 82.45954277 97.46008025 83 94 C83.66 94 84.32 94 85 94 C85.12503906 93.02417969 85.25007812 92.04835938 85.37890625 91.04296875 C85.99372358 86.74140851 86.95674604 82.54296362 87.9375 78.3125 C89.34909137 72.10972697 90.58034766 65.92424756 91.5625 59.63671875 C92.21288403 55.71699356 93.09731058 51.86866892 94 48 C94.66 48 95.32 48 96 48 C96.03738281 47.29617187 96.07476563 46.59234375 96.11328125 45.8671875 C96.7002107 37.05173738 97.62823737 27.72803051 101.03515625 19.5 C102.58526896 15.48351364 102.887246 11.30832329 103.4375 7.05859375 C104 4 104 4 106 0 C123.49 0 140.98 0 159 0 C158.23943305 4.5634017 157.27087647 8.58931106 156 13 C155.65747574 14.51878974 155.32447802 16.03975276 155 17.5625 C154.22882184 21.13684955 153.2370929 24.55381265 152 28 C151.34 28 150.68 28 150 28 C149.87882813 28.80824219 149.75765625 29.61648437 149.6328125 30.44921875 C149.38144531 32.05216797 149.38144531 32.05216797 149.125 33.6875 C148.88136719 35.27111328 148.88136719 35.27111328 148.6328125 36.88671875 C148.04106931 39.79794914 147.1968194 42.28955607 146 45 C145.34 45 144.68 45 144 45 C143.96261719 45.76183594 143.92523437 46.52367187 143.88671875 47.30859375 C143.51133591 53.20431253 142.81757971 58.37468854 140.7578125 63.9140625 C140.01087926 65.97005401 139.45050549 67.99969154 138.9375 70.125 C138.05143928 73.78738432 137.05467458 77.38397287 136 81 C135.34 81 134.68 81 134 81 C133.92652344 81.88751953 133.92652344 81.88751953 133.8515625 82.79296875 C133.77679687 83.58316406 133.70203125 84.37335938 133.625 85.1875 C133.55539062 85.96480469 133.48578125 86.74210937 133.4140625 87.54296875 C132.95633987 90.25907759 132.05678019 92.4584247 131 95 C129.93197623 98.40155496 128.91766602 101.81676192 127.90234375 105.234375 C127 108 127 108 126 109 C125.34080097 112.54460734 124.75469472 116.09323296 124.19335938 119.65429688 C123.01695833 126.74317983 123.01695833 126.74317983 121 130 C120.34 130 119.68 130 119 130 C118.505 133.96 118.505 133.96 118 138 C117.34 138 116.68 138 116 138 C116.04125 139.00160156 116.0825 140.00320313 116.125 141.03515625 C115.99429396 145.18098858 115.20623612 148.47953774 114 152.4375 C113.443125 154.29181641 113.443125 154.29181641 112.875 156.18359375 C112.58625 157.11300781 112.2975 158.04242188 112 159 C111.34 159 110.68 159 110 159 C109.505 162.96 109.505 162.96 109 167 C108.34 167 107.68 167 107 167 C106.67 211.88 106.34 256.76 106 303 C88.51 303 71.02 303 53 303 C52.970271 297.17758667 52.970271 297.17758667 52.93994141 291.23754883 C52.87309065 278.42514834 52.79555014 265.61283136 52.71247292 252.80052662 C52.66235592 245.03101888 52.6159129 237.26152165 52.578125 229.49194336 C52.54517888 222.71980283 52.50533319 215.94774401 52.45720994 209.17569369 C52.43197096 205.59010753 52.41018204 202.0045754 52.39665604 198.41892433 C52.38142531 194.41563809 52.35079079 190.4126116 52.31884766 186.40942383 C52.31668747 185.22115494 52.31452728 184.03288605 52.31230164 182.80860901 C52.30113815 181.71630981 52.28997467 180.62401062 52.2784729 179.49861145 C52.27294214 178.55193006 52.26741138 177.60524866 52.26171303 176.62987995 C51.97558521 173.75466269 51.16367043 171.63253296 50 169 C49.22573762 166.48364725 48.47634648 163.96749405 47.75 161.4375 C47.30385403 159.90350947 46.85721994 158.36966083 46.41015625 156.8359375 C46.17828613 156.03897461 45.94641602 155.24201172 45.70751953 154.42089844 C43.51918751 146.93314816 41.25942819 139.46653729 39 132 C38.66500488 130.89124512 38.33000977 129.78249023 37.98486328 128.64013672 C36.91084291 125.09211212 35.83115825 121.54585543 34.75 118 C34.40864014 116.87150635 34.06728027 115.7430127 33.71557617 114.58032227 C33.39177979 113.52256592 33.0679834 112.46480957 32.734375 111.375 C32.44788086 110.43398437 32.16138672 109.49296875 31.86621094 108.5234375 C31.07792198 106.01994722 31.07792198 106.01994722 29.89941406 103.8984375 C28.51562855 100.97761336 28.87786389 98.17553886 29 95 C28.34 95 27.68 95 27 95 C26.84144531 94.15179688 26.68289063 93.30359375 26.51953125 92.4296875 C25.22756435 85.9341633 23.72544688 79.94972946 21.375 73.75 C19.2587807 68.11945857 18.15224982 63.00694749 18 57 C17.34 57 16.68 57 16 57 C15.86424561 56.42032471 15.72849121 55.84064941 15.58862305 55.2434082 C14.96373115 52.59760057 14.32575104 49.95511535 13.6875 47.3125 C13.47416016 46.40048828 13.26082031 45.48847656 13.04101562 44.54882812 C11.89167067 39.83136748 10.68275571 36.09907088 8 32 C7.33984375 29.71875 7.33984375 29.71875 6.9375 27.5 C6.49158698 25.08782288 5.99059138 22.9765777 5.07421875 20.6953125 C3.73080067 17.3245544 2.7985341 13.87758857 1.875 10.375 C1.60236328 9.37339844 1.60236328 9.37339844 1.32421875 8.3515625 C0.55963473 5.47718647 0 2.98840337 0 0 Z " fill="#060909" transform="translate(802,125)"/>
<path d="M0 0 C45.54 0 91.08 0 138 0 C138 13.86 138 27.72 138 42 C124.14 42.33 110.28 42.66 96 43 C95.67 128.8 95.34 214.6 95 303 C77.84 303 60.68 303 43 303 C42.67 217.2 42.34 131.4 42 43 C28.14 42.67 14.28 42.34 0 42 C0 28.14 0 14.28 0 0 Z " fill="#050808" transform="translate(631,125)"/>
<path d="M0 0 C17.82 0 35.64 0 54 0 C54 99.99 54 199.98 54 303 C36.18 303 18.36 303 0 303 C0 203.01 0 103.02 0 0 Z " fill="#090C0C" transform="translate(324,125)"/>
<path d="M0 0 C17.16 0 34.32 0 52 0 C52 99.66 52 199.32 52 302 C34.84 302 17.68 302 0 302 C0 202.34 0 102.68 0 0 Z " fill="#040707" transform="translate(610,471)"/>
<path d="M0 0 C12.54 0 25.08 0 38 0 C38 26.73 38 53.46 38 81 C64.73 80.505 64.73 80.505 92 80 C92 86.6 92 93.2 92 100 C65.6 100 39.2 100 12 100 C12 112.54 12 125.08 12 138 C20.91 138 29.82 138 39 138 C39 165.06 39 192.12 39 220 C26.13 220 13.26 220 0 220 C0 147.4 0 74.8 0 0 Z " fill="#FDFDFD" transform="translate(988,512)"/>
<path d="M0 0 C12.54 0 25.08 0 38 0 C38.02311539 28.40639798 38.04097737 56.8127937 38.05181217 85.21919918 C38.05697591 98.40777341 38.06402008 111.59634169 38.07543945 124.78491211 C38.08538392 136.2755172 38.09185286 147.766118 38.09408849 159.25672728 C38.09539601 165.34500985 38.0984844 171.43328012 38.10573006 177.52155876 C38.11248653 183.24483633 38.11461773 188.96809646 38.11310768 194.69137764 C38.11338418 196.79857096 38.1153915 198.90576483 38.11920547 201.01295471 C38.12413691 203.8765325 38.12300033 206.7400433 38.12025452 209.60362244 C38.12316736 210.44893632 38.1260802 211.29425021 38.12908131 212.16517967 C38.11412121 217.88587879 38.11412121 217.88587879 37 219 C24.79 219 12.58 219 0 219 C0 146.73 0 74.46 0 0 Z " fill="#F7F7F7" transform="translate(258,513)"/>
<path d="M0 0 C12.21 0 24.42 0 37 0 C37 71.94 37 143.88 37 218 C24.79 218 12.58 218 0 218 C0 146.06 0 74.12 0 0 Z " fill="#FCFCFC" transform="translate(172,167)"/>
<path d="M0 0 C8.91 0 17.82 0 27 0 C29 12 29 12 29.375 17.8125 C29.70764451 22.47557119 30.64161945 26.63484561 31.9375 31.125 C33.84222352 37.7674654 34.75592554 44.21646468 35.31616211 51.09814453 C35.63987634 54.81199212 35.89072459 56.83608689 38 60 C39.10948165 53.92478008 40.06754171 47.91449628 40.5 41.75 C40.852457 36.92889171 41.71632712 32.65331418 43 28 C43.3564309 26.00398694 43.69922675 24.005155 44 22 C44.66 22 45.32 22 46 22 C45.95875 20.783125 45.9175 19.56625 45.875 18.3125 C46.01955122 12.16907329 47.06558928 6.07366968 48 0 C56.91 0 65.82 0 75 0 C75 38.94 75 77.88 75 118 C67.74 118 60.48 118 53 118 C52.67 104.47 52.34 90.94 52 77 C51.01 80.96 50.02 84.92 49 89 C48.67 89.33 48.34 89.66 48 90 C47.60030588 92.52361613 47.24957183 95.02820241 46.9375 97.5625 C46.628125 100.016875 46.31875 102.47125 46 105 C40.39 105 34.78 105 29 105 C28.51171875 102.68880208 28.0234375 100.37760417 27.53515625 98.06640625 C27.19247006 96.02338796 27.19247006 96.02338796 26 95 C24.02 84.11 24.02 84.11 22 73 C21.67 87.85 21.34 102.7 21 118 C14.07 118 7.14 118 0 118 C0 79.06 0 40.12 0 0 Z " fill="#0A0D0D" transform="translate(335,837)"/>
<path d="M0 0 C0.82214493 -0.00669708 1.64428986 -0.01339417 2.49134827 -0.02029419 C4.22530886 -0.02504474 5.9593958 -0.01221609 7.69311523 0.01708984 C10.3379896 0.05455059 12.97452617 0.0174677 15.61914062 -0.02734375 C17.308612 -0.0227169 18.99807821 -0.01374581 20.6875 0 C21.47205063 -0.01416962 22.25660126 -0.02833923 23.06492615 -0.04293823 C26.34710402 0.05437695 28.54647815 0.22764981 31.14431763 2.33929443 C32.72687913 4.13728429 34.07676307 5.93933749 35.41015625 7.9296875 C36.11657761 8.8082843 36.82299896 9.6868811 37.55082703 10.59210205 C39.98365289 14.95914158 39.94752182 18.23790928 39.86425781 23.14794922 C39.86484192 24.05590744 39.86542603 24.96386566 39.86602783 25.89933777 C39.86325155 28.88641211 39.83218095 31.87247599 39.80078125 34.859375 C39.79331725 36.93587702 39.78762507 39.01238611 39.78363037 41.08889771 C39.76838669 46.5437783 39.72911546 51.99823021 39.68481445 57.45294189 C39.64383463 63.02325645 39.62561354 68.59364053 39.60546875 74.1640625 C39.56262025 85.08612544 39.49438399 96.00787076 39.41015625 106.9296875 C38.75015625 106.9296875 38.09015625 106.9296875 37.41015625 106.9296875 C37.12140625 107.5071875 36.83265625 108.0846875 36.53515625 108.6796875 C35.49348958 110.76302083 34.45182292 112.84635417 33.41015625 114.9296875 C32.75015625 114.9296875 32.09015625 114.9296875 31.41015625 114.9296875 C30.91515625 116.9096875 30.91515625 116.9096875 30.41015625 118.9296875 C25.00285076 119.20303474 19.59961326 119.40181541 14.18701172 119.53393555 C12.3493849 119.58902881 10.51223549 119.66393583 8.67626953 119.75952148 C-6.63261832 120.53617966 -6.63261832 120.53617966 -11.58984375 116.46728516 C-13.59804625 113.69659327 -15.15866586 111.03047118 -16.58984375 107.9296875 C-16.91984375 107.5996875 -17.24984375 107.2696875 -17.58984375 106.9296875 C-17.68509742 104.00774085 -17.71537111 101.10948421 -17.70336914 98.18725586 C-17.70351517 97.2702742 -17.70366119 96.35329254 -17.70381165 95.40852356 C-17.70311215 92.36216914 -17.69531803 89.31587505 -17.6875 86.26953125 C-17.68563595 84.16345757 -17.68421199 82.05738347 -17.68321228 79.9513092 C-17.67938606 74.39625867 -17.66955489 68.84123409 -17.6585083 63.28619385 C-17.64829642 57.6224401 -17.64371514 51.95868217 -17.63867188 46.29492188 C-17.62793271 35.17316565 -17.61085505 24.05142873 -17.58984375 12.9296875 C-16.92984375 12.9296875 -16.26984375 12.9296875 -15.58984375 12.9296875 C-15.36296875 12.2490625 -15.13609375 11.5684375 -14.90234375 10.8671875 C-11.40671662 3.04364106 -8.82460112 -0.15896925 0 0 Z " fill="#0B0E0E" transform="translate(563.58984375,836.0703125)"/>
<path d="M0 0 C7.26 0 14.52 0 22 0 C22.33 3.96 22.66 7.92 23 12 C23.66 12 24.32 12 25 12 C25.12117187 12.80824219 25.24234375 13.61648438 25.3671875 14.44921875 C25.53476562 15.51785156 25.70234375 16.58648438 25.875 17.6875 C26.11863281 19.27111328 26.11863281 19.27111328 26.3671875 20.88671875 C26.96186675 23.81239383 27.85687936 26.25471028 29 29 C29.36834897 30.47083792 29.70314662 31.95058265 30 33.4375 C30.55564617 36.08885103 31.17120717 38.49347949 32.0625 41.0625 C33.2312327 44.72452912 33.56850148 48.17815598 34 52 C34.30169066 53.34084736 34.61517681 54.6806062 35 56 C35.66 56 36.32 56 37 56 C37 37.52 37 19.04 37 0 C44.26 0 51.52 0 59 0 C59 38.94 59 77.88 59 118 C51.74 118 44.48 118 37 118 C33.625 106.75 33.625 106.75 34 102 C33.34 102 32.68 102 32 102 C31.75765625 101.00742187 31.5153125 100.01484375 31.265625 98.9921875 C28.14538034 84.12261925 28.14538034 84.12261925 23 70 C22.67 85.84 22.34 101.68 22 118 C14.74 118 7.48 118 0 118 C0 79.06 0 40.12 0 0 Z " fill="#070A0A" transform="translate(624,837)"/>
<path d="M0 0 C7.26 0 14.52 0 22 0 C22 16.17 22 32.34 22 49 C26.29 49 30.58 49 35 49 C35 32.83 35 16.66 35 0 C42.26 0 49.52 0 57 0 C57 38.94 57 77.88 57 118 C50.07 118 43.14 118 36 118 C36 101.17 36 84.34 36 67 C31.05 67 26.1 67 21 67 C21 83.83 21 100.66 21 118 C14.07 118 7.14 118 0 118 C0 79.06 0 40.12 0 0 Z " fill="#0E1010" transform="translate(782,837)"/>
<path d="M0 0 C6.93 0 13.86 0 21 0 C21 16.5 21 33 21 50 C25.95 50 30.9 50 36 50 C36 33.83 36 17.66 36 1 C42.6 1 49.2 1 56 1 C56 39.61 56 78.22 56 118 C49.4 118 42.8 118 36 118 C36 101.17 36 84.34 36 67 C31.05 67 26.1 67 21 67 C21 83.83 21 100.66 21 118 C14.07 118 7.14 118 0 118 C0 79.06 0 40.12 0 0 Z " fill="#090C0C" transform="translate(190,837)"/>
<path d="M0 0 C1.20970459 0.00523682 2.41940918 0.01047363 3.66577148 0.01586914 C4.97094727 0.0190918 6.27612305 0.02231445 7.62084961 0.02563477 C9.00952213 0.03399138 10.39819401 0.04245634 11.78686523 0.05102539 C13.17944179 0.05603873 14.57202005 0.06060193 15.96459961 0.06469727 C19.38456394 0.07653105 22.80444367 0.09301659 26.22436523 0.11352539 C26.34553711 1.33426758 26.46670898 2.55500977 26.59155273 3.81274414 C27.63320113 14.11897293 28.79115804 24.36802561 30.67724609 34.56103516 C32.25615342 43.39674213 33.04398731 52.24088209 33.78686523 61.17602539 C33.97465348 63.41863655 34.16390133 65.66107858 34.35765076 67.90318298 C34.53122746 69.91316394 34.69936594 71.92361237 34.8671875 73.93408203 C35.11457789 77.13140073 35.11457789 77.13140073 36.22436523 80.11352539 C36.41483948 81.67078817 36.56511947 83.23316595 36.68920898 84.79711914 C36.76606934 85.71960449 36.84292969 86.64208984 36.92211914 87.5925293 C37.04079346 89.05698486 37.04079346 89.05698486 37.16186523 90.55102539 C37.77222478 97.73412863 38.49114292 104.78897278 39.85717773 111.87133789 C40.22436523 114.11352539 40.22436523 114.11352539 40.22436523 118.11352539 C33.29436523 118.11352539 26.36436523 118.11352539 19.22436523 118.11352539 C18.28472997 111.53607857 18.1501157 105.72173352 18.22436523 99.11352539 C13.27436523 99.11352539 8.32436523 99.11352539 3.22436523 99.11352539 C3.24499023 100.76352539 3.26561523 102.41352539 3.28686523 104.11352539 C3.34762272 108.97412458 2.84203754 113.17214691 2.22436523 118.11352539 C-4.37563477 118.11352539 -10.97563477 118.11352539 -17.77563477 118.11352539 C-17.51082028 113.88163563 -17.24484803 109.64984886 -16.97607422 105.41821289 C-16.88525021 103.98303282 -16.79506434 102.5478122 -16.70556641 101.11254883 C-16.20530964 93.09726169 -15.66921708 85.09683551 -14.77563477 77.11352539 C-14.11563477 77.11352539 -13.45563477 77.11352539 -12.77563477 77.11352539 C-12.75581543 76.49421143 -12.73599609 75.87489746 -12.71557617 75.23681641 C-12.61928245 72.3828515 -12.5100338 69.52951682 -12.40063477 66.67602539 C-12.35422852 65.21519531 -12.35422852 65.21519531 -12.30688477 63.72485352 C-12.09111922 58.3486954 -11.52721076 53.37926979 -10.23901367 48.15673828 C-9.55471135 45.13939049 -9.34534302 42.13390607 -9.15063477 39.05102539 C-9.07586914 37.92567383 -9.00110352 36.80032227 -8.92407227 35.64086914 C-8.87508789 34.8068457 -8.82610352 33.97282227 -8.77563477 33.11352539 C-8.11563477 33.11352539 -7.45563477 33.11352539 -6.77563477 33.11352539 C-6.8052832 31.87602539 -6.83493164 30.63852539 -6.86547852 29.36352539 C-6.8643383 23.54387416 -6.12270173 17.87188199 -5.33813477 12.11352539 C-5.20342773 11.06551758 -5.0687207 10.01750977 -4.92993164 8.93774414 C-3.76216697 0.15387524 -3.76216697 0.15387524 0 0 Z " fill="#080B0B" transform="translate(280.775634765625,836.886474609375)"/>
<path d="M0 0 C15.84 0 31.68 0 48 0 C56.25028165 12.37542248 56.25028165 12.37542248 56.24291992 16.43969727 C56.24753487 17.78107506 56.24753487 17.78107506 56.25224304 19.14955139 C56.24505753 20.11211349 56.23787201 21.0746756 56.23046875 22.06640625 C56.23001053 23.05624008 56.22955231 24.04607391 56.2290802 25.06590271 C56.2260591 27.15812377 56.21817705 29.2503426 56.20581055 31.3425293 C56.1875523 34.55330326 56.18530089 37.76378891 56.18554688 40.97460938 C56.18063172 43.00521084 56.17480341 45.03581034 56.16796875 47.06640625 C56.16685593 48.03099258 56.1657431 48.99557892 56.16459656 49.98939514 C56.15821671 50.88049484 56.15183685 51.77159454 56.14526367 52.68969727 C56.13954597 53.86859276 56.13954597 53.86859276 56.13371277 55.07130432 C56 57 56 57 55 59 C54.34 59 53.68 59 53 59 C52.7525 59.53625 52.505 60.0725 52.25 60.625 C51.8375 61.40875 51.425 62.1925 51 63 C50.38125 64.546875 50.38125 64.546875 49.75 66.125 C46.44660238 69.57855206 45.54689029 69.44630155 40.921875 69.5859375 C38.53046173 69.55166917 36.13961659 69.47381435 33.75 69.375 C29.5425 69.25125 25.335 69.1275 21 69 C21 85.17 21 101.34 21 118 C14.07 118 7.14 118 0 118 C0 79.06 0 40.12 0 0 Z " fill="#090C0C" transform="translate(431,837)"/>
<path d="M0 0 C15.51 0 31.02 0 47 0 C57.34667082 13.79556109 57.34667082 13.79556109 56.9140625 22.9453125 C56.90369965 23.9224118 56.89333679 24.89951111 56.88265991 25.90621948 C56.83944201 28.98171381 56.73284525 32.05116856 56.625 35.125 C56.58836523 37.22128679 56.55577967 39.31764846 56.52734375 41.4140625 C56.46104252 45.22116126 56.38425367 49.02694871 56.25634766 52.83251953 C56.23142242 53.59130402 56.20649719 54.3500885 56.18081665 55.13186646 C56 57 56 57 55 59 C54.34 59 53.68 59 53 59 C52.731875 59.53625 52.46375 60.0725 52.1875 60.625 C50.79166667 63.41666667 49.39583333 66.20833333 48 69 C39.09 69 30.18 69 21 69 C21 85.17 21 101.34 21 118 C14.07 118 7.14 118 0 118 C0 79.06 0 40.12 0 0 Z " fill="#090C0C" transform="translate(908,837)"/>
<path d="M0 0 C1.62449285 0.00125776 3.24935249 0.04597313 4.87182617 0.12695312 C5.73039719 0.13827271 6.5889682 0.14959229 7.47355652 0.16125488 C10.20627477 0.20591563 12.93367374 0.30623999 15.66479492 0.40820312 C17.52083872 0.4483443 19.37696509 0.48484399 21.2331543 0.51757812 C25.77490614 0.60561514 30.31270008 0.74357593 34.85229492 0.90820312 C36.61692175 3.99630008 36.85229492 5.14132448 36.85229492 8.90820312 C38.17229492 9.56820312 39.49229492 10.22820313 40.85229492 10.90820312 C40.85229492 11.56820312 40.85229492 12.22820313 40.85229492 12.90820312 C41.51229492 12.90820312 42.17229492 12.90820312 42.85229492 12.90820312 C42.85229492 22.14820313 42.85229492 31.38820313 42.85229492 40.90820312 C35.92229492 40.90820312 28.99229492 40.90820312 21.85229492 40.90820312 C21.85229492 33.31820312 21.85229492 25.72820313 21.85229492 17.90820312 C17.23229492 17.90820312 12.61229492 17.90820312 7.85229492 17.90820312 C7.8040335 21.43430309 7.81210793 24.94541077 7.85229492 28.47070312 C7.83295898 29.46134766 7.81362305 30.45199219 7.79370117 31.47265625 C7.89153302 37.21255885 7.89153302 37.21255885 10.61206055 42.10375977 C12.61848124 43.85618294 14.66319749 45.39405921 16.85229492 46.90820312 C19.35229492 49.22070312 19.35229492 49.22070312 20.85229492 50.90820312 C20.85229492 51.56820312 20.85229492 52.22820313 20.85229492 52.90820312 C21.84229492 53.23820313 22.83229492 53.56820312 23.85229492 53.90820312 C23.85229492 54.56820312 23.85229492 55.22820313 23.85229492 55.90820312 C24.84229492 56.23820313 25.83229492 56.56820312 26.85229492 56.90820312 C28.56338181 58.52923281 30.22482798 60.20323776 31.85229492 61.90820312 C32.67729492 62.73320313 33.50229492 63.55820312 34.35229492 64.40820312 C42.9672516 73.02315981 42.9672516 73.02315981 42.99124146 78.15403748 C42.98921722 78.88631058 42.98719299 79.61858368 42.98510742 80.37304688 C42.98606415 81.12155411 42.98702087 81.87006134 42.98800659 82.64125061 C42.98868839 84.22755009 42.98683415 85.81385234 42.98266602 87.40014648 C42.97732517 89.83193222 42.98260712 92.26353261 42.98901367 94.6953125 C42.98835274 96.23372437 42.98707128 97.77213612 42.98510742 99.31054688 C42.98713165 100.04079575 42.98915588 100.77104462 42.99124146 101.52342224 C42.9672516 106.67828976 42.9672516 106.67828976 41.85229492 108.90820312 C41.19229492 108.90820312 40.53229492 108.90820312 39.85229492 108.90820312 C39.58416992 109.81570313 39.31604492 110.72320313 39.03979492 111.65820312 C37.18923388 116.7228965 37.18923388 116.7228965 34.85229492 118.90820312 C31.85932298 119.35039663 29.23838381 119.54010748 26.23901367 119.54492188 C25.3918428 119.5558638 24.54467194 119.56680573 23.67182922 119.57807922 C21.8789376 119.59394607 20.08592453 119.59914028 18.29296875 119.59448242 C15.55872087 119.59569473 12.82985945 119.65537698 10.09643555 119.71875 C8.35230798 119.72689465 6.60816004 119.73156433 4.86401367 119.73242188 C4.05131516 119.75600266 3.23861664 119.77958344 2.40129089 119.80387878 C-1.08212309 119.74791237 -3.27384191 119.66522926 -5.97006226 117.32949829 C-7.5859375 115.41918945 -7.5859375 115.41918945 -8.95671082 113.50813293 C-10.07290935 111.7579249 -10.07290935 111.7579249 -12.14770508 110.90820312 C-13.43162259 107.47429357 -13.26184837 104.01972769 -13.24536133 100.39257812 C-13.24213867 99.1421875 -13.23891602 97.89179687 -13.2355957 96.60351562 C-13.2272168 95.3015625 -13.21883789 93.99960937 -13.21020508 92.65820312 C-13.20569336 91.34078125 -13.20118164 90.02335938 -13.1965332 88.66601562 C-13.18474834 85.41339209 -13.16681298 82.16079189 -13.14770508 78.90820312 C-6.21770508 78.90820312 0.71229492 78.90820312 7.85229492 78.90820312 C7.85229492 86.49820313 7.85229492 94.08820313 7.85229492 101.90820312 C12.14229492 101.90820312 16.43229492 101.90820312 20.85229492 101.90820312 C21.94006469 88.78035457 21.94006469 88.78035457 17.28979492 77.01757812 C14.39917157 73.9817885 11.16653709 71.4653849 7.85229492 68.90820312 C6.16165121 67.26586352 4.49047771 65.60287498 2.85229492 63.90820312 C2.02729492 63.08320312 1.20229492 62.25820313 0.35229492 61.40820312 C-0.47270508 60.58320312 -1.29770508 59.75820313 -2.14770508 58.90820312 C-2.95208008 58.12445312 -3.75645508 57.34070313 -4.58520508 56.53320312 C-5.43083008 55.66695312 -6.27645508 54.80070313 -7.14770508 53.90820312 C-7.91473755 53.32679565 -7.91473755 53.32679565 -8.69726562 52.73364258 C-12.01761398 49.8055458 -13.05980349 47.58858884 -13.6328125 43.15332031 C-13.8135595 38.58833928 -13.67139184 34.03463866 -13.52270508 29.47070312 C-13.49257608 27.86463317 -13.46520542 26.25850896 -13.44067383 24.65234375 C-13.37488713 20.73628093 -13.27153584 16.82284293 -13.14770508 12.90820312 C-12.48770508 12.90820312 -11.82770508 12.90820312 -11.14770508 12.90820312 C-10.130991 10.88050916 -9.12370937 8.85603405 -8.17573547 6.79504395 C-6.08719193 2.7916779 -4.69163105 0.44623175 0 0 Z " fill="#0D1010" transform="translate(718.147705078125,836.091796875)"/>
<path d="M0 0 C1.76875017 -0.05157979 3.53698644 -0.126479 5.30371094 -0.22558594 C19.42020509 -1.00270139 19.42020509 -1.00270139 25.31054688 2.80444336 C32.8087039 11.30683764 32.17675311 20.77696879 31.6706543 31.48461914 C31.62540493 33.16419792 31.58435887 34.84389543 31.54760742 36.52368164 C31.45716988 40.59940024 31.28120616 44.65828632 31.1081543 48.73461914 C24.1781543 48.73461914 17.2481543 48.73461914 10.1081543 48.73461914 C9.7781543 38.83461914 9.4481543 28.93461914 9.1081543 18.73461914 C4.8181543 18.73461914 0.5281543 18.73461914 -3.8918457 18.73461914 C-4.2218457 46.45461914 -4.5518457 74.17461914 -4.8918457 102.73461914 C0.0581543 102.73461914 5.0081543 102.73461914 10.1081543 102.73461914 C10.1081543 92.50461914 10.1081543 82.27461914 10.1081543 71.73461914 C17.0381543 71.73461914 23.9681543 71.73461914 31.1081543 71.73461914 C31.1081543 83.28461914 31.1081543 94.83461914 31.1081543 106.73461914 C30.4481543 106.73461914 29.7881543 106.73461914 29.1081543 106.73461914 C28.8194043 107.31211914 28.5306543 107.88961914 28.2331543 108.48461914 C27.19148763 110.56795247 26.14982096 112.65128581 25.1081543 114.73461914 C24.4481543 114.73461914 23.7881543 114.73461914 23.1081543 114.73461914 C22.6131543 116.71461914 22.6131543 116.71461914 22.1081543 118.73461914 C16.7008488 119.00796639 11.29761131 119.20674705 5.88500977 119.33886719 C4.04738294 119.39396045 2.21023353 119.46886747 0.37426758 119.56445312 C-2.27813183 119.69901598 -4.9241399 119.76046439 -7.5793457 119.80883789 C-8.79702637 119.8939991 -8.79702637 119.8939991 -10.03930664 119.98088074 C-13.90566096 119.98499802 -16.11836049 119.32263226 -19.21858215 116.96580505 C-27.14674904 108.10300412 -25.96615288 97.52234209 -25.77856445 86.30883789 C-25.77124478 84.23143861 -25.76705006 82.1540262 -25.76582336 80.07661438 C-25.75510083 75.74158522 -25.71817412 71.40789224 -25.66015625 67.07324219 C-25.58637366 61.52383214 -25.56089863 55.97556342 -25.55273724 50.42570782 C-25.54414619 46.14391324 -25.51901918 41.8623535 -25.48798561 37.5806675 C-25.4734408 35.53419729 -25.46193552 33.48770309 -25.45355797 31.44119835 C-25.43760385 28.58375329 -25.40155877 25.72728058 -25.359375 22.87011719 C-25.35759247 22.03000092 -25.35580994 21.18988464 -25.35397339 20.3243103 C-25.20319868 12.7950134 -22.27448387 7.8137624 -17.8918457 1.73461914 C-12.90948694 -0.75656024 -5.52690845 0.12689721 0 0 Z " fill="#070A0A" transform="translate(140.891845703125,836.265380859375)"/>
<path d="M0 0 C12.87 0 25.74 0 39 0 C39.02254978 11.84765513 39.04091436 23.69529611 39.05181217 35.5429678 C39.05704131 41.04370862 39.06413951 46.54443405 39.07543945 52.04516602 C39.08626725 57.3489656 39.0922766 62.65275035 39.09487724 67.95656013 C39.09673169 69.98485612 39.10035267 72.01315126 39.10573006 74.04144096 C39.11293906 76.87196514 39.113991 79.70242718 39.11352539 82.53295898 C39.11712067 83.38028091 39.12071594 84.22760284 39.12442017 85.1006012 C39.11405216 90.88594784 39.11405216 90.88594784 38 92 C35.27275721 92.10099488 32.57137477 92.13970529 29.84375 92.1328125 C28.61754944 92.13424759 28.61754944 92.13424759 27.36657715 92.13571167 C25.63484622 92.13639345 23.90311276 92.13453929 22.17138672 92.13037109 C19.51133518 92.12502279 16.8514525 92.13031612 14.19140625 92.13671875 C12.51302046 92.13605797 10.83463477 92.1347768 9.15625 92.1328125 C8.35521851 92.13483673 7.55418701 92.13686096 6.72888184 92.13894653 C1.11495079 92.11495079 1.11495079 92.11495079 0 91 C-0.09520906 88.16959328 -0.12553631 85.36365007 -0.11352539 82.53295898 C-0.11367142 81.64523804 -0.11381744 80.75751709 -0.1139679 79.84289551 C-0.11326843 76.89393716 -0.10547448 73.94504113 -0.09765625 70.99609375 C-0.09579219 68.95728083 -0.09436823 66.91846746 -0.09336853 64.87965393 C-0.08954241 59.50215426 -0.07971132 54.12468142 -0.06866455 48.74719238 C-0.05845245 43.26440799 -0.05387134 37.78161928 -0.04882812 32.29882812 C-0.03808914 21.53253838 -0.02049158 10.76627561 0 0 Z " fill="#FEFEFE" transform="translate(493,167)"/>
<path d="M0 0 C12.87 0 25.74 0 39 0 C39 29.37 39 58.74 39 89 C26.13 89 13.26 89 0 89 C0 59.63 0 30.26 0 0 Z " fill="#FEFEFE" transform="translate(53,643)"/>
<path d="M0 0 C12.21 0 24.42 0 37 0 C37 27.39 37 54.78 37 83 C24.79 83 12.58 83 0 83 C0 55.61 0 28.22 0 0 Z " fill="#FBFBFB" transform="translate(54,513)"/>
<path d="M0 0 C6.93 0 13.86 0 21 0 C21 38.94 21 77.88 21 118 C14.07 118 7.14 118 0 118 C0 79.06 0 40.12 0 0 Z " fill="#040707" transform="translate(865,837)"/>
<path d="M0 0 C6.6 0 13.2 0 20 0 C20 38.61 20 77.22 20 117 C13.4 117 6.8 117 0 117 C0 78.39 0 39.78 0 0 Z " fill="#040707" transform="translate(504,838)"/>
<path d="M0 0 C4.62 0 9.24 0 14 0 C14 28.05 14 56.1 14 85 C9.05 85 4.1 85 -1 85 C-1.02312297 74.06503529 -1.04091485 63.13007634 -1.05181217 52.1950922 C-1.0570411 47.11808982 -1.06413892 42.04110411 -1.07543945 36.96411133 C-1.08626799 32.06879448 -1.09227676 27.17349371 -1.09487724 22.27816582 C-1.09673155 20.40617049 -1.10035228 18.53417609 -1.10573006 16.66218758 C-1.11294004 14.04959301 -1.11399096 11.43706573 -1.11352539 8.82446289 C-1.11712067 8.04259613 -1.12071594 7.26072937 -1.12442017 6.45516968 C-1.11405216 1.11405216 -1.11405216 1.11405216 0 0 Z " fill="#F0F0F0" transform="translate(568,854)"/>
<path d="M0 0 C12.54 0 25.08 0 38 0 C38 26.4 38 52.8 38 80 C37.67 80 37.34 80 37 80 C37 54.26 37 28.52 37 2 C25.45 2 13.9 2 2 2 C2 73.28 2 144.56 2 218 C13.55 218 25.1 218 37 218 C37 191.93 37 165.86 37 139 C28.75 139 20.5 139 12 139 C12 138.67 12 138.34 12 138 C20.91 138 29.82 138 39 138 C39 165.06 39 192.12 39 220 C26.13 220 13.26 220 0 220 C0 147.4 0 74.8 0 0 Z " fill="#AFB0B0" transform="translate(988,512)"/>
<path d="M0 0 C17.82 0 35.64 0 54 0 C54 100.32 54 200.64 54 304 C35.85 304 17.7 304 -1 304 C-1.33 301.03 -1.66 298.06 -2 295 C-1.34 295.33 -0.68 295.66 0 296 C0 298.31 0 300.62 0 303 C17.49 303 34.98 303 53 303 C53 203.34 53 103.68 53 1 C35.84 1 18.68 1 1 1 C1 52.48 1 103.96 1 157 C0.34 157 -0.32 157 -1 157 C-3.11293829 150.63460728 -4.46048934 144.68993219 -5 138 C-4.34 138.33 -3.68 138.66 -3 139 C-2.5859375 141.50390625 -2.5859375 141.50390625 -2.375 144.5625 C-2.30023437 145.57441406 -2.22546875 146.58632813 -2.1484375 147.62890625 C-2.09945312 148.41136719 -2.05046875 149.19382812 -2 150 C-1.34 150 -0.68 150 0 150 C0 100.5 0 51 0 0 Z " fill="#5E6060" transform="translate(820,470)"/>
<path d="M0 0 C17.49 0 34.98 0 53 0 C53 0.33 53 0.66 53 1 C35.84 1 18.68 1 1 1 C1 100.33 1 199.66 1 302 C17.83 302 34.66 302 52 302 C52 250.85 52 199.7 52 147 C52.99 147.33 53.98 147.66 55 148 C55 148.66 55 149.32 55 150 C54.34 150 53.68 150 53 150 C53 200.49 53 250.98 53 303 C35.51 303 18.02 303 0 303 C0 203.01 0 103.02 0 0 Z " fill="#1B1E1E" transform="translate(726,471)"/>
<path d="M0 0 C4.95 0 9.9 0 15 0 C15 11.88 15 23.76 15 36 C10.05 36 5.1 36 0 36 C0 24.12 0 12.24 0 0 Z " fill="#E9EAEA" transform="translate(929,853)"/>
<path d="M0 0 C4.95 0 9.9 0 15 0 C15 11.88 15 23.76 15 36 C10.05 36 5.1 36 0 36 C0 24.12 0 12.24 0 0 Z " fill="#E9EAEA" transform="translate(452,853)"/>
<path d="M0 0 C0 3.20395416 -0.74335022 5.09399739 -2 8 C-2.66 8 -3.32 8 -4 8 C-4 87.86 -4 167.72 -4 250 C-7 247 -7 247 -7.37489682 245.11235625 C-7.37484181 244.39571395 -7.37478679 243.67907166 -7.37473011 242.94071293 C-7.38193665 242.11164183 -7.3891432 241.28257073 -7.39656812 240.42837626 C-7.38919383 239.51768851 -7.38181955 238.60700077 -7.3742218 237.66871643 C-7.37819621 236.70117351 -7.38217061 235.73363059 -7.38626546 234.73676819 C-7.39592455 231.48004501 -7.38404836 228.22375232 -7.37231445 224.96704102 C-7.37474124 222.63814125 -7.37845945 220.30924252 -7.38337708 217.98034668 C-7.39280569 211.64362566 -7.38334375 205.30705857 -7.37004495 198.97034955 C-7.35989667 193.01908345 -7.36234206 187.06783218 -7.36424746 181.11655974 C-7.36743881 169.32304173 -7.35576184 157.52958409 -7.33618164 145.73608398 C-7.31718119 134.28879965 -7.31009278 122.84158608 -7.31567383 111.39428711 C-7.32173049 98.93456462 -7.32155629 86.47487326 -7.310188 74.01515335 C-7.30419867 67.41764809 -7.30052226 60.82016616 -7.3031559 54.22265816 C-7.30503619 48.01996571 -7.29695476 41.81736437 -7.2810955 35.61469269 C-7.27684401 33.33460555 -7.27600788 31.05450919 -7.27878571 28.77441978 C-7.28199575 25.66893478 -7.27295524 22.56372401 -7.26069641 19.45826721 C-7.26447573 18.54981019 -7.26825506 17.64135317 -7.27214891 16.70536715 C-7.26631671 15.8736883 -7.26048452 15.04200945 -7.25447559 14.18512821 C-7.25360882 13.46832357 -7.25274204 12.75151892 -7.251849 12.01299292 C-6.95400013 9.63232964 -6.25472158 8.03739493 -5 6 C-4.34 5.67 -3.68 5.34 -3 5 C-1.9590934 3.35857037 -0.95495674 1.69287785 0 0 Z " fill="#202222" transform="translate(212,493)"/>
<path d="M0 0 C12.87 0 25.74 0 39 0 C39.02254978 11.84765513 39.04091436 23.69529611 39.05181217 35.5429678 C39.05704131 41.04370862 39.06413951 46.54443405 39.07543945 52.04516602 C39.08626725 57.3489656 39.0922766 62.65275035 39.09487724 67.95656013 C39.09673169 69.98485612 39.10035267 72.01315126 39.10573006 74.04144096 C39.11293906 76.87196514 39.113991 79.70242718 39.11352539 82.53295898 C39.11712067 83.38028091 39.12071594 84.22760284 39.12442017 85.1006012 C39.11405216 90.88594784 39.11405216 90.88594784 38 92 C35.27275721 92.10099488 32.57137477 92.13970529 29.84375 92.1328125 C28.61754944 92.13424759 28.61754944 92.13424759 27.36657715 92.13571167 C25.63484622 92.13639345 23.90311276 92.13453929 22.17138672 92.13037109 C19.51133518 92.12502279 16.8514525 92.13031612 14.19140625 92.13671875 C12.51302046 92.13605797 10.83463477 92.1347768 9.15625 92.1328125 C8.35521851 92.13483673 7.55418701 92.13686096 6.72888184 92.13894653 C1.11495079 92.11495079 1.11495079 92.11495079 0 91 C-0.09520906 88.16959328 -0.12553631 85.36365007 -0.11352539 82.53295898 C-0.11367142 81.64523804 -0.11381744 80.75751709 -0.1139679 79.84289551 C-0.11326843 76.89393716 -0.10547448 73.94504113 -0.09765625 70.99609375 C-0.09579219 68.95728083 -0.09436823 66.91846746 -0.09336853 64.87965393 C-0.08954241 59.50215426 -0.07971132 54.12468142 -0.06866455 48.74719238 C-0.05845245 43.26440799 -0.05387134 37.78161928 -0.04882812 32.29882812 C-0.03808914 21.53253838 -0.02049158 10.76627561 0 0 Z M2 1 C2 30.37 2 59.74 2 90 C13.55 90 25.1 90 37 90 C37 60.63 37 31.26 37 1 C25.45 1 13.9 1 2 1 Z " fill="#A9AAAA" transform="translate(493,167)"/>
<path d="M0 0 C12.87 0 25.74 0 39 0 C39 29.37 39 58.74 39 89 C26.13 89 13.26 89 0 89 C0 59.63 0 30.26 0 0 Z M2 1 C2 29.38 2 57.76 2 87 C13.55 87 25.1 87 37 87 C37 58.62 37 30.24 37 1 C25.45 1 13.9 1 2 1 Z " fill="#B0B1B1" transform="translate(53,643)"/>
<path d="M0 0 C6.93 0 13.86 0 21 0 C21 38.94 21 77.88 21 118 C20.34 118 19.68 118 19 118 C19 79.72 19 41.44 19 2 C13.06 2 7.12 2 1 2 C1 40.28 1 78.56 1 118 C0.67 118 0.34 118 0 118 C0 79.06 0 40.12 0 0 Z " fill="#434545" transform="translate(865,837)"/>
<path d="M0 0 C2.57934406 2.57934406 2.24007236 4.30740625 2.25994873 7.82232666 C2.25432922 8.63643005 2.24870972 9.45053345 2.24291992 10.28930664 C2.24481827 11.14630661 2.24671661 12.00330658 2.24867249 12.88627625 C2.25238647 15.72766173 2.24166805 18.56879336 2.23046875 21.41015625 C2.22927729 23.3778836 2.22882372 25.34561153 2.2290802 27.31333923 C2.22751431 31.44013013 2.21921596 35.56683441 2.20581055 39.69360352 C2.18880943 44.99581515 2.18499646 50.29793158 2.18575573 55.60016727 C2.18548443 59.66378191 2.18000995 63.72737553 2.17275429 67.7909832 C2.16956185 69.74670693 2.16759888 71.70243306 2.16686058 73.65815926 C2.16470372 76.38551048 2.15597407 79.11275864 2.14526367 81.84008789 C2.14571686 82.65621552 2.14617004 83.47234314 2.14663696 84.3132019 C2.11447441 89.88552559 2.11447441 89.88552559 1 91 C-0.65738443 91.09346915 -2.31874644 91.11744977 -3.97875977 91.11352539 C-5.05468384 91.11340454 -6.13060791 91.11328369 -7.23913574 91.11315918 C-8.37838501 91.10804321 -9.51763428 91.10292725 -10.69140625 91.09765625 C-12.25272278 91.09614563 -12.25272278 91.09614563 -13.84558105 91.09460449 C-17.75123184 91.08935401 -21.65686697 91.07539289 -25.5625 91.0625 C-34.286875 91.041875 -43.01125 91.02125 -52 91 C-52 64.6 -52 38.2 -52 11 C-51.67 11 -51.34 11 -51 11 C-51 36.74 -51 62.48 -51 89 C-34.17 89 -17.34 89 0 89 C0 59.63 0 30.26 0 0 Z " fill="#696B6B" transform="translate(1078,502)"/>
<path d="M0 0 C7.26 0 14.52 0 22 0 C22 38.94 22 77.88 22 118 C21.34 118 20.68 118 20 118 C20 79.39 20 40.78 20 1 C13.73 1 7.46 1 1 1 C1 20.47 1 39.94 1 60 C0.01 59.34 -0.98 58.68 -2 58 C-2 57.34 -2 56.68 -2 56 C-1.34 56 -0.68 56 0 56 C0 37.52 0 19.04 0 0 Z " fill="#6D6F6F" transform="translate(661,837)"/>
<path d="M0 0 C17.82 0 35.64 0 54 0 C54 0.33 54 0.66 54 1 C36.51 1 19.02 1 1 1 C1 52.48 1 103.96 1 157 C0.34 157 -0.32 157 -1 157 C-3.11293829 150.63460728 -4.46048934 144.68993219 -5 138 C-4.34 138.33 -3.68 138.66 -3 139 C-2.5859375 141.50390625 -2.5859375 141.50390625 -2.375 144.5625 C-2.30023437 145.57441406 -2.22546875 146.58632813 -2.1484375 147.62890625 C-2.09945312 148.41136719 -2.05046875 149.19382812 -2 150 C-1.34 150 -0.68 150 0 150 C0 100.5 0 51 0 0 Z " fill="#898A8A" transform="translate(820,470)"/>
<path d="M0 0 C0.66 0 1.32 0 2 0 C2 2.64 2 5.28 2 8 C2.66 8 3.32 8 4 8 C4.83360594 18.36053092 5.12288464 28.6094206 5 39 C2.03 39 -0.94 39 -4 39 C-3.93941406 38.23558594 -3.87882812 37.47117187 -3.81640625 36.68359375 C-3.14704131 28.12602047 -2.55681655 19.56549709 -2 11 C-1.34 11 -0.68 11 0 11 C0 7.37 0 3.74 0 0 Z " fill="#ECEDED" transform="translate(291,881)"/>
<path d="M0 0 C0.99 0.33 1.98 0.66 3 1 C3 1.66 3 2.32 3 3 C2.34 3 1.68 3 1 3 C1 53.49 1 103.98 1 156 C-16.49 156 -33.98 156 -52 156 C-52 155.67 -52 155.34 -52 155 C-34.84 155 -17.68 155 0 155 C0 103.85 0 52.7 0 0 Z " fill="#515353" transform="translate(778,618)"/>
<path d="M0 0 C1.13591405 3.33958732 0.86125931 5.16538247 -0.375 8.4375 C-1.52402258 11.61698714 -2.4596614 14.64990069 -3 18 C-3.66 18 -4.32 18 -5 18 C-5.33 61.89 -5.66 105.78 -6 151 C-6.33 151 -6.66 151 -7 151 C-7.02336194 134.00607704 -7.04099538 117.0121591 -7.05181217 100.01822376 C-7.05696812 92.12762223 -7.06399748 84.23703068 -7.07543945 76.34643555 C-7.08540769 69.46887683 -7.09185854 62.59132534 -7.09408849 55.7137596 C-7.09539196 52.07226936 -7.09845483 48.43079979 -7.10573006 44.78931618 C-7.1137864 40.72387399 -7.11398975 36.65846773 -7.11352539 32.59301758 C-7.11712067 31.38604721 -7.12071594 30.17907684 -7.12442017 28.93553162 C-7.1230455 27.82640411 -7.12167084 26.71727661 -7.12025452 25.57453918 C-7.12117631 24.6131091 -7.1220981 23.65167902 -7.12304783 22.66111469 C-7.00055215 20.0119411 -6.59092694 17.58167377 -6 15 C-5.34 15 -4.68 15 -4 15 C-3.67 12.36 -3.34 9.72 -3 7 C-2.34 7 -1.68 7 -1 7 C-0.67 4.69 -0.34 2.38 0 0 Z " fill="#BDBEBE" transform="translate(915,277)"/>
<path d="M0 0 C0.66 0 1.32 0 2 0 C2.13277344 0.91523438 2.26554688 1.83046875 2.40234375 2.7734375 C2.57894531 3.96195313 2.75554688 5.15046875 2.9375 6.375 C3.11152344 7.55835938 3.28554688 8.74171875 3.46484375 9.9609375 C3.83462786 12.90702381 3.83462786 12.90702381 5 15 C5.15411106 17.0307477 5.24982453 19.06606421 5.31640625 21.1015625 C5.37924805 22.91914063 5.37924805 22.91914063 5.44335938 24.7734375 C5.48267578 26.04445312 5.52199219 27.31546875 5.5625 28.625 C5.60568359 29.90375 5.64886719 31.1825 5.69335938 32.5 C5.79969886 35.66655348 5.90172833 38.83318753 6 42 C6.99 42 7.98 42 9 42 C9.02505615 41.18845459 9.0501123 40.37690918 9.07592773 39.54077148 C9.19245817 35.83954284 9.314925 32.13853319 9.4375 28.4375 C9.47681641 27.16068359 9.51613281 25.88386719 9.55664062 24.56835938 C9.59853516 23.32763672 9.64042969 22.08691406 9.68359375 20.80859375 C9.73858032 19.10401001 9.73858032 19.10401001 9.79467773 17.36499023 C10.00804301 13.86818455 10.45954277 10.46008025 11 7 C11.66 7 12.32 7 13 7 C13.33 4.69 13.66 2.38 14 0 C15.60728272 4.0182068 14.27930357 7.01994445 13 11 C11.932717 14.51185804 11.80012199 17.85330903 11.68359375 21.515625 C11.64169922 22.76601562 11.59980469 24.01640625 11.55664062 25.3046875 C11.51732422 26.60664063 11.47800781 27.90859375 11.4375 29.25 C11.39431641 30.56742188 11.35113281 31.88484375 11.30664062 33.2421875 C11.20058083 36.49468788 11.09851976 39.74726392 11 43 C8.69 43 6.38 43 4 43 C3.96241577 42.05362671 3.96241577 42.05362671 3.92407227 41.08813477 C3.80845863 38.24603175 3.68557684 35.40428917 3.5625 32.5625 C3.52318359 31.56927734 3.48386719 30.57605469 3.44335938 29.55273438 C3.40146484 28.60849609 3.35957031 27.66425781 3.31640625 26.69140625 C3.27974854 25.81685791 3.24309082 24.94230957 3.20532227 24.04125977 C3.21818934 22.0072598 3.21818934 22.0072598 2 21 C1.77329092 19.44246949 1.60564908 17.87622641 1.46484375 16.30859375 C1.37783203 15.36435547 1.29082031 14.42011719 1.20117188 13.44726562 C1.11416016 12.45404297 1.02714844 11.46082031 0.9375 10.4375 C0.84662109 9.44041016 0.75574219 8.44332031 0.66210938 7.41601562 C0.43741186 4.94434298 0.21689649 2.47236744 0 0 Z " fill="#626464" transform="translate(874,212)"/>
<path d="M0 0 C0.66 0 1.32 0 2 0 C2 0.99 2 1.98 2 3 C2.66 3 3.32 3 4 3 C4.33 6.3 4.66 9.6 5 13 C4.34 12.34 3.68 11.68 3 11 C2.67 26.84 2.34 42.68 2 59 C1.34 59 0.68 59 0 59 C0 39.53 0 20.06 0 0 Z " fill="#6E7070" transform="translate(644,896)"/>
<path d="M0 0 C0.33 0 0.66 0 1 0 C1 2.64 1 5.28 1 8 C17.83 8 34.66 8 52 8 C52.33 6.68 52.66 5.36 53 4 C54 6 54 6 53 10 C35.18 10 17.36 10 -1 10 C-0.67 6.7 -0.34 3.4 0 0 Z " fill="#818282" transform="translate(398,765)"/>
<path d="M0 0 C1.36916565 0.00539291 1.36916565 0.00539291 2.76599121 0.01089478 C3.72198715 0.01074875 4.67798309 0.01060272 5.66294861 0.01045227 C8.83916452 0.01115181 12.01532259 0.01894614 15.19152832 0.02676392 C17.387283 0.02862795 19.58303809 0.03005192 21.77879333 0.03105164 C27.5705784 0.03487798 33.36233857 0.04470926 39.15411377 0.05575562 C45.05915998 0.06596724 50.9642102 0.07054872 56.8692627 0.07559204 C68.46497679 0.08633142 80.06067236 0.10340923 91.65637207 0.12442017 C92.64637207 2.10442017 92.64637207 2.10442017 93.65637207 4.12442017 C92.66637207 3.46442017 91.67637207 2.80442017 90.65637207 2.12442017 C88.74967838 1.81576762 88.74967838 1.81576762 86.65107727 1.84594727 C85.83919449 1.83478378 85.02731171 1.8236203 84.19082642 1.81211853 C83.30394135 1.80995834 82.41705627 1.80779816 81.5032959 1.80557251 C80.56651505 1.79552689 79.62973419 1.78548126 78.66456604 1.77513123 C75.56418478 1.74420856 72.46389023 1.72723881 69.36340332 1.71035767 C67.21533965 1.69165333 65.06728339 1.67208048 62.91923523 1.65167236 C57.26234291 1.6002676 51.60542675 1.56068653 45.94842529 1.52352905 C40.17718568 1.48354169 34.40604597 1.43242535 28.6348877 1.38223267 C17.30878591 1.28537458 5.98262783 1.20100144 -5.34362793 1.12442017 C-5.44675293 1.76379517 -5.54987793 2.40317017 -5.65612793 3.06192017 C-5.88300293 3.74254517 -6.10987793 4.42317017 -6.34362793 5.12442017 C-7.33362793 5.45442017 -8.32362793 5.78442017 -9.34362793 6.12442017 C-7.03631936 0.12541787 -6.57020048 0.01093491 0 0 Z " fill="#343636" transform="translate(964.3436279296875,470.8755798339844)"/>
<path d="M0 0 C2.2233881 2.2233881 2.3605016 2.92305521 2.8515625 5.9140625 C2.98046875 6.67460938 3.109375 7.43515625 3.2421875 8.21875 C3.36851562 9.0128125 3.49484375 9.806875 3.625 10.625 C3.7590625 11.42679688 3.893125 12.22859375 4.03125 13.0546875 C4.36134789 15.03527484 4.68161083 17.01749675 5 19 C4.34 19 3.68 19 3 19 C2.67 28.24 2.34 37.48 2 47 C1.34 47 0.68 47 0 47 C0 31.49 0 15.98 0 0 Z " fill="#BEBFBF" transform="translate(356,908)"/>
<path d="M0 0 C0.66 0 1.32 0 2 0 C2 16.5 2 33 2 50 C1.34 50 0.68 50 0 50 C-0.33 36.47 -0.66 22.94 -1 9 C-1.33 9 -1.66 9 -2 9 C-1.125 1.125 -1.125 1.125 0 0 Z " fill="#4B4D4D" transform="translate(388,905)"/>
<path d="M0 0 C1.32 0 2.64 0 4 0 C4 5.94 4 11.88 4 18 C3.67 18 3.34 18 3 18 C3 15.36 3 12.72 3 10 C2.34 10 1.68 10 1 10 C1 13.63 1 17.26 1 21 C0.34 21 -0.32 21 -1 21 C-0.98839844 22.00160156 -0.97679687 23.00320313 -0.96484375 24.03515625 C-0.95545602 25.37760228 -0.94635688 26.72005036 -0.9375 28.0625 C-0.92589844 29.37347656 -0.91429687 30.68445313 -0.90234375 32.03515625 C-0.99547665 35.8163519 -1.38551274 39.27920707 -2 43 C-2.33 43 -2.66 43 -3 43 C-3.17707265 32.96588331 -2.62277469 23.00887894 -2 13 C-1.34 13 -0.68 13 0 13 C0 8.71 0 4.42 0 0 Z " fill="#6F7171" transform="translate(290,871)"/>
<path d="M0 0 C1.20970459 0.00523682 2.41940918 0.01047363 3.66577148 0.01586914 C4.97094727 0.0190918 6.27612305 0.02231445 7.62084961 0.02563477 C9.00952213 0.03399138 10.39819401 0.04245634 11.78686523 0.05102539 C13.17944179 0.05603873 14.57202005 0.06060193 15.96459961 0.06469727 C19.38453974 0.07653097 22.80445773 0.09446708 26.22436523 0.11352539 C26.71936523 8.03352539 26.71936523 8.03352539 27.22436523 16.11352539 C25.22436523 13.11352539 25.22436523 13.11352539 24.22436523 2.11352539 C15.64436523 2.11352539 7.06436523 2.11352539 -1.77563477 2.11352539 C-2.10563477 6.73352539 -2.43563477 11.35352539 -2.77563477 16.11352539 C-3.43563477 16.11352539 -4.09563477 16.11352539 -4.77563477 16.11352539 C-4.63539257 13.63392403 -4.48871626 11.15500137 -4.33813477 8.67602539 C-4.29881836 7.96897461 -4.25950195 7.26192383 -4.21899414 6.53344727 C-3.82233172 0.15633602 -3.82233172 0.15633602 0 0 Z " fill="#484A4A" transform="translate(280.775634765625,836.886474609375)"/>
<path d="M0 0 C1.63473526 0.0007909 3.26960435 0.02900306 4.90356445 0.0793457 C6.19566582 0.08995781 6.19566582 0.08995781 7.51387024 0.1007843 C10.26574484 0.12877856 13.01558603 0.19152372 15.7668457 0.25512695 C17.6320507 0.28020344 19.49728758 0.30301774 21.36254883 0.32348633 C25.93559818 0.37862145 30.5071272 0.46492663 35.0793457 0.56762695 C35.0793457 1.22762695 35.0793457 1.88762695 35.0793457 2.56762695 C33.97421631 2.58220947 32.86908691 2.59679199 31.73046875 2.61181641 C27.63199431 2.66976961 23.53407103 2.74700214 19.43603516 2.83007812 C17.66203758 2.86334159 15.88793381 2.89136913 14.11376953 2.9140625 C11.56407395 2.94758297 9.01535278 2.9998956 6.46606445 3.0559082 C5.67221848 3.06229813 4.8783725 3.06868805 4.06047058 3.07527161 C-0.23844519 3.14418456 -0.23844519 3.14418456 -3.94482422 5.09960938 C-4.26684814 5.58405518 -4.58887207 6.06850098 -4.9206543 6.56762695 C-5.5806543 6.23762695 -6.2406543 5.90762695 -6.9206543 5.56762695 C-5.30180865 1.35279459 -4.57537389 0.66241636 0 0 Z " fill="#3D3F3F" transform="translate(717.920654296875,836.432373046875)"/>
<path d="M0 0 C1.26092972 0.00212242 1.26092972 0.00212242 2.54733276 0.00428772 C5.23732025 0.00989388 7.92722509 0.02244739 10.6171875 0.03515625 C12.43880088 0.04017046 14.26041557 0.0447335 16.08203125 0.04882812 C20.55211527 0.05986531 25.02213736 0.07713405 29.4921875 0.09765625 C29.4921875 0.75765625 29.4921875 1.41765625 29.4921875 2.09765625 C27.85020386 2.11953003 27.85020386 2.11953003 26.17504883 2.1418457 C22.10261845 2.19994364 18.03073435 2.27717552 13.95874023 2.36010742 C12.19841395 2.39330279 10.43798262 2.42135149 8.67749023 2.4440918 C6.14261225 2.47773745 3.60869227 2.53005685 1.07421875 2.5859375 C-0.10106636 2.59552238 -0.10106636 2.59552238 -1.3000946 2.6053009 C-5.86442918 2.72732733 -8.82750016 3.3462304 -12.5078125 6.09765625 C-10.00704078 -0.86877926 -6.84453787 -0.043035 0 0 Z " fill="#404242" transform="translate(133.5078125,836.90234375)"/>
<path d="M0 0 C0.33 0 0.66 0 1 0 C1 14.52 1 29.04 1 44 C0.67 44 0.34 44 0 44 C-0.33 34.43 -0.66 24.86 -1 15 C-2.95216435 18.90432869 -3.50639991 21.72213252 -4 26 C-4.66 26 -5.32 26 -6 26 C-5.63899068 20.03712193 -4.80620581 14.73878757 -2.765625 9.1171875 C-1.68141087 6.11900354 -0.84965643 3.07183479 0 0 Z " fill="#D9D9D9" transform="translate(387,911)"/>
<path d="M0 0 C0.33 0 0.66 0 1 0 C1.05476142 2.47947529 1.09403016 4.9577009 1.125 7.4375 C1.14175781 8.12521484 1.15851563 8.81292969 1.17578125 9.52148438 C1.21862052 14.12670627 0.58726674 18.16202904 -0.50097656 22.62719727 C-1.41075795 26.95310983 -1.61819783 31.34824648 -1.9375 35.75 C-2.60823134 44.0858323 -3.71690495 51.93306417 -6 60 C-6.33 60 -6.66 60 -7 60 C-6.67 54.72 -6.34 49.44 -6 44 C-5.34 44 -4.68 44 -4 44 C-3.98018066 43.38068604 -3.96036133 42.76137207 -3.93994141 42.12329102 C-3.84364769 39.26932611 -3.73439903 36.41599143 -3.625 33.5625 C-3.5940625 32.58861328 -3.563125 31.61472656 -3.53125 30.61132812 C-3.31548446 25.23517001 -2.75157599 20.2657444 -1.46337891 15.04321289 C-0.77907659 12.0258651 -0.56970825 9.02038068 -0.375 5.9375 C-0.30023438 4.81214844 -0.22546875 3.68679688 -0.1484375 2.52734375 C-0.09945313 1.69332031 -0.05046875 0.85929688 0 0 Z " fill="#767878" transform="translate(272,870)"/>
<path d="M0 0 C0.33 0 0.66 0 1 0 C1 18.48 1 36.96 1 56 C0.34 56 -0.32 56 -1 56 C-3.60018816 52.09971775 -3.15085514 48.52565431 -3 44 C-2.67 44 -2.34 44 -2 44 C-2 45.65 -2 47.3 -2 49 C-1.34 49 -0.68 49 0 49 C0 32.83 0 16.66 0 0 Z " fill="#BFC0C0" transform="translate(660,837)"/>
<path d="M0 0 C0.33 0 0.66 0 1 0 C1 19.47 1 38.94 1 59 C0.01 58.34 -0.98 57.68 -2 57 C-2 56.34 -2 55.68 -2 55 C-1.34 55 -0.68 55 0 55 C0 36.85 0 18.7 0 0 Z " fill="#424444" transform="translate(661,838)"/>
<path d="M0 0 C1.60728272 4.0182068 0.27930357 7.01994445 -1 11 C-2.067283 14.51185804 -2.19987801 17.85330903 -2.31640625 21.515625 C-2.35830078 22.76601562 -2.40019531 24.01640625 -2.44335938 25.3046875 C-2.50233398 27.25761719 -2.50233398 27.25761719 -2.5625 29.25 C-2.60568359 30.56742188 -2.64886719 31.88484375 -2.69335938 33.2421875 C-2.79941917 36.49468788 -2.90148024 39.74726392 -3 43 C-3.66 43 -4.32 43 -5 43 C-4.88088488 38.99796184 -4.75658828 34.99611994 -4.62768555 30.99438477 C-4.58462706 29.6357042 -4.54293435 28.27697959 -4.50268555 26.91821289 C-4.44427107 24.95447697 -4.38038197 22.99090636 -4.31640625 21.02734375 C-4.27974854 19.84906006 -4.24309082 18.67077637 -4.20532227 17.45678711 C-3.9956707 13.92711235 -3.5478502 10.49181389 -3 7 C-2.34 7 -1.68 7 -1 7 C-0.67 4.69 -0.34 2.38 0 0 Z " fill="#5D5F5F" transform="translate(888,212)"/>
<path d="M0 0 C0.99 0.495 0.99 0.495 2 1 C2 2.32 2 3.64 2 5 C2.66 5 3.32 5 4 5 C4.18175781 6.10408203 4.18175781 6.10408203 4.3671875 7.23046875 C4.53476562 8.20628906 4.70234375 9.18210937 4.875 10.1875 C5.03742187 11.15042969 5.19984375 12.11335937 5.3671875 13.10546875 C5.90324752 15.96826862 5.90324752 15.96826862 7 18.40625 C8.26374204 21.68408092 8.66975779 24.83314883 9.125 28.3125 C9.29257812 29.56675781 9.46015625 30.82101562 9.6328125 32.11328125 C9.75398437 33.06589844 9.87515625 34.01851562 10 35 C9.34 34.67 8.68 34.34 8 34 C7.3671875 31.671875 7.3671875 31.671875 6.875 28.75 C6.70742188 27.79609375 6.53984375 26.8421875 6.3671875 25.859375 C6.02555561 23.19900755 5.93158538 20.67794365 6 18 C5.34 18 4.68 18 4 18 C3.67 15.03 3.34 12.06 3 9 C2.34 9 1.68 9 1 9 C0.67 6.03 0.34 3.06 0 0 Z " fill="#8B8C8C" transform="translate(523,652)"/>
<path d="M0 0 C1.13591405 3.33958732 0.86125931 5.16538247 -0.375 8.4375 C-1.52402258 11.61698714 -2.4596614 14.64990069 -3 18 C-3.66 18 -4.32 18 -5 18 C-5.33 19.98 -5.66 21.96 -6 24 C-7.10844919 20.67465243 -6.84454356 18.37817425 -6 15 C-5.34 15 -4.68 15 -4 15 C-3.67 12.36 -3.34 9.72 -3 7 C-2.34 7 -1.68 7 -1 7 C-0.67 4.69 -0.34 2.38 0 0 Z " fill="#999A9A" transform="translate(915,277)"/>
<path d="M0 0 C2.33946293 3.50919439 2.44653016 5.84897622 3 10 C3.37125 11.216875 3.7425 12.43375 4.125 13.6875 C4.98746478 16.95254525 4.94793201 17.93590991 4 21 C-0.59225513 7.55125285 -0.59225513 7.55125285 0 0 Z " fill="#979999" transform="translate(521,368)"/>
<path d="M0 0 C0.33 0.66 0.66 1.32 1 2 C1.66 2 2.32 2 3 2 C3.66 7.94 4.32 13.88 5 20 C4.34 19.67 3.68 19.34 3 19 C2.35580318 16.55027908 1.83063467 14.17256869 1.375 11.6875 C1.2409375 11.01009766 1.106875 10.33269531 0.96875 9.63476562 C0.33689469 6.33686777 0 3.37262326 0 0 Z " fill="#626363" transform="translate(358,913)"/>
<path d="M0 0 C0.99 0.495 0.99 0.495 2 1 C2 1.99 2 2.98 2 4 C2.66 4 3.32 4 4 4 C4.36463732 5.74784829 4.7163078 7.49840502 5.0625 9.25 C5.25972656 10.22453125 5.45695312 11.1990625 5.66015625 12.203125 C5.98397535 14.868119 5.85503199 16.48871723 5 19 C4.80664062 18.27554688 4.61328125 17.55109375 4.4140625 16.8046875 C3.294525 12.64798885 2.1741643 8.5224929 0.8125 4.4375 C0 2 0 2 0 0 Z " fill="#7A7C7C" transform="translate(431,597)"/>
<path d="M0 0 C1.33322036 3.3330509 0.6822827 5.58006627 -0.38671875 8.91796875 C-1.5523282 12.87510146 -2.23397322 16.94983714 -3 21 C-3.33 21 -3.66 21 -4 21 C-3.67 16.38 -3.34 11.76 -3 7 C-2.34 7 -1.68 7 -1 7 C-0.67 4.69 -0.34 2.38 0 0 Z " fill="#969797" transform="translate(888,212)"/>
<path d="M0 0 C2.1519437 3.22791555 2.20086443 4.28400809 2 8 C2.66 8 3.32 8 4 8 C4.33 11.3 4.66 14.6 5 18 C1.32968796 14.32968796 0.73922578 10.22595662 0.375 5.1875 C0.30023437 4.21167969 0.22546875 3.23585938 0.1484375 2.23046875 C0.09945312 1.49441406 0.05046875 0.75835938 0 0 Z " fill="#A8A9A9" transform="translate(517,627)"/>
<path d="M0 0 C0.33 0 0.66 0 1 0 C0.67373505 6.32278971 0.38495108 11.55464391 -3 17 C-4.53445094 13.93109813 -3.54984289 11.29905734 -3 8 C-2.34 8 -1.68 8 -1 8 C-0.67 5.36 -0.34 2.72 0 0 Z " fill="#A2A3A3" transform="translate(921,255)"/>
<path d="M0 0 C1.10844919 3.32534757 0.84454356 5.62182575 0 9 C-0.66 9 -1.32 9 -2 9 C-2.33 10.65 -2.66 12.3 -3 14 C-4.10844919 10.67465243 -3.84454356 8.37817425 -3 5 C-2.34 5 -1.68 5 -1 5 C-0.67 3.35 -0.34 1.7 0 0 Z " fill="#8C8D8D" transform="translate(949,165)"/>
<path d="M0 0 C0.99 0.495 0.99 0.495 2 1 C2 2.32 2 3.64 2 5 C2.66 5 3.32 5 4 5 C4.33 7.97 4.66 10.94 5 14 C4.34 13.34 3.68 12.68 3 12 C3 11.01 3 10.02 3 9 C2.34 9 1.68 9 1 9 C0.67 6.03 0.34 3.06 0 0 Z " fill="#9E9F9F" transform="translate(523,652)"/>
<path d="M0 0 C0.33 0 0.66 0 1 0 C1 1.65 1 3.3 1 5 C1.66 5 2.32 5 3 5 C3.33 8.63 3.66 12.26 4 16 C0.29729514 10.4459427 -0.22186294 6.54495663 0 0 Z " fill="#969898" transform="translate(786,496)"/>
<path d="M0 0 C0.33 0 0.66 0 1 0 C1 1.65 1 3.3 1 5 C1.66 5 2.32 5 3 5 C3.33 7.31 3.66 9.62 4 12 C3.34 12 2.68 12 2 12 C-0.60018816 8.09971775 -0.15085514 4.52565431 0 0 Z " fill="#909191" transform="translate(657,881)"/>
<path d="M0 0 C2.1519437 3.22791555 2.20086443 4.28400809 2 8 C2.66 8 3.32 8 4 8 C4.33 10.64 4.66 13.28 5 16 C4.34 15.67 3.68 15.34 3 15 C3 13.68 3 12.36 3 11 C2.34 11 1.68 11 1 11 C0.67 7.37 0.34 3.74 0 0 Z " fill="#959696" transform="translate(779,471)"/>
<path d="M0 0 C0.33 0 0.66 0 1 0 C1 1.65 1 3.3 1 5 C1.66 5 2.32 5 3 5 C3.33 8.63 3.66 12.26 4 16 C1.8480563 12.77208445 1.79913557 11.71599191 2 8 C1.34 8 0.68 8 0 8 C0 5.36 0 2.72 0 0 Z " fill="#ADAEAE" transform="translate(869,187)"/>
<path d="M0 0 C0 3.20395416 -0.74335022 5.09399739 -2 8 C-2.66 8 -3.32 8 -4 8 C-4 8.66 -4 9.32 -4 10 C-4.66 9.67 -5.32 9.34 -6 9 C-5.67 8.01 -5.34 7.02 -5 6 C-4.34 5.67 -3.68 5.34 -3 5 C-1.9590934 3.35857037 -0.95495674 1.69287785 0 0 Z " fill="#595A5A" transform="translate(212,493)"/>
<path d="M0 0 C1 2 1 2 0.3125 4.5 C-1.15567038 7.29651501 -2.09303901 7.93411431 -5 9 C-4.34 7.35 -3.68 5.7 -3 4 C-2.34 4 -1.68 4 -1 4 C-0.67 2.68 -0.34 1.36 0 0 Z " fill="#4E5050" transform="translate(946,488)"/>
<path d="M0 0 C0.33 0 0.66 0 1 0 C1.36923077 5.41538462 1.36923077 5.41538462 -0.5 8.375 C-0.995 8.91125 -1.49 9.4475 -2 10 C-2 7.69 -2 5.38 -2 3 C-1.34 3 -0.68 3 0 3 C0 2.01 0 1.02 0 0 Z " fill="#6D6F6F" transform="translate(924,245)"/>
</svg>
