<?xml version="1.0" encoding="UTF-8"?>
<svg version="1.1" xmlns="http://www.w3.org/2000/svg" width="338" height="239">
<path d="M0 0 C111.54 0 223.08 0 338 0 C338 78.87 338 157.74 338 239 C226.46 239 114.92 239 0 239 C0 160.13 0 81.26 0 0 Z " fill="#F9F9F9" transform="translate(0,0)"/>
<path d="M0 0 C0.72391937 0.00666183 1.44783875 0.01332367 2.19369507 0.02018738 C3.42474472 0.02052727 3.42474472 0.02052727 4.68066406 0.02087402 C5.56716644 0.03635788 6.45366882 0.05184174 7.36703491 0.0677948 C8.27424286 0.07203964 9.18145081 0.07628448 10.1161499 0.08065796 C13.02038973 0.09748222 15.92394151 0.13514095 18.82797241 0.17326355 C20.79410824 0.18830556 22.76025492 0.2019948 24.72640991 0.21427917 C29.5521968 0.24739798 34.37746786 0.29920569 39.20297241 0.36076355 C38.87297241 3.00076355 38.54297241 5.64076355 38.20297241 8.36076355 C37.54297241 8.36076355 36.88297241 8.36076355 36.20297241 8.36076355 C36.07793335 9.36752136 35.95289429 10.37427917 35.82406616 11.4115448 C35.22121272 15.2447827 34.34202606 18.82298168 33.26547241 22.54826355 C32.75693726 24.33297058 32.75693726 24.33297058 32.23812866 26.1537323 C31.20297241 29.36076355 31.20297241 29.36076355 30.15609741 31.44670105 C28.96121214 33.84626573 28.46906979 36.18215149 27.89047241 38.79826355 C26.78997867 43.42033725 25.35732818 47.70596065 23.57797241 52.11076355 C21.62894898 56.97454275 20.51004238 61.14057415 20.20297241 66.36076355 C19.54297241 66.36076355 18.88297241 66.36076355 18.20297241 66.36076355 C18.09984741 67.30951355 17.99672241 68.25826355 17.89047241 69.23576355 C17.18939693 74.1043433 15.68426258 78.68197478 14.20297241 83.36076355 C11.71979182 91.32474913 9.33650654 99.29535802 7.20297241 107.36076355 C6.54297241 107.36076355 5.88297241 107.36076355 5.20297241 107.36076355 C5.05859741 108.66013855 4.91422241 109.95951355 4.76547241 111.29826355 C4.32797241 115.23576355 4.32797241 115.23576355 3.20297241 116.36076355 C0.17319437 116.44947627 -2.83369781 116.47595705 -5.86343384 116.4584198 C-6.77205673 116.45700485 -7.68067963 116.4555899 -8.61683655 116.45413208 C-11.5310998 116.44851548 -14.4452874 116.4359602 -17.35952759 116.42326355 C-19.33022961 116.41825069 -21.30093282 116.41368741 -23.27163696 116.40959167 C-28.11346317 116.39854066 -32.95523254 116.38126493 -37.79702759 116.36076355 C-37.20989285 112.37267857 -36.29857432 109.26703994 -34.61734009 105.61076355 C-33.51272871 102.58097234 -32.93306844 99.52088233 -32.29702759 96.36076355 C-31.26869653 91.26756365 -29.95521522 87.05247579 -27.79702759 82.36076355 C-27.03118872 79.70869192 -26.41124526 77.05387182 -25.79702759 74.36076355 C-25.13702759 74.36076355 -24.47702759 74.36076355 -23.79702759 74.36076355 C-23.7106604 73.4171698 -23.62429321 72.47357605 -23.53530884 71.50138855 C-22.70260383 63.89245106 -21.3994417 57.68932444 -18.21109009 50.6693573 C-12.87289911 38.17917013 -9.6740093 24.63304905 -6.15689087 11.54948425 C-5.87829224 10.52814392 -5.5996936 9.50680359 -5.31265259 8.45451355 C-4.94575317 7.08842957 -4.94575317 7.08842957 -4.57144165 5.69474792 C-2.87332274 0.57683595 -2.87332274 0.57683595 0 0 Z " fill="#050505" transform="translate(238.79702758789063,25.639236450195313)"/>
<path d="M0 0 C8.91 0 17.82 0 27 0 C33.28138039 14.65655424 33.28138039 14.65655424 35.125 22.4375 C35.80319137 25.82662248 35.80319137 25.82662248 37.0625 28 C38.28257261 30.60282156 38.48440515 33.19141527 38.78125 36.02734375 C39.04278708 38.38584777 39.49313377 40.68289725 40 43 C40.66 43 41.32 43 42 43 C42.33209473 44.21562622 42.33209473 44.21562622 42.67089844 45.45581055 C43.51170849 48.52966687 44.35438832 51.6030034 45.19824219 54.67602539 C45.55964202 55.99353568 45.92034544 57.31123725 46.28027344 58.62915039 C51.56781584 79.95752504 51.56781584 79.95752504 59.6875 100.25 C61.42926276 103.89940768 61.61608564 106.96889925 62 111 C62.33 112.65 62.66 114.3 63 116 C49.14 116 35.28 116 21 116 C19.97536395 112.41377383 18.9536639 108.82632942 17.9921875 105.22265625 C15.25778735 94.99429456 12.06933723 84.97397559 8.59130859 74.97290039 C8.25566895 73.99442139 7.9200293 73.01594238 7.57421875 72.0078125 C7.27088623 71.13785645 6.96755371 70.26790039 6.6550293 69.37158203 C6 67 6 67 6 63 C5.34 63 4.68 63 4 63 C3.80365967 62.25427734 3.60731934 61.50855469 3.4050293 60.74023438 C2.50343756 57.32568417 1.59552158 53.91284571 0.6875 50.5 C0.37876953 49.32695313 0.07003906 48.15390625 -0.24804688 46.9453125 C-1.88407178 40.81452444 -3.67334508 34.90192523 -6 29 C-8.31469482 20.75389969 -4.84768733 13.71143649 -2 6 C-1.34 4.02 -0.68 2.04 0 0 Z " fill="#070707" transform="translate(96,26)"/>
<path d="M0 0 C13.53 0 27.06 0 41 0 C43.71131938 6.1004686 45.54591518 10.44781321 46.9375 16.6875 C48.15972017 21.93614709 49.60941451 26.94109387 51.5 32 C53.60900266 37.66270439 55.14936068 43.29816198 56.54858398 49.16210938 C58.01464122 55.24287281 59.88976119 61.11584862 62 67 C62.27972656 67.78375 62.55945313 68.5675 62.84765625 69.375 C63.79008175 71.95127877 64.72406804 74.48009731 66.01171875 76.90625 C70.56669997 86.55632879 69.54117181 97.85234065 66.203125 107.66186523 C65.17816806 110.45729147 64.08182629 113.22608644 63 116 C53.76 116 44.52 116 35 116 C31 102.375 31 102.375 31 99 C30.34 99 29.68 99 29 99 C27.39274365 95.78548731 27.94251815 92.56387464 28 89 C27.34 89 26.68 89 26 89 C20.20891993 68.91980704 20.20891993 68.91980704 17.625 59.375 C17.30789062 58.20710938 16.99078125 57.03921875 16.6640625 55.8359375 C16 53 16 53 16 50 C15.34 50 14.68 50 14 50 C11.13401454 41.03428443 8.379029 32.03818836 5.75 23 C5.49202637 22.12899658 5.23405273 21.25799316 4.96826172 20.3605957 C3.49022534 15.2287708 2.51695042 10.31720428 2 5 C1.34 5 0.68 5 0 5 C0 3.35 0 1.7 0 0 Z " fill="#050505" transform="translate(131,15)"/>
<path d="M0 0 C8.91 0 17.82 0 27 0 C28.32 3.3 29.64 6.6 31 10 C31.66 11.32 32.32 12.64 33 14 C33.4761664 15.86498507 33.94825195 17.7311777 34.39257812 19.60400391 C35.63965267 24.52313156 37.23457755 29.34580217 38.75 34.1875 C41.36244751 42.57164767 43.85367595 50.97187989 46.1875 59.4375 C47.91881426 65.67080939 49.90667436 71.39575514 52.77734375 77.2109375 C57.97007047 89.05632688 60.47803237 102.39016185 63 115 C49.47 115 35.94 115 22 115 C18.62931761 107.13507442 18.62931761 107.13507442 17.5 103.00390625 C17.2525 102.11509766 17.005 101.22628906 16.75 100.31054688 C16.5025 99.40369141 16.255 98.49683594 16 97.5625 C13.93883155 90.02318866 13.93883155 90.02318866 11.35546875 82.65234375 C10.22405142 79.60371204 9.5629549 77.20582273 9.3125 74 C9.21388672 72.8553125 9.21388672 72.8553125 9.11328125 71.6875 C9.07589844 71.130625 9.03851563 70.57375 9 70 C8.34 70 7.68 70 7 70 C6.49307308 68.4188708 5.99473557 66.83498617 5.5 65.25 C5.2215625 64.36828125 4.943125 63.4865625 4.65625 62.578125 C4 60 4 60 4 56 C3.34 56 2.68 56 2 56 C1.49595192 53.89679937 0.99689492 51.79240209 0.5 49.6875 C0.2215625 48.51574219 -0.056875 47.34398437 -0.34375 46.13671875 C-1 43 -1 43 -1 40 C-1.66 40 -2.32 40 -3 40 C-3.20496094 39.15695313 -3.40992188 38.31390625 -3.62109375 37.4453125 C-3.89050781 36.34960938 -4.15992188 35.25390625 -4.4375 34.125 C-4.70433594 33.03445312 -4.97117188 31.94390625 -5.24609375 30.8203125 C-5.8786478 28.07515279 -5.8786478 28.07515279 -7 26 C-7.09119456 16.84406599 -4.05001202 8.10002404 0 0 Z " fill="#060606" transform="translate(44,27)"/>
<path d="M0 0 C3.64539921 -0.14693721 7.2900238 -0.23461003 10.9375 -0.3125 C11.95908203 -0.35439453 12.98066406 -0.39628906 14.03320312 -0.43945312 C21.21984419 -0.5542557 26.20402557 0.64135129 32 5 C36.94329119 10.31403803 37.39502713 13.89912207 37.35546875 21.01171875 C36.36764809 37.4628924 28.54271252 53.9872102 19 67 C18.32904297 67.92619141 18.32904297 67.92619141 17.64453125 68.87109375 C14.88137838 72.45693291 12.12727663 74.21776691 8 76 C7.67 76.33 7.34 76.66 7 77 C0.32678778 78.12531763 -6.2466804 78.1174394 -13 78.0625 C-14.06089844 78.05798828 -15.12179687 78.05347656 -16.21484375 78.04882812 C-18.80995598 78.03713843 -21.40494709 78.02075276 -24 78 C-17.34687322 49.49624871 -17.34687322 49.49624871 -14 40 C-13.67 39.01 -13.34 38.02 -13 37 C-12.34 37 -11.68 37 -11 37 C-10.896875 36.01 -10.79375 35.02 -10.6875 34 C-10.19583778 30.52281216 -9.06796935 27.49698921 -7.80444336 24.22070312 C-6.16457261 19.69376403 -5.03419998 15.01117888 -3.80664062 10.359375 C-3.60103516 9.59625 -3.39542969 8.833125 -3.18359375 8.046875 C-3.00368896 7.36463867 -2.82378418 6.68240234 -2.63842773 5.97949219 C-1.95380447 3.85676737 -1.04325261 1.96823508 0 0 Z " fill="#060606" transform="translate(289,26)"/>
<path d="M0 0 C15.84 0 31.68 0 48 0 C45.77657414 10.00541638 45.77657414 10.00541638 43.5625 14.875 C41.46133647 19.49887711 40.08667747 24.12102846 38.79223633 29.01611328 C37.46021816 34.03303965 36.00747868 39.01466336 34.5625 44 C34.27568359 45.00289062 33.98886719 46.00578125 33.69335938 47.0390625 C31.96586937 52.99486324 30.03811411 58.81368292 27.82299805 64.60668945 C26.74070961 67.7540266 26.29397295 70.69280431 26 74 C24.68 74 23.36 74 22 74 C21.49453964 71.91798472 20.99583165 69.83432933 20.5 67.75 C20.2215625 66.58984375 19.943125 65.4296875 19.65625 64.234375 C19 61 19 61 19 57 C18.34 57 17.68 57 17 57 C15.46855184 52.20146243 14.02770806 47.47195283 13.1875 42.5 C11.82392116 35.20831994 9.18823194 28.24920089 6.77124023 21.25390625 C5.72276816 18.18980552 4.71658698 15.11214364 3.71337891 12.03295898 C3.00425799 10.01213426 2.18699653 8.07923204 1.3125 6.125 C0 3 0 3 0 0 Z " fill="#080808" transform="translate(182,15)"/>
<path d="M0 0 C2.47378124 2.47378124 3.03138231 4.56174345 4.125 7.875 C4.47820313 8.92429687 4.83140625 9.97359375 5.1953125 11.0546875 C6 14 6 14 6 18 C6.66 18 7.32 18 8 18 C9.00771516 21.91472324 10.0048281 25.832071 11 29.75 C11.28617188 30.86117187 11.57234375 31.97234375 11.8671875 33.1171875 C12.13789062 34.18710938 12.40859375 35.25703125 12.6875 36.359375 C12.93886719 37.34389648 13.19023438 38.32841797 13.44921875 39.34277344 C14 42 14 42 14 46 C14.66 46 15.32 46 16 46 C20.4921875 59.4765625 20.4921875 59.4765625 21.27246094 61.83300781 C21.89089587 63.67503078 22.539889 65.50674905 23.1953125 67.3359375 C24 70 24 70 24 74 C8.49 74 -7.02 74 -23 74 C-22.28922798 70.44613988 -21.52511553 67.32544781 -20.3984375 63.921875 C-19.91528076 62.44497192 -19.91528076 62.44497192 -19.42236328 60.93823242 C-18.90391846 59.36005737 -18.90391846 59.36005737 -18.375 57.75 C-15.06032235 47.56124415 -12.04603018 37.31904012 -9.25927734 26.97363281 C-8.85636475 25.4920166 -8.85636475 25.4920166 -8.4453125 23.98046875 C-8.21344238 23.11317139 -7.98157227 22.24587402 -7.74267578 21.35229492 C-7.02516718 19.07971263 -6.09198074 17.11184154 -5 15 C-4.64447261 13.5515551 -4.33269284 12.09176112 -4.0625 10.625 C-3.25491366 6.71628212 -1.97267587 3.49701632 0 0 Z " fill="#090909" transform="translate(31,68)"/>
<path d="M0 0 C2.31 0 4.62 0 7 0 C7 7.26 7 14.52 7 22 C10.96 22 14.92 22 19 22 C19 14.74 19 7.48 19 0 C21.64 0 24.28 0 27 0 C27.01981934 0.59538574 27.03963867 1.19077148 27.06005859 1.80419922 C27.15516126 4.49492153 27.26489842 7.18485148 27.375 9.875 C27.4059375 10.81214844 27.436875 11.74929687 27.46875 12.71484375 C27.50742188 13.61074219 27.54609375 14.50664062 27.5859375 15.4296875 C27.63306885 16.67081299 27.63306885 16.67081299 27.68115234 17.93701172 C27.82599137 20.21986085 27.82599137 20.21986085 30 22 C32.58354218 22.16687448 32.58354218 22.16687448 35 22 C36.17469444 19.65061112 36.20034889 18.04926795 36.31640625 15.4296875 C36.37924805 14.08583984 36.37924805 14.08583984 36.44335938 12.71484375 C36.48267578 11.77769531 36.52199219 10.84054688 36.5625 9.875 C36.62727539 8.45767578 36.62727539 8.45767578 36.69335938 7.01171875 C36.79959072 4.67462908 36.90163176 2.3374317 37 0 C38.99954746 -0.04254356 41.00041636 -0.04080783 43 0 C45.36029244 2.36029244 44.32856204 8.02338653 44.375 11.1875 C44.43107422 12.60772461 44.43107422 12.60772461 44.48828125 14.05664062 C44.54582994 18.63815578 44.58221129 21.94762233 41.59375 25.58984375 C38.02098594 28.90971638 36.43626931 29.86943006 31.5625 30.3125 C27.75865772 29.97882962 26.05318337 29.20507687 23 27 C22.01 26.34 21.02 25.68 20 25 C19.67 26.32 19.34 27.64 19 29 C12.4 29 5.8 29 -1 29 C-1.02291487 25.0306345 -1.04284015 21.0614368 -1.05493164 17.09204102 C-1.05997057 15.74079614 -1.06680177 14.38955674 -1.07543945 13.03833008 C-1.08752419 11.09979566 -1.09269828 9.161222 -1.09765625 7.22265625 C-1.10289307 6.05484619 -1.10812988 4.88703613 -1.11352539 3.68383789 C-1 1 -1 1 0 0 Z " fill="#0D0D0D" transform="translate(186,160)"/>
<path d="M0 0 C4.20098668 1.66962291 6.29310387 4.41519162 9 8 C10.44543586 12.33630757 10.83556727 16.5486671 9.3515625 20.90234375 C6.9952324 25.50423629 3.71112757 28.82194306 -1 31 C-6.95719342 31.94558626 -10.45333953 30.87484857 -15.3671875 27.40625 C-17.74056186 25.36219553 -18.44730377 24.10891631 -19 21 C-19.45058299 14.80448391 -19.76396099 9.36026744 -15.66015625 4.37109375 C-10.96913889 -0.38614974 -6.50970487 -1.13401894 0 0 Z " fill="#181818" transform="translate(63,159)"/>
<path d="M0 0 C0.99 0.33 1.98 0.66 3 1 C3.90171513 3.84387078 4.59356576 6.5274538 5.1875 9.4375 C5.3618457 10.2526709 5.53619141 11.0678418 5.71582031 11.90771484 C6.89368479 17.70368396 7.38211698 23.07718685 7 29 C4.69 29 2.38 29 0 29 C-0.04898438 28.21753906 -0.09796875 27.43507812 -0.1484375 26.62890625 C-0.22320312 25.61699219 -0.29796875 24.60507813 -0.375 23.5625 C-0.44460937 22.55316406 -0.51421875 21.54382813 -0.5859375 20.50390625 C-0.72257812 19.67761719 -0.85921875 18.85132813 -1 18 C-1.66 17.67 -2.32 17.34 -3 17 C-4.74849671 21.3039919 -6.3770361 25.64750591 -8 30 C-11 29 -11 29 -12.16796875 27.15234375 C-12.50441406 26.42144531 -12.84085938 25.69054687 -13.1875 24.9375 C-13.53167969 24.20402344 -13.87585937 23.47054687 -14.23046875 22.71484375 C-14.48441406 22.14894531 -14.73835938 21.58304688 -15 21 C-15.66 21 -16.32 21 -17 21 C-17.2165625 22.7015625 -17.2165625 22.7015625 -17.4375 24.4375 C-18 28 -18 28 -19 29 C-21.33297433 29.04092937 -23.66705225 29.04241723 -26 29 C-25.71515955 22.27776546 -24.66142483 15.8934687 -23.0625 9.375 C-22.89266602 8.66408203 -22.72283203 7.95316406 -22.54785156 7.22070312 C-22.0991825 5.4619204 -21.55693647 3.72755387 -21 2 C-20.34 1.67 -19.68 1.34 -19 1 C-15.30295218 5.35723493 -12.55242723 9.89514555 -10 15 C-9.34 15 -8.68 15 -8 15 C-7.51080078 14.00419922 -7.51080078 14.00419922 -7.01171875 12.98828125 C-4.81990529 8.55939564 -2.64737248 4.18006181 0 0 Z " fill="#1F1F1F" transform="translate(34,160)"/>
<path d="M0 0 C13 0 13 0 18 3 C18.66913403 5.79965679 18.23868841 8.08800141 18 11 C17.01 11.33 16.02 11.66 15 12 C15 12.99 15 13.98 15 15 C16.32 15.66 17.64 16.32 19 17 C19.125 23.75 19.125 23.75 18 26 C17.34 26 16.68 26 16 26 C16 26.66 16 27.32 16 28 C11.22041378 30.38979311 5.34373985 29 0 29 C0 19.43 0 9.86 0 0 Z " fill="#191919" transform="translate(262,160)"/>
<path d="M0 0 C1.58206057 0.00667536 3.16410534 0.0186375 4.74609375 0.03515625 C5.55240234 0.03966797 6.35871094 0.04417969 7.18945312 0.04882812 C9.18753131 0.06065107 11.18557158 0.07858711 13.18359375 0.09765625 C13.18359375 2.40765625 13.18359375 4.71765625 13.18359375 7.09765625 C9.88359375 7.09765625 6.58359375 7.09765625 3.18359375 7.09765625 C3.18359375 8.41765625 3.18359375 9.73765625 3.18359375 11.09765625 C6.15359375 11.09765625 9.12359375 11.09765625 12.18359375 11.09765625 C12.18359375 13.40765625 12.18359375 15.71765625 12.18359375 18.09765625 C9.21359375 18.09765625 6.24359375 18.09765625 3.18359375 18.09765625 C3.18359375 19.74765625 3.18359375 21.39765625 3.18359375 23.09765625 C6.48359375 23.09765625 9.78359375 23.09765625 13.18359375 23.09765625 C13.18359375 25.07765625 13.18359375 27.05765625 13.18359375 29.09765625 C7.24359375 29.09765625 1.30359375 29.09765625 -4.81640625 29.09765625 C-4.83932112 25.12829075 -4.8592464 21.15909305 -4.87133789 17.18969727 C-4.87637682 15.83845239 -4.88320802 14.48721299 -4.8918457 13.13598633 C-4.90393044 11.19745191 -4.90910453 9.25887825 -4.9140625 7.3203125 C-4.91929932 6.15250244 -4.92453613 4.98469238 -4.92993164 3.78149414 C-4.75201514 -0.42460498 -4.40383554 0.11268771 0 0 Z " fill="#2C2C2C" transform="translate(311.81640625,159.90234375)"/>
<path d="M0 0 C2.93423195 1.79646854 4.47205355 2.9441071 6 6 C6.54399285 10.539219 6.62289461 13.9544269 4.25 17.9375 C0.26671072 21.58884851 -2.48774084 22.45851372 -8.03515625 22.32421875 C-11.16557549 21.80766846 -12.83548354 20.22817871 -15 18 C-17.8172247 13.77416295 -17.67547031 9.96429984 -17 5 C-12.89391627 -0.80515287 -6.57238861 -0.78617089 0 0 Z " fill="#F2F2F2" transform="translate(166,202)"/>
<path d="M0 0 C3.14344435 1.74635797 5.46862726 3.46862726 8 6 C8.23046875 8.05859375 8.23046875 8.05859375 8.1875 10.4375 C8.18105469 11.21996094 8.17460937 12.00242188 8.16796875 12.80859375 C8 15 8 15 7 18 C6.34 18 5.68 18 5 18 C4.67 18.99 4.34 19.98 4 21 C0.31561811 22.84219094 -3.96959937 22.36121515 -8 22 C-11.0625 20.6875 -11.0625 20.6875 -13 19 C-14.55023991 14.34928026 -14.72868745 9.84612527 -14 5 C-10.99432913 -0.20169607 -5.49693602 -1.21545796 0 0 Z " fill="#F5F5F5" transform="translate(248,201)"/>
<path d="M0 0 C3.97754185 0.39775418 6.02098698 1.85816412 9.125 4.3125 C11.11226197 8.28702393 10.64818479 12.98999709 10.125 17.3125 C8.25 20.5 8.25 20.5 5.125 22.3125 C0.44911739 23.08670351 -3.49142328 22.8889903 -7.875 21.0625 C-11.38049775 17.99518947 -11.78533725 16.10665574 -12.3125 11.4375 C-12.23432911 8.22046712 -11.61050474 6.41033682 -9.625 3.875 C-6.06613655 0.55878634 -4.63198225 0.50347633 0 0 Z " fill="#F3F3F3" transform="translate(77.875,200.6875)"/>
<path d="M0 0 C3 1 3 1 4.90234375 4.31640625 C5.59091433 5.72684385 6.26888681 7.14249293 6.9375 8.5625 C7.27201172 9.25408203 7.60652344 9.94566406 7.95117188 10.65820312 C8.62918155 12.05994566 9.30151852 13.46444566 9.96826172 14.87158203 C10.66899819 16.3171619 11.39569455 17.75038536 12.14501953 19.17138672 C12.69391846 20.21383545 12.69391846 20.21383545 13.25390625 21.27734375 C13.58849854 21.89730225 13.92309082 22.51726074 14.26782227 23.15600586 C15 25 15 25 15 29 C13.02 29 11.04 29 9 29 C8.67 27.68 8.34 26.36 8 25 C3.71 25 -0.58 25 -5 25 C-5 26.32 -5 27.64 -5 29 C-7.64 29 -10.28 29 -13 29 C-12.33501617 24.61110675 -10.81242323 21.0188515 -9 17 C-8.34 17 -7.68 17 -7 17 C-6.89816406 16.30519531 -6.79632813 15.61039063 -6.69140625 14.89453125 C-5.88282994 11.50947448 -4.53324287 8.77712981 -2.9375 5.6875 C-2.38964844 4.61886719 -1.84179688 3.55023438 -1.27734375 2.44921875 C-0.85582031 1.64097656 -0.43429688 0.83273438 0 0 Z " fill="#222222" transform="translate(244,160)"/>
<path d="M0 0 C0.99 0 1.98 0 3 0 C3.391875 1.11375 3.78375 2.2275 4.1875 3.375 C6.38800929 9.24994461 9.30051676 14.76001744 12.2109375 20.30859375 C15 25.69880319 15 25.69880319 15 29 C12.69 29 10.38 29 8 29 C7.67 27.68 7.34 26.36 7 25 C3.04 25.33 -0.92 25.66 -5 26 C-5.33 26.99 -5.66 27.98 -6 29 C-8.31 29 -10.62 29 -13 29 C-13 28.01 -13 27.02 -13 26 C-12.34 26 -11.68 26 -11 26 C-10.9175 24.96875 -10.835 23.9375 -10.75 22.875 C-9.92822857 18.62918096 -8.45796114 16.50073253 -6 13 C-4.75675853 9.7750792 -4.75675853 9.7750792 -4 7 C-3.34 7 -2.68 7 -2 7 C-1.34 4.69 -0.68 2.38 0 0 Z " fill="#1F1F1F" transform="translate(168,160)"/>
<path d="M0 0 C2.28125 1.0234375 2.28125 1.0234375 4 2 C4 3.98 4 5.96 4 8 C1.03 7.67 -1.94 7.34 -5 7 C-4.89386164 9.45224694 -4.89386164 9.45224694 -4 12 C-1.70465742 13.13545562 -1.70465742 13.13545562 1 14 C3.8125 15.625 3.8125 15.625 6 18 C6.64514925 22.51604477 6.48824611 24.82820934 4.75 29 C0.29703327 32.23852126 -4.67131515 31.54374335 -10 31 C-10.66 30.67 -11.32 30.34 -12 30 C-12 27.69 -12 25.38 -12 23 C-8.7 23 -5.4 23 -2 23 C-4.18321164 18.63357672 -5.0432787 18.35519125 -9 16 C-11.98713553 13.09359786 -12.91574465 11.60031939 -13.5 7.4375 C-13 4 -13 4 -11.5625 1.5625 C-7.82455691 -0.71673359 -4.27732125 -0.64762258 0 0 Z " fill="#272727" transform="translate(89,159)"/>
<path d="M0 0 C2.31 0 4.62 0 7 0 C7 7.26 7 14.52 7 22 C10.96 22 14.92 22 19 22 C19 14.74 19 7.48 19 0 C21.64 0 24.28 0 27 0 C27 6.27 27 12.54 27 19 C26.67 19 26.34 19 26 19 C26 13.06 26 7.12 26 1 C24.02 1 22.04 1 20 1 C20.13923538 4.25031784 20.28754185 7.50016061 20.4375 10.75 C20.47681641 11.67039063 20.51613281 12.59078125 20.55664062 13.5390625 C20.59853516 14.42851562 20.64042969 15.31796875 20.68359375 16.234375 C20.72025146 17.05131836 20.75690918 17.86826172 20.79467773 18.70996094 C20.99134275 20.9034423 21.40300594 22.88396413 22 25 C21.34 25 20.68 25 20 25 C19.67 26.32 19.34 27.64 19 29 C12.4 29 5.8 29 -1 29 C-1.02291487 25.0306345 -1.04284015 21.0614368 -1.05493164 17.09204102 C-1.05997057 15.74079614 -1.06680177 14.38955674 -1.07543945 13.03833008 C-1.08752419 11.09979566 -1.09269828 9.161222 -1.09765625 7.22265625 C-1.10289307 6.05484619 -1.10812988 4.88703613 -1.11352539 3.68383789 C-1 1 -1 1 0 0 Z " fill="#757575" transform="translate(186,160)"/>
<path d="M0 0 C2.59447788 1.86695419 4.16840103 3.66217199 5.89453125 6.36328125 C6.28515625 9.6953125 6.28515625 9.6953125 6.14453125 13.17578125 C6.1084375 14.33722656 6.07234375 15.49867188 6.03515625 16.6953125 C5.96554688 18.01595703 5.96554688 18.01595703 5.89453125 19.36328125 C5.23453125 19.36328125 4.57453125 19.36328125 3.89453125 19.36328125 C3.66765625 19.92015625 3.44078125 20.47703125 3.20703125 21.05078125 C1.34047126 24.33948219 0.01472824 26.11673942 -3.10546875 28.36328125 C-8.73372182 29.37061063 -14.26666396 29.45704858 -19.16796875 26.23828125 C-22.73802758 23.12101037 -24.73201595 19.95877822 -25.41796875 15.19140625 C-25.71036422 9.74554066 -24.75385419 6.60329676 -21.10546875 2.36328125 C-14.32943238 -3.7516784 -7.99552723 -3.95705319 0 0 Z M-19.41796875 5.48828125 C-21.62941534 9.255931 -21.8228008 12.09385919 -21.10546875 16.36328125 C-19.42498187 20.22840108 -17.95861758 21.79601467 -14.10546875 23.36328125 C-9.18403525 24.12350269 -5.32789622 24.07228918 -0.98046875 21.55078125 C1.76708529 16.87993938 1.91081375 12.65112613 0.89453125 7.36328125 C-1.30706615 4.46644257 -2.89141337 2.97030894 -6.10546875 1.36328125 C-11.69243206 0.99081703 -15.25062894 1.65883386 -19.41796875 5.48828125 Z " fill="#5E5E5E" transform="translate(87.10546875,199.63671875)"/>
<path d="M0 0 C3.96 0 7.92 0 12 0 C16 4 16 4 16.375 7.4375 C16.0300943 10.7141042 15.42739838 13.05599085 14 16 C12.68 16 11.36 16 10 16 C10.5775 16.77085937 11.155 17.54171875 11.75 18.3359375 C12.4925 19.33882812 13.235 20.34171875 14 21.375 C15.11375 22.87160156 15.11375 22.87160156 16.25 24.3984375 C18 27 18 27 18 29 C16.68 29 15.36 29 14 29 C11.9296875 26.62890625 11.9296875 26.62890625 9.875 23.5625 C7.49270396 19.66368481 7.49270396 19.66368481 4 17 C4 20.96 4 24.92 4 29 C2.68 29 1.36 29 0 29 C0 19.43 0 9.86 0 0 Z " fill="#666666" transform="translate(35,198)"/>
<path d="M0 0 C3.70789018 2.42667412 5.83748836 5.24126659 7.25 9.4375 C8.11858968 13.6369423 8.04763101 16.91170906 6.0390625 20.75390625 C2.26693303 26.10573462 2.26693303 26.10573462 -0.953125 27.15625 C-1.54609375 27.2490625 -2.1390625 27.341875 -2.75 27.4375 C-2.75 28.0975 -2.75 28.7575 -2.75 29.4375 C-8.72241729 30.03035025 -13.38548228 30.29909941 -18.375 26.625 C-21.690982 23.88423937 -22.59510504 21.88841484 -23.05859375 17.546875 C-23.44956593 7.35790304 -23.44956593 7.35790304 -20.0625 3.25 C-14.41118045 -2.07198857 -7.06904308 -3.53452154 0 0 Z M-17.6875 5.609375 C-19.94076796 9.48632134 -19.41626818 14.13878896 -18.75 18.4375 C-17.83947126 21.01884897 -17.20748744 22.12526235 -14.94140625 23.671875 C-12.40691963 24.55736409 -10.3691846 24.70367909 -7.6875 24.6875 C-6.83027344 24.69265625 -5.97304687 24.6978125 -5.08984375 24.703125 C-2.47947202 24.58742488 -2.47947202 24.58742488 0.25 22.4375 C0.25 21.7775 0.25 21.1175 0.25 20.4375 C0.91 20.4375 1.57 20.4375 2.25 20.4375 C3.60305637 16.3783309 4.05933717 12.66981363 3.25 8.4375 C1.11371677 5.63732567 -1.60806052 4.00846974 -4.75 2.4375 C-9.92103451 1.92039655 -13.64924063 1.79058624 -17.6875 5.609375 Z " fill="#696969" transform="translate(252.75,198.5625)"/>
<path d="M0 0 C0.99 0 1.98 0 3 0 C3.25394531 0.71285156 3.50789063 1.42570313 3.76953125 2.16015625 C6.09420233 8.64587543 6.09420233 8.64587543 8.75 15 C10 18 10 18 10 21 C10.66 21 11.32 21 12 21 C12.17208984 19.95005859 12.17208984 19.95005859 12.34765625 18.87890625 C13.06652392 15.70641839 14.16301673 12.92894293 15.4375 9.9375 C16.08525391 8.40416016 16.08525391 8.40416016 16.74609375 6.83984375 C17.77012411 4.52062233 18.83859598 2.25258362 20 0 C20.66 0 21.32 0 22 0 C22.19335938 1.25554687 22.38671875 2.51109375 22.5859375 3.8046875 C23.89530158 12.24103395 25.2199292 20.64736007 27 29 C25.68 29 24.36 29 23 29 C22.79503906 28.08476562 22.59007812 27.16953125 22.37890625 26.2265625 C22.10949219 25.03804687 21.84007812 23.84953125 21.5625 22.625 C21.29566406 21.44164062 21.02882812 20.25828125 20.75390625 19.0390625 C20.14365305 16.10505419 20.14365305 16.10505419 19 14 C16.29260594 18.57456238 14.0085765 23.07898758 12 28 C11.34 28 10.68 28 10 28 C4 14.63106796 4 14.63106796 4 11 C3.01 11 2.02 11 1 11 C0.93941406 12.04800781 0.87882812 13.09601563 0.81640625 14.17578125 C0.73198262 15.55470048 0.64733553 16.93360605 0.5625 18.3125 C0.50352539 19.34793945 0.50352539 19.34793945 0.44335938 20.40429688 C0.25072585 23.47161535 -0.02322717 26.06968152 -1 29 C-1.99 29 -2.98 29 -4 29 C-4.79836516 18.93172831 -2.38834491 9.69198892 0 0 Z " fill="#575757" transform="translate(108,198)"/>
<path d="M0 0 C0.99 0 1.98 0 3 0 C5.015625 2.16015625 5.015625 2.16015625 7.25 5.0625 C13.19706186 13.0505186 13.19706186 13.0505186 21 19 C21 12.73 21 6.46 21 0 C22.32 0 23.64 0 25 0 C25 9.57 25 19.14 25 29 C21.61308898 27.87102966 20.6841455 26.47116025 18.5234375 23.75390625 C14.59884467 19.23559297 9.76830841 15.57623131 5 12 C4.67 17.61 4.34 23.22 4 29 C2.68 29 1.36 29 0 29 C0 19.43 0 9.86 0 0 Z " fill="#414141" transform="translate(272,198)"/>
<path d="M0 0 C3.73631008 1.86815504 5.82293724 4.3073431 7.375 8.1875 C8.05282635 13.94902394 7.89122238 18.3885921 5.0859375 23.51171875 C1.54036283 27.88206613 -3.63767375 29.07286879 -9 29.8125 C-14.61592017 28.98051183 -17.97455217 26.82067459 -21.8125 22.6875 C-23.92633594 18.12161436 -24.0635398 14.26500917 -23.375 9.3125 C-21.75276841 5.58136734 -19.43032814 2.98591212 -16.375 0.3125 C-11.04113217 -1.46545594 -5.46768738 -1.11378817 0 0 Z M-19.375 8.3125 C-20.10665994 13.11933568 -20.09724838 17.11705441 -17.5625 21.3125 C-13.80744064 24.74569713 -11.49305419 25.70737764 -6.37109375 25.56640625 C-2.57433954 25.08345317 -0.32717471 23.16617388 2.4375 20.6875 C4.29911321 16.96427358 4.3004242 13.38683308 3.625 9.3125 C1.83106332 6.44220131 0.64236724 4.82118362 -2.375 3.3125 C-9.49728047 2.65699808 -14.16346976 3.10096976 -19.375 8.3125 Z " fill="#4B4B4B" transform="translate(168.375,198.6875)"/>
<path d="M0 0 C3.375 -0.125 3.375 -0.125 7 0 C9.39990024 2.39990024 9.9662213 4.36536783 11.0625 7.5625 C12.06015708 11.0564481 12.06015708 11.0564481 14 14 C15.90276522 11.14585217 16.65607642 9.1305318 17.5625 5.875 C18.89738431 1.10261569 18.89738431 1.10261569 20 0 C22.33297433 -0.04092937 24.66705225 -0.04241723 27 0 C26.71517632 1.41805831 26.42181856 2.83440379 26.125 4.25 C25.96257812 5.03890625 25.80015625 5.8278125 25.6328125 6.640625 C25.00849925 8.96831144 24.15161458 10.89031952 23 13 C22.34 13 21.68 13 21 13 C20.72414062 13.70511719 20.44828125 14.41023437 20.1640625 15.13671875 C18.97316845 18.0659984 17.69124864 20.93753586 16.375 23.8125 C15.92898437 24.78832031 15.48296875 25.76414063 15.0234375 26.76953125 C14.68570313 27.50558594 14.34796875 28.24164063 14 29 C13.34 29 12.68 29 12 29 C11.16235732 27.04350603 10.33000941 25.08474444 9.5 23.125 C9.0359375 22.03445312 8.571875 20.94390625 8.09375 19.8203125 C7 17 7 17 7 15 C6.34 15 5.68 15 5 15 C2.60926555 11.17482487 2.44033448 7.40334476 2 3 C1.34 3 0.68 3 0 3 C0 2.01 0 1.02 0 0 Z " fill="#1A1A1A" transform="translate(132,160)"/>
<path d="M0 0 C7.92 0 15.84 0 24 0 C24 1.98 24 3.96 24 6 C21.36 6 18.72 6 16 6 C16 13.26 16 20.52 16 28 C13.36 28 10.72 28 8 28 C8 20.41 8 12.82 8 5 C5.36 5 2.72 5 0 5 C0 3.35 0 1.7 0 0 Z " fill="#242424" transform="translate(97,161)"/>
<path d="M0 0 C3.96 0 7.92 0 12 0 C16 4 16 4 16.390625 6.578125 C16.32101563 7.90070313 16.32101563 7.90070313 16.25 9.25 C16.21390625 10.14203125 16.1778125 11.0340625 16.140625 11.953125 C16.07101563 12.96632812 16.07101563 12.96632812 16 14 C11.8794254 15.99785435 8.54805635 16.17835515 4 16 C4 20.29 4 24.58 4 29 C2.68 29 1.36 29 0 29 C0 19.43 0 9.86 0 0 Z " fill="#5F5F5F" transform="translate(8,198)"/>
<path d="M0 0 C2.31 0 4.62 0 7 0 C7 7.59 7 15.18 7 23 C10.63 23 14.26 23 18 23 C18 24.98 18 26.96 18 29 C12.06 29 6.12 29 0 29 C0 19.43 0 9.86 0 0 Z " fill="#0C0C0C" transform="translate(286,160)"/>
<path d="M0 0 C2.375 1.3125 2.375 1.3125 4 3 C4 3.99 4 4.98 4 6 C3.36191406 5.91621094 2.72382813 5.83242187 2.06640625 5.74609375 C1.24011719 5.64425781 0.41382813 5.54242188 -0.4375 5.4375 C-1.26121094 5.33308594 -2.08492188 5.22867188 -2.93359375 5.12109375 C-3.61550781 5.08113281 -4.29742187 5.04117188 -5 5 C-6.29633621 6.06645115 -6.29633621 6.06645115 -6.0625 8.5625 C-6.041875 9.366875 -6.02125 10.17125 -6 11 C-4.948125 11.4125 -3.89625 11.825 -2.8125 12.25 C0.62901901 13.76091078 3.42044671 15.18594186 6 18 C6.54861638 21.84031465 6.54211763 24.03897329 4.625 27.4375 C3 29 3 29 1 29 C1 29.66 1 30.32 1 31 C-7.08888889 31.62222222 -7.08888889 31.62222222 -10.5625 29.25 C-12 27 -12 27 -12 23 C-10.125 23.3125 -10.125 23.3125 -8 24 C-7.34 24.99 -6.68 25.98 -6 27 C-3.5 27.41666667 -3.5 27.41666667 -1 27 C1.5654594 24.4345406 1.54046087 22.52313332 2 19 C1.29875 18.731875 0.5975 18.46375 -0.125 18.1875 C-10.00543901 14.10644911 -10.00543901 14.10644911 -12 10 C-12 6.0924085 -11.47215491 4.51262533 -8.8125 1.625 C-5.48999479 -0.29466967 -3.77762603 -0.56262515 0 0 Z " fill="#404040" transform="translate(321,197)"/>
<path d="M0 0 C2.875 1.4375 2.875 1.4375 5 4 C5.79783658 8.1020843 5.51600303 11.67774225 4 15.5625 C1.41836241 17.41805202 -0.83857195 17.4396174 -3.96484375 17.43359375 C-6.67520521 16.8561463 -8.04365333 15.96064633 -10 14 C-11.01838255 9.5146239 -10.80092834 5.29380732 -8.375 1.375 C-5.25214775 -0.43296709 -3.56003292 -0.58122986 0 0 Z " fill="#E1E1E1" transform="translate(61,166)"/>
<path d="M0 0 C6.93 0 13.86 0 21 0 C21 1.32 21 2.64 21 4 C18.36 4 15.72 4 13 4 C13 12.25 13 20.5 13 29 C11.68 29 10.36 29 9 29 C9 20.75 9 12.5 9 4 C6.03 4 3.06 4 0 4 C0 2.68 0 1.36 0 0 Z " fill="#6C6C6C" transform="translate(182,198)"/>
<path d="M0 0 C1 2 2 4 3 6 C3.99 5.67 4.98 5.34 6 5 C7.85776765 8.13498292 8.20140476 10.37471432 8 14 C6.02 14 4.04 14 2 14 C2 14.66 2 15.32 2 16 C4.97 16 7.94 16 11 16 C11 16.66 11 17.32 11 18 C7.04 18.33 3.08 18.66 -1 19 C-1.33 19.99 -1.66 20.98 -2 22 C-4.31 22 -6.62 22 -9 22 C-9 21.01 -9 20.02 -9 19 C-8.34 19 -7.68 19 -7 19 C-6.9175 17.96875 -6.835 16.9375 -6.75 15.875 C-5.92822857 11.62918096 -4.45796114 9.50073253 -2 6 C-0.75675853 2.7750792 -0.75675853 2.7750792 0 0 Z " fill="#272727" transform="translate(164,167)"/>
<path d="M0 0 C1.65 0 3.3 0 5 0 C5.33 7.26 5.66 14.52 6 22 C9.3 22.33 12.6 22.66 16 23 C16 24.32 16 25.64 16 27 C10.72 27 5.44 27 0 27 C0 18.09 0 9.18 0 0 Z " fill="#070707" transform="translate(186,161)"/>
<path d="M0 0 C1.2380014 3.57644848 0.74926071 6.33694766 0 10 C0.66 10 1.32 10 2 10 C2 7.69 2 5.38 2 3 C2.33 3 2.66 3 3 3 C3.13277344 3.62648437 3.26554687 4.25296875 3.40234375 4.8984375 C3.57894531 5.71570313 3.75554687 6.53296875 3.9375 7.375 C4.19853516 8.59316406 4.19853516 8.59316406 4.46484375 9.8359375 C5.11099717 12.44884988 5.43889314 13.64680327 7.75 15.1015625 C11.7612057 16.70325922 15.75997284 16.52912153 20 16 C22.78829159 14.87905095 22.78829159 14.87905095 24 12 C24.60616415 8.33666016 24.87211516 4.70866046 25 1 C28.30439665 5.95659498 27.05172889 11.32208525 26 17 C24.1875 20.3125 24.1875 20.3125 21 22 C15.33574177 22.94002583 9.87219684 23.11569643 4.9375 19.875 C1.34491655 16.73806128 -0.77205736 13.54607628 -1.20703125 8.6875 C-1.31385449 2.62770898 -1.31385449 2.62770898 0 0 Z " fill="#404040" transform="translate(63,206)"/>
<path d="M0 0 C3 1 3 1 4.640625 3.65234375 C5.17171875 4.73644531 5.7028125 5.82054687 6.25 6.9375 C6.79140625 8.01902344 7.3328125 9.10054687 7.890625 10.21484375 C8.25671875 11.13394531 8.6228125 12.05304688 9 13 C8.67 13.66 8.34 14.32 8 15 C6 12 6 12 6 9 C5.01 9 4.02 9 3 9 C3.33 12.63 3.66 16.26 4 20 C2.02 20 0.04 20 -2 20 C-2.33 18.02 -2.66 16.04 -3 14 C-3.99 14 -4.98 14 -6 14 C-6 15.65 -6 17.3 -6 19 C-6.66 19 -7.32 19 -8 19 C-8.33 19.66 -8.66 20.32 -9 21 C-9 19.68 -9 18.36 -9 17 C-8.34 17 -7.68 17 -7 17 C-6.84724609 15.95779297 -6.84724609 15.95779297 -6.69140625 14.89453125 C-5.88282994 11.50947448 -4.53324287 8.77712981 -2.9375 5.6875 C-2.38964844 4.61886719 -1.84179688 3.55023438 -1.27734375 2.44921875 C-0.85582031 1.64097656 -0.43429688 0.83273438 0 0 Z " fill="#303030" transform="translate(244,160)"/>
<path d="M0 0 C3.96 0 7.92 0 12 0 C15 3 15 3 15.25 6.5625 C15 10 15 10 14 12 C13.34 12 12.68 12 12 12 C11.67 8.7 11.34 5.4 11 2 C8.03 2 5.06 2 2 2 C2 5.3 2 8.6 2 12 C4.97 12 7.94 12 11 12 C11 12.66 11 13.32 11 14 C6.545 14.495 6.545 14.495 2 15 C2 18.96 2 22.92 2 27 C1.34 27 0.68 27 0 27 C0 18.09 0 9.18 0 0 Z " fill="#121212" transform="translate(36,199)"/>
<path d="M0 0 C0.66 0 1.32 0 2 0 C2.391875 1.051875 2.78375 2.10375 3.1875 3.1875 C4.85202781 6.97892445 6.60034345 9.50691853 10 12 C16.42798143 12.9483907 20.50766852 11.27202727 26 8 C26 10.25 26 10.25 25 13 C21.44452316 15.71430305 17.8331785 16.88306267 13.4375 17.5 C8.31239866 16.75453071 4.99645334 14.73884646 1.0625 11.3125 C-0.61937483 7.65194891 -0.22862781 3.96288202 0 0 Z " fill="#363636" transform="translate(146,211)"/>
<path d="M0 0 C1.134375 0.020625 2.26875 0.04125 3.4375 0.0625 C3.15267632 1.48055831 2.85931856 2.89690379 2.5625 4.3125 C2.40007812 5.10140625 2.23765625 5.8903125 2.0703125 6.703125 C1.44599925 9.03081144 0.58911458 10.95281952 -0.5625 13.0625 C-1.2225 13.0625 -1.8825 13.0625 -2.5625 13.0625 C-3.2225 14.7125 -3.8825 16.3625 -4.5625 18.0625 C-5.5525 17.4025 -6.5425 16.7425 -7.5625 16.0625 C-8.5525 15.7325 -9.5425 15.4025 -10.5625 15.0625 C-10.10101563 14.50949219 -9.63953125 13.95648438 -9.1640625 13.38671875 C-7.43904724 10.88334295 -6.72354298 8.79890715 -5.9375 5.875 C-4.35839624 0.07646309 -4.35839624 0.07646309 0 0 Z " fill="#181818" transform="translate(155.5625,159.9375)"/>
<path d="M0 0 C1.32 0 2.64 0 4 0 C4 9.57 4 19.14 4 29 C2.68 29 1.36 29 0 29 C0 19.43 0 9.86 0 0 Z " fill="#484848" transform="translate(213,198)"/>
<path d="M0 0 C3.96 0 7.92 0 12 0 C14 2 14 2 14.1953125 4.1640625 C14.17210937 4.97617188 14.14890625 5.78828125 14.125 6.625 C14.10695313 7.44226563 14.08890625 8.25953125 14.0703125 9.1015625 C14.03550781 10.04128906 14.03550781 10.04128906 14 11 C13.34 11 12.68 11 12 11 C11.67 8.69 11.34 6.38 11 4 C6.545 3.01 6.545 3.01 2 2 C2 5.63 2 9.26 2 13 C4.31 13 6.62 13 9 13 C9 13.33 9 13.66 9 14 C6.69 14 4.38 14 2 14 C2 18.29 2 22.58 2 27 C1.34 27 0.68 27 0 27 C0 18.09 0 9.18 0 0 Z " fill="#171717" transform="translate(9,199)"/>
<path d="M0 0 C0.98120464 3.05263664 0.98120464 4.94736336 0 8 C2.31 8.33 4.62 8.66 7 9 C7 9.33 7 9.66 7 10 C4.03 10 1.06 10 -2 10 C-2 11.98 -2 13.96 -2 16 C-4.64 16 -7.28 16 -10 16 C-9.45276317 12.62537285 -8.9451 10.91765 -7 8 C-6.34 8 -5.68 8 -5 8 C-5 7.34 -5 6.68 -5 6 C-4.34 6 -3.68 6 -3 6 C-3 4.35 -3 2.7 -3 1 C-2.01 0.67 -1.02 0.34 0 0 Z " fill="#1C1C1C" transform="translate(241,173)"/>
<path d="M0 0 C5.94 0 11.88 0 18 0 C18 0.66 18 1.32 18 2 C15.69 2.33 13.38 2.66 11 3 C10.67 10.92 10.34 18.84 10 27 C9.34 27 8.68 27 8 27 C8 18.75 8 10.5 8 2 C5.36 2 2.72 2 0 2 C0 1.34 0 0.68 0 0 Z " fill="#141414" transform="translate(184,199)"/>
<path d="M0 0 C2.375 1.3125 2.375 1.3125 4 3 C4 3.99 4 4.98 4 6 C1.03 5.67 -1.94 5.34 -5 5 C-5.268125 5.969375 -5.53625 6.93875 -5.8125 7.9375 C-6.204375 8.948125 -6.59625 9.95875 -7 11 C-7.99 11.33 -8.98 11.66 -10 12 C-10.66 11.34 -11.32 10.68 -12 10 C-11.916552 6.16139201 -11.43459697 4.47184814 -8.8125 1.625 C-5.48999479 -0.29466967 -3.77762603 -0.56262515 0 0 Z " fill="#575757" transform="translate(321,197)"/>
<path d="M0 0 C2.31 0 4.62 0 7 0 C7 7.59 7 15.18 7 23 C6.34 23 5.68 23 5 23 C5 16.07 5 9.14 5 2 C3.68 2 2.36 2 1 2 C1 10.91 1 19.82 1 29 C0.67 29 0.34 29 0 29 C0 19.43 0 9.86 0 0 Z " fill="#4C4C4C" transform="translate(286,160)"/>
<path d="M0 0 C0.99 0.33 1.98 0.66 3 1 C2.34 1 1.68 1 1 1 C1 9.91 1 18.82 1 28 C1.66 28 2.32 28 3 28 C3 21.4 3 14.8 3 8 C6 8 6 8 7.71875 9.64453125 C8.60046875 10.71767578 8.60046875 10.71767578 9.5 11.8125 C11.58277276 14.32004878 13.65488525 16.73353239 16 19 C15.67 19.66 15.34 20.32 15 21 C14.36191406 20.3503125 13.72382813 19.700625 13.06640625 19.03125 C12.24011719 18.1959375 11.41382813 17.360625 10.5625 16.5 C9.73878906 15.6646875 8.91507812 14.829375 8.06640625 13.96875 C6.35501902 11.88503469 6.35501902 11.88503469 5 12 C4.67 17.61 4.34 23.22 4 29 C2.68 29 1.36 29 0 29 C0 19.43 0 9.86 0 0 Z " fill="#858585" transform="translate(272,198)"/>
<path d="M0 0 C0 0.33 0 0.66 0 1 C-1.794375 1.0928125 -1.794375 1.0928125 -3.625 1.1875 C-7.2789158 1.68546729 -9.95147108 2.62522685 -12.74609375 5.19140625 C-15.36212854 8.96469008 -16.11337882 13.55911672 -17 18 C-17.66 18 -18.32 18 -19 18 C-20.03154988 7.43616509 -20.03154988 7.43616509 -16.375 2.875 C-11.41177071 -1.9836179 -6.49781893 -1.16960741 0 0 Z " fill="#2F2F2F" transform="translate(249,199)"/>
<path d="M0 0 C0.66 0 1.32 0 2 0 C2.6490968 3.18684428 3.29367948 6.37458595 3.9375 9.5625 C4.21110352 10.90538086 4.21110352 10.90538086 4.49023438 12.27539062 C5.47680504 17.17236866 6.35444873 22.04624344 7 27 C5.68 27 4.36 27 3 27 C1.76240177 23.28720531 1.64391103 19.68693654 1.4375 15.8125 C1.39431641 15.06291016 1.35113281 14.31332031 1.30664062 13.54101562 C1.20077315 11.69421625 1.0999024 9.84713166 1 8 C0.01 8 -0.98 8 -2 8 C-1.34 5.36 -0.68 2.72 0 0 Z " fill="#393939" transform="translate(128,200)"/>
<path d="M0 0 C3.70818297 -0.08756305 7.41609763 -0.14058015 11.125 -0.1875 C12.17171875 -0.21263672 13.2184375 -0.23777344 14.296875 -0.26367188 C20.05471464 -0.31833491 24.13514632 -0.20676341 29 3 C27.0625 3.5625 27.0625 3.5625 25 4 C24.67 3.67 24.34 3.34 24 3 C22.22130274 2.84235595 20.43681524 2.74899323 18.65234375 2.68359375 C17.57275391 2.64169922 16.49316406 2.59980469 15.38085938 2.55664062 C13.67639648 2.49766602 13.67639648 2.49766602 11.9375 2.4375 C10.79732422 2.39431641 9.65714844 2.35113281 8.48242188 2.30664062 C5.65507805 2.20017161 2.82764262 2.09815793 0 2 C-0.12117188 2.77085938 -0.24234375 3.54171875 -0.3671875 4.3359375 C-0.53476562 5.33882812 -0.70234375 6.34171875 -0.875 7.375 C-1.03742188 8.37273438 -1.19984375 9.37046875 -1.3671875 10.3984375 C-2 13 -2 13 -4 15 C-3.91131893 13.62391448 -3.80314061 12.24908258 -3.6875 10.875 C-3.62949219 10.10929687 -3.57148438 9.34359375 -3.51171875 8.5546875 C-2.87396259 5.37077507 -1.53756852 2.84429565 0 0 Z " fill="#5B5B5B" transform="translate(289,26)"/>
<path d="M0 0 C1.98 0 3.96 0 6 0 C7 1 7 1 7.11352539 3.04125977 C7.10828857 3.91580811 7.10305176 4.79035645 7.09765625 5.69140625 C7.09443359 6.63564453 7.09121094 7.57988281 7.08789062 8.55273438 C7.07951172 9.54595703 7.07113281 10.53917969 7.0625 11.5625 C7.05798828 12.55958984 7.05347656 13.55667969 7.04882812 14.58398438 C7.03700007 17.05604849 7.02051849 19.52799518 7 22 C6.34 22.33 5.68 22.66 5 23 C5 16.07 5 9.14 5 2 C3.68 2 2.36 2 1 2 C1 7.94 1 13.88 1 20 C0.67 20 0.34 20 0 20 C0 13.4 0 6.8 0 0 Z " fill="#555555" transform="translate(223,160)"/>
<path d="M0 0 C0.33 0 0.66 0 1 0 C1.16435547 1.24716797 1.16435547 1.24716797 1.33203125 2.51953125 C1.56986328 4.14955078 1.56986328 4.14955078 1.8125 5.8125 C1.96332031 6.89144531 2.11414063 7.97039062 2.26953125 9.08203125 C3.03945851 12.15762304 3.69072935 12.98166109 6 15 C6.33 15.99 6.66 16.98 7 18 C10.3 18.33 13.6 18.66 17 19 C17 19.33 17 19.66 17 20 C11.1010945 20.58555312 6.35932329 20.85590074 1.375 17.3125 C-1.08040546 15.20285571 -1.91697515 14.23869646 -3 11.125 C-3 10.42375 -3 9.7225 -3 9 C-2.34 9 -1.68 9 -1 9 C-0.67 6.03 -0.34 3.06 0 0 Z " fill="#585858" transform="translate(233,208)"/>
<path d="M0 0 C0.66 0 1.32 0 2 0 C2 9.24 2 18.48 2 28 C-0.95664519 29.4783226 -3.74229737 29.06032783 -7 29 C-7 28.67 -7 28.34 -7 28 C-5.02 28 -3.04 28 -1 28 C-1.33 26.35 -1.66 24.7 -2 23 C-1.34 23 -0.68 23 0 23 C0 15.41 0 7.82 0 0 Z " fill="#CDCDCD" transform="translate(260,161)"/>
<path d="M0 0 C0 0.33 0 0.66 0 1 C-1.216875 1.0825 -2.43375 1.165 -3.6875 1.25 C-8.77376062 1.88802916 -11.25387486 4.19151325 -14.75 7.8125 C-16.45365845 10.79390229 -16.67449521 13.6147502 -17 17 C-17.66 17 -18.32 17 -19 17 C-18.81606218 6.51554404 -18.81606218 6.51554404 -16.25 1.75 C-11.0621938 -1.04343411 -5.76673847 -0.37994617 0 0 Z " fill="#161616" transform="translate(82,199)"/>
<path d="M0 0 C2.33294775 -0.04241723 4.66702567 -0.04092937 7 0 C8 1 8 1 8.125 4 C8 7 8 7 7 8 C4.66702567 8.04092937 2.33294775 8.04241723 0 8 C0 5.36 0 2.72 0 0 Z " fill="#EDEDED" transform="translate(39,202)"/>
<path d="M0 0 C0.66 0 1.32 0 2 0 C2 8.58 2 17.16 2 26 C-2 24 -2 24 -3 21 C-2.01 21 -1.02 21 0 21 C0 14.07 0 7.14 0 0 Z " fill="#1A1A1A" transform="translate(294,199)"/>
<path d="M0 0 C2.875 -0.125 2.875 -0.125 6 0 C8 2 8 2 8.1875 4.5625 C8 7 8 7 7 8 C4.66702567 8.04092937 2.33294775 8.04241723 0 8 C0 5.36 0 2.72 0 0 Z " fill="#EFEFEF" transform="translate(12,202)"/>
<path d="M0 0 C2.49310643 3.73965964 2.0603261 5.29070641 1.625 9.6875 C1.45871094 11.45673828 1.45871094 11.45673828 1.2890625 13.26171875 C1.14597656 14.61716797 1.14597656 14.61716797 1 16 C0.37738281 16.15339844 -0.24523437 16.30679688 -0.88671875 16.46484375 C-2.2039227 16.79840556 -3.51477561 17.15975795 -4.8125 17.5625 C-8.00109208 18.20021842 -10.75679771 18.28957163 -14 18 C-16.4375 16 -16.4375 16 -18 14 C-17.01 14.33 -16.02 14.66 -15 15 C-10.54907191 15.45326647 -6.47823637 15.75714546 -2.4375 13.6875 C-0.13379623 9.38057556 -0.16615694 4.81855127 0 0 Z " fill="#7D7D7D" transform="translate(88,207)"/>
<path d="M0 0 C0.98235258 3.18341324 1.02156168 5.75678515 0.6875 9.0625 C0.60886719 9.91972656 0.53023437 10.77695313 0.44921875 11.66015625 C0 14 0 14 -2 17 C-0.35 17 1.3 17 3 17 C3.66 13.37 4.32 9.74 5 6 C6.32 6.66 7.64 7.32 9 8 C8.67 8.66 8.34 9.32 8 10 C7.34 10 6.68 10 6 10 C5.855625 11.134375 5.71125 12.26875 5.5625 13.4375 C5 17 5 17 4 18 C1.66702567 18.04092937 -0.66705225 18.04241723 -3 18 C-2.57045059 11.74892565 -1.98598493 5.95795479 0 0 Z " fill="#5A5A5A" transform="translate(11,171)"/>
<path d="M0 0 C0.33 0 0.66 0 1 0 C1 2.64 1 5.28 1 8 C19.81 8.495 19.81 8.495 39 9 C39 9.33 39 9.66 39 10 C25.47 10 11.94 10 -2 10 C-0.875 3.25 -0.875 3.25 0 0 Z " fill="#505050" transform="translate(203,132)"/>
<path d="M0 0 C2 3 2 3 2 5 C2.66 5 3.32 5 4 5 C4.103125 5.969375 4.20625 6.93875 4.3125 7.9375 C4.72550017 10.91229829 5.48277213 13.55157241 6.5 16.375 C8.10552673 20.92529772 8.61887261 25.1977949 9 30 C9.66 30 10.32 30 11 30 C11.33 29.01 11.66 28.02 12 27 C11.67 28.65 11.34 30.3 11 32 C10.01 31.67 9.02 31.34 8 31 C7.05078125 28.19921875 7.05078125 28.19921875 6.3125 24.6875 C6.06113281 23.53636719 5.80976563 22.38523437 5.55078125 21.19921875 C5 18 5 18 5 14 C4.34 14 3.68 14 3 14 C2.49307308 12.4188708 1.99473557 10.83498617 1.5 9.25 C1.2215625 8.36828125 0.943125 7.4865625 0.65625 6.578125 C0 4 0 4 0 0 Z " fill="#626262" transform="translate(196,58)"/>
<path d="M0 0 C5.21130865 0.40873009 8.39958746 1.081904 12 5 C12.8125 8.25 12.8125 8.25 13 11 C11.453125 9.8553125 11.453125 9.8553125 9.875 8.6875 C6.72582739 6.42984469 3.52287088 4.63254992 0 3 C0 2.01 0 1.02 0 0 Z " fill="#313131" transform="translate(312,208)"/>
<path d="M0 0 C2.0234375 -0.36328125 2.0234375 -0.36328125 4.375 -0.3125 C5.14585938 -0.30863281 5.91671875 -0.30476562 6.7109375 -0.30078125 C9.18002469 0.02365512 10.85179272 0.76894971 13 2 C13 3.98 13 5.96 13 8 C10.03 7.67 7.06 7.34 4 7 C4.33 8.32 4.66 9.64 5 11 C4.01 10.67 3.02 10.34 2 10 C2.33 8.68 2.66 7.36 3 6 C5.64 6 8.28 6 11 6 C10.67 5.01 10.34 4.02 10 3 C6.04 3 2.08 3 -2 3 C-1.34 2.01 -0.68 1.02 0 0 Z " fill="#6D6D6D" transform="translate(80,159)"/>
<path d="M0 0 C3.75159236 2.42038217 3.75159236 2.42038217 4.75 4.75 C5.53115839 11.78042547 4.50114859 15.98240085 1 22 C0.67 20.68 0.34 19.36 0 18 C-0.66 18.33 -1.32 18.66 -2 19 C-1.690625 18.505 -1.38125 18.01 -1.0625 17.5 C0.41456209 14.0245598 0.58257719 10.75680532 1 7 C1.33 6.01 1.66 5.02 2 4 C1.12516085 1.83284443 1.12516085 1.83284443 0 0 Z " fill="#525252" transform="translate(171,202)"/>
<path d="M0 0 C2.375 -0.125 2.375 -0.125 5 0 C5.66 0.66 6.32 1.32 7 2 C6.625 4.625 6.625 4.625 6 7 C4.34385343 7.38218767 2.67542976 7.71395102 1 8 C0 7 0 7 -0.0625 3.4375 C-0.041875 2.303125 -0.02125 1.16875 0 0 Z " fill="#AAAAAA" transform="translate(268,176)"/>
<path d="M0 0 C1.2380014 3.57644848 0.74926071 6.33694766 0 10 C0.66 10 1.32 10 2 10 C2 7.69 2 5.38 2 3 C2.33 3 2.66 3 3 3 C3.13277344 3.61488281 3.26554687 4.22976562 3.40234375 4.86328125 C3.66724609 6.07564453 3.66724609 6.07564453 3.9375 7.3125 C4.11152344 8.11300781 4.28554687 8.91351563 4.46484375 9.73828125 C4.99886159 12.145401 4.99886159 12.145401 6 15 C5.34 15 4.68 15 4 15 C4.33 15.99 4.66 16.98 5 18 C2 17 2 17 0.3125 14.5 C-1.2931105 10.21837201 -1.47077697 6.52670161 -1 2 C-0.67 1.34 -0.34 0.68 0 0 Z " fill="#545454" transform="translate(63,206)"/>
<path d="M0 0 C0.33 0.99 0.66 1.98 1 3 C-1.84759727 6.04398329 -3.69846555 7.88998401 -8.04296875 8.09765625 C-8.75066406 8.08605469 -9.45835937 8.07445312 -10.1875 8.0625 C-12.0746875 8.0315625 -12.0746875 8.0315625 -14 8 C-14 7.34 -14 6.68 -14 6 C-12.989375 5.7525 -11.97875 5.505 -10.9375 5.25 C-6.86621646 4.10339362 -3.59755594 2.20258527 0 0 Z " fill="#1D1D1D" transform="translate(171,219)"/>
<path d="M0 0 C1.8125 1.0625 1.8125 1.0625 3 3 C3.43076923 9.13846154 3.43076923 9.13846154 2 12 C1.34 12 0.68 12 0 12 C-0.33 8.7 -0.66 5.4 -1 2 C-3.64 2 -6.28 2 -9 2 C-5.88578592 0.1545398 -3.61678684 -0.46369062 0 0 Z " fill="#252525" transform="translate(48,199)"/>
<path d="M0 0 C0.66 0 1.32 0 2 0 C2.84306996 2.87245978 3.67465502 5.7474459 4.5 8.625 C4.73847656 9.43324219 4.97695312 10.24148437 5.22265625 11.07421875 C6.48325939 15.50433836 7.30141867 19.34308157 7 24 C5.13044183 20.48802624 3.74725893 16.8565813 2.375 13.125 C1.92898437 11.93132813 1.48296875 10.73765625 1.0234375 9.5078125 C0.03628446 6.1243643 -0.20319846 3.49715242 0 0 Z " fill="#393939" transform="translate(139,41)"/>
<path d="M0 0 C0.66 0 1.32 0 2 0 C2 0.66 2 1.32 2 2 C1.34 2 0.68 2 0 2 C0.061875 3.1446875 0.061875 3.1446875 0.125 4.3125 C0 7 0 7 -2 10 C-1.01 10 -0.02 10 1 10 C1.33 12.97 1.66 15.94 2 19 C0 16 0 16 -1 14 C-1.99 14 -2.98 14 -4 14 C-3.46148032 8.72250715 -2.22656164 4.74354436 0 0 Z " fill="#5D5D5D" transform="translate(128,198)"/>
<path d="M0 0 C2.57418259 1.11289849 4.65030581 2.43353721 7 4 C3.46145836 6.27477677 1.29052627 5.99082706 -2.75 5.125 C-3.73484375 4.92132813 -4.7196875 4.71765625 -5.734375 4.5078125 C-6.85585937 4.25644531 -6.85585937 4.25644531 -8 4 C-8 3.67 -8 3.34 -8 3 C-6.35 2.67 -4.7 2.34 -3 2 C-5.64 2 -8.28 2 -11 2 C-7.28838251 -0.47441166 -4.30426299 -0.67548653 0 0 Z " fill="#646464" transform="translate(249,197)"/>
<path d="M0 0 C2.3046875 1.02734375 2.3046875 1.02734375 4 2 C0.7578228 3.6210886 -2.7082525 2.90555177 -6.2734375 2.7421875 C-9.45091503 3.04263667 -10.53906383 4.08361141 -13 6 C-13.99 5.67 -14.98 5.34 -16 5 C-11.0819372 -0.17690821 -7.06883692 -1.108151 0 0 Z " fill="#666666" transform="translate(63,159)"/>
<path d="M0 0 C0.66 0.33 1.32 0.66 2 1 C3.1577506 4.47325181 3.06866652 7.36067448 3 11 C3.99 11 4.98 11 6 11 C6 12.98 6 14.96 6 17 C5.34 17 4.68 17 4 17 C3.32404685 15.58774074 2.65959941 14.16997095 2 12.75 C1.62875 11.96109375 1.2575 11.1721875 0.875 10.359375 C-0.39483969 6.93534299 0 3.62903142 0 0 Z " fill="#3C3C3C" transform="translate(114,209)"/>
<path d="M0 0 C1.485 0.99 1.485 0.99 3 2 C3.3984375 4.71484375 3.3984375 4.71484375 3.375 7.9375 C3.38273437 8.99839844 3.39046875 10.05929688 3.3984375 11.15234375 C2.9649703 14.25035934 2.44419658 15.14422111 0 17 C-1.0154401 13.95367971 -0.98900876 12.7106066 -0.5625 9.625 C-0.15032955 6.38576301 0.1055525 3.27212741 0 0 Z " fill="#121212" transform="translate(89,205)"/>
<path d="M0 0 C4.13621084 3.3810038 7.81316569 6.66590534 11 11 C9.68 11.33 8.36 11.66 7 12 C5.821389 10.76125579 4.65747085 9.5085199 3.5 8.25 C2.8503125 7.55390625 2.200625 6.8578125 1.53125 6.140625 C0 4 0 4 0 0 Z " fill="#333333" transform="translate(283,209)"/>
<path d="M0 0 C1.66611905 -0.042721 3.33382885 -0.04063832 5 0 C6 1 6 1 6.0625 3.5625 C6.041875 4.366875 6.02125 5.17125 6 6 C4.02 6.33 2.04 6.66 0 7 C0 4.69 0 2.38 0 0 Z " fill="#C7C7C7" transform="translate(268,165)"/>
<path d="M0 0 C1.98 0 3.96 0 6 0 C6.03738281 1.26457031 6.07476562 2.52914062 6.11328125 3.83203125 C6.17893833 5.4922173 6.24538576 7.15237222 6.3125 8.8125 C6.33505859 9.64587891 6.35761719 10.47925781 6.38085938 11.33789062 C6.41630859 12.14033203 6.45175781 12.94277344 6.48828125 13.76953125 C6.51446533 14.50792236 6.54064941 15.24631348 6.56762695 16.00708008 C7.11145987 18.51374754 8.03547761 19.39652174 10 21 C12.09989652 22.17574711 12.09989652 22.17574711 14 23 C11.36 22.67 8.72 22.34 6 22 C5.07811539 19.23434618 4.88214778 17.61716298 4.90234375 14.76953125 C4.90717773 13.56586914 4.90717773 13.56586914 4.91210938 12.33789062 C4.92048828 11.50451172 4.92886719 10.67113281 4.9375 9.8125 C4.94201172 8.96751953 4.94652344 8.12253906 4.95117188 7.25195312 C4.96294597 5.16793845 4.9808811 3.08396023 5 1 C3.35 1 1.7 1 0 1 C0 0.67 0 0.34 0 0 Z " fill="#383838" transform="translate(206,161)"/>
<path d="M0 0 C0.66 0 1.32 0 2 0 C2.33 1.32 2.66 2.64 3 4 C2.01 4 1.02 4 0 4 C0.020625 5.051875 0.04125 6.10375 0.0625 7.1875 C0.01103198 10.32704904 -0.26517187 12.96883396 -1 16 C-1.66 16 -2.32 16 -3 16 C-2.67 11.71 -2.34 7.42 -2 3 C-1.34 3 -0.68 3 0 3 C0 2.01 0 1.02 0 0 Z " fill="#0E0E0E" transform="translate(109,204)"/>
<path d="M0 0 C2.98717976 0.33190886 4.73531859 0.80052995 7.15625 2.625 C9.62318863 5.80275146 9.40885665 7.7785837 9.25 11.75 C9.21390625 12.92046875 9.1778125 14.0909375 9.140625 15.296875 C9.07101563 16.63492188 9.07101563 16.63492188 9 18 C8.67 18 8.34 18 8 18 C7.67 14.04 7.34 10.08 7 6 C5.68 6 4.36 6 3 6 C2.01 4.02 1.02 2.04 0 0 Z " fill="#474747" transform="translate(84,201)"/>
<path d="M0 0 C0.66 0 1.32 0 2 0 C3.76462683 3.08809695 4 4.23312136 4 8 C2.02 8 0.04 8 -2 8 C-1.125 1.125 -1.125 1.125 0 0 Z " fill="#BABABA" transform="translate(168,172)"/>
<path d="M0 0 C0.66 0 1.32 0 2 0 C3.12862175 5.36095333 3.09688221 10.55306686 3 16 C0.8480563 12.77208445 0.79913557 11.71599191 1 8 C0.01 8 -0.98 8 -2 8 C-1.34 5.36 -0.68 2.72 0 0 Z " fill="#121212" transform="translate(128,200)"/>
<path d="M0 0 C-0.33 0.99 -0.66 1.98 -1 3 C-4.01490557 4.00496852 -6.04181692 4.10335303 -9.1875 4.0625 C-10.08855469 4.05347656 -10.98960937 4.04445312 -11.91796875 4.03515625 C-12.60503906 4.02355469 -13.29210937 4.01195312 -14 4 C-14.33 3.01 -14.66 2.02 -15 1 C-13.1746875 1.0309375 -13.1746875 1.0309375 -11.3125 1.0625 C-7.45098448 1.06933454 -3.80045657 0 0 0 Z " fill="#161616" transform="translate(254,223)"/>
<path d="M0 0 C0 0.99 0 1.98 0 3 C0.01160156 3.79535156 0.02320313 4.59070313 0.03515625 5.41015625 C0.04417969 6.28542969 0.05320313 7.16070312 0.0625 8.0625 C0.07410156 8.94035156 0.08570313 9.81820312 0.09765625 10.72265625 C0 13 0 13 -1 15 C-1.66 15 -2.32 15 -3 15 C-3.08142927 13.2507786 -3.13938541 11.50045458 -3.1875 9.75 C-3.22230469 8.77546875 -3.25710937 7.8009375 -3.29296875 6.796875 C-2.96075202 3.62531258 -2.11327721 2.32959693 0 0 Z " fill="#333333" transform="translate(233,202)"/>
<path d="M0 0 C0.99 0.33 1.98 0.66 3 1 C3.33 3.31 3.66 5.62 4 8 C2.02 8 0.04 8 -2 8 C-1.34 5.36 -0.68 2.72 0 0 Z " fill="#BFBFBF" transform="translate(244,172)"/>
<path d="M0 0 C1.875 0.3125 1.875 0.3125 4 1 C4.66 1.99 5.32 2.98 6 4 C8.05003955 5.19232613 8.05003955 5.19232613 10 6 C6.62182575 6.84454356 4.32534757 7.10844919 1 6 C0.67 4.02 0.34 2.04 0 0 Z " fill="#383838" transform="translate(309,220)"/>
<path d="M0 0 C2.60606665 0.35945747 3.77647209 0.76787487 5.625 2.6875 C7.3451624 5.58050041 7.30673898 7.41130863 7.1875 10.75 C7.14689453 12.22726563 7.14689453 12.22726563 7.10546875 13.734375 C7.07066406 14.48203125 7.03585938 15.2296875 7 16 C6.67 16 6.34 16 6 16 C5.9071875 14.2365625 5.9071875 14.2365625 5.8125 12.4375 C5.23381393 7.50990045 3.04822056 4.82981558 0 1 C0 0.67 0 0.34 0 0 Z " fill="#121212" transform="translate(167,201)"/>
<path d="M0 0 C2.31 0 4.62 0 7 0 C5.25740319 9.59453303 5.25740319 9.59453303 2 13 C3 5.57142857 3 5.57142857 4 2 C2.35 2.33 0.7 2.66 -1 3 C-0.67 2.01 -0.34 1.02 0 0 Z " fill="#767676" transform="translate(152,160)"/>
<path d="M0 0 C3.50625215 2.33750144 3.77611519 3.82776866 4.66015625 7.82421875 C5.14599957 10.93473289 5.13096531 13.85683244 5 17 C3 15 3 15 2.8046875 13.0546875 C2.86979167 11.03645833 2.93489583 9.01822917 3 7 C2.34 7 1.68 7 1 7 C0.67 4.69 0.34 2.38 0 0 Z " fill="#646464" transform="translate(156,97)"/>
<path d="M0 0 C2.6793133 1.980362 3.00020287 3.00121722 3.5625 6.375 C3.706875 7.57125 3.85125 8.7675 4 10 C4.37125 10.886875 4.7425 11.77375 5.125 12.6875 C6.11341176 15.29973109 5.95398577 16.42423842 5 19 C4.67 16.69 4.34 14.38 4 12 C3.34 12 2.68 12 2 12 C0.86235649 7.73383684 0 4.43513689 0 0 Z " fill="#9D9D9D" transform="translate(43,102)"/>
<path d="M0 0 C3.47695381 3.63499716 4.48364069 8.1117985 5 13 C4.546875 15.28125 4.546875 15.28125 4 17 C3.32635339 14.91891315 2.66133202 12.8350329 2 10.75 C1.62875 9.58984375 1.2575 8.4296875 0.875 7.234375 C0 4 0 4 0 0 Z " fill="#4F4F4F" transform="translate(172,17)"/>
<path d="M0 0 C1.60717771 2.41076656 2.61542515 4.28099245 3.625 6.9375 C3.88539062 7.60652344 4.14578125 8.27554688 4.4140625 8.96484375 C5 11 5 11 5 15 C4.34 15 3.68 15 3 15 C2.49363393 13.25183142 1.99515381 11.50137737 1.5 9.75 C1.2215625 8.77546875 0.943125 7.8009375 0.65625 6.796875 C0 4 0 4 0 0 Z " fill="#585858" transform="translate(94,100)"/>
<path d="M0 0 C3.3 0.66 6.6 1.32 10 2 C10 2.33 10 2.66 10 3 C8.02 3 6.04 3 4 3 C4 3.66 4 4.32 4 5 C5.98 5 7.96 5 10 5 C10 5.33 10 5.66 10 6 C3.6 6.36923077 3.6 6.36923077 0.5625 4.5 C0.046875 4.005 -0.46875 3.51 -1 3 C-0.34 2.67 0.32 2.34 1 2 C0.67 1.34 0.34 0.68 0 0 Z " fill="#5A5A5A" transform="translate(153,222)"/>
<path d="M0 0 C0.33 0.66 0.66 1.32 1 2 C1.66 2 2.32 2 3 2 C2.67 4.31 2.34 6.62 2 9 C1.01 9 0.02 9 -1 9 C-1.125 2.25 -1.125 2.25 0 0 Z " fill="#3E3E3E" transform="translate(105,218)"/>
<path d="M0 0 C2.375 0.25 2.375 0.25 5 1 C6.375 2.875 6.375 2.875 7 5 C6.67 5.99 6.34 6.98 6 8 C4.9970458 6.85675161 3.99770973 5.71032809 3 4.5625 C2.443125 3.92441406 1.88625 3.28632813 1.3125 2.62890625 C0 1 0 1 0 0 Z " fill="#222222" transform="translate(251,201)"/>
<path d="M0 0 C0.33 1.32 0.66 2.64 1 4 C0.34 4 -0.32 4 -1 4 C-1.33 6.31 -1.66 8.62 -2 11 C-3.65 10.67 -5.3 10.34 -7 10 C-6.67 9.34 -6.34 8.68 -6 8 C-5.34 8 -4.68 8 -4 8 C-2.68 5.36 -1.36 2.72 0 0 Z " fill="#595959" transform="translate(30,167)"/>
<path d="M0 0 C0.33 0 0.66 0 1 0 C1.05422947 1.4370809 1.09289723 2.87475462 1.125 4.3125 C1.14820313 5.11300781 1.17140625 5.91351563 1.1953125 6.73828125 C1 9 1 9 -1 12 C-1.66 12 -2.32 12 -3 12 C-2.01 8.04 -1.02 4.08 0 0 Z " fill="#171717" transform="translate(258,210)"/>
<path d="M0 0 C1.485 0.99 1.485 0.99 3 2 C3.1875 5.625 3.1875 5.625 3 9 C2.01 9.495 2.01 9.495 1 10 C0.34 9.34 -0.32 8.68 -1 8 C-0.96712417 5.27130593 -0.43602229 2.7033382 0 0 Z " fill="#4B4B4B" transform="translate(324,213)"/>
<path d="M0 0 C0.66 0 1.32 0 2 0 C2.33 2.97 2.66 5.94 3 9 C2.01 9 1.02 9 0 9 C0 6.03 0 3.06 0 0 Z " fill="#181818" transform="translate(146,211)"/>
<path d="M0 0 C0.33 0.99 0.66 1.98 1 3 C3.00016466 4.20882096 3.00016466 4.20882096 5 5 C5 5.99 5 6.98 5 8 C4.34 7.34 3.68 6.68 3 6 C2.01 6 1.02 6 0 6 C-0.66 4.35 -1.32 2.7 -2 1 C-1.34 0.67 -0.68 0.34 0 0 Z " fill="#454545" transform="translate(43,213)"/>
<path d="M0 0 C0.66 0 1.32 0 2 0 C1.34 3.63 0.68 7.26 0 11 C-0.66 11 -1.32 11 -2 11 C-1.85957123 9.35369672 -1.71250671 7.70795821 -1.5625 6.0625 C-1.48128906 5.14597656 -1.40007813 4.22945312 -1.31640625 3.28515625 C-1 1 -1 1 0 0 Z " fill="#161616" transform="translate(65,205)"/>
<path d="M0 0 C2.97 0 5.94 0 9 0 C9 0.66 9 1.32 9 2 C4.545 2.495 4.545 2.495 0 3 C0 2.01 0 1.02 0 0 Z " fill="#212121" transform="translate(38,211)"/>
<path d="M0 0 C1.45823212 -0.0270043 2.91660675 -0.04639787 4.375 -0.0625 C5.18710937 -0.07410156 5.99921875 -0.08570313 6.8359375 -0.09765625 C9 0 9 0 11 1 C11 1.99 11 2.98 11 4 C9.35 3.67 7.7 3.34 6 3 C6 2.34 6 1.68 6 1 C4.02 1 2.04 1 0 1 C0 0.67 0 0.34 0 0 Z " fill="#313131" transform="translate(314,199)"/>
<path d="M0 0 C3.375 -0.125 3.375 -0.125 7 0 C7.66 0.66 8.32 1.32 9 2 C8.625 4.125 8.625 4.125 8 6 C8 5.01 8 4.02 8 3 C5.36 3 2.72 3 0 3 C0 2.01 0 1.02 0 0 Z " fill="#616161" transform="translate(132,160)"/>
<path d="M0 0 C1.32 0.66 2.64 1.32 4 2 C3.67 2.66 3.34 3.32 3 4 C2.34 4 1.68 4 1 4 C0.87625 5.134375 0.7525 6.26875 0.625 7.4375 C0.41875 8.613125 0.2125 9.78875 0 11 C-0.99 11.495 -0.99 11.495 -2 12 C-1.34 8.04 -0.68 4.08 0 0 Z " fill="#A5A5A5" transform="translate(16,177)"/>
<path d="M0 0 C0.66 1.32 1.32 2.64 2 4 C1.34 4 0.68 4 0 4 C-0.99 6.97 -1.98 9.94 -3 13 C-4.08644535 8.6542186 -3.90680911 8.05039452 -2.0625 4.25 C-1.68222656 3.45078125 -1.30195313 2.6515625 -0.91015625 1.828125 C-0.60980469 1.22484375 -0.30945313 0.6215625 0 0 Z " fill="#565656" transform="translate(31,68)"/>
<path d="M0 0 C0.66 0 1.32 0 2 0 C3.17571451 3.67410785 3.07366746 7.16929183 3 11 C0.2441427 6.86621405 -0.10756445 4.94796454 0 0 Z " fill="#4E4E4E" transform="translate(139,41)"/>
<path d="M0 0 C0 0.33 0 0.66 0 1 C-0.61488281 1.12117187 -1.22976562 1.24234375 -1.86328125 1.3671875 C-2.67152344 1.53476563 -3.47976562 1.70234375 -4.3125 1.875 C-5.11300781 2.03742188 -5.91351563 2.19984375 -6.73828125 2.3671875 C-9.25301118 2.94478999 -9.25301118 2.94478999 -12 5 C-12 3.68 -12 2.36 -12 1 C-8.0186217 -0.3271261 -4.14954773 -0.06915913 0 0 Z " fill="#1C1C1C" transform="translate(164,199)"/>
<path d="M0 0 C0.33 0 0.66 0 1 0 C1.125 7.75 1.125 7.75 0 10 C-0.66 10 -1.32 10 -2 10 C-1.125 2.25 -1.125 2.25 0 0 Z " fill="#636363" transform="translate(218,83)"/>
<path d="M0 0 C1.44560748 4.56237823 0.40342867 7.49425532 -1 12 C-1.99 12.495 -1.99 12.495 -3 13 C-2.17812739 8.61667943 -1.09845718 4.32059823 0 0 Z " fill="#ABABAB" transform="translate(219,47)"/>
<path d="M0 0 C0.99 0 1.98 0 3 0 C3.33 1.65 3.66 3.3 4 5 C3.34 4.67 2.68 4.34 2 4 C1.34 5.65 0.68 7.3 0 9 C-1.15941038 5.52176885 -0.70820884 3.54104422 0 0 Z " fill="#A4A4A4" transform="translate(109,209)"/>
<path d="M0 0 C0.66 0.33 1.32 0.66 2 1 C0.79618552 3.49361571 -0.45428722 5.68143083 -2 8 C-2 7.34 -2 6.68 -2 6 C-2.99 6.33 -3.98 6.66 -5 7 C-3.70700306 4.11562221 -2.34058637 2.12780579 0 0 Z " fill="#555555" transform="translate(69,199)"/>
<path d="M0 0 C-1.20381448 2.49361571 -2.45428722 4.68143083 -4 7 C-4.66 7 -5.32 7 -6 7 C-5.37162381 3.35541809 -4.14650034 0 0 0 Z " fill="#1B1B1B" transform="translate(238,201)"/>
<path d="M0 0 C2.475 0.495 2.475 0.495 5 1 C5 1.99 5 2.98 5 4 C3.35 4 1.7 4 0 4 C0 2.68 0 1.36 0 0 Z " fill="#F8F8F8" transform="translate(269,178)"/>
<path d="M0 0 C-0.33 0.99 -0.66 1.98 -1 3 C-3.31 3.33 -5.62 3.66 -8 4 C-6 1 -6 1 -4 0.3125 C-2 0 -2 0 0 0 Z " fill="#181818" transform="translate(87,223)"/>
<path d="M0 0 C-3.53411321 2.12046792 -6.94393835 2.53199289 -11 3 C-8.21756596 -1.17365106 -4.53441502 -0.22300402 0 0 Z " fill="#BDBDBD" transform="translate(248,201)"/>
<path d="M0 0 C3.96 0 7.92 0 12 0 C11.67 0.66 11.34 1.32 11 2 C10.07767578 1.98259766 10.07767578 1.98259766 9.13671875 1.96484375 C7.92435547 1.95130859 7.92435547 1.95130859 6.6875 1.9375 C5.88699219 1.92589844 5.08648437 1.91429687 4.26171875 1.90234375 C1.83138666 1.90342145 1.83138666 1.90342145 -1 3 C-0.67 2.01 -0.34 1.02 0 0 Z " fill="#DDDDDD" transform="translate(163,185)"/>
<path d="M0 0 C0.66 0.33 1.32 0.66 2 1 C1.67 3.31 1.34 5.62 1 8 C0.34 8 -0.32 8 -1 8 C-1.04241723 5.66705225 -1.04092937 3.33297433 -1 1 C-0.67 0.67 -0.34 0.34 0 0 Z " fill="#1C1C1C" transform="translate(107,212)"/>
</svg>
