<svg xmlns="http://www.w3.org/2000/svg" height="380" viewBox="0 0 732 380" width="732">
<path d="M317.4,8l67.4,206.4l46.7-135.5h52.9l-99.8,293.4l-67.2-199.7l-43.6,128.4h-57.1L317.4,8z M189,270.9
        c-4.4,5.6-9.3,10.6-14.9,15c-5.5,4.4-11.6,8-18.1,10.8c-6.5,2.8-13.1,4.2-19.7,4.2H37.7c-6.1,0-11.5-1-16.2-2.9
        c-4.7-1.9-8.5-4.6-11.4-8c-2.9-3.4-4.6-7.4-5.2-12.1c-0.6-4.6,0.3-9.8,2.6-15.4l51.8-147.1c2.5-6.1,6.3-11.5,11.5-16.3
        C76,94.3,81.7,90.3,88,86.8c6.2-3.4,12.8-6,19.6-7.9c6.8-1.8,13.1-2.7,18.9-2.7h92.2c6.3,0,11.9,1,16.5,3.1c4.7,2.1,8.3,4.9,11,8.6
        c2.6,3.7,4.2,7.9,4.7,12.8c0.5,4.9-0.4,10.1-2.8,15.7l-48.9,137.2C196.8,259.6,193.4,265.3,189,270.9z M187.4,118.9h-69.7
        L67.3,262.7h69L187.4,118.9z M517.9,78.9h209.3L712,123.8H563.2L549.8,163l107.8-0.1l-16.9,49H532.9l-10.8,31.6l148.5-0.1l-19.6,57
        H442.1L517.9,78.9z"></path>
</svg>