<svg xmlns="http://www.w3.org/2000/svg" width="640" height="427" viewBox="0 0 640 427" version="1.1">
	<path d="M 144.097 167.585 C 132.326 169.998, 122.452 172.215, 122.156 172.511 C 121.860 172.807, 123.992 175.454, 126.894 178.392 L 132.170 183.735 120.171 242.117 C 113.572 274.228, 108.306 300.635, 108.469 300.799 C 108.632 300.964, 110.570 297.814, 112.777 293.799 C 119.376 281.792, 137.738 256.545, 165.196 221.727 C 173.338 211.401, 180 202.720, 180 202.434 C 180 202.149, 170.746 208.956, 159.436 217.561 C 148.126 226.165, 138.724 233.047, 138.542 232.853 C 138.361 232.659, 140.752 223.500, 143.856 212.500 L 149.500 192.500 150.119 205.286 C 150.460 212.318, 150.911 218.244, 151.121 218.455 C 151.410 218.743, 170.031 207.066, 171.828 205.469 C 172.229 205.112, 170.115 170.786, 169.413 166.250 C 168.794 162.257, 170.543 162.164, 144.097 167.585 M 285.500 165.685 C 281.660 166.178, 278 168.019, 278 169.457 C 278 170.072, 275.075 172.499, 271.500 174.849 C 264.645 179.356, 264.037 180.629, 266.490 185.333 C 267.303 186.891, 268.462 190.041, 269.065 192.333 C 271.135 200.192, 272.162 201.006, 279.863 200.889 C 287.156 200.778, 293 202.841, 293 205.526 C 293 206.721, 294.796 207, 302.500 207 L 312 207 312 200 L 312 193 298.500 193 L 285 193 285 186.621 L 285 180.242 299.466 179.519 C 313.259 178.829, 314.098 178.897, 317.466 180.979 L 321 183.163 321 174.717 L 321 166.272 316.360 165.636 C 311.549 164.976, 290.758 165.010, 285.500 165.685 M 327.007 165.705 C 327.010 166.142, 327.907 167.850, 329 169.500 C 330.874 172.329, 330.987 174.247, 330.993 203.191 C 330.997 220.071, 331.345 234.095, 331.768 234.356 C 332.190 234.617, 343.494 234.964, 356.887 235.127 L 381.239 235.423 383.620 232.656 C 385.855 230.057, 386 229.119, 386 217.273 C 386 207.370, 385.672 204.295, 384.475 202.972 C 383.108 201.462, 383.108 201.155, 384.475 200.021 C 386.611 198.248, 386.668 176.193, 384.547 172.091 C 382.303 167.751, 379.132 167.142, 355.500 166.509 C 343.400 166.185, 332.038 165.693, 330.250 165.415 C 328.462 165.137, 327.003 165.267, 327.007 165.705 M 264.719 166.615 C 264.381 166.953, 264.767 168.240, 265.576 169.476 C 267 171.650, 267.161 171.670, 270.492 170.112 C 275.354 167.836, 274.985 166, 269.667 166 C 267.283 166, 265.057 166.277, 264.719 166.615 M 242.387 167.725 C 238.492 168.082, 237.782 168.707, 228.934 179.581 L 219.594 191.060 209.547 181.109 L 199.500 171.157 189.500 172.148 C 176.121 173.474, 176.122 173.474, 179.341 176.834 L 182 179.609 182 211.434 L 182 243.258 190.126 242.549 C 194.595 242.160, 198.870 241.603, 199.626 241.313 C 200.730 240.890, 201 236.732, 201 220.163 L 201 199.540 210.291 208.792 L 219.583 218.045 222.168 215.272 C 223.590 213.748, 227.725 208.756, 231.356 204.180 L 237.958 195.860 238.229 216.180 L 238.500 236.500 240.466 233.250 C 241.547 231.463, 243.182 230, 244.101 230 C 245.019 230, 246.532 228.837, 247.463 227.416 C 248.394 225.996, 250.678 224.197, 252.538 223.419 C 255.186 222.313, 256.153 221.145, 256.988 218.045 C 257.574 215.867, 258.436 213.849, 258.902 213.560 C 260.915 212.316, 259.814 199.815, 257.375 196.221 C 256.069 194.296, 255 191.870, 255 190.829 C 255 188.430, 252.433 187.396, 250.487 189.011 C 248.178 190.927, 248.678 192.567, 252.988 197.207 C 257.470 202.033, 257.899 203.580, 255.009 204.497 C 252.728 205.221, 251 204.435, 251 202.673 C 251 202.008, 249.200 199.285, 247 196.623 C 242.161 190.767, 242.106 190.009, 246.250 186.290 C 249.971 182.949, 254 177.596, 254 175.992 C 254 175.393, 254.859 173.125, 255.909 170.952 L 257.819 167 252.159 167.175 C 249.047 167.271, 244.649 167.519, 242.387 167.725 M 392 168.096 C 392 168.445, 392.900 169.874, 394 171.273 C 395.903 173.692, 396 175.330, 396 204.939 C 396 228.966, 396.285 236.150, 397.250 236.447 C 397.938 236.659, 402.212 237.081, 406.750 237.385 L 415 237.937 415 224.469 L 415 211 418.750 211.009 C 420.813 211.013, 424.863 211.301, 427.750 211.648 L 433 212.279 433 225.964 L 433 239.649 442.250 240.732 C 447.337 241.327, 451.871 241.463, 452.324 241.033 C 452.777 240.604, 453.002 233.387, 452.824 224.996 C 452.514 210.386, 452.403 209.676, 450.213 208.224 L 447.926 206.707 450.049 204.448 C 452.014 202.356, 452.147 201.295, 451.836 190.172 C 451.445 176.172, 450.302 174.058, 441.750 171.519 C 435.086 169.539, 392 166.575, 392 168.096 M 456 172.597 C 456 172.898, 457.100 175.024, 458.445 177.322 C 460.885 181.492, 460.890 181.560, 460.973 211.445 C 461.019 227.914, 461.222 241.555, 461.424 241.757 C 461.626 241.960, 472.976 243.892, 486.646 246.051 C 500.316 248.210, 512.513 250.215, 513.750 250.507 C 515.931 251.022, 516 250.807, 516 243.519 C 516 238.182, 515.637 235.994, 514.750 235.979 C 514.063 235.967, 506.300 234.848, 497.500 233.492 C 488.700 232.137, 481.163 231.021, 480.750 231.014 C 480.337 231.006, 480 228.075, 480 224.500 C 480 219.950, 480.375 218.010, 481.250 218.032 C 481.938 218.049, 487.225 218.710, 493 219.500 C 507.919 221.541, 506.621 222.003, 507.403 214.374 C 507.776 210.730, 507.861 207.528, 507.591 207.258 C 507.322 206.988, 501.116 206.028, 493.800 205.124 L 480.500 203.480 480.202 196.650 L 479.905 189.820 482.702 190.377 C 484.241 190.684, 490.675 191.678, 497 192.587 C 505.527 193.813, 509.419 194.855, 512.054 196.620 C 517.033 199.954, 517 199.998, 517 190.045 L 517 181.091 513.750 180.528 C 511.962 180.219, 499.475 178.399, 486 176.484 C 472.525 174.570, 460.262 172.788, 458.750 172.526 C 457.238 172.264, 456 172.296, 456 172.597 M 349.429 180.324 C 349.134 181.094, 349.029 184.374, 349.196 187.612 L 349.500 193.500 359 193.500 L 368.500 193.500 368.500 186.500 L 368.500 179.500 359.233 179.212 C 352.015 178.988, 349.847 179.234, 349.429 180.324 M 84.500 184.667 C 51.171 192.217, 53.608 188.223, 53.188 236 C 53.016 255.525, 53.156 273.410, 53.498 275.745 C 54.226 280.707, 57.918 285.560, 61.484 286.242 C 63.520 286.631, 100.556 279.470, 107.340 277.376 C 109.083 276.838, 109.163 275.252, 108.840 247.486 C 108.653 231.360, 108.193 217.859, 107.818 217.484 C 107.444 217.110, 102.439 217.794, 96.696 219.005 C 88.669 220.698, 85.778 220.952, 84.193 220.103 C 83.059 219.497, 81.877 219, 81.566 219 C 81.255 219, 81.016 223.838, 81.036 229.750 L 81.072 240.500 83.324 237.750 C 84.562 236.238, 86.582 235, 87.813 235 C 90.046 235, 90.050 235.030, 89.775 250.650 L 89.500 266.301 85.506 267.682 C 83.310 268.442, 79.485 269.162, 77.006 269.282 L 72.500 269.500 72.237 235.883 C 72.032 209.740, 72.255 202.046, 73.237 201.275 C 73.932 200.730, 80.350 199.112, 87.500 197.680 L 100.500 195.077 102.223 197.116 C 103.171 198.237, 104.844 200.358, 105.941 201.828 L 107.937 204.500 107.968 192.250 C 107.997 181.212, 107.827 180.007, 106.250 180.068 C 105.287 180.106, 95.500 182.175, 84.500 184.667 M 415 189.441 C 415 197.097, 414.491 196.684, 424.500 197.138 L 432.500 197.500 432.500 191.045 C 432.500 183.549, 432.110 183.273, 421.250 183.100 L 415 183 415 189.441 M 522.493 183.841 C 521.151 185.182, 522.447 187.126, 527 190.598 L 532 194.411 532 233.123 L 532 271.835 527.500 273.553 C 523.920 274.920, 523 275.755, 523 277.636 C 523 278.936, 523.210 280, 523.467 280 C 523.723 280, 536.154 282.475, 551.090 285.500 C 582.517 291.865, 582.196 291.838, 584.927 288.365 C 586.947 285.798, 587 284.691, 586.998 245.115 C 586.997 200.704, 586.924 200.106, 581 195.843 C 578.521 194.058, 523.551 182.782, 522.493 183.841 M 550 237.363 L 550 271.726 558.250 273.364 C 562.788 274.265, 567.068 275.001, 567.763 275.001 C 568.761 275, 568.971 267.722, 568.763 240.301 L 568.500 205.601 562 204.362 C 558.425 203.681, 554.263 203.096, 552.750 203.062 L 550 203 550 237.363 M 350.198 207.836 C 349.296 208.423, 348.989 210.648, 349.198 215.091 L 349.500 221.500 359 221.500 L 368.500 221.500 368.500 214.500 L 368.500 207.500 360 207.245 C 355.325 207.105, 350.914 207.370, 350.198 207.836 M 275.617 210.998 L 268.734 211.500 264.537 219.500 L 260.339 227.500 254.183 229.500 C 250.797 230.600, 246.793 232.738, 245.286 234.250 L 242.545 237 245.523 236.984 C 247.160 236.975, 253.900 236.512, 260.500 235.953 C 267.100 235.395, 283.413 234.897, 296.750 234.847 L 321 234.756 321 227.878 L 321 221 310.647 221 C 289.678 221, 285.250 222.303, 289.661 227.177 C 292.611 230.438, 290.873 230.513, 282.295 227.496 C 282.182 227.456, 282.725 225.641, 283.501 223.462 C 285.287 218.448, 285.427 211.337, 283.750 210.855 C 283.063 210.658, 279.403 210.722, 275.617 210.998 M 162.140 232.647 C 154.388 242.525, 151.311 248, 153.511 248 C 154.502 248, 173.464 244.869, 173.660 244.673 C 174.225 244.108, 172.596 221, 171.991 221 C 171.600 221, 167.167 226.241, 162.140 232.647" stroke="none" fill="#FFFFFF" fill-rule="evenodd"/>
</svg>