<?xml version="1.0" encoding="UTF-8"?>
<svg version="1.1" xmlns="http://www.w3.org/2000/svg" width="421" height="237">
<path d="M0 0 C5.341875 -0.0825 10.68375 -0.165 16.1875 -0.25 C18.70346802 -0.30462402 18.70346802 -0.30462402 21.27026367 -0.36035156 C22.61115237 -0.37204237 23.95205534 -0.38223328 25.29296875 -0.390625 C25.97991821 -0.41108887 26.66686768 -0.43155273 27.37463379 -0.45263672 C30.97762825 -0.45523863 32.86801499 -0.08587801 35.91918945 1.89941406 C38.29609032 4.29890428 38.97830633 5.13360913 39.0625 8.49609375 C39.02088864 10.45442826 38.97922212 12.4127616 38.9375 14.37109375 C38.87393186 17.11111337 38.87393186 17.11111337 40 20 C40.06740865 21.56118428 40.08514456 23.1250252 40.0625 24.6875 C40.05347656 25.49574219 40.04445313 26.30398437 40.03515625 27.13671875 C40.02355469 27.75160156 40.01195312 28.36648437 40 29 C42.19968125 26.80031875 42.91180137 23.29739336 43.77734375 20.37890625 C45.33966295 16.06131486 47.43941696 12.15466874 49.625 8.125 C50.04523438 7.34125 50.46546875 6.5575 50.8984375 5.75 C51.9281022 3.83107943 52.96347567 1.91522397 54 0 C56.75236274 -0.16225719 59.49517476 -0.2809328 62.25 -0.375 C63.02730469 -0.42527344 63.80460937 -0.47554688 64.60546875 -0.52734375 C66.88548296 -0.58580565 68.78864035 -0.56911642 71 0 C73.546875 3.0234375 73.546875 3.0234375 75 6 C75.33 4.35 75.66 2.7 76 1 C76.33 1 76.66 1 77 1 C76.89558594 2.27230469 76.79117188 3.54460937 76.68359375 4.85546875 C76.68241605 10.86996214 79.18285057 15.16613857 82.0625 20.3125 C83.02247906 22.05270109 83.97220527 23.798609 84.91015625 25.55078125 C85.54642944 26.69027222 85.54642944 26.69027222 86.19555664 27.8527832 C87 30 87 30 86 34 C81.71 34 77.42 34 73 34 C72.67 33.01 72.34 32.02 72 31 C66.06 31 60.12 31 54 31 C53.67 31.99 53.34 32.98 53 34 C35.33333333 34 17.66666667 34 0 34 C0 22.78 0 11.56 0 0 Z M10 9 C10 9.33 10 9.66 10 10 C15.94 10 21.88 10 28 10 C28 9.67 28 9.34 28 9 C22.06 9 16.12 9 10 9 Z M10 12 C10 12.33 10 12.66 10 13 C15.94 13 21.88 13 28 13 C28 12.67 28 12.34 28 12 C22.06 12 16.12 12 10 12 Z M64 13 C65 15 65 15 65 15 Z M60 14 C61 16 61 16 61 16 Z M62 14 C61.67 15.32 61.34 16.64 61 18 C62.32 17.67 63.64 17.34 65 17 C64.01 16.01 63.02 15.02 62 14 Z M59 16 C60 18 60 18 60 18 Z M46 17 C47 19 47 19 47 19 Z M58 18 C58 18.66 58 19.32 58 20 C61.3 20 64.6 20 68 20 C68 19.67 68 19.34 68 19 C64.7 18.67 61.4 18.34 58 18 Z M10 21 C10 21.33 10 21.66 10 22 C15.94 22 21.88 22 28 22 C28 21.67 28 21.34 28 21 C22.06 21 16.12 21 10 21 Z M12 23 C12 23.33 12 23.66 12 24 C16.95 24 21.9 24 27 24 C27 23.67 27 23.34 27 23 C22.05 23 17.1 23 12 23 Z M10 25 C10 25.33 10 25.66 10 26 C15.94 26 21.88 26 28 26 C28 25.67 28 25.34 28 25 C22.06 25 16.12 25 10 25 Z M53 29 C53 29.33 53 29.66 53 30 C59.27 30 65.54 30 72 30 C72 29.67 72 29.34 72 29 C65.73 29 59.46 29 53 29 Z " fill="#181818" transform="translate(268,121)"/>
<path d="M0 0 C1.07185547 -0.01611328 2.14371094 -0.03222656 3.24804688 -0.04882812 C8.96279864 -0.05236667 13.12456379 0.10646638 18.0625 3.3125 C18.84625 3.704375 19.63 4.09625 20.4375 4.5 C20.97375 4.768125 21.51 5.03625 22.0625 5.3125 C22.660625 4.673125 23.25875 4.03375 23.875 3.375 C28.81134543 -1.27926855 35.9985087 0.08911029 42.375 0.0625 C43.59896484 0.041875 44.82292969 0.02125 46.08398438 0 C47.86192383 -0.00773437 47.86192383 -0.00773437 49.67578125 -0.015625 C50.75641846 -0.0249707 51.83705566 -0.03431641 52.95043945 -0.04394531 C56.52331868 0.36528068 58.95586763 1.54528023 62.0625 3.3125 C63.0525 2.3225 64.0425 1.3325 65.0625 0.3125 C65.0625 11.5325 65.0625 22.7525 65.0625 34.3125 C64.0725 32.9925 63.0825 31.6725 62.0625 30.3125 C61.32 30.951875 60.5775 31.59125 59.8125 32.25 C54.49260461 36.23992155 48.66624645 35.52888509 42.25 35.5625 C41.27740234 35.583125 40.30480469 35.60375 39.30273438 35.625 C31.86721251 35.66527365 27.30615057 34.47493371 21.0625 30.3125 C20.381875 30.76625 19.70125 31.22 19 31.6875 C12.60773965 35.22364402 6.71943833 35.63033828 -0.4375 35.5625 C-1.66146484 35.57410156 -1.66146484 35.57410156 -2.91015625 35.5859375 C-9.07457557 35.56614803 -15.74231968 34.96836763 -20.9375 31.3125 C-23.39131151 26.78910369 -23.17139753 22.4967212 -23.0625 17.5 C-23.05347656 16.71173828 -23.04445313 15.92347656 -23.03515625 15.11132812 C-23.01172504 13.17825334 -22.97585838 11.2453362 -22.9375 9.3125 C-22.2775 9.3125 -21.6175 9.3125 -20.9375 9.3125 C-20.9375 7.6625 -20.9375 6.0125 -20.9375 4.3125 C-13.69100158 0.55505638 -8.10741933 -0.02428825 0 0 Z M18.0625 5.3125 C19.0625 8.3125 19.0625 8.3125 19.0625 8.3125 Z M63.0625 6.3125 C63.0625 7.9625 63.0625 9.6125 63.0625 11.3125 C63.3925 11.3125 63.7225 11.3125 64.0625 11.3125 C64.0625 9.6625 64.0625 8.0125 64.0625 6.3125 C63.7325 6.3125 63.4025 6.3125 63.0625 6.3125 Z M19.0625 8.3125 C19.0625 15.2425 19.0625 22.1725 19.0625 29.3125 C21.12973714 26.21164429 21.30747423 25.58318319 21.2578125 22.08203125 C21.25136719 21.27958984 21.24492187 20.47714844 21.23828125 19.65039062 C21.21314453 18.40032227 21.21314453 18.40032227 21.1875 17.125 C21.17396484 15.8575293 21.17396484 15.8575293 21.16015625 14.56445312 C21.13660703 12.48034757 21.10073647 10.39638783 21.0625 8.3125 C20.4025 8.3125 19.7425 8.3125 19.0625 8.3125 Z M-5.9375 9.3125 C-5.9375 9.6425 -5.9375 9.9725 -5.9375 10.3125 C0.9925 10.8075 0.9925 10.8075 8.0625 11.3125 C6.1996051 9.01189466 6.1996051 9.01189466 3.2421875 9.1171875 C2.15164062 9.14039063 1.06109375 9.16359375 -0.0625 9.1875 C-1.70605469 9.21457031 -1.70605469 9.21457031 -3.3828125 9.2421875 C-4.22585937 9.26539063 -5.06890625 9.28859375 -5.9375 9.3125 Z M33.0625 11.3125 C38.0125 10.9825 42.9625 10.6525 48.0625 10.3125 C48.0625 9.9825 48.0625 9.6525 48.0625 9.3125 C46.31284642 9.25820041 44.56270213 9.21957177 42.8125 9.1875 C41.83796875 9.16429687 40.8634375 9.14109375 39.859375 9.1171875 C36.73690365 9.15544911 36.73690365 9.15544911 33.0625 11.3125 Z M48.0625 10.3125 C52.0625 11.3125 52.0625 11.3125 52.0625 11.3125 Z M-7.9375 12.3125 C-7.9375 15.9425 -7.9375 19.5725 -7.9375 23.3125 C-6.96167969 23.3125 -5.98585937 23.3125 -4.98046875 23.3125 C-0.29947917 23.3125 4.38151042 23.3125 9.0625 23.3125 C9.0625 22.6525 9.0625 21.9925 9.0625 21.3125 C12.3625 21.3125 15.6625 21.3125 19.0625 21.3125 C19.0625 18.6725 19.0625 16.0325 19.0625 13.3125 C5.54715216 11.03170807 5.54715216 11.03170807 -7.9375 12.3125 Z M39.75 11.75 C38.68136719 11.85183594 37.61273438 11.95367187 36.51171875 12.05859375 C35.70347656 12.14238281 34.89523438 12.22617188 34.0625 12.3125 C34.0625 15.9425 34.0625 19.5725 34.0625 23.3125 C39.6725 23.3125 45.2825 23.3125 51.0625 23.3125 C51.0625 19.6825 51.0625 16.0525 51.0625 12.3125 C46.73115037 11.44623007 44.03381602 11.32632589 39.75 11.75 Z M-9.9375 13.3125 C-9.9375 16.2825 -9.9375 19.2525 -9.9375 22.3125 C-9.6075 22.3125 -9.2775 22.3125 -8.9375 22.3125 C-8.9375 19.3425 -8.9375 16.3725 -8.9375 13.3125 C-9.2675 13.3125 -9.5975 13.3125 -9.9375 13.3125 Z M32.0625 13.3125 C32.0625 16.2825 32.0625 19.2525 32.0625 22.3125 C32.3925 22.3125 32.7225 22.3125 33.0625 22.3125 C33.0625 19.3425 33.0625 16.3725 33.0625 13.3125 C32.7325 13.3125 32.4025 13.3125 32.0625 13.3125 Z M52.0625 13.3125 C52.0625 15.9525 52.0625 18.5925 52.0625 21.3125 C52.3925 21.3125 52.7225 21.3125 53.0625 21.3125 C53.0625 18.6725 53.0625 16.0325 53.0625 13.3125 C52.7325 13.3125 52.4025 13.3125 52.0625 13.3125 Z M63.0625 23.3125 C63.0625 24.9625 63.0625 26.6125 63.0625 28.3125 C63.3925 28.3125 63.7225 28.3125 64.0625 28.3125 C64.0625 26.6625 64.0625 25.0125 64.0625 23.3125 C63.7325 23.3125 63.4025 23.3125 63.0625 23.3125 Z M-8.9375 24.3125 C-8.9375 24.6425 -8.9375 24.9725 -8.9375 25.3125 C-3.3275 25.3125 2.2825 25.3125 8.0625 25.3125 C8.0625 24.9825 8.0625 24.6525 8.0625 24.3125 C2.4525 24.3125 -3.1575 24.3125 -8.9375 24.3125 Z M33.0625 24.3125 C33.0625 24.6425 33.0625 24.9725 33.0625 25.3125 C39.0025 25.3125 44.9425 25.3125 51.0625 25.3125 C51.0625 24.9825 51.0625 24.6525 51.0625 24.3125 C45.1225 24.3125 39.1825 24.3125 33.0625 24.3125 Z M-20.9375 26.3125 C-19.9375 29.3125 -19.9375 29.3125 -19.9375 29.3125 Z " fill="#1C1C1C" transform="translate(145.9375,120.6875)"/>
<path d="M0 0 C4.29 0 8.58 0 13 0 C13 3.3 13 6.6 13 10 C14.216875 8.88625 15.43375 7.7725 16.6875 6.625 C19.66969467 4.00236071 22.14899103 2.16697242 26 1 C26.33 0.67 26.66 0.34 27 0 C29.35313555 -0.07271741 31.70833668 -0.08370868 34.0625 -0.0625 C35.35285156 -0.05347656 36.64320313 -0.04445313 37.97265625 -0.03515625 C38.97167969 -0.02355469 39.97070312 -0.01195313 41 0 C41.495 0.99 41.495 0.99 42 2 C41.34 2.33 40.68 2.66 40 3 C33.68021018 7.21319321 29.06637951 11.57163058 27 19 C28.55766862 20.44273385 30.12135957 21.87896708 31.6875 23.3125 C32.55761719 24.11300781 33.42773438 24.91351563 34.32421875 25.73828125 C38.6410293 29.58619144 38.6410293 29.58619144 44 31 C44.24492187 30.17242187 44.48984375 29.34484375 44.7421875 28.4921875 C46.19193489 24.46711244 48.0723051 20.86772286 50.125 17.125 C50.49753906 16.43664062 50.87007812 15.74828125 51.25390625 15.0390625 C52.16499526 13.35705202 53.08190315 11.67819564 54 10 C54.66 10 55.32 10 56 10 C58.03435531 6.27034861 59 4.33094958 59 0 C64.94 0 70.88 0 77 0 C78.58438593 2.99944817 80.16753454 5.99953881 81.75 9 C82.1934375 9.83917969 82.636875 10.67835937 83.09375 11.54296875 C83.53203125 12.37441406 83.9703125 13.20585938 84.421875 14.0625 C85.01887207 15.19365234 85.01887207 15.19365234 85.62792969 16.34765625 C87.45512118 19.87979297 89.22153895 23.4430779 91 27 C91.33 18.09 91.66 9.18 92 0 C92.33 0 92.66 0 93 0 C93.02465288 4.68139254 93.04283739 9.36274759 93.05493164 14.04418945 C93.05997157 15.63794614 93.0668035 17.23169819 93.07543945 18.82543945 C93.08751999 21.11150253 93.09323155 23.39750467 93.09765625 25.68359375 C93.10281754 26.40026718 93.10797882 27.11694061 93.11329651 27.85533142 C93.11349263 29.57063672 93.06192007 31.28581266 93 33 C91.06076948 34.93923052 87.63460405 34.21866472 85.0625 34.25 C83.79535156 34.27578125 82.52820313 34.3015625 81.22265625 34.328125 C80.15917969 34.21984375 79.09570312 34.1115625 78 34 C77.34 33.01 76.68 32.02 76 31 C73.2609515 30.69599244 70.79736367 30.58170401 68.0625 30.625 C67.33353516 30.61339844 66.60457031 30.60179688 65.85351562 30.58984375 C63.45181106 30.56719825 63.45181106 30.56719825 60 31 C59.5764624 31.4935498 59.1529248 31.98709961 58.71655273 32.49560547 C54.93398881 35.81066149 48.14734766 34.51586337 43.26660156 34.50097656 C41.00717192 34.50000309 38.75112749 34.54164456 36.4921875 34.5859375 C35.05729875 34.59114392 33.62239819 34.5938327 32.1875 34.59375 C30.88167969 34.60083984 29.57585937 34.60792969 28.23046875 34.61523438 C25 34 25 34 23.14453125 31.56176758 C22.76683594 30.71638428 22.38914063 29.87100098 22 29 C20.11773842 27.01480224 18.23684908 25.63103579 16 24 C15.01 24 14.02 24 13 24 C13 27.3 13 30.6 13 34 C8.71 34 4.42 34 0 34 C0 22.78 0 11.56 0 0 Z M11 11 C15 12 15 12 15 12 Z M69 12 C70 14 70 14 70 14 Z M68 14 C67.34 15.32 66.68 16.64 66 18 C67.32 18 68.64 18 70 18 C69.34 16.68 68.68 15.36 68 14 Z M71 16 C72 18 72 18 72 18 Z M72 18 C67.545 18.495 67.545 18.495 63 19 C63 19.33 63 19.66 63 20 C66.3 20 69.6 20 73 20 C72.67 19.34 72.34 18.68 72 18 Z M59 28 C59 28.33 59 28.66 59 29 C65.27 29.33 71.54 29.66 78 30 C78 29.34 78 28.68 78 28 C71.73 28 65.46 28 59 28 Z " fill="#191919" transform="translate(125,82)"/>
<path d="M0 0 C5.94 0 11.88 0 18 0 C18 24.42 18 48.84 18 74 C1.5 74 -15 74 -32 74 C-32 58 -32 58 -31 56 C-20.77 56 -10.54 56 0 56 C0 37.52 0 19.04 0 0 Z " fill="#151515" transform="translate(96,82)"/>
<path d="M0 0 C16.5 0 33 0 50 0 C50 16 50 16 49 18 C38.77 18 28.54 18 18 18 C18 36.15 18 54.3 18 73 C14.95017742 74.52491129 11.77877461 74.14361434 8.4375 74.125 C7.73947266 74.12886719 7.04144531 74.13273437 6.32226562 74.13671875 C1.12663994 74.12663994 1.12663994 74.12663994 0 73 C-0.09439978 70.73008113 -0.11742226 68.45718033 -0.11352539 66.18530273 C-0.11367142 65.47314606 -0.11381744 64.76098938 -0.1139679 64.0272522 C-0.1132687 61.66266888 -0.10547606 59.29816339 -0.09765625 56.93359375 C-0.09579209 55.29834537 -0.09436818 53.66309643 -0.09336853 52.02784729 C-0.08954318 47.71565215 -0.07971275 43.40349048 -0.06866455 39.09130859 C-0.05665627 33.9218032 -0.05204827 28.75228664 -0.04621124 23.5827713 C-0.036501 15.72182423 -0.01734458 7.86095065 0 0 Z " fill="#010101" transform="translate(40,82)"/>
<path d="M0 0 C5.94 0 11.88 0 18 0 C20.64 5.28 23.28 10.56 26 16 C28.50842402 11.11398302 28.50842402 11.11398302 30.99536133 6.21704102 C33.66666667 1.11111111 33.66666667 1.11111111 37 0 C42.28 0 47.56 0 53 0 C53 11.22 53 22.44 53 34 C49.37 34 45.74 34 42 34 C41.67 28.39 41.34 22.78 41 17 C41 22.61 41 28.22 41 34 C40.67 34 40.34 34 40 34 C39.505 28.555 39.505 28.555 39 23 C37.02 26.63 35.04 30.26 33 34 C22.375 34.125 22.375 34.125 19 33 C17.39453125 30.49609375 17.39453125 30.49609375 15.8125 27.4375 C15.28269531 26.42558594 14.75289062 25.41367188 14.20703125 24.37109375 C13.80871094 23.58863281 13.41039062 22.80617187 13 22 C12.67 25.96 12.34 29.92 12 34 C11.67 34 11.34 34 11 34 C11.00523682 33.42967041 11.01047363 32.85934082 11.01586914 32.27172852 C11.03658221 29.70199677 11.0496419 27.13228253 11.0625 24.5625 C11.07087891 23.66466797 11.07925781 22.76683594 11.08789062 21.84179688 C11.09111328 20.98779297 11.09433594 20.13378906 11.09765625 19.25390625 C11.10289307 18.46314697 11.10812988 17.6723877 11.11352539 16.85766602 C11.20495909 14.98407311 11.20495909 14.98407311 10 14 C10 20.6 10 27.2 10 34 C6.7 34 3.4 34 0 34 C0 22.78 0 11.56 0 0 Z M30 11 C31 13 31 13 31 13 Z M28 15 C29 17 29 17 29 17 Z M32 30 C33 32 33 32 33 32 Z " fill="#222222" transform="translate(212,121)"/>
<path d="M0 0 C8.2603125 -0.1546875 8.2603125 -0.1546875 16.6875 -0.3125 C19.28177856 -0.38078003 19.28177856 -0.38078003 21.9284668 -0.45043945 C23.31036442 -0.46505226 24.69228368 -0.47779106 26.07421875 -0.48828125 C26.78276001 -0.51386108 27.49130127 -0.53944092 28.22131348 -0.5657959 C32.12848773 -0.56921904 33.84074046 -0.12351007 36.96484375 2.29931641 C39.69310663 5.91976314 39.50990439 8.20861374 39.3125 12.6875 C39.28994141 13.36361328 39.26738281 14.03972656 39.24414062 14.73632812 C39.18300801 16.49170752 39.09340606 18.24604181 39 20 C38.8509288 22.0745356 38.8509288 22.0745356 40 24 C39.82949233 27.35515092 39.38532868 30.66048476 39 34 C34.71 34 30.42 34 26 34 C26 32.02 26 30.04 26 28 C21.71 28 17.42 28 13 28 C13 29.65 13 31.3 13 33 C11 34 11 34 0 34 C0 22.78 0 11.56 0 0 Z M11 9 C11 10.65 11 12.3 11 14 C16.28 14 21.56 14 27 14 C26.67 12.35 26.34 10.7 26 9 C21.05 9 16.1 9 11 9 Z M11 15 C11 15.33 11 15.66 11 16 C16.61 16 22.22 16 28 16 C28 15.67 28 15.34 28 15 C22.39 15 16.78 15 11 15 Z M10 26 C10 26.33 10 26.66 10 27 C15.94 27.33 21.88 27.66 28 28 C28 27.34 28 26.68 28 26 C22.06 26 16.12 26 10 26 Z " fill="#202020" transform="translate(219,82)"/>
<path d="M0 0 C11.55 0 23.1 0 35 0 C35 11 35 11 34 13 C33.80261277 15.10955062 33.80261277 15.10955062 33.8125 17.4375 C33.79832031 18.21996094 33.78414063 19.00242187 33.76953125 19.80859375 C33.85913936 22.29205987 33.85913936 22.29205987 36 25 C36 27.97 36 30.94 36 34 C24.12 34 12.24 34 0 34 C0 22.78 0 11.56 0 0 Z " fill="#292929" transform="translate(346,82)"/>
<path d="M0 0 C2.75236274 -0.16225719 5.49517476 -0.2809328 8.25 -0.375 C9.02730469 -0.42527344 9.80460937 -0.47554688 10.60546875 -0.52734375 C12.88548296 -0.58580565 14.78864035 -0.56911642 17 0 C19.546875 3.0234375 19.546875 3.0234375 21 6 C21.33 4.35 21.66 2.7 22 1 C22.33 1 22.66 1 23 1 C22.89558594 2.27230469 22.79117188 3.54460937 22.68359375 4.85546875 C22.68241605 10.86996214 25.18285057 15.16613857 28.0625 20.3125 C29.02247906 22.05270109 29.97220527 23.798609 30.91015625 25.55078125 C31.33433838 26.31044189 31.75852051 27.07010254 32.19555664 27.8527832 C33 30 33 30 32 34 C27.71 34 23.42 34 19 34 C18.67 33.01 18.34 32.02 18 31 C12.06 31 6.12 31 0 31 C-0.495 32.485 -0.495 32.485 -1 34 C-5.62 34 -10.24 34 -15 34 C-15.33 33.34 -15.66 32.68 -16 32 C-15.34 32 -14.68 32 -14 32 C-12.72826242 29.09317124 -11.86884812 26.40794293 -11.1796875 23.296875 C-10.09530328 18.87848935 -8.22580912 15.19355312 -6 11.25 C-5.29137953 9.96369981 -4.58303784 8.67724599 -3.875 7.390625 C-3.25625 6.27171875 -2.6375 5.1528125 -2 4 C-1.32320067 2.67178131 -0.65035814 1.34136367 0 0 Z M10 13 C11 15 11 15 11 15 Z M6 14 C7 16 7 16 7 16 Z M8 14 C7.67 15.32 7.34 16.64 7 18 C8.32 17.67 9.64 17.34 11 17 C10.01 16.01 9.02 15.02 8 14 Z M5 16 C6 18 6 18 6 18 Z M-8 17 C-7 19 -7 19 -7 19 Z M4 18 C4 18.66 4 19.32 4 20 C7.3 20 10.6 20 14 20 C14 19.67 14 19.34 14 19 C10.7 18.67 7.4 18.34 4 18 Z M-1 29 C-1 29.33 -1 29.66 -1 30 C5.27 30 11.54 30 18 30 C18 29.67 18 29.34 18 29 C11.73 29 5.46 29 -1 29 Z " fill="#222222" transform="translate(322,121)"/>
<path d="M0 0 C1.3096875 0.02449219 2.619375 0.04898438 3.96875 0.07421875 C5.2784375 0.07035156 6.588125 0.06648438 7.9375 0.0625 C11.46875 0.76171875 11.46875 0.76171875 13.8671875 3.1640625 C15.20076185 5.32705505 16.33464901 7.49351677 17.46875 9.76171875 C18.12875 10.09171875 18.78875 10.42171875 19.46875 10.76171875 C20.61376953 12.75537109 20.61376953 12.75537109 21.8515625 15.34765625 C22.29628906 16.27835938 22.74101562 17.2090625 23.19921875 18.16796875 C23.65941406 19.14765625 24.11960937 20.12734375 24.59375 21.13671875 C25.06167969 22.10867187 25.52960938 23.080625 26.01171875 24.08203125 C29.46875 31.37908847 29.46875 31.37908847 29.46875 34.76171875 C24.51875 34.76171875 19.56875 34.76171875 14.46875 34.76171875 C13.97375 32.78171875 13.97375 32.78171875 13.46875 30.76171875 C7.85875 30.76171875 2.24875 30.76171875 -3.53125 30.76171875 C-4.19125 32.08171875 -4.85125 33.40171875 -5.53125 34.76171875 C-9.82125 34.76171875 -14.11125 34.76171875 -18.53125 34.76171875 C-19.59275133 29.45421212 -19.52597462 28.89114293 -17.14453125 24.453125 C-16.61794922 23.45861328 -16.09136719 22.46410156 -15.54882812 21.43945312 C-14.98615234 20.41142578 -14.42347656 19.38339844 -13.84375 18.32421875 C-13.30041016 17.30005859 -12.75707031 16.27589844 -12.19726562 15.22070312 C-10.67678599 12.38014564 -9.10853638 9.57097637 -7.53125 6.76171875 C-7.19335449 6.09019775 -6.85545898 5.41867676 -6.50732422 4.72680664 C-4.69269569 1.4173447 -3.75399077 0.80976571 0 0 Z M4.46875 9.76171875 C5.46875 11.76171875 5.46875 11.76171875 5.46875 11.76171875 Z M4.46875 14.76171875 C3.80875 16.08171875 3.14875 17.40171875 2.46875 18.76171875 C4.11875 18.76171875 5.76875 18.76171875 7.46875 18.76171875 C6.47875 17.44171875 5.48875 16.12171875 4.46875 14.76171875 Z M-12.53125 18.76171875 C-11.53125 20.76171875 -11.53125 20.76171875 -11.53125 20.76171875 Z M-0.53125 19.76171875 C-0.53125 20.09171875 -0.53125 20.42171875 -0.53125 20.76171875 C3.09875 20.76171875 6.72875 20.76171875 10.46875 20.76171875 C10.46875 20.43171875 10.46875 20.10171875 10.46875 19.76171875 C6.83875 19.76171875 3.20875 19.76171875 -0.53125 19.76171875 Z M22.46875 21.76171875 C23.46875 23.76171875 23.46875 23.76171875 23.46875 23.76171875 Z M-4.53125 28.76171875 C-4.53125 29.09171875 -4.53125 29.42171875 -4.53125 29.76171875 C1.73875 29.76171875 8.00875 29.76171875 14.46875 29.76171875 C14.46875 29.43171875 14.46875 29.10171875 14.46875 28.76171875 C8.19875 28.76171875 1.92875 28.76171875 -4.53125 28.76171875 Z " fill="#1D1D1D" transform="translate(280.53125,81.23828125)"/>
<path d="M0 0 C1.08023438 -0.01611328 2.16046875 -0.03222656 3.2734375 -0.04882812 C4.31757813 -0.04947266 5.36171875 -0.05011719 6.4375 -0.05078125 C7.38496094 -0.05376221 8.33242187 -0.05674316 9.30859375 -0.05981445 C12.51527075 0.38377974 14.40646203 1.40128996 17 3.3125 C17.9523089 6.3588362 17.85976034 9.08698776 18 12.3125 C15.03 12.3125 12.06 12.3125 9 12.3125 C9 11.6525 9 10.9925 9 10.3125 C2.4 10.3125 -4.2 10.3125 -11 10.3125 C-11 14.9325 -11 19.5525 -11 24.3125 C-4.4 24.3125 2.2 24.3125 9 24.3125 C9.33 23.6525 9.66 22.9925 10 22.3125 C12.64 22.3125 15.28 22.3125 18 22.3125 C17.9129995 23.93850941 17.8048219 25.56339678 17.6875 27.1875 C17.60048828 28.54488281 17.60048828 28.54488281 17.51171875 29.9296875 C17 32.3125 17 32.3125 14 34.3125 C9.30847553 35.681588 4.47089316 35.49624931 -0.375 35.5 C-1.2 35.51224609 -2.025 35.52449219 -2.875 35.53710938 C-9.09312735 35.55191444 -15.7510399 35.00621266 -21 31.3125 C-23.45381151 26.78910369 -23.23389753 22.4967212 -23.125 17.5 C-23.11597656 16.71173828 -23.10695313 15.92347656 -23.09765625 15.11132812 C-23.07422504 13.17825334 -23.03835838 11.2453362 -23 9.3125 C-22.34 9.3125 -21.68 9.3125 -21 9.3125 C-21 7.6625 -21 6.0125 -21 4.3125 C-13.73442205 0.54516329 -8.12913406 -0.02425159 0 0 Z M-21 26.3125 C-20 29.3125 -20 29.3125 -20 29.3125 Z " fill="#1A1A1A" transform="translate(146,120.6875)"/>
<path d="M0 0 C12.21 0 24.42 0 37 0 C37 3.3 37 6.6 37 10 C33.37 10 29.74 10 26 10 C26 17.92 26 25.84 26 34 C21.05 34 16.1 34 11 34 C11 26.08 11 18.16 11 10 C7.37 10 3.74 10 0 10 C0 6.7 0 3.4 0 0 Z " fill="#030303" transform="translate(305,82)"/>
<path d="M0 0 C11.88 0 23.76 0 36 0 C36 10 36 10 35 12 C32.69 12 30.38 12 28 12 C28 18.93 28 25.86 28 33 C27.67 33 27.34 33 27 33 C27 26.07 27 19.14 27 12 C26.34 12 25.68 12 25 12 C25 19.26 25 26.52 25 34 C21.04 34 17.08 34 13 34 C13 26.74 13 19.48 13 12 C9.04 12 5.08 12 1 12 C0 10 0 10 0 0 Z " fill="#1E1E1E" transform="translate(346,121)"/>
<path d="M0 0 C16.5 0 33 0 50 0 C50 16 50 16 49 18 C38.77 18 28.54 18 18 18 C18 36.15 18 54.3 18 73 C14.95017742 74.52491129 11.77877461 74.14361434 8.4375 74.125 C7.73947266 74.12886719 7.04144531 74.13273437 6.32226562 74.13671875 C1.12663994 74.12663994 1.12663994 74.12663994 0 73 C-0.09439978 70.73008113 -0.11742226 68.45718033 -0.11352539 66.18530273 C-0.11367142 65.47314606 -0.11381744 64.76098938 -0.1139679 64.0272522 C-0.1132687 61.66266888 -0.10547606 59.29816339 -0.09765625 56.93359375 C-0.09579209 55.29834537 -0.09436818 53.66309643 -0.09336853 52.02784729 C-0.08954318 47.71565215 -0.07971275 43.40349048 -0.06866455 39.09130859 C-0.05665627 33.9218032 -0.05204827 28.75228664 -0.04621124 23.5827713 C-0.036501 15.72182423 -0.01734458 7.86095065 0 0 Z M2 1 C2 24.43 2 47.86 2 72 C6.29 72 10.58 72 15 72 C15 53.85 15 35.7 15 17 C17.94412027 15.52793987 20.96285915 15.76192808 24.1953125 15.68359375 C24.90275604 15.66281265 25.61019958 15.64203156 26.33908081 15.62062073 C28.60095425 15.55518922 30.86294462 15.49627026 33.125 15.4375 C34.65756422 15.39430867 36.19011657 15.35069418 37.72265625 15.30664062 C41.48165268 15.19871711 45.24073675 15.09959717 49 15 C49 10.38 49 5.76 49 1 C33.49 1 17.98 1 2 1 Z " fill="#4F4F4F" transform="translate(40,82)"/>
<path d="M0 0 C12.21 0 24.42 0 37 0 C37 3.3 37 6.6 37 10 C33.37 10 29.74 10 26 10 C26 17.92 26 25.84 26 34 C25.01 34 24.02 34 23 34 C23 25.42 23 16.84 23 8 C27.29 8 31.58 8 36 8 C36 5.69 36 3.38 36 1 C24.45 1 12.9 1 1 1 C1 3.31 1 5.62 1 8 C5.29 8 9.58 8 14 8 C14 16.58 14 25.16 14 34 C13.01 34 12.02 34 11 34 C11 26.08 11 18.16 11 10 C7.37 10 3.74 10 0 10 C0 6.7 0 3.4 0 0 Z " fill="#838383" transform="translate(305,82)"/>
<path d="M0 0 C11.22 0 22.44 0 34 0 C33.67 0.99 33.34 1.98 33 3 C22.77 3 12.54 3 2 3 C2 21.15 2 39.3 2 58 C-1.06533164 59.53266582 -4.26754272 59.10276471 -7.625 59.0625 C-8.33140625 59.05798828 -9.0378125 59.05347656 -9.765625 59.04882812 C-11.51045275 59.03703875 -13.255237 59.01910324 -15 59 C-15 58.67 -15 58.34 -15 58 C-10.38 58 -5.76 58 -1 58 C-1.00785522 55.47110107 -1.00785522 55.47110107 -1.01586914 52.89111328 C-1.03197995 47.32712821 -1.04347831 41.76314649 -1.05181217 36.19914436 C-1.05703565 32.82496974 -1.06412361 29.45082029 -1.07543945 26.07666016 C-1.08752436 22.19953741 -1.09323263 18.3224506 -1.09765625 14.4453125 C-1.10281754 13.23070343 -1.10797882 12.01609436 -1.11329651 10.76467896 C-1.11337204 9.64366791 -1.11344757 8.52265686 -1.11352539 7.36767578 C-1.115746 6.37728302 -1.11796661 5.38689026 -1.12025452 4.3664856 C-1 2 -1 2 0 0 Z " fill="#828282" transform="translate(56,97)"/>
<path d="M0 0 C0.66 0.33 1.32 0.66 2 1 C1.18144531 1.92941406 0.36289063 2.85882813 -0.48046875 3.81640625 C-3.92567713 8.63969798 -3.56715011 13.20591373 -3.3125 18.9375 C-3.27866211 20.3925293 -3.27866211 20.3925293 -3.24414062 21.87695312 C-3.18561887 24.25293654 -3.10370509 26.62563198 -3 29 C-4.65 29.66 -6.3 30.32 -8 31 C-8.95024979 27.30458414 -8.95024979 24.69541586 -8 21 C-10.64 21 -13.28 21 -16 21 C-16.33 21.99 -16.66 22.98 -17 24 C-23.6 23.67 -30.2 23.34 -37 23 C-37 18.38 -37 13.76 -37 9 C-30.4 9 -23.8 9 -17 9 C-17 9.66 -17 10.32 -17 11 C-14.03 11 -11.06 11 -8 11 C-8.33 8.36 -8.66 5.72 -9 3 C-7 3 -5 3 -3 3 C-1.31201173 1.56249809 -1.31201173 1.56249809 0 0 Z M-8 4 C-7 7 -7 7 -7 7 Z M-7 7 C-7 13.93 -7 20.86 -7 28 C-4.93276286 24.89914429 -4.75502577 24.27068319 -4.8046875 20.76953125 C-4.81113281 19.96708984 -4.81757813 19.16464844 -4.82421875 18.33789062 C-4.84935547 17.08782227 -4.84935547 17.08782227 -4.875 15.8125 C-4.88853516 14.5450293 -4.88853516 14.5450293 -4.90234375 13.25195312 C-4.92589297 11.16784757 -4.96176353 9.08388783 -5 7 C-5.66 7 -6.32 7 -7 7 Z M-34 11 C-34 14.63 -34 18.26 -34 22 C-33.02417969 22 -32.04835937 22 -31.04296875 22 C-26.36197917 22 -21.68098958 22 -17 22 C-17 21.34 -17 20.68 -17 20 C-13.7 20 -10.4 20 -7 20 C-7 17.36 -7 14.72 -7 12 C-20.51534784 9.71920807 -20.51534784 9.71920807 -34 11 Z M-36 12 C-36 14.97 -36 17.94 -36 21 C-35.67 21 -35.34 21 -35 21 C-35 18.03 -35 15.06 -35 12 C-35.33 12 -35.66 12 -36 12 Z " fill="#4C4C4C" transform="translate(172,122)"/>
<path d="M0 0 C4.29 0 8.58 0 13 0 C13 3.3 13 6.6 13 10 C13.54269531 9.4946875 14.08539063 8.989375 14.64453125 8.46875 C15.71767578 7.49421875 15.71767578 7.49421875 16.8125 6.5 C17.52019531 5.8503125 18.22789062 5.200625 18.95703125 4.53125 C21 3 21 3 24 3 C22.69791667 4.49739583 21.39583333 5.99479167 20.09375 7.4921875 C18.80427542 8.95936421 18.80427542 8.95936421 19 11 C18.34 11 17.68 11 17 11 C17 11.66 17 12.32 17 13 C14.69 13 12.38 13 10 13 C10 9.04 10 5.08 10 1 C7.03 1 4.06 1 1 1 C1 11.56 1 22.12 1 33 C3.97 33 6.94 33 10 33 C10 28.71 10 24.42 10 20 C11.65 20 13.3 20 15 20 C15.33 21.32 15.66 22.64 16 24 C15.01 24 14.02 24 13 24 C13 27.3 13 30.6 13 34 C8.71 34 4.42 34 0 34 C0 22.78 0 11.56 0 0 Z M11 11 C15 12 15 12 15 12 Z " fill="#6D6D6D" transform="translate(125,82)"/>
<path d="M0 0 C0.33 0 0.66 0 1 0 C1 24.09 1 48.18 1 73 C0.67 73 0.34 73 0 73 C0 48.91 0 24.82 0 0 Z " fill="#010101" transform="translate(115,82)"/>
<path d="M0 0 C0.33 0 0.66 0 1 0 C1 24.09 1 48.18 1 73 C0.67 73 0.34 73 0 73 C0 48.91 0 24.82 0 0 Z " fill="#7F7F7F" transform="translate(38,82)"/>
<path d="M0 0 C0.66 0.33 1.32 0.66 2 1 C1.18144531 1.92941406 0.36289063 2.85882813 -0.48046875 3.81640625 C-3.92567713 8.63969798 -3.56715011 13.20591373 -3.3125 18.9375 C-3.28994141 19.90751953 -3.26738281 20.87753906 -3.24414062 21.87695312 C-3.18561887 24.25293654 -3.10370509 26.62563198 -3 29 C-4.65 29.66 -6.3 30.32 -8 31 C-8.625 28.625 -8.625 28.625 -9 26 C-8.34 25.34 -7.68 24.68 -7 24 C-6.67 24.33 -6.34 24.66 -6 25 C-5.505 16.09 -5.505 16.09 -5 7 C-6.32 7 -7.64 7 -9 7 C-8.67 5.35 -8.34 3.7 -8 2 C-6.68 2.66 -5.36 3.32 -4 4 C-2.68 2.68 -1.36 1.36 0 0 Z " fill="#5B5B5B" transform="translate(172,122)"/>
<path d="M0 0 C16.17 0 32.34 0 49 0 C49 0.33 49 0.66 49 1 C32.83 1 16.66 1 0 1 C0 0.67 0 0.34 0 0 Z " fill="#FFFFFF" transform="translate(65,157)"/>
<path d="M0 0 C16.17 0 32.34 0 49 0 C49 0.33 49 0.66 49 1 C32.83 1 16.66 1 0 1 C0 0.67 0 0.34 0 0 Z " fill="#000000" transform="translate(41,80)"/>
<path d="M0 0 C1.65 0 3.3 0 5 0 C5.33 1.32 5.66 2.64 6 4 C5.01 4 4.02 4 3 4 C3 7.3 3 10.6 3 14 C-0.96 14 -4.92 14 -9 14 C-9 13.67 -9 13.34 -9 13 C-6.03 13 -3.06 13 0 13 C0 8.71 0 4.42 0 0 Z " fill="#414141" transform="translate(135,102)"/>
<path d="M0 0 C2.31 0.33 4.62 0.66 7 1 C7 1.66 7 2.32 7 3 C10.3 3 13.6 3 17 3 C17 3.33 17 3.66 17 4 C7.76 4 -1.48 4 -11 4 C-11 3.67 -11 3.34 -11 3 C-5.555 2.505 -5.555 2.505 0 2 C0 1.34 0 0.68 0 0 Z " fill="#636363" transform="translate(164,112)"/>
<path d="M0 0 C12.21 0 24.42 0 37 0 C37 0.33 37 0.66 37 1 C24.79 1 12.58 1 0 1 C0 0.67 0 0.34 0 0 Z " fill="#000000" transform="translate(305,80)"/>
<path d="M0 0 C11.88 0 23.76 0 36 0 C36 0.33 36 0.66 36 1 C24.12 1 12.24 1 0 1 C0 0.67 0 0.34 0 0 Z " fill="#070707" transform="translate(268,156)"/>
<path d="M0 0 C11.55 0 23.1 0 35 0 C35 0.33 35 0.66 35 1 C23.45 1 11.9 1 0 1 C0 0.67 0 0.34 0 0 Z " fill="#3E3E3E" transform="translate(346,117)"/>
<path d="M0 0 C0.33 0 0.66 0 1 0 C1 11.22 1 22.44 1 34 C0.67 34 0.34 34 0 34 C0 22.78 0 11.56 0 0 Z " fill="#000000" transform="translate(266,121)"/>
<path d="M0 0 C11.22 0 22.44 0 34 0 C34 0.33 34 0.66 34 1 C22.78 1 11.56 1 0 1 C0 0.67 0 0.34 0 0 Z " fill="#7F7F7F" transform="translate(347,119)"/>
<path d="M0 0 C0.33 0 0.66 0 1 0 C1 11.22 1 22.44 1 34 C0.67 34 0.34 34 0 34 C0 22.78 0 11.56 0 0 Z " fill="#8E8E8E" transform="translate(344,82)"/>
<path d="M0 0 C0.33 0 0.66 0 1 0 C1 11.22 1 22.44 1 34 C0.67 34 0.34 34 0 34 C0 22.78 0 11.56 0 0 Z " fill="#7F7F7F" transform="translate(123,82)"/>
<path d="M0 0 C11.22 0 22.44 0 34 0 C34 0.33 34 0.66 34 1 C22.78 1 11.56 1 0 1 C0 0.67 0 0.34 0 0 Z " fill="#000000" transform="translate(347,80)"/>
<path d="M0 0 C11.22 0 22.44 0 34 0 C34 0.33 34 0.66 34 1 C22.78 1 11.56 1 0 1 C0 0.67 0 0.34 0 0 Z " fill="#070707" transform="translate(219,80)"/>
<path d="M0 0 C10.89 0 21.78 0 33 0 C33 0.33 33 0.66 33 1 C22.11 1 11.22 1 0 1 C0 0.67 0 0.34 0 0 Z " fill="#828282" transform="translate(268,119)"/>
<path d="M0 0 C3.96 0.33 7.92 0.66 12 1 C12 1.66 12 2.32 12 3 C7.71 3 3.42 3 -1 3 C-0.67 2.01 -0.34 1.02 0 0 Z " fill="#787878" transform="translate(325,140)"/>
<path d="M0 0 C8.91 0 17.82 0 27 0 C27 0.33 27 0.66 27 1 C18.09 1 9.18 1 0 1 C0 0.67 0 0.34 0 0 Z " fill="#4D4D4D" transform="translate(175,119)"/>
<path d="M0 0 C7.92 0 15.84 0 24 0 C24 0.33 24 0.66 24 1 C16.08 1 8.16 1 0 1 C0 0.67 0 0.34 0 0 Z " fill="#5A5A5A" transform="translate(134,119)"/>
<path d="M0 0 C7.26 0 14.52 0 22 0 C22 0.33 22 0.66 22 1 C14.74 1 7.48 1 0 1 C0 0.67 0 0.34 0 0 Z " fill="#878787" transform="translate(177,157)"/>
<path d="M0 0 C5.94 0 11.88 0 18 0 C18 0.33 18 0.66 18 1 C12.06 1 6.12 1 0 1 C0 0.67 0 0.34 0 0 Z " fill="#B0B0B0" transform="translate(137,157)"/>
<path d="M0 0 C0.66 0.33 1.32 0.66 2 1 C-0.475 4.465 -0.475 4.465 -3 8 C-3.33 6.68 -3.66 5.36 -4 4 C-2.0625 1.75 -2.0625 1.75 0 0 Z " fill="#404040" transform="translate(172,122)"/>
<path d="M0 0 C5.28 0 10.56 0 16 0 C16 0.33 16 0.66 16 1 C10.72 1 5.44 1 0 1 C0 0.67 0 0.34 0 0 Z " fill="#6F6F6F" transform="translate(212,119)"/>
<path d="M0 0 C0.33 0 0.66 0 1 0 C1 4.95 1 9.9 1 15 C0.67 15 0.34 15 0 15 C0 10.05 0 5.1 0 0 Z " fill="#FFFFFF" transform="translate(62,140)"/>
<path d="M0 0 C4.95 0 9.9 0 15 0 C15 0.33 15 0.66 15 1 C10.05 1 5.1 1 0 1 C0 0.67 0 0.34 0 0 Z " fill="#7F7F7F" transform="translate(249,119)"/>
<path d="M0 0 C0.33 0 0.66 0 1 0 C1 4.95 1 9.9 1 15 C0.67 15 0.34 15 0 15 C0 10.05 0 5.1 0 0 Z " fill="#080808" transform="translate(91,82)"/>
<path d="M0 0 C4.95 0 9.9 0 15 0 C15 0.33 15 0.66 15 1 C10.05 1 5.1 1 0 1 C0 0.67 0 0.34 0 0 Z " fill="#000000" transform="translate(99,80)"/>
<path d="M0 0 C4.62 0 9.24 0 14 0 C14 0.33 14 0.66 14 1 C9.38 1 4.76 1 0 1 C0 0.67 0 0.34 0 0 Z " fill="#FFFFFF" transform="translate(41,157)"/>
<path d="M0 0 C4.62 0 9.24 0 14 0 C14 0.33 14 0.66 14 1 C9.38 1 4.76 1 0 1 C0 0.67 0 0.34 0 0 Z " fill="#454545" transform="translate(153,117)"/>
<path d="M0 0 C4.62 0 9.24 0 14 0 C14 0.33 14 0.66 14 1 C9.38 1 4.76 1 0 1 C0 0.67 0 0.34 0 0 Z " fill="#000000" transform="translate(186,80)"/>
<path d="M0 0 C4.29 0 8.58 0 13 0 C13 0.33 13 0.66 13 1 C8.71 1 4.42 1 0 1 C0 0.67 0 0.34 0 0 Z " fill="#888888" transform="translate(324,119)"/>
<path d="M0 0 C0.33 0 0.66 0 1 0 C1.33 3.3 1.66 6.6 2 10 C1.34 10 0.68 10 0 10 C0 6.7 0 3.4 0 0 Z " fill="#272727" transform="translate(259,106)"/>
<path d="M0 0 C0.33 0 0.66 0 1 0 C1 4.29 1 8.58 1 13 C0.67 13 0.34 13 0 13 C0 8.71 0 4.42 0 0 Z " fill="#131313" transform="translate(259,87)"/>
<path d="M0 0 C4.29 0 8.58 0 13 0 C13 0.33 13 0.66 13 1 C8.71 1 4.42 1 0 1 C0 0.67 0 0.34 0 0 Z " fill="#000000" transform="translate(279,80)"/>
<path d="M0 0 C4.29 0 8.58 0 13 0 C13 0.33 13 0.66 13 1 C8.71 1 4.42 1 0 1 C0 0.67 0 0.34 0 0 Z " fill="#000000" transform="translate(152,80)"/>
<path d="M0 0 C3.96 0 7.92 0 12 0 C12 0.33 12 0.66 12 1 C8.04 1 4.08 1 0 1 C0 0.67 0 0.34 0 0 Z " fill="#383838" transform="translate(297,117)"/>
<path d="M0 0 C3.63 0 7.26 0 11 0 C11 0.33 11 0.66 11 1 C7.37 1 3.74 1 0 1 C0 0.67 0 0.34 0 0 Z " fill="#000000" transform="translate(308,156)"/>
<path d="M0 0 C3.63 0 7.26 0 11 0 C11 0.33 11 0.66 11 1 C7.37 1 3.74 1 0 1 C0 0.67 0 0.34 0 0 Z " fill="#4C4C4C" transform="translate(318,117)"/>
<path d="M0 0 C3.63 0 7.26 0 11 0 C11 0.33 11 0.66 11 1 C7.37 1 3.74 1 0 1 C0 0.67 0 0.34 0 0 Z " fill="#464646" transform="translate(262,117)"/>
<path d="M0 0 C3.63 0 7.26 0 11 0 C11 0.33 11 0.66 11 1 C7.37 1 3.74 1 0 1 C0 0.67 0 0.34 0 0 Z " fill="#525252" transform="translate(205,117)"/>
<path d="M0 0 C3.63 0 7.26 0 11 0 C11 0.33 11 0.66 11 1 C7.37 1 3.74 1 0 1 C0 0.67 0 0.34 0 0 Z " fill="#464646" transform="translate(170,117)"/>
<path d="M0 0 C3.3 0 6.6 0 10 0 C10 0.33 10 0.66 10 1 C6.7 1 3.4 1 0 1 C0 0.67 0 0.34 0 0 Z " fill="#000000" transform="translate(361,156)"/>
<path d="M0 0 C3.3 0 6.6 0 10 0 C10 0.33 10 0.66 10 1 C6.7 1 3.4 1 0 1 C0 0.67 0 0.34 0 0 Z " fill="#000000" transform="translate(343,156)"/>
<path d="M0 0 C3.3 0 6.6 0 10 0 C10 0.33 10 0.66 10 1 C6.7 1 3.4 1 0 1 C0 0.67 0 0.34 0 0 Z " fill="#000000" transform="translate(212,156)"/>
<path d="M0 0 C3.3 0 6.6 0 10 0 C10 0.33 10 0.66 10 1 C6.7 1 3.4 1 0 1 C0 0.67 0 0.34 0 0 Z " fill="#545454" transform="translate(248,117)"/>
<path d="M0 0 C3.3 0 6.6 0 10 0 C10 0.33 10 0.66 10 1 C6.7 1 3.4 1 0 1 C0 0.67 0 0.34 0 0 Z " fill="#545454" transform="translate(219,117)"/>
<path d="M0 0 C3.3 0 6.6 0 10 0 C10 0.33 10 0.66 10 1 C6.7 1 3.4 1 0 1 C0 0.67 0 0.34 0 0 Z " fill="#545454" transform="translate(126,117)"/>
<path d="M0 0 C3.3 0 6.6 0 10 0 C10 0.33 10 0.66 10 1 C6.7 1 3.4 1 0 1 C0 0.67 0 0.34 0 0 Z " fill="#000000" transform="translate(126,80)"/>
<path d="M0 0 C2.97 0 5.94 0 9 0 C9 0.33 9 0.66 9 1 C6.03 1 3.06 1 0 1 C0 0.67 0 0.34 0 0 Z " fill="#000000" transform="translate(255,156)"/>
<path d="M0 0 C2.97 0 5.94 0 9 0 C9 0.33 9 0.66 9 1 C6.03 1 3.06 1 0 1 C0 0.67 0 0.34 0 0 Z " fill="#000000" transform="translate(234,156)"/>
<path d="M0 0 C0.99 1.485 0.99 1.485 2 3 C1.34 4.32 0.68 5.64 0 7 C0 4.69 0 2.38 0 0 Z " fill="#2F2F2F" transform="translate(309,141)"/>
<path d="M0 0 C2.97 0 5.94 0 9 0 C9 0.33 9 0.66 9 1 C6.03 1 3.06 1 0 1 C0 0.67 0 0.34 0 0 Z " fill="#000000" transform="translate(155,135)"/>
<path d="M0 0 C0.33 0 0.66 0 1 0 C1 2.97 1 5.94 1 9 C0.67 9 0.34 9 0 9 C0 6.03 0 3.06 0 0 Z " fill="#656565" transform="translate(303,82)"/>
<path d="M0 0 C0.33 0 0.66 0 1 0 C1 2.64 1 5.28 1 8 C0.67 8 0.34 8 0 8 C0 5.36 0 2.72 0 0 Z " fill="#FFFFFF" transform="translate(383,122)"/>
<path d="M0 0 C0.33 0 0.66 0 1 0 C1 2.64 1 5.28 1 8 C0.67 8 0.34 8 0 8 C0 5.36 0 2.72 0 0 Z " fill="#FFFFFF" transform="translate(383,108)"/>
<path d="M0 0 C0.33 0 0.66 0 1 0 C1 2.64 1 5.28 1 8 C0.67 8 0.34 8 0 8 C0 5.36 0 2.72 0 0 Z " fill="#1F1F1F" transform="translate(381,95)"/>
<path d="M0 0 C0.33 0 0.66 0 1 0 C1 2.64 1 5.28 1 8 C0.67 8 0.34 8 0 8 C0 5.36 0 2.72 0 0 Z " fill="#000000" transform="translate(382,82)"/>
<path d="M0 0 C0.66 0.33 1.32 0.66 2 1 C1 2 1 2 -1.5625 2.0625 C-2.7690625 2.0315625 -2.7690625 2.0315625 -4 2 C-2.125 0.9375 -2.125 0.9375 0 0 Z " fill="#121212" transform="translate(203,155)"/>
<path d="M0 0 C2.97 0.495 2.97 0.495 6 1 C6 1.33 6 1.66 6 2 C4.35 2 2.7 2 1 2 C0.67 1.34 0.34 0.68 0 0 Z " fill="#242424" transform="translate(171,155)"/>
<path d="M0 0 C0.33 0 0.66 0 1 0 C1 1.98 1 3.96 1 6 C0.67 6 0.34 6 0 6 C0 4.02 0 2.04 0 0 Z " fill="#7F7F7F" transform="translate(308,128)"/>
<path d="M0 0 C1.98 0.99 1.98 0.99 4 2 C3.01 2 2.02 2 1 2 C0.67 1.34 0.34 0.68 0 0 Z " fill="#555555" transform="translate(153,101)"/>
<path d="M0 0 C1.65 0 3.3 0 5 0 C5 0.33 5 0.66 5 1 C3.35 1 1.7 1 0 1 C0 0.67 0 0.34 0 0 Z " fill="#191919" transform="translate(155,156)"/>
<path d="M0 0 C1.65 0 3.3 0 5 0 C5 0.33 5 0.66 5 1 C3.35 1 1.7 1 0 1 C0 0.67 0 0.34 0 0 Z " fill="#333333" transform="translate(131,156)"/>
<path d="" fill="#2A2A2A" transform="translate(0,0)"/>
<path d="M0 0 C0.99 0.495 0.99 0.495 2 1 C1.01 1.495 1.01 1.495 0 2 C0 1.34 0 0.68 0 0 Z " fill="#2A2A2A" transform="translate(167,124)"/>
<path d="M0 0 C3 1 3 1 3 1 Z " fill="#555555" transform="translate(202,120)"/>
<path d="M0 0 C3 1 3 1 3 1 Z " fill="#555555" transform="translate(172,120)"/>
<path d="M0 0 C3 1 3 1 3 1 Z " fill="#717171" transform="translate(158,120)"/>
<path d="M0 0 C0.99 0.495 0.99 0.495 2 1 C1.01 1.495 1.01 1.495 0 2 C0 1.34 0 0.68 0 0 Z " fill="#555555" transform="translate(149,82)"/>
<path d="M0 0 C2 1 2 1 2 1 Z " fill="#7F7F7F" transform="translate(160,155)"/>
<path d="" fill="#3F3F3F" transform="translate(0,0)"/>
<path d="" fill="#000000" transform="translate(0,0)"/>
<path d="" fill="#000000" transform="translate(0,0)"/>
<path d="" fill="#2A2A2A" transform="translate(0,0)"/>
<path d="M0 0 C2 1 2 1 2 1 Z " fill="#000000" transform="translate(129,121)"/>
<path d="M0 0 C2 1 2 1 2 1 Z " fill="#3F3F3F" transform="translate(301,120)"/>
<path d="M0 0 C2 1 2 1 2 1 Z " fill="#3F3F3F" transform="translate(131,120)"/>
<path d="M0 0 C2 1 2 1 2 1 Z " fill="#7F7F7F" transform="translate(151,116)"/>
<path d="M0 0 C2 1 2 1 2 1 Z " fill="#000000" transform="translate(162,109)"/>
<path d="" fill="#000000" transform="translate(0,0)"/>
<path d="" fill="#000000" transform="translate(0,0)"/>
<path d="" fill="#3F3F3F" transform="translate(0,0)"/>
<path d="" fill="#3F3F3F" transform="translate(0,0)"/>
<path d="" fill="#000000" transform="translate(0,0)"/>
<path d="" fill="#3F3F3F" transform="translate(0,0)"/>
<path d="" fill="#000000" transform="translate(0,0)"/>
<path d="M0 0 C2 1 2 1 2 1 Z " fill="#000000" transform="translate(164,85)"/>
<path d="" fill="#3F3F3F" transform="translate(0,0)"/>
<path d="M0 0 C2 1 2 1 2 1 Z " fill="#7F7F7F" transform="translate(253,81)"/>
<path d="" fill="#000000" transform="translate(0,0)"/>
<path d="" fill="#000000" transform="translate(0,0)"/>
<path d="" fill="#000000" transform="translate(0,0)"/>
<path d="" fill="#000000" transform="translate(0,0)"/>
<path d="" fill="#000000" transform="translate(0,0)"/>
<path d="" fill="#000000" transform="translate(0,0)"/>
<path d="" fill="#000000" transform="translate(0,0)"/>
<path d="" fill="#000000" transform="translate(0,0)"/>
<path d="" fill="#000000" transform="translate(0,0)"/>
<path d="" fill="#000000" transform="translate(0,0)"/>
<path d="" fill="#FFFFFF" transform="translate(0,0)"/>
<path d="" fill="#000000" transform="translate(0,0)"/>
<path d="" fill="#000000" transform="translate(0,0)"/>
<path d="" fill="#000000" transform="translate(0,0)"/>
<path d="" fill="#7F7F7F" transform="translate(0,0)"/>
<path d="" fill="#000000" transform="translate(0,0)"/>
<path d="" fill="#000000" transform="translate(0,0)"/>
<path d="" fill="#000000" transform="translate(0,0)"/>
<path d="" fill="#000000" transform="translate(0,0)"/>
<path d="" fill="#7F7F7F" transform="translate(0,0)"/>
<path d="" fill="#000000" transform="translate(0,0)"/>
<path d="" fill="#FFFFFF" transform="translate(0,0)"/>
<path d="" fill="#7F7F7F" transform="translate(0,0)"/>
<path d="" fill="#000000" transform="translate(0,0)"/>
<path d="" fill="#000000" transform="translate(0,0)"/>
<path d="" fill="#7F7F7F" transform="translate(0,0)"/>
<path d="" fill="#000000" transform="translate(0,0)"/>
<path d="" fill="#000000" transform="translate(0,0)"/>
<path d="" fill="#7F7F7F" transform="translate(0,0)"/>
<path d="" fill="#000000" transform="translate(0,0)"/>
<path d="" fill="#000000" transform="translate(0,0)"/>
<path d="" fill="#000000" transform="translate(0,0)"/>
<path d="" fill="#000000" transform="translate(0,0)"/>
<path d="" fill="#000000" transform="translate(0,0)"/>
<path d="" fill="#555555" transform="translate(0,0)"/>
<path d="" fill="#000000" transform="translate(0,0)"/>
<path d="" fill="#7F7F7F" transform="translate(0,0)"/>
<path d="" fill="#555555" transform="translate(0,0)"/>
<path d="" fill="#FFFFFF" transform="translate(0,0)"/>
<path d="" fill="#555555" transform="translate(0,0)"/>
<path d="" fill="#555555" transform="translate(0,0)"/>
<path d="" fill="#000000" transform="translate(0,0)"/>
<path d="" fill="#555555" transform="translate(0,0)"/>
<path d="" fill="#000000" transform="translate(0,0)"/>
<path d="" fill="#000000" transform="translate(0,0)"/>
<path d="" fill="#555555" transform="translate(0,0)"/>
<path d="" fill="#000000" transform="translate(0,0)"/>
<path d="" fill="#555555" transform="translate(0,0)"/>
<path d="" fill="#000000" transform="translate(0,0)"/>
<path d="" fill="#000000" transform="translate(0,0)"/>
<path d="" fill="#7F7F7F" transform="translate(0,0)"/>
<path d="" fill="#000000" transform="translate(0,0)"/>
<path d="" fill="#7F7F7F" transform="translate(0,0)"/>
<path d="" fill="#000000" transform="translate(0,0)"/>
<path d="" fill="#7F7F7F" transform="translate(0,0)"/>
<path d="" fill="#000000" transform="translate(0,0)"/>
<path d="" fill="#000000" transform="translate(0,0)"/>
<path d="" fill="#000000" transform="translate(0,0)"/>
<path d="" fill="#555555" transform="translate(0,0)"/>
<path d="" fill="#000000" transform="translate(0,0)"/>
<path d="" fill="#000000" transform="translate(0,0)"/>
<path d="" fill="#000000" transform="translate(0,0)"/>
<path d="" fill="#7F7F7F" transform="translate(0,0)"/>
<path d="" fill="#7F7F7F" transform="translate(0,0)"/>
<path d="" fill="#7F7F7F" transform="translate(0,0)"/>
<path d="" fill="#FFFFFF" transform="translate(0,0)"/>
<path d="" fill="#000000" transform="translate(0,0)"/>
<path d="" fill="#000000" transform="translate(0,0)"/>
</svg>
