<?xml version="1.0" encoding="UTF-8"?>
<svg version="1.1" xmlns="http://www.w3.org/2000/svg" width="450" height="130">
<path d="M0 0 C1.1859375 0.00257812 2.371875 0.00515625 3.59375 0.0078125 C4.7796875 0.00523438 5.965625 0.00265625 7.1875 0 C10.09375 0.1328125 10.09375 0.1328125 11.09375 1.1328125 C11.33076239 3.99159159 11.51594182 6.83164547 11.65625 9.6953125 C11.69943359 10.50162109 11.74261719 11.30792969 11.78710938 12.13867188 C11.89350262 14.13650055 11.99415888 16.1346332 12.09375 18.1328125 C13.08375 17.8028125 14.07375 17.4728125 15.09375 17.1328125 C15.25875 16.4728125 15.42375 15.8128125 15.59375 15.1328125 C15.75875 14.4728125 15.92375 13.8128125 16.09375 13.1328125 C17.08375 12.8028125 18.07375 12.4728125 19.09375 12.1328125 C19.25875 11.4728125 19.42375 10.8128125 19.59375 10.1328125 C19.75875 9.4728125 19.92375 8.8128125 20.09375 8.1328125 C21.08375 7.8028125 22.07375 7.4728125 23.09375 7.1328125 C23.25875 6.4728125 23.42375 5.8128125 23.59375 5.1328125 C23.75875 4.4728125 23.92375 3.8128125 24.09375 3.1328125 C25.08375 2.8028125 26.07375 2.4728125 27.09375 2.1328125 C27.09375 1.4728125 27.09375 0.8128125 27.09375 0.1328125 C34.37796548 0.10968334 41.6621731 0.09189449 48.94641781 0.08100033 C52.32846813 0.07577275 55.7104934 0.06867739 59.0925293 0.05737305 C62.97704777 0.04446983 66.86155597 0.03958326 70.74609375 0.03515625 C71.96586411 0.02999496 73.18563446 0.02483368 74.44236755 0.01951599 C76.12399742 0.01940269 76.12399742 0.01940269 77.83959961 0.01928711 C78.83221298 0.0170665 79.82482635 0.01484589 80.84751892 0.01255798 C83.09375 0.1328125 83.09375 0.1328125 84.09375 1.1328125 C84.23768457 5.46812168 84.13587061 9.79438981 84.09375 14.1328125 C79.80375 14.1328125 75.51375 14.1328125 71.09375 14.1328125 C71.09375 28.6528125 71.09375 43.1728125 71.09375 58.1328125 C66.14375 58.1328125 61.19375 58.1328125 56.09375 58.1328125 C56.09375 43.6128125 56.09375 29.0928125 56.09375 14.1328125 C51.80375 14.1328125 47.51375 14.1328125 43.09375 14.1328125 C42.59875 9.6778125 42.59875 9.6778125 42.09375 5.1328125 C41.43375 5.1328125 40.77375 5.1328125 40.09375 5.1328125 C39.990625 5.7721875 39.8875 6.4115625 39.78125 7.0703125 C39.554375 7.7509375 39.3275 8.4315625 39.09375 9.1328125 C38.10375 9.4628125 37.11375 9.7928125 36.09375 10.1328125 C35.92875 10.7928125 35.76375 11.4528125 35.59375 12.1328125 C35.42875 12.7928125 35.26375 13.4528125 35.09375 14.1328125 C34.10375 14.4628125 33.11375 14.7928125 32.09375 15.1328125 C31.92875 15.7928125 31.76375 16.4528125 31.59375 17.1328125 C31.42875 17.7928125 31.26375 18.4528125 31.09375 19.1328125 C30.10375 19.4628125 29.11375 19.7928125 28.09375 20.1328125 C27.76375 20.9578125 27.43375 21.7828125 27.09375 22.6328125 C26.76375 23.4578125 26.43375 24.2828125 26.09375 25.1328125 C25.10375 25.4628125 24.11375 25.7928125 23.09375 26.1328125 C24.90302746 28.71841603 26.71638591 31.30112745 28.53125 33.8828125 C29.07168945 34.65254395 29.61212891 35.42227539 30.16894531 36.21533203 C34.15299169 41.86468629 38.27700899 47.37674859 42.546875 52.8125 C44.09375 55.1328125 44.09375 55.1328125 44.09375 58.1328125 C38.40349622 59.23678988 32.65831322 60.18549151 27.09375 58.1328125 C21.96415779 53.83084992 18.55767886 47.86931865 15.24438477 42.12573242 C14.26039142 40.42143841 13.18537701 38.77025302 12.09375 37.1328125 C11.76375 44.0628125 11.43375 50.9928125 11.09375 58.1328125 C6.14375 58.1328125 1.19375 58.1328125 -3.90625 58.1328125 C-3.92880577 50.71820887 -3.94716784 43.30362385 -3.95806217 35.88899326 C-3.96328982 32.44640902 -3.97038531 29.00384938 -3.98168945 25.5612793 C-3.99459235 21.60726207 -3.99947918 17.65325494 -4.00390625 13.69921875 C-4.00906754 12.45757462 -4.01422882 11.21593048 -4.01954651 9.93666077 C-4.01962204 8.79555344 -4.01969757 7.65444611 -4.01977539 6.47875977 C-4.021996 5.4683815 -4.02421661 4.45800323 -4.02650452 3.41700745 C-3.84528354 -0.02522538 -3.49947032 0.15992203 0 0 Z " fill="#1A1A1A" transform="translate(104.90625,36.8671875)"/>
<path d="M0 0 C7.95146159 3.77595561 14.15598469 10.10210622 18 18 C20.38147233 26.50525833 20.3495729 35.48142855 18 44 C15.29765396 48.49876274 12.39729289 50.33769342 8 53 C6.97085328 54.19864113 5.95078898 55.4051112 4.9375 56.6171875 C1.03185977 60.61514961 -2.58939711 61.12144043 -8.05102539 61.42822266 C-9.16856201 61.43128418 -10.28609863 61.4343457 -11.4375 61.4375 C-13.16117798 61.44982666 -13.16117798 61.44982666 -14.91967773 61.46240234 C-23.69201521 61.0548448 -28.6215266 58.52012284 -34.5625 52.125 C-42.33709114 43.26727633 -43.45614047 36.18273001 -43.15625 24.3984375 C-42.16623417 14.96797425 -35.83409927 9.79593523 -28.9140625 3.97265625 C-20.90666298 -2.35144264 -9.69618046 -2.37674104 0 0 Z M-25.93359375 20.2734375 C-28.21419113 23.96583325 -28.08022597 26.66779771 -28 31 C-27.46890625 30.60167969 -26.9378125 30.20335937 -26.390625 29.79296875 C-24.26041667 28.1953125 -22.13020833 26.59765625 -20 25 C-19.29359375 24.43925781 -18.5871875 23.87851562 -17.859375 23.30078125 C-16 22 -16 22 -14 22 C-13.34 22.66 -12.68 23.32 -12 24 C-11.52949219 23.66226563 -11.05898438 23.32453125 -10.57421875 22.9765625 C-9.95160156 22.53054687 -9.32898438 22.08453125 -8.6875 21.625 C-7.76517578 20.96371094 -7.76517578 20.96371094 -6.82421875 20.2890625 C-5.2347608 19.16589093 -3.61937829 18.07958553 -2 17 C-5.24528737 13.75471263 -9.5213017 14.46012222 -13.88500977 14.41455078 C-19.6206077 14.56870914 -22.430453 15.82819885 -25.93359375 20.2734375 Z M-0.4375 32.8125 C-1.05496094 33.33457031 -1.67242187 33.85664062 -2.30859375 34.39453125 C-4.22024965 36.0903067 -4.22024965 36.0903067 -6 39 C-6.99 39 -7.98 39 -9 39 C-9.66 38.34 -10.32 37.68 -11 37 C-15.95 39.97 -15.95 39.97 -21 43 C-20.01 44.485 -20.01 44.485 -19 46 C-13.06019843 47.06742155 -6.63523472 47.43841444 -1.23046875 44.48828125 C1.67311229 41.82535738 3.67131141 39.60812929 4.47265625 35.6875 C4.55892902 33.27173766 4.55892902 33.27173766 4 30 C2.15704252 30 0.90300491 31.66707897 -0.4375 32.8125 Z " fill="#1B1B1B" transform="translate(338,36)"/>
<path d="M0 0 C4.34598237 0.0169324 6.55416261 0.95562229 9.5546875 3.95703125 C12.44739939 7.18513619 15.11855038 10.58044387 17.74267578 14.02880859 C19.85676827 16.79349644 22.08483872 19.45107488 24.3125 22.125 C26.97379314 25.40436698 29.61215929 28.70175764 32.25 32 C32.28758423 30.64467163 32.28758423 30.64467163 32.32592773 29.26196289 C32.42087317 25.9203572 32.52011621 22.57893748 32.62231445 19.23754883 C32.6657163 17.7893576 32.70738744 16.34111346 32.74731445 14.89282227 C32.80489062 12.81510441 32.86862028 10.73765427 32.93359375 8.66015625 C32.97025146 7.40855713 33.00690918 6.15695801 33.04467773 4.86743164 C33.25 2 33.25 2 34.25 1 C38.87 1 43.49 1 48.25 1 C48.25 20.14 48.25 39.28 48.25 59 C45.1364427 60.55677865 42.67895318 60.57928835 39.234375 60.2109375 C32.86249288 57.62548795 28.89151024 51.25333024 24.7734375 45.95507812 C23.39751102 44.18930581 21.99314591 42.45589019 20.5625 40.734375 C17.07153985 36.53144272 13.66316826 32.26646033 10.25 28 C9.92 38.23 9.59 48.46 9.25 59 C4.63 59 0.01 59 -4.75 59 C-6.45565618 57.29434382 -5.87752055 55.09266505 -5.87939453 52.76171875 C-5.88254669 51.64385986 -5.88569885 50.52600098 -5.88894653 49.37426758 C-5.8869223 48.15763428 -5.88489807 46.94100098 -5.8828125 45.6875 C-5.88376923 44.44830811 -5.88472595 43.20911621 -5.88571167 41.93237305 C-5.88639374 39.30611719 -5.88503538 36.67995367 -5.88037109 34.05371094 C-5.87467381 30.68071286 -5.87795302 27.30779435 -5.88394356 23.93479919 C-5.8884177 20.72736323 -5.88528882 17.519937 -5.8828125 14.3125 C-5.88483673 13.0958667 -5.88686096 11.8792334 -5.88894653 10.62573242 C-5.88579437 9.50787354 -5.88264221 8.39001465 -5.87939453 7.23828125 C-5.87859894 6.24868408 -5.87780334 5.25908691 -5.87698364 4.23950195 C-5.65564607 0.33596046 -3.55734142 0.49350401 0 0 Z " fill="#1A1A1A" transform="translate(365.75,36)"/>
<path d="M0 0 C1.671875 1.5390625 1.671875 1.5390625 4.046875 4.4765625 C4.046875 5.7965625 4.046875 7.1165625 4.046875 8.4765625 C2.63644544 9.32040925 1.21823368 10.15125746 -0.203125 10.9765625 C-0.99203125 11.440625 -1.7809375 11.9046875 -2.59375 12.3828125 C-4.953125 13.4765625 -4.953125 13.4765625 -8.953125 13.4765625 C-9.530625 12.8578125 -10.108125 12.2390625 -10.703125 11.6015625 C-13.81526459 8.66231956 -16.735016 7.88017143 -20.953125 7.4765625 C-26.77237156 8.17888536 -29.29745799 10.41379558 -32.7890625 14.8203125 C-35.61385294 18.83947742 -35.62927441 22.69793351 -34.953125 27.4765625 C-33.30490468 31.5047856 -31.31413366 34.59374607 -27.640625 36.9765625 C-22.69163388 37.89730503 -18.63335125 38.35320228 -14.078125 35.9765625 C-13.376875 35.4815625 -12.675625 34.9865625 -11.953125 34.4765625 C-11.293125 34.4765625 -10.633125 34.4765625 -9.953125 34.4765625 C-9.953125 33.8165625 -9.953125 33.1565625 -9.953125 32.4765625 C-10.73558594 32.41597656 -11.51804687 32.35539062 -12.32421875 32.29296875 C-13.33613281 32.20917969 -14.34804688 32.12539062 -15.390625 32.0390625 C-16.39996094 31.95785156 -17.40929687 31.87664062 -18.44921875 31.79296875 C-20.953125 31.4765625 -20.953125 31.4765625 -21.953125 30.4765625 C-22.02556553 28.45692051 -22.03689688 26.43489126 -22.015625 24.4140625 C-22.00660156 23.30933594 -21.99757813 22.20460938 -21.98828125 21.06640625 C-21.97667969 20.21175781 -21.96507812 19.35710938 -21.953125 18.4765625 C-17.8413994 18.45190504 -13.72970222 18.43372291 -9.61791992 18.42163086 C-8.21817272 18.4165917 -6.8184308 18.40976034 -5.41870117 18.40112305 C-3.41066723 18.3890393 -1.40259543 18.38386443 0.60546875 18.37890625 C2.42002563 18.37105103 2.42002563 18.37105103 4.27124023 18.36303711 C7.046875 18.4765625 7.046875 18.4765625 8.046875 19.4765625 C8.55056716 27.40971404 7.52711865 34.75619703 3.046875 41.4765625 C2.386875 41.4765625 1.726875 41.4765625 1.046875 41.4765625 C0.97210938 42.07082031 0.89734375 42.66507813 0.8203125 43.27734375 C-0.22429042 46.24760356 -1.69101299 47.00413277 -4.328125 48.6640625 C-5.11960937 49.17324219 -5.91109375 49.68242188 -6.7265625 50.20703125 C-13.12645661 53.85609368 -21.77126478 53.2924137 -28.953125 52.4765625 C-32.71682666 51.31635854 -35.73120757 49.71958751 -38.953125 47.4765625 C-39.88125 46.8578125 -40.809375 46.2390625 -41.765625 45.6015625 C-48.38644738 39.16990647 -51.64404691 31.994474 -52.0859375 22.67578125 C-51.75221925 15.73640477 -49.44539846 10.41729337 -45.953125 4.4765625 C-45.293125 4.4765625 -44.633125 4.4765625 -43.953125 4.4765625 C-43.72625 3.8990625 -43.499375 3.3215625 -43.265625 2.7265625 C-39.83644936 -3.1520243 -33.5654988 -5.51533318 -27.265625 -7.2734375 C-16.91920621 -8.0542993 -8.29216927 -6.46789203 0 0 Z " fill="#1B1B1B" transform="translate(285.953125,43.5234375)"/>
<path d="M0 0 C5.6540244 5.22517624 9.16934048 12.44916516 9.98828125 20.1015625 C10.22034312 27.60082494 8.06573034 33.24353932 4.75 39.875 C4.09 39.875 3.43 39.875 2.75 39.875 C2.481875 40.514375 2.21375 41.15375 1.9375 41.8125 C0.75 43.875 0.75 43.875 -2.25 44.875 C-2.25 45.535 -2.25 46.195 -2.25 46.875 C-3.519553 47.52334654 -4.79069706 48.16857815 -6.0625 48.8125 C-7.12404297 49.35197266 -7.12404297 49.35197266 -8.20703125 49.90234375 C-15.19979852 53.23159624 -24.82134928 53.11063397 -32.24609375 51.0390625 C-41.07294404 46.9354722 -47.82692246 39.99661126 -51.25 30.875 C-54.04206163 21.5681279 -51.46472652 13.30445303 -47.25 4.875 C-46.59 4.875 -45.93 4.875 -45.25 4.875 C-44.981875 4.235625 -44.71375 3.59625 -44.4375 2.9375 C-43.25 0.875 -43.25 0.875 -40.25 -0.125 C-40.25 -0.785 -40.25 -1.445 -40.25 -2.125 C-27.15808263 -10.66320698 -12.20777809 -9.69306725 0 0 Z M-31.87109375 10.328125 C-35.97113765 14.92760767 -36.80373597 19.50921065 -36.59765625 25.4765625 C-35.87742998 30.44531452 -33.19405743 33.04071669 -29.5625 36.25 C-24.56687533 38.7006838 -20.31438758 38.82198088 -15 37.1796875 C-11.45109991 35.62704371 -9.56906593 34.32786777 -7.3125 31.125 C-5.19732252 24.65504534 -4.49502432 19.90530177 -7.25 13.6328125 C-9.68202408 9.35777017 -13.00085578 7.74867829 -17.5625 6.4375 C-22.9821421 5.40604892 -27.73282493 6.61864066 -31.87109375 10.328125 Z " fill="#1B1B1B" transform="translate(87.25,44.125)"/>
<path d="M0 0 C2.83203125 0.03255208 5.6640625 0.06510417 8.49609375 0.09765625 C13.79753808 11.1270001 18.61711365 22.32666511 23.28735352 33.63647461 C24.45137432 36.45318183 25.62286586 39.26670628 26.79492188 42.08007812 C27.53820234 43.87351483 28.28105746 45.66712789 29.0234375 47.4609375 C29.37333237 48.30038406 29.72322723 49.13983063 30.08372498 50.00471497 C30.40148392 50.77699936 30.71924286 51.54928375 31.04663086 52.3449707 C31.3275206 53.023647 31.60841034 53.7023233 31.89781189 54.40156555 C32.49609375 56.09765625 32.49609375 56.09765625 32.49609375 58.09765625 C27.21609375 58.09765625 21.93609375 58.09765625 16.49609375 58.09765625 C12.49609375 49.34765625 12.49609375 49.34765625 12.49609375 47.09765625 C6.22609375 47.09765625 -0.04390625 47.09765625 -6.50390625 47.09765625 C-6.83390625 49.07765625 -7.16390625 51.05765625 -7.50390625 53.09765625 C-8.49390625 55.57265625 -8.49390625 55.57265625 -9.50390625 58.09765625 C-14.78390625 58.09765625 -20.06390625 58.09765625 -25.50390625 58.09765625 C-26.62351158 54.73884026 -26.4803789 54.37920152 -25.15209961 51.30737305 C-24.83103745 50.55195724 -24.50997528 49.79654144 -24.17918396 49.01823425 C-23.82099075 48.2026857 -23.46279755 47.38713715 -23.09375 46.546875 C-22.72923233 45.69648148 -22.36471466 44.84608795 -21.989151 43.96992493 C-20.8155406 41.23770223 -19.628727 38.51144494 -18.44140625 35.78515625 C-17.66773773 33.99061439 -16.89494154 32.19569619 -16.12304688 30.40039062 C-14.62287059 26.91459162 -13.11660956 23.43153061 -11.60498047 19.95068359 C-10.2716143 16.8778872 -8.94879481 13.80109919 -7.64111328 10.71728516 C-7.3622377 10.06049271 -7.08336212 9.40370026 -6.79603577 8.727005 C-6.06222825 6.9955818 -5.33093967 5.26309162 -4.59985352 3.53051758 C-3.06325698 0.1194718 -3.06325698 0.1194718 0 0 Z M2.49609375 22.09765625 C1.17609375 26.38765625 -0.14390625 30.67765625 -1.50390625 35.09765625 C1.46609375 35.09765625 4.43609375 35.09765625 7.49609375 35.09765625 C7.0441313 33.491683 6.58427048 31.88793117 6.12109375 30.28515625 C5.86585938 29.39183594 5.610625 28.49851562 5.34765625 27.578125 C4.54342714 24.89297729 4.54342714 24.89297729 2.49609375 22.09765625 Z " fill="#1B1B1B" transform="translate(206.50390625,36.90234375)"/>
<path d="M0 0 C0.99 0.33 1.98 0.66 3 1 C0.03 3.97 -2.94 6.94 -6 10 C-6.33 9.01 -6.66 8.02 -7 7 C-6.01 6.67 -5.02 6.34 -4 6 C-2.90833725 4.06669397 -2.90833725 4.06669397 -2 2 C-1.34 1.34 -0.68 0.68 0 0 Z " fill="#141414" transform="translate(246,42)"/>
<path d="M0 0 C1.51400391 0.01740234 1.51400391 0.01740234 3.05859375 0.03515625 C4.07050781 0.04417969 5.08242187 0.05320313 6.125 0.0625 C7.29869141 0.07990234 7.29869141 0.07990234 8.49609375 0.09765625 C8.49609375 0.42765625 8.49609375 0.75765625 8.49609375 1.09765625 C7.90441406 1.11183594 7.31273437 1.12601563 6.703125 1.140625 C2.13762532 1.4161935 0.05447944 1.63043557 -3.56640625 4.66015625 C-4.20578125 5.46453125 -4.84515625 6.26890625 -5.50390625 7.09765625 C-3.27951797 0.12790632 -3.27951797 0.12790632 0 0 Z " fill="#070707" transform="translate(206.50390625,36.90234375)"/>
</svg>
