<svg id="pfl-logo" viewBox="0 0 1180.62 486.84" xmlns="http://www.w3.org/2000/svg">
<defs>
<style>
            #pfl-logo .st2 {
                fill: #ed2124
            }
        </style>
</defs>
<g id="PFL_reg_season">
<g id="PFL_text">
<path class="st2" d="m147.9 327.11 67.79 67.27h106.93c44.72 0 80.97-36.25 80.97-80.97s-36.25-80.97-80.97-80.97H59.57v215.63h88.32V299.74h160.77c7.56 0 13.68 6.13 13.68 13.68s-6.13 13.68-13.68 13.68H147.89M520.97 299.72h255.69v-67.28H432.65v215.63h88.32V299.72z"></path>
<path class="st2" d="m520.97 327.1 67.79 67.26v.01h187.9V327.1H520.97z"></path>
<path class="st2" d="m811.4 380.75 67.79 67.27h264.47v-67.28H899.73V232.49H811.4v148.26z" id="L"></path>
</g>
<path d="M486.11 197.87 430.92 84.94l80.07 32.52c-.38 2.1-.61 4.26-.61 6.47 0 19.9 16.13 36.03 36.03 36.03s36.03-16.13 36.03-36.03c0-17.95-13.14-32.79-30.32-35.53l52.53-52.53 52.53 52.53c-17.18 2.74-30.32 17.58-30.32 35.53 0 19.9 16.13 36.03 36.03 36.03s36.03-16.13 36.03-36.03c0-2.21-.23-4.37-.61-6.47l80.07-32.52-55.18 112.93H486.13Z" id="crown" style="fill:#29357c"></path>
</g>
</svg>