<?xml version="1.0" encoding="UTF-8"?>
<svg version="1.1" xmlns="http://www.w3.org/2000/svg" width="173" height="70">
<path d="M0 0 C57.09 0 114.18 0 173 0 C173 23.1 173 46.2 173 70 C115.91 70 58.82 70 0 70 C0 46.9 0 23.8 0 0 Z " fill="#040404" transform="translate(0,0)"/>
<path d="M0 0 C5.72911572 -0.09913284 11.45772839 -0.1715934 17.1875 -0.21972656 C19.13517966 -0.23979906 21.08279937 -0.26706332 23.03027344 -0.30175781 C25.83543721 -0.35046852 28.63980187 -0.37301241 31.4453125 -0.390625 C32.74409836 -0.42159271 32.74409836 -0.42159271 34.06912231 -0.45318604 C39.44510158 -0.45516582 42.95938422 0.07584713 47 4 C47.68115234 6.93261719 47.68115234 6.93261719 47.5859375 10.296875 C47.56660156 11.50214844 47.54726562 12.70742188 47.52734375 13.94921875 C47.47707031 15.20347656 47.42679688 16.45773438 47.375 17.75 C47.33439453 19.65458984 47.33439453 19.65458984 47.29296875 21.59765625 C47.2222359 24.73347906 47.12356492 27.86588663 47 31 C41.36482762 33.84240345 36.83296661 34.46398177 30.56640625 34.51171875 C29.68846909 34.52966995 28.81053192 34.54762115 27.9059906 34.56611633 C25.12487471 34.61993679 22.34392763 34.65402364 19.5625 34.6875 C17.66729436 34.72069808 15.77211092 34.75519003 13.87695312 34.79101562 C9.25142445 34.87564675 4.62594338 34.942592 0 35 C0 33.02 0 31.04 0 29 C1.65 29 3.3 29 5 29 C5 21.41 5 13.82 5 6 C3.35 6 1.7 6 0 6 C0 4.02 0 2.04 0 0 Z " fill="#F4F4F4" transform="translate(62,10)"/>
<path d="M0 0 C0 4.29 0 8.58 0 13 C-9.81711204 19.43190099 -20.59693136 19.36117682 -32 20 C-32 22.64 -32 25.28 -32 28 C-30.68 28 -29.36 28 -28 28 C-28 29.98 -28 31.96 -28 34 C-30.60356241 34.50333542 -33.20776651 35.00279378 -35.8125 35.5 C-36.55048828 35.64308594 -37.28847656 35.78617188 -38.04882812 35.93359375 C-41.07794391 36.50926281 -43.909196 37 -47 37 C-47 35.02 -47 33.04 -47 31 C-44.525 30.505 -44.525 30.505 -42 30 C-42 22.41 -42 14.82 -42 7 C-43.32 7 -44.64 7 -46 7 C-46 5.35 -46 3.7 -46 2 C-40.48158699 0.51929842 -35.11592125 -0.51786927 -29.4375 -1.125 C-28.66317627 -1.2084668 -27.88885254 -1.29193359 -27.09106445 -1.37792969 C-8.18141882 -3.27256753 -8.18141882 -3.27256753 0 0 Z " fill="#EFEFEF" transform="translate(56,14)"/>
<path d="M0 0 C0 1.98 0 3.96 0 6 C-1.00675781 5.87882812 -2.01351562 5.75765625 -3.05078125 5.6328125 C-14.0243969 4.32193953 -25.00725384 3.13998849 -36 2 C-35.67 8.93 -35.34 15.86 -35 23 C-32.64101562 23.34933594 -30.28203125 23.69867188 -27.8515625 24.05859375 C-25.57116547 24.39867541 -23.29094679 24.73992961 -21.01074219 25.08129883 C-19.42401105 25.31820435 -17.8370969 25.55388741 -16.25 25.78833008 C-13.97086332 26.12521497 -11.69241756 26.46646785 -9.4140625 26.80859375 C-8.34679428 26.96490517 -8.34679428 26.96490517 -7.25796509 27.12437439 C-2.22774341 27.88612829 -2.22774341 27.88612829 0 29 C0 30.65 0 32.3 0 34 C-7.07715042 34.24372839 -13.96506078 33.46365485 -20.98144531 32.56567383 C-22.32607194 32.39702629 -23.67183134 32.23717493 -25.01855469 32.08618164 C-39.90349127 30.41679214 -39.90349127 30.41679214 -44.7109375 26.89770508 C-47.78291579 22.37526431 -46.78059058 16.40270767 -46.5 11.1875 C-46.46390625 9.92228516 -46.4278125 8.65707031 -46.390625 7.35351562 C-46.29640876 4.23260256 -46.16498197 1.11784192 -46 -2 C-32.30060988 -8.57639052 -14.39905713 -2.4405469 0 0 Z " fill="#EEEEEE" transform="translate(164,16)"/>
<path d="M0 0 C3.29172069 -0.02688338 6.58322354 -0.0467821 9.875 -0.0625 C10.81214844 -0.07087891 11.74929687 -0.07925781 12.71484375 -0.08789062 C14.05869141 -0.09272461 14.05869141 -0.09272461 15.4296875 -0.09765625 C16.67081299 -0.10551147 16.67081299 -0.10551147 17.93701172 -0.11352539 C20 0 20 0 22 1 C22.04241723 3.33294775 22.04092937 5.66702567 22 8 C21 9 21 9 18.95874023 9.11352539 C18.08419189 9.10828857 17.20964355 9.10305176 16.30859375 9.09765625 C15.36435547 9.09443359 14.42011719 9.09121094 13.44726562 9.08789062 C12.45404297 9.07951172 11.46082031 9.07113281 10.4375 9.0625 C9.44041016 9.05798828 8.44332031 9.05347656 7.41601562 9.04882812 C4.94395151 9.03700007 2.47200482 9.02051849 0 9 C0 6.03 0 3.06 0 0 Z " fill="#030303" transform="translate(77,15)"/>
<path d="M0 0 C0 2.31 0 4.62 0 7 C-2.30026386 8.15013193 -4.01247936 8.29232399 -6.5703125 8.53515625 C-7.46621094 8.62216797 -8.36210938 8.70917969 -9.28515625 8.79882812 C-10.22230469 8.88583984 -11.15945312 8.97285156 -12.125 9.0625 C-13.06988281 9.15337891 -14.01476562 9.24425781 -14.98828125 9.33789062 C-17.32520611 9.56214099 -19.66242116 9.78269057 -22 10 C-22 7.36 -22 4.72 -22 2 C-6.92675781 -1.52050781 -6.92675781 -1.52050781 0 0 Z " fill="#050505" transform="translate(46,18)"/>
<path d="M0 0 C7.26 0 14.52 0 22 0 C22 2.64 22 5.28 22 8 C14.74 8 7.48 8 0 8 C0 5.36 0 2.72 0 0 Z " fill="#010101" transform="translate(77,30)"/>
<path d="M0 0 C3.96 0 7.92 0 12 0 C12 1.98 12 3.96 12 6 C11.67 5.34 11.34 4.68 11 4 C10.34 4 9.68 4 9 4 C9 4.66 9 5.32 9 6 C2.84765625 6.09765625 2.84765625 6.09765625 1 6 C0.67 5.67 0.34 5.34 0 5 C0 3.35 0 1.7 0 0 Z " fill="#1C1C1C" transform="translate(105,49)"/>
<path d="M0 0 C1.65 0 3.3 0 5 0 C4.67 2.31 4.34 4.62 4 7 C1.36 7 -1.28 7 -4 7 C-4 5.02 -4 3.04 -4 1 C-3.01 1.33 -2.02 1.66 -1 2 C-0.67 1.34 -0.34 0.68 0 0 Z " fill="#757575" transform="translate(42,50)"/>
<path d="M0 0 C2.97 0 5.94 0 9 0 C9 1.98 9 3.96 9 6 C8.34 6 7.68 6 7 6 C6.67 5.01 6.34 4.02 6 3 C5.67 3.99 5.34 4.98 5 6 C3.35 6.33 1.7 6.66 0 7 C0 4.69 0 2.38 0 0 Z " fill="#C7C7C7" transform="translate(75,48)"/>
<path d="M0 0 C1.32 0 2.64 0 4 0 C4.33 2.31 4.66 4.62 5 7 C3.02 7 1.04 7 -1 7 C-1.04254356 5.00045254 -1.04080783 2.99958364 -1 1 C-0.67 0.67 -0.34 0.34 0 0 Z " fill="#A1A1A1" transform="translate(50,49)"/>
<path d="M0 0 C2.0625 0.4375 2.0625 0.4375 4 1 C4 2.98 4 4.96 4 7 C2.35 6.67 0.7 6.34 -1 6 C-1.042721 4.33388095 -1.04063832 2.66617115 -1 1 C-0.67 0.67 -0.34 0.34 0 0 Z " fill="#959595" transform="translate(146,52)"/>
<path d="M0 0 C0.66 0 1.32 0 2 0 C2 2.31 2 4.62 2 7 C1.34 7 0.68 7 0 7 C0 6.34 0 5.68 0 5 C-0.66 5 -1.32 5 -2 5 C-2 5.66 -2 6.32 -2 7 C-2.66 7 -3.32 7 -4 7 C-4 5.02 -4 3.04 -4 1 C-2.68 1.33 -1.36 1.66 0 2 C0 1.34 0 0.68 0 0 Z " fill="#C7C7C7" transform="translate(34,51)"/>
<path d="M0 0 C2.0625 0.4375 2.0625 0.4375 4 1 C4 2.65 4 4.3 4 6 C2.35 6.33 0.7 6.66 -1 7 C-1.04254356 5.00045254 -1.04080783 2.99958364 -1 1 C-0.67 0.67 -0.34 0.34 0 0 Z " fill="#A2A2A2" transform="translate(69,48)"/>
<path d="M0 0 C0 2.31 0 4.62 0 7 C-1.65 7 -3.3 7 -5 7 C-5 5.02 -5 3.04 -5 1 C-3 0 -3 0 0 0 Z " fill="#B3B3B3" transform="translate(21,53)"/>
<path d="M0 0 C0.66 0 1.32 0 2 0 C2 0.66 2 1.32 2 2 C3.32 1.67 4.64 1.34 6 1 C6 2.98 6 4.96 6 7 C5.34 7 4.68 7 4 7 C4 6.34 4 5.68 4 5 C2.68 5.33 1.36 5.66 0 6 C0 4.02 0 2.04 0 0 Z " fill="#CACACA" transform="translate(127,50)"/>
<path d="M0 0 C2.475 0.495 2.475 0.495 5 1 C5 2.98 5 4.96 5 7 C3.35 7 1.7 7 0 7 C0 4.69 0 2.38 0 0 Z " fill="#BDBDBD" transform="translate(152,53)"/>
<path d="M0 0 C1.65 0 3.3 0 5 0 C5 1.98 5 3.96 5 6 C3.35 5.67 1.7 5.34 0 5 C0 3.35 0 1.7 0 0 Z " fill="#B6B6B6" transform="translate(159,55)"/>
<path d="M0 0 C2.0625 0.4375 2.0625 0.4375 4 1 C4 4 4 4 3 7 C1.68 7 0.36 7 -1 7 C-1.04254356 5.00045254 -1.04080783 2.99958364 -1 1 C-0.67 0.67 -0.34 0.34 0 0 Z " fill="#B3B3B3" transform="translate(24,52)"/>
<path d="M0 0 C1.32 0 2.64 0 4 0 C4 0.66 4 1.32 4 2 C3.01 2 2.02 2 1 2 C1 2.99 1 3.98 1 5 C1.33 4.34 1.66 3.68 2 3 C2.66 3 3.32 3 4 3 C4 4.32 4 5.64 4 7 C2.35 6.67 0.7 6.34 -1 6 C-1.042721 4.33388095 -1.04063832 2.66617115 -1 1 C-0.67 0.67 -0.34 0.34 0 0 Z " fill="#B7B7B7" transform="translate(94,48)"/>
<path d="M0 0 C1.65 0 3.3 0 5 0 C5 1.98 5 3.96 5 6 C3.35 6 1.7 6 0 6 C0 4.02 0 2.04 0 0 Z " fill="#C1C1C1" transform="translate(61,49)"/>
<path d="M0 0 C2.475 0.495 2.475 0.495 5 1 C5 1.99 5 2.98 5 4 C4.01 4 3.02 4 2 4 C2 4.66 2 5.32 2 6 C1.34 6 0.68 6 0 6 C0 4.02 0 2.04 0 0 Z " fill="#C1C1C1" transform="translate(135,51)"/>
<path d="M0 0 C1.65 0 3.3 0 5 0 C4.67 1.98 4.34 3.96 4 6 C2.66666667 6 1.33333333 6 0 6 C0 4.02 0 2.04 0 0 Z " fill="#CCCCCC" transform="translate(87,48)"/>
<path d="M0 0 C1.65 0 3.3 0 5 0 C5 1.98 5 3.96 5 6 C4.67 5.34 4.34 4.68 4 4 C3.34 4 2.68 4 2 4 C2 4.66 2 5.32 2 6 C1.34 5.67 0.68 5.34 0 5 C0 3.35 0 1.7 0 0 Z " fill="#C4C4C4" transform="translate(112,49)"/>
<path d="M0 0 C1.65 0 3.3 0 5 0 C4.67 0.66 4.34 1.32 4 2 C3.34 1.67 2.68 1.34 2 1 C2 1.99 2 2.98 2 4 C2.99 4 3.98 4 5 4 C5 4.66 5 5.32 5 6 C3.35 5.67 1.7 5.34 0 5 C0 3.35 0 1.7 0 0 Z " fill="#C0C0C0" transform="translate(105,49)"/>
<path d="M0 0 C1.65 0 3.3 0 5 0 C4.67 1.98 4.34 3.96 4 6 C3.01 6 2.02 6 1 6 C0.67 4.02 0.34 2.04 0 0 Z " fill="#C0C0C0" transform="translate(42,50)"/>
<path d="M0 0 C0.99 0.33 1.98 0.66 3 1 C3.33 2.65 3.66 4.3 4 6 C3.34 6 2.68 6 2 6 C2 5.34 2 4.68 2 4 C1.01 4.33 0.02 4.66 -1 5 C-0.67 3.35 -0.34 1.7 0 0 Z " fill="#CECECE" transform="translate(121,50)"/>
<path d="M0 0 C1.32 0 2.64 0 4 0 C4 1.98 4 3.96 4 6 C3.34 6 2.68 6 2 6 C1.67 5.01 1.34 4.02 1 3 C0.34 3.66 -0.32 4.32 -1 5 C-0.67 3.35 -0.34 1.7 0 0 Z " fill="#7E7E7E" transform="translate(80,48)"/>
</svg>
