<svg width="122" height="47" viewBox="0 0 122 47" fill="none" xmlns="http://www.w3.org/2000/svg">
<g clip-path="url(#clip0_2159_12)">
<path d="M25.3785 46.3829L15.7299 30.9485H11.8957V46.3829H0V0.00683594H20.62C23.8579 0.00683594 26.7 0.668217 29.145 1.99358C31.59 3.38535 33.4401 5.2393 34.7641 7.62704C36.0843 10.0109 36.7457 12.7267 36.7457 15.7758C36.7457 19.0215 35.9528 21.8064 34.3007 24.2566C32.6485 26.7081 30.4665 28.5621 27.7572 29.6895L38.5957 46.3842H25.3759H25.3798L25.3785 46.3829ZM11.8944 20.9419H19.7594C21.3438 20.9419 22.6015 20.4771 23.5936 19.5501C24.5857 18.6231 25.0465 17.3642 25.0465 15.7745C25.0465 14.1849 24.583 12.9259 23.5936 11.9312C22.6015 11.0042 21.3478 10.5395 19.7594 10.5395H11.8944V20.9432V20.9419Z" fill="#0F0F0F"/>
<path d="M121.999 10.7399H101.512V19.4863H120.347V30.2181H101.512V46.3829H89.6172V0.00683594H121.999V10.7386V10.7399Z" fill="#0F0F0F"/>
<path d="M70.6071 0H56.3952L40.0664 46.3865H52.229L54.7418 38.5671H71.9273L74.5051 46.3865H86.932L70.6045 0H70.6084H70.6071ZM68.5279 26.67L71.6343 36.2549L63.4986 30.3298L55.3628 36.2549L58.4692 26.67L50.3334 20.745H60.3895L63.496 11.1601L66.6024 20.745H76.6585L68.5227 26.67H68.5292H68.5279Z" fill="#0F0F0F"/>
</g>
<defs>
<clipPath id="clip0_2159_12">
<rect width="122" height="46.3865" fill="white"/>
</clipPath>
</defs>
</svg>
