<?xml version="1.0" encoding="UTF-8"?>
<svg version="1.1" xmlns="http://www.w3.org/2000/svg" width="1199" height="269">
<path d="M0 0 C16.55084482 -0.16372009 33.10142589 -0.28705731 49.65288544 -0.3626852 C57.33852756 -0.39873835 65.02366576 -0.44786694 72.70898438 -0.52807617 C79.40968436 -0.59797576 86.11001932 -0.6430378 92.81107378 -0.65861946 C96.35753619 -0.66772425 99.90295458 -0.68902972 103.44908142 -0.7401104 C107.41351481 -0.79675031 111.37693872 -0.79792097 115.34179688 -0.79467773 C116.5099292 -0.81984467 117.67806152 -0.8450116 118.8815918 -0.87094116 C124.64141373 -0.81999972 128.19208149 -0.4444844 132.6373291 3.39976501 C133.78409545 4.57514155 134.9087001 5.77295167 136 7 C136.81210938 7.79148437 137.62421875 8.58296875 138.4609375 9.3984375 C139.09257813 10.05070312 139.72421875 10.70296875 140.375 11.375 C142.92180284 14.05210196 142.92180284 14.05210196 146 16 C146 16.66 146 17.32 146 18 C146.58716797 18.26047119 147.17433594 18.52094238 147.77929688 18.78930664 C150.14179911 20.07730671 151.66049594 21.44621627 153.53125 23.37109375 C154.17707031 24.02787109 154.82289063 24.68464844 155.48828125 25.36132812 C156.15214844 26.04646484 156.81601563 26.73160156 157.5 27.4375 C158.82055423 28.7926707 160.14340028 30.14561265 161.46875 31.49609375 C162.05076172 32.09607178 162.63277344 32.6960498 163.23242188 33.31420898 C165.05298896 35.05053712 166.95988556 36.53121838 169 38 C169.26478149 36.42532959 169.26478149 36.42532959 169.53491211 34.81884766 C170.18956208 30.93076542 170.84841191 27.04340473 171.50854492 23.15625 C171.7938752 21.47252531 172.07806019 19.78860612 172.36108398 18.10449219 C172.76767129 15.68633018 173.17834803 13.26889344 173.58984375 10.8515625 C173.71592514 10.0963028 173.84200653 9.34104309 173.97190857 8.56289673 C174.88612829 3.22774341 174.88612829 3.22774341 176 1 C204.98660073 -0.35965093 233.98972619 -0.10181312 263 0 C261.75305274 7.8069184 260.32777358 15.54951216 258.6796875 23.28125 C258.46023468 24.32003296 258.24078186 25.35881592 258.01467896 26.42907715 C257.30429127 29.7866604 256.58984803 33.14336379 255.875 36.5 C255.37498062 38.85676672 254.87498083 41.2135376 254.375 43.5703125 C251.50321236 57.08116393 248.56932169 70.57616787 245.53845215 84.05215454 C241.7630795 100.8523647 238.22599082 117.7029423 234.6796875 134.55273438 C234.3359761 136.18538994 234.3359761 136.18538994 233.98532104 137.85102844 C233.55612536 139.89093403 233.12747614 141.9309547 232.69949341 143.97111511 C232.13674902 146.64822131 231.56902 149.32422171 231 152 C230.81741638 152.87330963 230.63483276 153.74661926 230.44671631 154.64639282 C229.11404124 160.88595876 229.11404124 160.88595876 228 162 C226.34239037 162.10202452 224.6802765 162.13084029 223.01953125 162.1328125 C221.90006104 162.13474609 220.78059082 162.13667969 219.62719727 162.13867188 C218.36834717 162.13416016 217.10949707 162.12964844 215.8125 162.125 C214.50015381 162.12306641 213.18780762 162.12113281 211.83569336 162.11914062 C188.88860247 162.04634113 165.94151814 161.47297004 143 161 C143.30807973 158.47242314 143.61828815 155.94513701 143.9296875 153.41796875 C144.01565186 152.71087769 144.10161621 152.00378662 144.19018555 151.27526855 C144.84234233 146.00189845 145.67175054 140.77747973 146.6328125 135.55078125 C147.48379872 130.56982393 147.48379872 130.56982393 145.67126465 126.06999207 C145.04949341 125.45932388 144.42772217 124.8486557 143.78710938 124.21948242 C143.08638306 123.51913376 142.38565674 122.8187851 141.66369629 122.09721375 C140.89811401 121.3574379 140.13253174 120.61766205 139.34375 119.85546875 C138.56688843 119.08568192 137.79002686 118.31589508 136.98962402 117.52278137 C134.50456183 115.06571746 132.00268547 112.62659854 129.5 110.1875 C127.81266577 108.52524121 126.12645315 106.86184306 124.44140625 105.19726562 C120.30719696 101.11819816 116.1590459 97.05373244 112 93 C110.51038745 96.47465646 109.52282587 99.78253868 108.79492188 103.48950195 C108.58130005 104.56444412 108.36767822 105.63938629 108.14758301 106.74690247 C107.81156067 108.47513496 107.81156067 108.47513496 107.46875 110.23828125 C107.23216675 111.43301559 106.9955835 112.62774994 106.75183105 113.85868835 C105.99665659 117.67574155 105.24796544 121.4940282 104.5 125.3125 C103.75105904 129.12005802 103.0007164 132.92732976 102.24816895 136.73417664 C101.78059431 139.10107916 101.31523775 141.46842126 100.85241699 143.83625793 C100.63879517 144.92065659 100.42517334 146.00505524 100.20507812 147.12231445 C100.02013794 148.06653763 99.83519775 149.0107608 99.64465332 149.9835968 C98.85538572 153.67666599 97.9159278 157.33628881 97 161 C68.29 161 39.58 161 10 161 C11.32980725 152.35625285 12.79023854 143.97502966 14.74609375 135.484375 C15.28370799 133.10771978 15.81995847 130.73075574 16.35498047 128.35351562 C16.62799988 127.14058838 16.90101929 125.92766113 17.18231201 124.67797852 C18.5122362 118.69595034 19.77678153 112.70055067 21.03515625 106.703125 C21.28470062 105.51456909 21.534245 104.32601318 21.79135132 103.10144043 C22.54961123 99.48454583 23.30623276 95.86731173 24.0625 92.25 C24.82329878 88.61520773 25.58460149 84.98052319 26.34701538 81.34606934 C26.84281264 78.98119077 27.337324 76.6160422 27.83047485 74.25061035 C29.01561314 68.5865806 30.2317977 62.93278567 31.51904297 57.29101562 C31.75739365 56.23622009 31.99574432 55.18142456 32.24131775 54.09466553 C32.68964538 52.1208737 33.14613017 50.1489097 33.61231995 48.17926025 C33.90948158 46.86607819 33.90948158 46.86607819 34.21264648 45.52636719 C34.38956528 44.76878113 34.56648407 44.01119507 34.74876404 43.23065186 C35.14411951 39.7204043 34.78420886 37.07361873 32.67835999 34.19061279 C32.11813644 33.63625549 31.5579129 33.08189819 30.98071289 32.51074219 C30.34657974 31.87368347 29.71244659 31.23662476 29.05909729 30.58026123 C28.02630898 29.57373505 28.02630898 29.57373505 26.97265625 28.546875 C26.26854111 27.84604797 25.56442596 27.14522095 24.838974 26.42315674 C23.35145794 24.94605138 21.85919114 23.47371701 20.36254883 22.00585938 C18.06581177 19.75324814 15.78274193 17.48749714 13.50195312 15.21875 C12.0554597 13.78567848 10.6082193 12.35336045 9.16015625 10.921875 C8.47365494 10.24276062 7.78715363 9.56364624 7.07984924 8.86395264 C6.44256393 8.23950256 5.80527863 7.61505249 5.14868164 6.97167969 C4.58766251 6.42050476 4.02664337 5.86932983 3.44862366 5.30145264 C2.01306934 3.89608491 2.01306934 3.89608491 0 3 C0 2.01 0 1.02 0 0 Z " fill="#000000" transform="translate(912,29)"/>
<path d="M0 0 C1.82967633 -0.00481048 3.65934515 -0.01484146 5.4889679 -0.02964783 C10.42173369 -0.05428886 15.35115892 -0.00471644 20.28345394 0.0602653 C25.46146618 0.11702648 30.63942114 0.10905941 35.81768799 0.10951233 C44.50646892 0.11967955 53.1939818 0.17545924 61.88232422 0.26171875 C71.91248811 0.36102166 81.94147372 0.4013529 91.97210097 0.40722269 C102.6789046 0.41375632 113.38528185 0.45845121 124.09191608 0.51690984 C127.16632047 0.53146322 130.24068637 0.53946873 133.31511688 0.54621696 C138.1517298 0.55906635 142.98748408 0.59793254 147.82375145 0.65659142 C149.59373014 0.67432044 151.36381508 0.68376499 153.13388252 0.68412399 C163.26054953 0.69264741 171.70066117 0.80425793 179.35602951 8.24459743 C184.30374166 13.5506388 185.80589215 18.08073369 185.75537109 25.25537109 C185.21004201 32.08559173 183.3617085 38.73545227 181.75097656 45.37915039 C181.19173817 47.7331162 180.63603091 50.08789452 180.08087158 52.44282532 C179.71714138 53.98550224 179.35220532 55.52789537 178.98602295 57.06999207 C177.44222453 63.5987461 176.05272984 70.15542859 174.86914062 76.75976562 C172.98007625 86.48027565 167.82701327 93.90406606 160.50097656 100.44165039 C153.01017287 105.37008262 145.13388279 107.41145979 136.50097656 109.44165039 C143.44860243 122.29997083 150.51800537 135.07580434 157.80957031 147.74243164 C158.70730037 149.30849717 159.60443643 150.87490335 160.50097656 152.44165039 C160.98195801 153.27744629 161.46293945 154.11324219 161.95849609 154.97436523 C162.41724121 155.78212402 162.87598633 156.58988281 163.34863281 157.42211914 C163.76250244 158.14681396 164.17637207 158.87150879 164.6027832 159.61816406 C165.50097656 161.44165039 165.50097656 161.44165039 165.50097656 163.44165039 C155.8770398 163.49934253 146.25517895 163.49573256 136.63122559 163.4468689 C130.10661772 163.42325269 123.5871105 163.49027654 117.06333923 163.59300232 C112.26964132 163.6566467 107.47654482 163.66902244 102.6824646 163.6725769 C100.31883101 163.6852531 97.9552127 163.71908061 95.5921936 163.77444458 C77.21178215 164.18611425 77.21178215 164.18611425 72.74771118 161.31338501 C69.63238587 158.20680198 68.0846643 154.47385372 66.50097656 150.44165039 C65.72747848 149.2007556 64.92003591 147.97937043 64.05957031 146.79711914 C56.43714967 135.41261981 48.97026637 123.92699322 41.50097656 112.44165039 C39.13937688 121.44347561 37.22290059 130.49709802 35.43847656 139.62915039 C33.87568613 147.58669438 32.30693626 155.53517611 30.50097656 163.44165039 C1.48908227 163.618519 -27.49536383 163.10929567 -56.49902344 162.44165039 C-55.26761777 153.96689626 -53.79584684 145.58623771 -52.03027344 137.20727539 C-51.79359451 136.06973816 -51.55691559 134.93220093 -51.31306458 133.76019287 C-50.54474373 130.07004032 -49.77191329 126.38084841 -48.99902344 122.69165039 C-48.05516505 118.16673212 -47.11288099 113.64148703 -46.17110634 109.11613464 C-45.89707525 107.79970939 -45.62290359 106.4833134 -45.34859276 105.16694641 C-43.3793403 95.71686559 -41.43638985 86.26169446 -39.51855469 76.80102539 C-39.17115738 75.08873749 -39.17115738 75.08873749 -38.81674194 73.34185791 C-37.93019323 68.96967128 -37.04425494 64.59737187 -36.16357422 60.22399902 C-35.56550212 57.25440172 -34.96417499 54.28547979 -34.36230469 51.31665039 C-34.18681595 50.43926208 -34.01132721 49.56187378 -33.83052063 48.65789795 C-32.6124887 42.66858091 -32.6124887 42.66858091 -31.49902344 40.44165039 C-40.40902344 40.44165039 -49.31902344 40.44165039 -58.49902344 40.44165039 C-56.58784718 36.61929788 -55.43805139 35.25850192 -52.31152344 32.56665039 C-47.86200513 28.6621019 -43.50381524 24.67951436 -39.18652344 20.62915039 C-37.41432354 18.96703597 -35.64240104 17.30923965 -33.8383522 15.68163967 C-31.38147678 13.39267242 -31.38147678 13.39267242 -28.89554977 10.48471928 C-20.01094538 0.75128582 -12.77918672 -0.2756327 0 0 Z M56.50097656 43.44165039 C55.51097656 48.18540039 54.52097656 52.92915039 53.50097656 57.81665039 C53.18773437 59.31244629 52.87449219 60.80824219 52.55175781 62.34936523 C52.308125 63.52192871 52.06449219 64.69449219 51.81347656 65.90258789 C51.56210938 67.10705566 51.31074219 68.31152344 51.05175781 69.55249023 C50.438555 72.27888833 50.438555 72.27888833 50.50097656 74.44165039 C64.03097656 74.44165039 77.56097656 74.44165039 91.50097656 74.44165039 C96.29403926 59.25427686 96.29403926 59.25427686 98.50097656 43.44165039 C84.64097656 43.44165039 70.78097656 43.44165039 56.50097656 43.44165039 Z " fill="#000000" transform="translate(84.4990234375,27.558349609375)"/>
<path d="M0 0 C7.54674241 0.21692079 15.09173718 0.25972744 22.6411549 0.29388551 C36.0986589 0.35926595 49.55065355 0.55810401 63.00517182 0.84296387 C76.06088421 1.11908965 89.11509102 1.33105428 102.17314057 1.45819824 C103.38395306 1.4700208 103.38395306 1.4700208 104.61922641 1.4820822 C108.66947174 1.52123834 112.7197276 1.55914837 116.76999049 1.59643929 C150.27913536 1.90656652 183.78161069 2.4341463 217.28544526 3.10614746 C216.56306679 6.37772278 215.81557106 7.93473606 213.37919526 10.27020996 C212.8004062 10.83481934 212.22161713 11.39942871 211.62528901 11.98114746 C211.01814057 12.55864746 210.41099213 13.13614746 209.78544526 13.73114746 C208.58544085 14.88783961 207.38742552 16.04659995 206.19169526 17.20770996 C205.39215424 17.97075439 205.39215424 17.97075439 204.57646088 18.74921387 C203.16816426 20.09694226 203.16816426 20.09694226 202.28544526 22.10614746 C201.62544526 22.10614746 200.96544526 22.10614746 200.28544526 22.10614746 C199.92838753 22.9501989 199.92838753 22.9501989 199.56411652 23.81130188 C197.99874729 26.62068749 196.0998451 28.54609917 193.82670502 30.82367676 C192.9013646 31.7553215 191.97602418 32.68696625 191.02264313 33.64684265 C190.00763165 34.65827052 188.99236095 35.66943831 187.97685151 36.68036621 C186.92959798 37.72896885 185.88264134 38.77786808 184.83596711 39.82704895 C182.63755148 42.02841329 180.4355616 44.22612219 178.2310019 46.42133301 C175.43397379 49.20706529 172.64589037 52.00154781 169.86053471 54.79894512 C167.69603176 56.9707582 165.52668457 59.13768285 163.35595421 61.30327003 C162.32806779 62.32983993 161.30161553 63.35784825 160.27674966 64.3874337 C154.30644904 70.37915343 148.19712397 76.00003648 141.57908539 81.27080505 C138.91830842 83.39992581 136.44946074 85.64198494 133.97294526 87.98114746 C123.13288135 97.91659501 111.24758469 106.39785717 99.18437104 114.76972168 C97.47839639 115.97035234 95.79987431 117.20976691 94.12528901 118.45380371 C93.25001557 119.10220215 92.37474213 119.75060059 91.47294526 120.41864746 C90.74462495 120.97165527 90.01630463 121.52466309 89.26591401 122.09442871 C87.28544526 123.10614746 87.28544526 123.10614746 85.16435151 122.89520996 C82.56855474 121.80508325 81.0924603 120.23584376 79.28544526 118.10614746 C79.28544526 117.44614746 79.28544526 116.78614746 79.28544526 116.10614746 C78.48107026 115.73489746 78.48107026 115.73489746 77.66044526 115.35614746 C74.72120273 113.80917771 72.02790118 111.97600377 69.28544526 110.10614746 C69.87928865 105.73166471 70.96642393 101.97833276 72.61357026 97.88739746 C73.08407807 96.70661621 73.55458588 95.52583496 74.03935151 94.30927246 C74.53306245 93.08724121 75.02677338 91.86520996 75.53544526 90.60614746 C79.32478769 81.16853988 82.93245325 71.70606106 86.28544526 62.10614746 C85.94400483 62.71385986 85.6025644 63.32157227 85.25077729 63.9477002 C79.0276726 75.01481953 72.80638691 86.07700864 66.27030854 96.9633252 C64.66207259 99.6601244 63.28201463 102.11643935 62.28544526 105.10614746 C55.28544526 104.10614746 55.28544526 104.10614746 52.09794526 103.57489746 C47.81022709 103.047719 43.66021605 102.99561017 39.34794526 103.04364746 C38.17908784 103.05041504 38.17908784 103.05041504 36.98661713 103.05731934 C35.08619257 103.06897838 33.1858082 103.08690869 31.28544526 103.10614746 C27.89213893 96.40754563 24.51217054 89.69931524 21.28544526 82.91864746 C20.87294526 82.05884277 20.46044526 81.19903809 20.03544526 80.31317871 C19.28544526 78.10614746 19.28544526 78.10614746 20.28544526 75.10614746 C22.56352143 73.77509277 22.56352143 73.77509277 25.57841401 72.43427246 C26.67685639 71.93854736 27.77529877 71.44282227 28.90702729 70.9320752 C30.08378022 70.41201904 31.26053315 69.89196289 32.47294526 69.35614746 C34.87061364 68.27008372 37.26775449 67.18285458 39.66435151 66.09442871 C40.81693452 65.57445312 41.96951752 65.05447754 43.15702729 64.51874512 C51.98060226 60.53457118 60.46077028 56.24432138 68.59794526 50.98114746 C69.23232514 50.59241455 69.86670502 50.20368164 70.52030854 49.80316895 C77.14315097 45.33485921 81.03125838 38.71154155 85.28544526 32.10614746 C75.11768821 33.31240481 64.95381239 34.54839124 54.7914267 35.79895752 C52.26205201 36.10901507 49.73228987 36.41573702 47.20243745 36.72187012 C42.9675753 37.23546021 38.73451592 37.76225223 34.50230317 38.29721802 C32.87760823 38.50068174 31.25240663 38.70014583 29.62669282 38.89530151 C19.78571464 40.08022938 10.67067681 41.77943903 1.28544526 45.10614746 C0.57722626 45.35392944 -0.13099273 45.60171143 -0.86067291 45.85700195 C-5.91245832 47.62500762 -10.95083404 49.42881056 -15.98506255 51.24613159 C-20.66320175 52.93437286 -25.34504092 54.61228083 -30.02705474 56.28974121 C-31.4171878 56.78795128 -31.4171878 56.78795128 -32.83540435 57.2962262 C-41.55951506 60.41792278 -50.31421375 63.44483267 -59.08052154 66.44599121 C-68.91623916 69.81767153 -78.7240718 73.26571373 -88.52705474 76.73114746 C-89.2926773 77.00180023 -90.05829986 77.272453 -90.8471231 77.55130737 C-95.13678214 79.06813424 -99.42589889 80.58648612 -103.71455474 82.10614746 C-104.32319732 80.30268066 -104.32319732 80.30268066 -104.71455474 78.10614746 C-103.37033581 75.67447051 -102.01009227 73.53979512 -100.40205474 71.29364746 C-99.46812921 69.9436165 -98.53454476 68.59334954 -97.60127349 67.24286621 C-97.11964752 66.55499023 -96.63802154 65.86711426 -96.14180084 65.15839355 C-93.54934953 61.43069159 -91.05694364 57.63631632 -88.55272122 53.84904247 C-86.49888901 50.75309625 -84.42458941 47.67833474 -82.27727981 44.64634102 C-77.87036829 38.34804526 -74.25570517 32.37820584 -71.52345367 25.18180054 C-58.85512576 -5.69043898 -28.56756665 -0.84361174 0 0 Z M87.28544526 58.10614746 C88.28544526 60.10614746 88.28544526 60.10614746 88.28544526 60.10614746 Z " fill="#FF0000" transform="translate(543.7145547419786,25.893852539360523)"/>
<path d="M0 0 C1.22348648 -0.0010675 2.44697296 -0.00213501 3.70753479 -0.00323486 C6.53549541 -0.00625118 9.36344916 -0.01031056 12.19140625 -0.015625 C8.75005032 17.38554535 5.17144455 34.75457725 1.50390625 52.109375 C0.97820813 54.60154914 0.45257452 57.09373688 -0.07299805 59.5859375 C-3.81269324 77.30976141 -7.56964547 95.02994018 -11.35009766 112.74511719 C-13.2307642 121.55891036 -15.10380444 130.3740636 -16.94921875 139.1953125 C-17.43704306 141.52070459 -17.9250898 143.8460499 -18.41317749 146.17138672 C-18.85864673 148.2999014 -19.30012024 150.4292187 -19.74145508 152.55859375 C-20.0020874 153.79996094 -20.26271973 155.04132813 -20.53125 156.3203125 C-20.75562744 157.39845215 -20.98000488 158.4765918 -21.21118164 159.58740234 C-21.80859375 161.984375 -21.80859375 161.984375 -22.80859375 162.984375 C-25.51697461 163.07952092 -28.19977888 163.10992432 -30.90844727 163.09790039 C-31.75715393 163.09804642 -32.6058606 163.09819244 -33.48028564 163.0983429 C-36.29938266 163.09764348 -39.11841446 163.08984978 -41.9375 163.08203125 C-43.88663192 163.08016717 -45.8357643 163.07874322 -47.78489685 163.07774353 C-52.92566207 163.07391755 -58.06639922 163.06408659 -63.20715332 163.05303955 C-68.44864523 163.04282715 -73.69014165 163.03824628 -78.93164062 163.03320312 C-89.22397069 163.02246439 -99.51627989 163.00538701 -109.80859375 162.984375 C-109.316575 158.21495916 -108.81680417 153.49256991 -107.828125 148.7956543 C-107.63669418 147.8756665 -107.44526337 146.95567871 -107.24803162 146.0078125 C-106.93769737 144.54794922 -106.93769737 144.54794922 -106.62109375 143.05859375 C-106.40264297 142.01356689 -106.1841922 140.96854004 -105.9591217 139.8918457 C-105.2460985 136.48437539 -104.52737845 133.07813417 -103.80859375 129.671875 C-102.80565105 124.89096824 -101.80529774 120.10952039 -100.8046875 115.328125 C-100.4262394 113.52295662 -100.4262394 113.52295662 -100.04014587 111.68132019 C-98.40688936 103.88128721 -96.80039713 96.07627959 -95.21875 88.265625 C-95.0176059 87.27375687 -94.81646179 86.28188873 -94.60922241 85.25996399 C-93.84672483 81.49782087 -93.0845448 77.73563127 -92.3293457 73.97201538 C-90.10488305 62.88953515 -87.63211592 51.93105046 -84.80859375 40.984375 C-93.71859375 40.984375 -102.62859375 40.984375 -111.80859375 40.984375 C-109.567315 35.38117813 -109.567315 35.38117813 -106.1953125 32.65234375 C-103.30828609 30.24421106 -100.49785417 27.80593937 -97.765625 25.22265625 C-96.74178711 24.25489258 -96.74178711 24.25489258 -95.69726562 23.26757812 C-95.01212891 22.61724609 -94.32699219 21.96691406 -93.62109375 21.296875 C-91.51034944 19.2964697 -89.39950812 17.30536572 -87.24047852 15.35693359 C-85.38614568 13.54783747 -83.89147023 11.85616034 -82.31225586 9.83447266 C-77.61030456 4.20229269 -73.41394236 0.88541284 -65.97143555 -0.06713867 C-58.89435175 -0.57412965 -51.8337578 -0.42395098 -44.74609375 -0.265625 C-42.34442223 -0.25361745 -39.94271696 -0.2470733 -37.54101562 -0.24609375 C-32.74629373 -0.23488914 -27.9538097 -0.19023244 -23.15966797 -0.11523438 C-15.43930799 0.00188866 -7.72104205 0.00950225 0 0 Z " fill="#000000" transform="translate(878.80859375,28.015625)"/>
<path d="M0 0 C0.80008484 -0.00014603 1.60016968 -0.00029205 2.42449951 -0.0004425 C5.075833 0.00025559 7.72709671 0.00804318 10.37841797 0.01586914 C12.21401938 0.01773369 14.0496213 0.01915742 15.88522339 0.02015686 C20.72183602 0.02397916 25.55841874 0.033807 30.39501953 0.04486084 C35.32828364 0.05508113 40.26155258 0.05965581 45.19482422 0.06469727 C54.87843113 0.07542951 64.56201581 0.0925025 74.24560547 0.11352539 C73.72346042 6.2699442 72.95532716 12.24049794 71.60888672 18.26977539 C71.44922928 19.00547256 71.28957184 19.74116974 71.12507629 20.49916077 C70.60843935 22.87190126 70.08355799 25.24272299 69.55810547 27.61352539 C69.1910992 29.2878559 68.82440366 30.96225455 68.45800781 32.63671875 C66.02749571 43.71286943 63.51514301 54.76912219 60.94091797 65.81274414 C58.6778965 75.53083695 56.46056865 85.25938332 54.24560547 94.98852539 C54.02799561 95.94410339 53.81038574 96.8996814 53.58618164 97.88421631 C50.70752575 110.53748076 47.87979792 123.19835637 45.22216797 135.90014648 C43.95014002 141.95519828 42.58549753 147.98273034 41.16113281 154.00341797 C40.88410774 155.17743038 40.88410774 155.17743038 40.60148621 156.37516022 C40.15003209 158.28806813 39.69788949 160.20081353 39.24560547 162.11352539 C30.0824949 162.13682909 20.91939475 162.1545315 11.75626087 162.16533756 C7.50017554 162.1705273 3.24411067 162.17755281 -1.01196289 162.18896484 C-5.12927256 162.19993408 -9.24656271 162.20583156 -13.36388588 162.20840263 C-14.92452616 162.21023185 -16.48516552 162.213803 -18.04579735 162.21925545 C-27.32551391 162.25034854 -36.50745834 162.0002334 -45.75439453 161.11352539 C-45.14580814 154.96072082 -44.23407293 148.99467257 -42.96923828 142.94555664 C-42.79262665 142.08488586 -42.61601501 141.22421509 -42.43405151 140.33746338 C-41.85735931 137.53280328 -41.27474727 134.72941112 -40.69189453 131.92602539 C-40.28561656 129.95725014 -39.87961449 127.98841794 -39.47387695 126.01953125 C-36.38982844 111.07821361 -33.25254127 96.14802159 -30.09712219 81.22163391 C-27.27308328 67.86108343 -24.51201305 54.4879752 -21.75439453 41.11352539 C-30.00439453 40.78352539 -38.25439453 40.45352539 -46.75439453 40.11352539 C-46.75439453 37.11352539 -46.75439453 37.11352539 -45.52734375 35.81225586 C-44.91906738 35.33159668 -44.31079102 34.8509375 -43.68408203 34.35571289 C-39.46123617 30.81775345 -35.57693472 27.02767521 -31.69970703 23.12133789 C-31.06812683 22.4863739 -30.43654663 21.85140991 -29.78582764 21.19720459 C-27.81497208 19.21299359 -25.84678174 17.22617505 -23.87939453 15.23852539 C-21.25985783 12.59243933 -18.63704782 9.94966126 -16.01220703 7.30883789 C-15.41328644 6.70161896 -14.81436584 6.09440002 -14.19729614 5.46878052 C-9.24946686 0.49148329 -6.8276185 -0.0323172 0 0 Z " fill="#000000" transform="translate(339.75439453125,28.886474609375)"/>
<path d="M0 0 C0 0.66 0 1.32 0 2 C-0.8971875 2.268125 -1.794375 2.53625 -2.71875 2.8125 C-12.698768 5.94672053 -21.8074614 10.02306598 -31 15 C-31.91523437 15.49371094 -32.83046875 15.98742187 -33.7734375 16.49609375 C-44.12573179 22.40929744 -53.39438965 30.05052522 -61.78125 38.48046875 C-64 40 -64 40 -66.39453125 39.9609375 C-69.58824552 38.78304588 -72.28051597 37.21225369 -75.1875 35.4375 C-87.97542781 27.88091908 -101.73664935 22.12175505 -116 18 C-116.7125293 17.7927832 -117.42505859 17.58556641 -118.15917969 17.37207031 C-132.8653628 13.19108664 -147.84864553 10.91062566 -163 9 C-163.68895859 8.91305374 -164.37791718 8.82610748 -165.0877533 8.73652649 C-170.18840723 8.12665041 -175.22029842 7.81627282 -180.35546875 7.76171875 C-181.12762222 7.75210617 -181.8997757 7.74249359 -182.69532776 7.73258972 C-185.19276423 7.70795285 -187.68995614 7.69532461 -190.1875 7.6875 C-191.47182922 7.68257538 -191.47182922 7.68257538 -192.78210449 7.67755127 C-212.91973403 7.65271776 -232.21412241 10.30072797 -252 14 C-247.44853483 3.74325198 -227.99887397 -2.05690077 -218 -6 C-153.69428211 -30.38347487 -61.94406489 -32.42329339 0 0 Z " fill="#000000" transform="translate(666,211)"/>
<path d="M0 0 C2.64726057 1.34520985 5.2254883 2.74695024 7.78662109 4.25024414 C8.77766846 4.83008057 9.76871582 5.40991699 10.78979492 6.00732422 C11.83288818 6.62244873 12.87598145 7.23757324 13.95068359 7.87133789 C15.01891357 8.49741943 16.08714355 9.12350098 17.18774414 9.76855469 C23.88902192 13.70295764 30.57300131 17.66630097 37.19628906 21.73095703 C39.65314522 23.22638725 41.83211337 24.39431448 44.57568359 25.30883789 C44.06842405 29.28237099 43.42106856 33.15463683 42.53662109 37.06274414 C42.35663574 37.86139893 42.17665039 38.66005371 41.99121094 39.48291016 C41.85408691 40.08546631 41.71696289 40.68802246 41.57568359 41.30883789 C38.97182315 41.72748537 36.36763064 42.14386371 33.76318359 42.55883789 C32.92513184 42.69306152 32.08708008 42.82728516 31.22363281 42.96557617 C26.16869031 43.7671808 21.11036625 44.52130082 16.04052734 45.22290039 C1.98866181 47.18280309 -11.72226914 49.61169312 -25.42431641 53.30883789 C-26.44380371 53.57253174 -26.44380371 53.57253174 -27.48388672 53.84155273 C-48.71131691 59.40111779 -70.81776396 70.05245306 -88.79150391 82.62524414 C-91.42431641 84.30883789 -91.42431641 84.30883789 -94.42431641 84.30883789 C-93.93971538 79.75096876 -93.03608596 77.27105239 -90.04931641 73.80883789 C-87.07495436 70.27478406 -84.1624378 66.71964126 -81.3359375 63.06738281 C-74.37608575 54.08890923 -67.49466332 45.92252621 -58.54931641 38.82836914 C-54.27054485 35.42114788 -50.18375634 31.78951789 -46.07836914 28.17700195 C-44.20602469 26.53924537 -42.31963801 24.91995353 -40.42431641 23.30883789 C-39.67988281 22.67397461 -38.93544922 22.03911133 -38.16845703 21.38500977 C-31.8489755 16.15002627 -25.17735691 11.9780537 -18.04931641 7.93383789 C-16.98326172 7.31895508 -15.91720703 6.70407227 -14.81884766 6.07055664 C-12.02915764 4.46692351 -9.23849268 2.86909157 -6.42431641 1.30883789 C-5.75835449 0.87619629 -5.09239258 0.44355469 -4.40625 -0.00219727 C-2.42431641 -0.69116211 -2.42431641 -0.69116211 0 0 Z " fill="#FF0000" transform="translate(494.42431640625,133.691162109375)"/>
<path d="M0 0 C1.69406982 0.01885254 1.69406982 0.01885254 3.42236328 0.03808594 C32.36299081 0.40551455 60.21334788 4.00346975 88.51660156 10.23876953 C94.27236834 11.49658288 100.04301787 12.68201482 105.8125 13.875 C107.79826712 14.28863051 109.78395399 14.70264658 111.76953125 15.1171875 C113.00086792 15.37411377 113.00086792 15.37411377 114.25708008 15.63623047 C114.83224365 15.75627441 115.40740723 15.87631836 116 16 C116 16.99 116 17.98 116 19 C110.05651975 21.47188522 104.61826929 22.66047952 98.25 23.4375 C89.3314472 24.64348064 81.32907181 26.89839421 72.94921875 30.203125 C68.00270211 31.82176537 64.61895411 32.64111344 59.67578125 30.68359375 C58.46149774 30.03639194 57.25749562 29.3696584 56.0625 28.6875 C25.8063711 11.43629706 -16.99190019 9.23851932 -51 4 C-51 3.34 -51 2.68 -51 2 C-47.39460098 1.19172329 -43.96372588 0.8210656 -40.2734375 0.68359375 C-39.1697583 0.64153809 -38.0660791 0.59948242 -36.92895508 0.55615234 C-35.16974731 0.49741943 -35.16974731 0.49741943 -33.375 0.4375 C-32.15514404 0.3957666 -30.93528809 0.3540332 -29.6784668 0.31103516 C-19.77525326 -0.00865485 -9.90630121 -0.16186204 0 0 Z " fill="#000000" transform="translate(621,173)"/>
<path d="M0 0 C1.17300089 4.10238344 2.33731306 8.20718259 3.5 12.3125 C3.83386719 13.47974609 4.16773438 14.64699219 4.51171875 15.84960938 C4.82753906 16.96787109 5.14335938 18.08613281 5.46875 19.23828125 C5.76201172 20.26993408 6.05527344 21.30158691 6.35742188 22.36450195 C7 25 7 25 7 28 C4.5859375 29.578125 4.5859375 29.578125 1.375 31.25 C-4.05686527 34.2541802 -7.23135056 37.14042573 -11 42 C-11.66 42 -12.32 42 -13 42 C-13.66 43.32 -14.32 44.64 -15 46 C-30.67803887 40.51519087 -45.80340764 33.67522192 -61 27 C-61 26.34 -61 25.68 -61 25 C-46.63816837 18.41675047 -32.14045289 12.16615929 -17.61010742 5.96655273 C-16.85868973 5.64581284 -16.10727203 5.32507294 -15.33308411 4.99461365 C-13.906275 4.38584322 -12.47919322 3.77771137 -11.05180359 3.17030334 C-3.61691213 0 -3.61691213 0 0 0 Z " fill="#FF0000" transform="translate(559,105)"/>
<path d="M0 0 C22.77 0 45.54 0 69 0 C68.67 2.64 68.34 5.28 68 8 C65.69 8 63.38 8 61 8 C60.67 10.64 60.34 13.28 60 16 C62.475 16.99 62.475 16.99 65 18 C64.67 20.31 64.34 22.62 64 25 C55.09 25 46.18 25 37 25 C37.33 22.69 37.66 20.38 38 18 C38.94875 17.814375 39.8975 17.62875 40.875 17.4375 C44.38371699 16.26599195 44.38371699 16.26599195 45.375 12.375 C45.58125 11.26125 45.7875 10.1475 46 9 C41.48184719 8.11722245 37.22487306 7.89410497 32.625 7.9375 C31.37976563 7.94652344 30.13453125 7.95554688 28.8515625 7.96484375 C27.91054688 7.97644531 26.96953125 7.98804688 26 8 C25.896875 9.134375 25.79375 10.26875 25.6875 11.4375 C25.10525314 16.22391171 23.62753418 20.47120924 22 25 C17.38 25 12.76 25 8 25 C8.51736124 19.39525319 9.28963537 14.3591425 11 9 C7.04 8.67 3.08 8.34 -1 8 C-1 2 -1 2 0 0 Z " fill="#000000" transform="translate(979,219)"/>
<path d="M0 0 C1.72974441 0.00015918 3.45949355 0.0058569 5.18920898 0.01586914 C6.09783188 0.01728409 7.00645477 0.01869904 7.94261169 0.02015686 C10.85687494 0.02577346 13.77106254 0.03832874 16.68530273 0.05102539 C18.65600475 0.05603825 20.62670797 0.06060153 22.59741211 0.06469727 C27.43923832 0.07574828 32.28100768 0.09302401 37.12280273 0.11352539 C36.06646471 8.81070849 36.06646471 8.81070849 35.12280273 12.11352539 C34.97842773 12.83540039 34.83405273 13.55727539 34.68530273 14.30102539 C34.40686523 15.19821289 34.40686523 15.19821289 34.12280273 16.11352539 C33.13280273 16.60852539 33.13280273 16.60852539 32.12280273 17.11352539 C32.32905273 17.69102539 32.53530273 18.26852539 32.74780273 18.86352539 C33.12280273 21.11352539 33.12280273 21.11352539 31.12280273 25.11352539 C17.59280273 25.11352539 4.06280273 25.11352539 -9.87719727 25.11352539 C-9.21992241 18.54077681 -8.69543584 13.64078768 -6.87719727 7.55102539 C-6.52657227 6.35348633 -6.17594727 5.15594727 -5.81469727 3.92211914 C-4.54997584 0.13322453 -4.54997584 0.13322453 0 0 Z " fill="#000000" transform="translate(850.877197265625,218.886474609375)"/>
<path d="M0 0 C13.86 0 27.72 0 42 0 C41 5 41 5 39.9375 6.9375 C38.78878808 9.08707104 38.78878808 9.08707104 39 12.0625 C39 15 39 15 37 18 C36.67 20.31 36.34 22.62 36 25 C22.14 25 8.28 25 -6 25 C-5.16786247 20.00717482 -4.16365049 15.16600169 -3 10.25 C-2.82210937 9.48300781 -2.64421875 8.71601563 -2.4609375 7.92578125 C-1.12365033 2.24730066 -1.12365033 2.24730066 0 0 Z " fill="#000000" transform="translate(756,219)"/>
<path d="M0 0 C1.11568359 -0.020625 2.23136719 -0.04125 3.38085938 -0.0625 C9.60644283 -0.09202262 14.21241337 0.19198264 19.6875 3.25 C20.1825 3.745 20.1825 3.745 20.6875 4.25 C20.51689011 5.88785499 20.32733442 7.52577943 20.046875 9.1484375 C19.79793938 10.60416971 19.60355322 12.06988022 19.453125 13.5390625 C19.0065483 16.71826332 18.52473456 19.32204996 16.33105469 21.75341797 C10.11727797 26.06769042 3.9240621 25.95235232 -3.45874023 25.79199219 C-5.50666576 25.74986287 -7.55132002 25.7509563 -9.59960938 25.7578125 C-20.81855927 25.64667877 -20.81855927 25.64667877 -25.3125 22.25 C-26.96814619 18.11443742 -25.97268524 14.79651434 -24.75 10.625 C-24.43933594 9.49835938 -24.12867187 8.37171875 -23.80859375 7.2109375 C-21.90548978 3.44448107 -20.20509063 2.71278942 -16.3125 1.25 C-11.01158179 -0.36106338 -5.48955758 0.02510947 0 0 Z M-8.3125 8.25 C-8.9725 11.22 -9.6325 14.19 -10.3125 17.25 C-8.6625 17.25 -7.0125 17.25 -5.3125 17.25 C-4.9825 14.94 -4.6525 12.63 -4.3125 10.25 C-1.0125 9.92 2.2875 9.59 5.6875 9.25 C5.6875 8.92 5.6875 8.59 5.6875 8.25 C1.0675 8.25 -3.5525 8.25 -8.3125 8.25 Z " fill="#000000" transform="translate(121.3125,218.75)"/>
<path d="M0 0 C1.17175781 -0.020625 2.34351563 -0.04125 3.55078125 -0.0625 C14.25311448 -0.11109175 14.25311448 -0.11109175 19.125 3.25 C19.62 3.745 19.62 3.745 20.125 4.25 C20.0805199 9.95457327 19.72115411 17.58791997 16.125 22.25 C9.9263834 26.19210266 3.2142589 25.70809393 -3.94580078 25.64111328 C-6.00229676 25.62498198 -8.05684387 25.641038 -10.11328125 25.66015625 C-12.07201172 25.65435547 -12.07201172 25.65435547 -14.0703125 25.6484375 C-15.25641113 25.64505371 -16.44250977 25.64166992 -17.66455078 25.63818359 C-21.18663665 25.21231922 -23.10252369 24.44393964 -25.875 22.25 C-26.8126021 16.50718714 -25.32978123 10.48808336 -22.875 5.25 C-16.00084681 -0.74660172 -8.68002378 0.03794546 0 0 Z M-7.875 8.25 C-10.12259378 12.97145699 -10.12259378 12.97145699 -9.875 17.25 C-8.225 17.25 -6.575 17.25 -4.875 17.25 C-4.875 14.61 -4.875 11.97 -4.875 9.25 C-1.575 9.25 1.725 9.25 5.125 9.25 C5.125 8.92 5.125 8.59 5.125 8.25 C0.835 8.25 -3.455 8.25 -7.875 8.25 Z " fill="#000000" transform="translate(335.875,218.75)"/>
<path d="M0 0 C2.22808159 -0.10853983 4.45769932 -0.18583307 6.6875 -0.25 C7.92886719 -0.29640625 9.17023438 -0.3428125 10.44921875 -0.390625 C14.5554638 0.06110713 16.15539619 1.06293296 19 4 C19 4.66 19 5.32 19 6 C19.61875 6.28875 20.2375 6.5775 20.875 6.875 C23 8 23 8 25 10 C26.32 6.7 27.64 3.4 29 0 C33.95 0 38.9 0 44 0 C42.43715185 8.46542747 40.27813798 16.70580832 38 25 C23.95492912 26.0738343 23.95492912 26.0738343 19.2265625 23.4765625 C17.32444715 21.74415261 15.66256124 19.95844078 14 18 C13.34 17.67 12.68 17.34 12 17 C11.34 19.64 10.68 22.28 10 25 C4.72 25 -0.56 25 -6 25 C-4.43715185 16.53457253 -2.27813798 8.29419168 0 0 Z " fill="#000000" transform="translate(267,219)"/>
<path d="M0 0 C4.58980814 -0.07447267 9.17926014 -0.12875322 13.76953125 -0.16479492 C15.32916394 -0.17982869 16.88875472 -0.20026135 18.44824219 -0.22631836 C20.69737116 -0.26294211 22.94593847 -0.27978021 25.1953125 -0.29296875 C25.8861795 -0.30845261 26.57704651 -0.32393646 27.28884888 -0.33988953 C31.93331146 -0.34148352 35.02971111 0.6188055 39 3 C40 4 40 4 40.0546875 5.9609375 C39.56848417 12.49297358 39.56848417 12.49297358 36.6875 15.0625 C34 16 34 16 30 16 C30.433125 16.48210937 30.86625 16.96421875 31.3125 17.4609375 C31.869375 18.09257812 32.42625 18.72421875 33 19.375 C33.556875 20.00148437 34.11375 20.62796875 34.6875 21.2734375 C36 23 36 23 36 25 C33.26843041 25.16262928 30.54657878 25.28110686 27.8125 25.375 C27.04357422 25.42527344 26.27464844 25.47554687 25.48242188 25.52734375 C19.86673398 25.67195374 19.86673398 25.67195374 17.33349609 23.70800781 C14 19.83950617 14 19.83950617 14 17 C13.01 17 12.02 17 11 17 C10.34 19.64 9.68 22.28 9 25 C4.05 25 -0.9 25 -6 25 C-5.37768893 22.14522349 -4.75223464 19.29119519 -4.125 16.4375 C-3.95097656 15.63763672 -3.77695312 14.83777344 -3.59765625 14.01367188 C-3.42363281 13.22412109 -3.24960937 12.43457031 -3.0703125 11.62109375 C-2.91320801 10.9036499 -2.75610352 10.18620605 -2.59423828 9.44702148 C-1.82276619 6.2701666 -0.91212393 3.13897593 0 0 Z M13 8 C13 8.33 13 8.66 13 9 C17.29 9 21.58 9 26 9 C26 8.67 26 8.34 26 8 C21.71 8 17.42 8 13 8 Z " fill="#000000" transform="translate(890,219)"/>
<path d="M0 0 C12.56569265 -0.91819676 12.56569265 -0.91819676 15.8671875 1.1953125 C17.0625 2.75 17.0625 2.75 19 6 C20.63072616 7.37705764 22.2866438 8.72722111 24 10 C24.99 6.7 25.98 3.4 27 0 C31.95 0 36.9 0 42 0 C40.43715185 8.46542747 38.27813798 16.70580832 36 25 C22.87061364 26.07701997 22.87061364 26.07701997 18.29296875 23.44140625 C16.1875 21.5 16.1875 21.5 14.41796875 19.53125 C13.95003906 19.0259375 13.48210937 18.520625 13 18 C12.34 18 11.68 18 11 18 C10.34 20.31 9.68 22.62 9 25 C4.05 25 -0.9 25 -6 25 C-5.16786247 20.00717482 -4.16365049 15.16600169 -3 10.25 C-2.82210938 9.48300781 -2.64421875 8.71601563 -2.4609375 7.92578125 C-1.12365033 2.24730066 -1.12365033 2.24730066 0 0 Z " fill="#000000" transform="translate(1096,219)"/>
<path d="M0 0 C4.58980814 -0.07447267 9.17926014 -0.12875322 13.76953125 -0.16479492 C15.32916394 -0.17982869 16.88875472 -0.20026135 18.44824219 -0.22631836 C20.69737116 -0.26294211 22.94593847 -0.27978021 25.1953125 -0.29296875 C25.8861795 -0.30845261 26.57704651 -0.32393646 27.28884888 -0.33988953 C31.93331146 -0.34148352 35.02971111 0.6188055 39 3 C40 4 40 4 40.25 6.9375 C40.17759061 10.12351299 39.68439079 13.0899652 38.9375 16.1875 C38.74027344 17.00605469 38.54304687 17.82460937 38.33984375 18.66796875 C36.38993284 22.06183701 33.52987759 23.55583083 30 25 C27.12699945 25.49607906 24.34994797 25.47054659 21.44140625 25.390625 C20.25767677 25.38213531 20.25767677 25.38213531 19.05003357 25.37347412 C16.55354626 25.35125686 14.05854625 25.30109219 11.5625 25.25 C9.86004691 25.22991588 8.15757111 25.21166847 6.45507812 25.1953125 C2.30282086 25.15144072 -1.84833828 25.08251908 -6 25 C-5.53618502 22.88191158 -5.07234658 20.76382836 -4.6083374 18.64578247 C-4.25360558 17.02507596 -3.9001277 15.40409486 -3.54736328 13.78295898 C-3.38993652 13.06954346 -3.23250977 12.35612793 -3.0703125 11.62109375 C-2.91320801 10.9036499 -2.75610352 10.18620605 -2.59423828 9.44702148 C-1.82276619 6.2701666 -0.91212393 3.13897593 0 0 Z M13 8 C12.34 10.97 11.68 13.94 11 17 C14.96 17 18.92 17 23 17 C25.24759378 12.27854301 25.24759378 12.27854301 25 8 C21.04 8 17.08 8 13 8 Z " fill="#000000" transform="translate(801,219)"/>
<path d="M0 0 C1.60198242 -0.0309375 1.60198242 -0.0309375 3.23632812 -0.0625 C9.24149922 -0.09221018 14.04828342 -0.0471264 19.1875 3.25 C21.27187464 7.54226777 19.50512778 12.10860235 18.3125 16.5 C18.03212891 17.59828125 18.03212891 17.59828125 17.74609375 18.71875 C16.34222274 24.09527726 16.34222274 24.09527726 15.1875 25.25 C12.83436445 25.32271741 10.47916332 25.33370868 8.125 25.3125 C6.83464844 25.30347656 5.54429687 25.29445312 4.21484375 25.28515625 C3.21582031 25.27355469 2.21679688 25.26195312 1.1875 25.25 C1.1875 23.93 1.1875 22.61 1.1875 21.25 C-2.7725 20.92 -6.7325 20.59 -10.8125 20.25 C-11.1425 21.9 -11.4725 23.55 -11.8125 25.25 C-16.4325 25.25 -21.0525 25.25 -25.8125 25.25 C-24.35973372 7.52625141 -24.35973372 7.52625141 -18.875 2.625 C-12.62050131 -0.18314227 -6.77445964 0.03235563 0 0 Z M-7.8125 8.25 C-8.1425 9.57 -8.4725 10.89 -8.8125 12.25 C-4.5225 12.25 -0.2325 12.25 4.1875 12.25 C4.5175 10.93 4.8475 9.61 5.1875 8.25 C0.8975 8.25 -3.3925 8.25 -7.8125 8.25 Z " fill="#000000" transform="translate(955.8125,218.75)"/>
<path d="M0 0 C1.93166016 0.01740234 1.93166016 0.01740234 3.90234375 0.03515625 C5.19269531 0.04417969 6.48304688 0.05320313 7.8125 0.0625 C8.81152344 0.07410156 9.81054688 0.08570313 10.83984375 0.09765625 C10.50984375 3.06765625 10.17984375 6.03765625 9.83984375 9.09765625 C14.12984375 9.09765625 18.41984375 9.09765625 22.83984375 9.09765625 C23.49984375 6.12765625 24.15984375 3.15765625 24.83984375 0.09765625 C29.78984375 0.09765625 34.73984375 0.09765625 39.83984375 0.09765625 C39.39455987 5.55238383 38.25446574 10.69177905 36.83984375 15.97265625 C36.66163086 16.63918213 36.48341797 17.30570801 36.29980469 17.99243164 C34.97986457 22.81761462 34.97986457 22.81761462 33.83984375 25.09765625 C28.88984375 25.09765625 23.93984375 25.09765625 18.83984375 25.09765625 C19.16984375 22.78765625 19.49984375 20.47765625 19.83984375 18.09765625 C15.54984375 17.76765625 11.25984375 17.43765625 6.83984375 17.09765625 C6.50984375 19.73765625 6.17984375 22.37765625 5.83984375 25.09765625 C0.88984375 25.09765625 -4.06015625 25.09765625 -9.16015625 25.09765625 C-8.74803853 19.2249787 -7.67499375 13.76884603 -6.16015625 8.09765625 C-5.98194336 7.42661865 -5.80373047 6.75558105 -5.62011719 6.06420898 C-3.98996631 0.12329933 -3.98996631 0.12329933 0 0 Z " fill="#000000" transform="translate(149.16015625,218.90234375)"/>
<path d="M0 0 C1.10150391 -0.00708984 2.20300781 -0.01417969 3.33789062 -0.02148438 C14.94457592 0.06957592 14.94457592 0.06957592 19.3125 4.4375 C19.26798324 10.87017143 18.66586713 16.88709924 15.3125 22.4375 C10.96056808 25.12611983 7.63572237 25.82102044 2.55859375 25.8359375 C1.29208984 25.83980469 0.02558594 25.84367187 -1.27929688 25.84765625 C-2.58962891 25.83605469 -3.89996094 25.82445312 -5.25 25.8125 C-6.56419922 25.82410156 -7.87839844 25.83570313 -9.23242188 25.84765625 C-10.49763672 25.84378906 -11.76285156 25.83992188 -13.06640625 25.8359375 C-14.2169751 25.83255371 -15.36754395 25.82916992 -16.55297852 25.82568359 C-20.04205605 25.39359127 -21.95096127 24.63165316 -24.6875 22.4375 C-25.11887531 19.36395095 -25.12580651 17.43511347 -24.6875 14.4375 C-24.56503906 13.57769531 -24.44257812 12.71789062 -24.31640625 11.83203125 C-22.91447962 5.28648417 -22.91447962 5.28648417 -19.99633789 3.26733398 C-13.47469173 -0.07552005 -7.20177949 -0.13202553 0 0 Z M-7.6875 8.4375 C-9.93509378 13.15895699 -9.93509378 13.15895699 -9.6875 17.4375 C-5.7275 17.4375 -1.7675 17.4375 2.3125 17.4375 C2.9725 14.4675 3.6325 11.4975 4.3125 8.4375 C0.3525 8.4375 -3.6075 8.4375 -7.6875 8.4375 Z " fill="#000000" transform="translate(1072.6875,218.5625)"/>
<path d="M0 0 C0.76166977 0.00222061 1.52333954 0.00444122 2.30809021 0.00672913 C3.16890701 0.00680466 4.02972382 0.00688019 4.91662598 0.00695801 C5.8520372 0.01211929 6.78744843 0.01728058 7.75120544 0.02259827 C8.70422043 0.02401321 9.65723541 0.02542816 10.63912964 0.02688599 C13.69605085 0.032503 16.75289996 0.04505836 19.80979919 0.05775452 C21.87685543 0.06276733 23.94391281 0.06733061 26.01097107 0.07142639 C31.08977507 0.08247795 36.16852489 0.09975397 41.24729919 0.12025452 C40.74931549 3.85513229 40.37238163 5.93263086 38.24729919 9.12025452 C37.88587964 11.44940274 37.55030395 13.78278929 37.24729919 16.12025452 C36.24729919 17.12025452 36.24729919 17.12025452 33.5634613 17.23377991 C32.39565125 17.22854309 31.22784119 17.22330627 30.02464294 17.21791077 C28.76458435 17.21468811 27.50452576 17.21146545 26.20628357 17.20814514 C24.86578811 17.19978855 23.52529332 17.19132359 22.18479919 17.18275452 C20.84039978 17.17774112 19.4959986 17.17317793 18.15159607 17.16908264 C14.85011979 17.15724939 11.54873116 17.14076422 8.24729919 17.12025452 C8.03073669 18.82181702 8.03073669 18.82181702 7.80979919 20.55775452 C7.24729919 24.12025452 7.24729919 24.12025452 6.24729919 25.12025452 C3.71680517 25.19339018 1.21425083 25.21272979 -1.31520081 25.18275452 C-2.02611877 25.1782428 -2.73703674 25.17373108 -3.46949768 25.16908264 C-5.23060094 25.15726316 -6.99166116 25.13932715 -8.75270081 25.12025452 C-4.40670806 0.30234855 -4.40670806 0.30234855 0 0 Z " fill="#000000" transform="translate(24.752700805664063,218.87974548339844)"/>
<path d="M0 0 C13.86 0 27.72 0 42 0 C41 7 41 7 39 9 C39 9.99 39 10.98 39 12 C39 12.99 39 13.98 39 15 C36.32151454 17.67848546 34.86029139 17.30504006 31.1171875 17.4140625 C29.95058594 17.45273438 28.78398438 17.49140625 27.58203125 17.53125 C25.74705078 17.57765625 25.74705078 17.57765625 23.875 17.625 C22.64394531 17.66367188 21.41289063 17.70234375 20.14453125 17.7421875 C17.09650624 17.8366999 14.04849138 17.92225494 11 18 C10.34 20.31 9.68 22.62 9 25 C4.05 25 -0.9 25 -6 25 C-5.37768893 22.14522349 -4.75223464 19.29119519 -4.125 16.4375 C-3.95097656 15.63763672 -3.77695312 14.83777344 -3.59765625 14.01367188 C-3.42363281 13.22412109 -3.24960937 12.43457031 -3.0703125 11.62109375 C-2.91320801 10.9036499 -2.75610352 10.18620605 -2.59423828 9.44702148 C-1.82361642 6.27366776 -0.89712463 3.1399362 0 0 Z " fill="#000000" transform="translate(712,219)"/>
<path d="M0 0 C14.19 0 28.38 0 43 0 C42.67 2.64 42.34 5.28 42 8 C37.05 8 32.1 8 27 8 C26.67 10.31 26.34 12.62 26 15 C25.68871779 16.62936782 25.35866515 18.2554027 25 19.875 C24.835 20.63554687 24.67 21.39609375 24.5 22.1796875 C24 24 24 24 23 25 C20.46950598 25.07313567 17.96695163 25.09247527 15.4375 25.0625 C14.72658203 25.05798828 14.01566406 25.05347656 13.28320312 25.04882812 C11.52209987 25.03700864 9.76103964 25.01907263 8 25 C8.75906325 19.03803717 10.19812185 13.71900458 12 8 C7.71 8 3.42 8 -1 8 C-1 2 -1 2 0 0 Z " fill="#000000" transform="translate(191,219)"/>
<path d="M0 0 C8.91 0 17.82 0 27 0 C27 2.31 27 4.62 27 7 C26 8 26 8 22.4375 8.0625 C21.303125 8.041875 20.16875 8.02125 19 8 C18.67 10.64 18.34 13.28 18 16 C19.65 16.66 21.3 17.32 23 18 C22.67 20.31 22.34 22.62 22 25 C12.76 25 3.52 25 -6 25 C-5.67 22.69 -5.34 20.38 -5 18 C-3.02 17.67 -1.04 17.34 1 17 C1.99 14.03 2.98 11.06 4 8 C2.02 8 0.04 8 -2 8 C-1.125 2.25 -1.125 2.25 0 0 Z " fill="#000000" transform="translate(237,219)"/>
<path d="M0 0 C8.91 0 17.82 0 27 0 C27 2.31 27 4.62 27 7 C26 8 26 8 22.4375 8.0625 C21.303125 8.041875 20.16875 8.02125 19 8 C18.67 10.97 18.34 13.94 18 17 C19.65 17.33 21.3 17.66 23 18 C22.67 20.31 22.34 22.62 22 25 C12.76 25 3.52 25 -6 25 C-5.67 22.69 -5.34 20.38 -5 18 C-4.071875 18 -3.14375 18 -2.1875 18 C1.06092614 17.37579279 1.06092614 17.37579279 2.06640625 15.15234375 C2.80956611 13.11673196 3.45544926 11.09699804 4 9 C2.35 8.67 0.7 8.34 -1 8 C-1.125 2.25 -1.125 2.25 0 0 Z " fill="#000000" transform="translate(68,219)"/>
<path d="M0 0 C0.99 0 1.98 0 3 0 C2.67 1.65 2.34 3.3 2 5 C1.01 5.33 0.02 5.66 -1 6 C-0.67 4.02 -0.34 2.04 0 0 Z " fill="#000000" transform="translate(705,223)"/>
<path d="M0 0 C0.66 0 1.32 0 2 0 C2 0.99 2 1.98 2 3 C1.34 3 0.68 3 0 3 C0 2.01 0 1.02 0 0 Z " fill="#000000" transform="translate(704,232)"/>
</svg>
