<svg fill="none" viewBox="0 0 89 40" xmlns="http://www.w3.org/2000/svg">
<path fill="#ffffff" d="m 10.496219,2.9456189 c 2.215399,-0.7785506 6.299507,-0.5541862 7.647299,-0.3523221 0.505185,0.076884 1.566539,0.397389 2.065647,0.5544416 0.553036,0.1762309 1.087463,0.4101388 1.608693,0.6536548 0.645224,0.3076207 1.26187,0.6634148 1.862662,1.0671639 1.039327,0.7081608 1.964344,1.5318942 2.723972,2.5701009 0.58788,0.8041658 1.004199,1.7043273 1.360136,2.652624 0.514963,1.37787 0.72469,2.80436 0.705606,4.275197 -0.0096,0.7977 -0.158267,1.583058 -0.301345,2.374397 -0.114404,0.573448 -0.279983,1.118224 -0.457998,1.659677 -0.273338,0.823429 -0.663928,1.576697 -1.175664,2.275278 -0.629274,0.861881 -1.33545,1.653125 -2.149101,2.306799 -0.518097,0.419642 -1.070847,0.810992 -1.681038,1.080152 -0.308275,0.163395 -0.623482,0.30049 -0.931758,0.419073 -0.438536,0.169755 -0.87071,0.301345 -1.293391,0.413471 l 0.05374,-0.0065 c 0,0 3.824063,6.197795 26.051534,8.328667 5.924553,0.563954 10.975073,0.627755 15.256469,0.268875 11.785781,-0.974102 17.758659,-5.107485 20.12043,-10.50663 1.093443,-2.492885 1.153636,-5.421932 0.327264,-8.036627 -1.14101,-3.620897 -3.400718,-6.3159596 -8.085807,-7.1651468 -1.798956,-0.3268369 -5.520861,-0.1824685 -8.448294,2.3744638 -0.39097,0.326846 -0.753552,0.682726 -1.07455,1.073658 -0.0413,0.04477 -0.08288,0.08607 -0.117823,0.137219 -0.0064,0.0064 -0.0131,0.01956 -0.01946,0.02597 -0.03807,0.05116 -0.07263,0.09335 -0.107569,0.138141 -0.04121,0.04479 -0.07633,0.09255 -0.111177,0.143722 -0.02544,0.02877 -0.04776,0.06076 -0.06684,0.09266 -0.03494,0.05127 -0.06988,0.106429 -0.111176,0.164154 -0.01595,0.02877 -0.04833,0.06741 -0.07054,0.10567 -0.04757,0.07681 -0.09513,0.156939 -0.142698,0.233651 -0.02535,0.02877 -0.0413,0.06076 -0.06029,0.09276 -0.04139,0.0769 -0.07643,0.144691 -0.117822,0.221593 -0.02212,0.04462 -0.05383,0.08611 -0.07595,0.130735 -0.0032,0.01918 -0.01595,0.03266 -0.02231,0.05193 -0.07614,0.144027 -0.139849,0.294605 -0.200232,0.451448 -0.02222,0.06409 -0.05383,0.131684 -0.07605,0.202131 -0.02858,0.08004 -0.06038,0.16311 -0.08896,0.249412 -0.02544,0.06409 -0.04775,0.131589 -0.06674,0.195675 -1.13161,3.563258 -0.0095,8.126347 3.836595,9.343974 0.1558,0.06722 0.441954,0.09969 0.600791,0.13814 0.158933,0.03522 0.39078,0.07349 0.663833,0.09266 0.0413,0.0065 0.08943,0.01301 0.130735,0.01301 2.450256,0.294604 3.661142,-0.561106 4.249211,-1.621605 0.01899,-0.02241 0.03551,-0.05421 0.04823,-0.08621 0.09845,-0.150578 0.18713,-0.307896 0.247513,-0.490469 0.25264,-0.751464 0.178965,-2.604251 0.178015,-2.627607 H 67.53448 l 0.01946,-0.752888 -0.0065,-3.137444 5.753088,-0.04453 5.330219,-0.03893 c 0,0 0.111176,2.422913 0.0825,3.320112 -0.02858,1.03477 -0.164914,2.059951 -0.485817,3.04668 -0.457619,1.403428 -1.128477,2.672514 -2.078654,3.758743 -0.750134,0.861976 -1.614484,1.583817 -2.577573,2.144543 -0.823239,0.483823 -1.713983,0.803492 -2.629411,1.066196 -1.388902,0.413376 -2.787584,0.497115 -4.20193,0.327359 -0.04757,-9.5e-5 -0.101683,-0.0066 -0.149249,-0.01301 -1.039232,-0.134628 -2.053114,-0.409864 -3.016108,-0.880775 -0.794662,-0.38138 -1.548595,-0.81441 -2.244612,-1.388048 -0.718045,-0.589398 -1.331178,-1.29415 -1.90624,-2.02767 -0.705607,-0.90356 -1.233768,-1.935577 -1.615149,-3.028071 -0.212954,-0.615127 -0.381096,-1.249908 -0.492368,-1.897031 -0.162065,-0.893971 -0.286059,-1.779018 -0.244759,-2.672989 0.05089,-1.108634 0.139659,-2.214515 0.432079,-3.300744 0.594431,-2.223649 1.786329,-4.0342627 3.407364,-5.5370193 0.06665,-0.057639 0.124279,-0.1184398 0.190928,-0.1696703 0.937644,-0.8426458 2.011815,-1.4709986 3.194124,-1.9099616 0.661079,-0.243516 1.319215,-0.4324216 1.99615,-0.5702105 0.02858,-0.00636 0.06048,-0.013064 0.08906,-0.019463 0.190738,-0.041679 0.683485,-0.1501029 1.388902,-0.2494119 4.036637,-0.5671629 8.210275,0.1277251 11.741633,2.258578 l 0.0028,0.010197 c 2.326642,1.4003049 8.786002,5.9153336 6.89163,15.5124226 -0.149439,0.762477 -0.299162,1.560462 -0.547055,2.326262 -1.729173,5.303065 -5.664412,9.068074 -10.835793,11.545008 -0.0071,0.0036 -0.01101,0.006 -0.01206,0.0066 C 57.440181,44.701878 25.57793,38.22258 17.075424,26.488163 L 16.280762,25.308797 H 14.32914 v 0.776054 l 0.02877,8.798818 v 0.43208 c -0.02146,0 -3.500786,9.5e-5 -5.0345504,0.0065 H 8.9543467 V 6.7590462 C 8.1630644,7.2171969 7.4862344,7.8387234 6.9173626,8.6235781 6.5677871,9.094527 6.2590082,9.5913381 5.9920511,10.113537 5.7409492,10.590979 5.2670096,12.251557 5.2670096,12.251557 H 2.250939 l 0.069537,-0.371792 c 0,0 0.3213605,-1.339484 0.5692799,-1.9804075 C 3.2044292,9.0822511 3.601466,8.3223185 4.0941471,7.5981316 4.7234778,6.675317 5.4742769,5.8840158 6.3165619,5.1726744 7.0475561,4.5479105 7.8359617,4.038719 8.6845413,3.6382074 9.2661827,3.3594585 9.8859718,3.1602992 10.496219,2.9456189 Z m 45.699086,25.0260081 -0.0066,0.484013 c 0,0 -1.662999,-1.112052 -2.378195,-1.615148 -0.861216,-0.602311 -1.722242,-1.204811 -2.602542,-1.778259 -0.883623,-0.573638 -1.75196,-1.166074 -2.622955,-1.75889 -0.883528,-0.599177 -1.779967,-1.175948 -2.657229,-1.784714 -0.940777,-0.653674 -1.900448,-1.275542 -2.860309,-1.903487 -0.413186,-0.272388 -1.341622,-0.855805 -1.341622,-0.855805 l 0.01946,9.128837 v 0.51278 h -5.184672 v -0.53775 h -0.0028 V 6.6756019 c 0,0 2.745714,1.900344 4.010908,2.7527592 0.95986,0.6472649 1.904531,1.3164619 2.861163,1.9637359 0.931284,0.63122 1.852693,1.279103 2.78711,1.900686 0.832733,0.554365 1.656543,1.121641 2.482915,1.685595 0.610476,0.419833 2.174261,1.496472 2.174261,1.496472 0,0 -0.01946,-2.620961 -0.01946,-3.717064 -0.0032,-1.944074 -0.0092,-6.2214446 -0.0093,-6.2676148 l 0.454297,0.00646 4.895479,-0.00646 z M 35.2617,28.397251 H 29.375124 V 6.6718991 H 35.2617 Z M 14.332843,22.463394 v 0.03893 h 0.72412 c 4.424474,0 8.009663,-3.791023 8.009758,-8.47896 0,-4.6879468 -3.588417,-8.4853878 -8.009758,-8.4853878 -0.178111,9.5e-6 -0.663358,0.00636 -0.730576,0 z M 30.75852,2.8102529 h -0.578575 v 2.8899747 h -0.75004 V 2.8102529 H 28.813259 V 2.1371313 h 1.945261 z m 0.927106,0.7556374 h 0.638862 v -1.428759 h 0.75004 v 3.5630963 h -0.75004 V 4.2297418 h -0.638862 v 1.4704858 h -0.75004 V 2.1371313 h 0.75004 z m 3.460246,-0.8325915 h -0.992141 v 0.8743183 h 0.925302 v 0.5998703 h -0.925302 v 0.8937909 h 1.011604 V 5.7002276 H 33.403691 V 2.1371313 h 1.742181 z"/>
</svg>
