<?xml version="1.0" encoding="UTF-8"?>
<svg version="1.1" xmlns="http://www.w3.org/2000/svg" width="600" height="400">
<path d="M0 0 C198 0 396 0 600 0 C600 132 600 264 600 400 C402 400 204 400 0 400 C0 268 0 136 0 0 Z " fill="#FEFEFE" transform="translate(0,0)"/>
<path d="M0 0 C37.39399283 -0.09160308 74.78796873 -0.16206286 112.18205111 -0.20426132 C116.59915079 -0.209264 121.01625026 -0.2144413 125.43334961 -0.21972656 C126.75236852 -0.22130043 126.75236852 -0.22130043 128.09803429 -0.22290608 C142.32669546 -0.24030001 156.55529184 -0.27183212 170.7839146 -0.30861118 C185.38937395 -0.34604879 199.99479942 -0.36824181 214.60030478 -0.37635398 C223.60897436 -0.38183591 232.61746075 -0.3991352 241.62607392 -0.43166587 C247.80792728 -0.45284858 253.98968626 -0.45919156 260.17157326 -0.45400551 C263.7355055 -0.45144955 267.29911817 -0.45530152 270.86299324 -0.4768219 C274.73473192 -0.50002943 278.60605904 -0.49191769 282.4778595 -0.48101807 C283.59364799 -0.49266943 284.70943648 -0.5043208 285.85903674 -0.51632524 C296.78731709 -0.43339558 306.58938692 2.8729343 315 10 C321.90450487 17.76343848 321.56652432 25.94967289 321.16601562 35.77587891 C320.8197285 40.41510794 319.45727938 44.53947372 317.80566406 48.86083984 C316.77490485 51.59766173 315.80743557 54.35487607 314.8359375 57.11328125 C307.40846131 78.09708276 300.4263357 97.50679665 279.4296875 108.32421875 C273.58991228 111 273.58991228 111 271 111 C271.2333606 112.03664795 271.2333606 112.03664795 271.47143555 113.09423828 C272.21846966 116.43601656 272.95285454 119.78047717 273.6875 123.125 C273.93177734 124.20910156 274.17605469 125.29320312 274.42773438 126.41015625 C277.51231336 140.54455615 279.61135402 154.66812413 282 169 C257.25 169 232.5 169 207 169 C201.24831081 141.39189189 201.24831081 141.39189189 199.6875 130.5 C199.51927734 129.36820313 199.35105469 128.23640625 199.17773438 127.0703125 C198.77891444 124.38112663 198.38841674 121.69070817 198 119 C193.05 119 188.1 119 183 119 C182.608125 120.31742187 182.21625 121.63484375 181.8125 122.9921875 C179.80818581 129.67088233 177.74158063 136.33000798 175.66601562 142.98681641 C175.22098839 144.41553654 174.77698239 145.84457516 174.33398438 147.27392578 C173.6832568 149.37343398 173.02945661 151.47196412 172.375 153.5703125 C171.99085938 154.80539551 171.60671875 156.04047852 171.2109375 157.31298828 C169.91885428 161.24706909 168.45394239 165.12282031 167 169 C144.89 169 122.78 169 100 169 C103.22419952 158.03772163 106.46745525 147.09257621 109.875 136.1875 C110.08999146 135.49789185 110.30498291 134.80828369 110.52648926 134.09777832 C113.38135285 124.9541077 116.37270498 115.87531493 119.6081543 106.85839844 C121.48281873 101.59637521 123.13396884 96.30231629 124.6875 90.9375 C128.64667346 77.29814743 133.43824516 63.91761721 138.09706116 50.5052948 C139.42539065 46.67899506 140.72742264 42.84520311 142 39 C149.32933849 39.69509006 156.46648053 40.95449737 163.6875 42.375 C164.84145264 42.59905518 165.99540527 42.82311035 167.18432617 43.05395508 C174.12181203 44.40879145 181.03078713 45.8544819 187.93359375 47.375 C193.25559959 48.45974004 198.62321316 49.24081913 204 50 C202.14667656 53.99021548 199.77743298 57.65923612 197.4375 61.375 C196.99712402 62.0774585 196.55674805 62.77991699 196.10302734 63.50366211 C192.45608572 69.3081057 188.74636274 75.070627 185.0078125 80.81640625 C182.89851764 84.16091074 180.93803457 87.55412239 179 91 C181.31350852 89.64753629 183.6257876 88.29302902 185.9375 86.9375 C187.04291138 86.29095459 187.04291138 86.29095459 188.1706543 85.63134766 C192.99463574 82.79948552 197.78446814 79.91769715 202.5546875 76.99609375 C203.67238525 76.31490479 204.79008301 75.63371582 205.94165039 74.93188477 C208.17179236 73.57105721 210.39763248 72.20315212 212.61889648 70.82788086 C213.64829346 70.20147705 214.67769043 69.57507324 215.73828125 68.9296875 C217.11560425 68.08253174 217.11560425 68.08253174 218.52075195 67.21826172 C221 66 221 66 225 66 C226.98498809 67.54554042 228.7129882 69.06266882 230.5 70.8125 C231.56219886 71.82062989 232.62470823 72.82843269 233.6875 73.8359375 C234.23148438 74.35768555 234.77546875 74.87943359 235.3359375 75.41699219 C238.01724156 77.96769282 240.76116616 80.44893009 243.5 82.9375 C246.73933454 85.89382816 249.92425001 88.87347112 253 92 C252.75765625 90.98164063 252.5153125 89.96328125 252.265625 88.9140625 C251.36294927 85.10947499 250.47004425 81.30266424 249.58203125 77.49462891 C249.19545082 75.83771666 248.80744047 74.18113735 248.41796875 72.52490234 C247.8550204 70.12231919 247.30140259 67.71775611 246.75 65.3125 C246.48751465 64.20092529 246.48751465 64.20092529 246.21972656 63.06689453 C244.26794347 54.45666428 244.26794347 54.45666428 245 51 C247.29961368 48.89854538 249.93518595 47.5542222 252.6875 46.125 C260.30006074 41.97269414 267.58265168 37.56452204 275 33 C263.12 32.67 251.24 32.34 239 32 C238.175 28.98875 237.35 25.9775 236.5 22.875 C236.23896484 21.93769043 235.97792969 21.00038086 235.70898438 20.03466797 C234.51445027 15.58360636 233.69477243 11.65472043 234 7 C230.94276022 9.8565457 228.74483506 12.74919541 226.5625 16.3125 C224.50762051 19.62240266 222.43360806 22.86163136 220.125 26 C217.88911931 28.84879906 217.88911931 28.84879906 217 32 C180.7 32 144.4 32 107 32 C106.34 34.97 105.68 37.94 105 41 C104.23972713 43.5083134 103.43989064 46.00496555 102.6015625 48.48828125 C102.37085052 49.17617233 102.14013855 49.86406342 101.9024353 50.57279968 C101.14747168 52.82079822 100.38621366 55.06661103 99.625 57.3125 C99.08675483 58.91194633 98.54900394 60.51155906 98.01171875 62.11132812 C96.89676433 65.42984511 95.77970148 68.74764101 94.66113281 72.06494141 C92.33635996 78.96474151 90.03761766 85.87318598 87.73855591 92.78158569 C86.99754486 95.00737454 86.25564895 97.23286638 85.51342773 99.45825195 C83.21254786 106.35693971 80.91387623 113.25634274 78.62252808 120.15820312 C77.5654843 123.34173985 76.50726698 126.52488597 75.44897461 129.70800781 C74.95523174 131.19414376 74.46203405 132.680461 73.96948242 134.16699219 C70.1062128 145.82571563 66.0584264 157.40449599 62 169 C38.57 169 15.14 169 -9 169 C-4.89451386 154.33754951 -0.82875008 139.88050206 4.0625 125.5 C4.55848665 124.02362013 5.05392717 122.54705667 5.54882812 121.0703125 C14.31738371 94.97793397 14.31738371 94.97793397 18.203125 85.54296875 C20.10725212 80.8896354 21.45200152 76.16440698 22.75 71.3125 C26.43259588 57.97946512 30.86233586 44.84416035 36 32 C21.15 32 6.3 32 -9 32 C-6.75 19.625 -6.75 19.625 -5.2734375 15.33203125 C-4.9640625 14.42001953 -4.6546875 13.50800781 -4.3359375 12.56835938 C-4.01882812 11.65892578 -3.70171875 10.74949219 -3.375 9.8125 C-3.05015625 8.86052734 -2.7253125 7.90855469 -2.390625 6.92773438 C-1.60068653 4.61600268 -0.80378476 2.30694578 0 0 Z " fill="#060503" transform="translate(137,87)"/>
<path d="M0 0 C4.19918185 -0.07430494 8.39801274 -0.12867413 12.59765625 -0.16479492 C14.02545846 -0.17985681 15.4532146 -0.20031062 16.88085938 -0.22631836 C18.93631373 -0.26281842 20.99115505 -0.27975166 23.046875 -0.29296875 C24.90070801 -0.31653442 24.90070801 -0.31653442 26.79199219 -0.34057617 C30.24143602 0.02563191 31.65361233 0.47198668 34 3 C34.68098347 8.83700118 33.86487306 12.76419751 31 18 C28.4375 20.9375 28.4375 20.9375 26 23 C25.34 23 24.68 23 24 23 C24.495 24.5778125 24.495 24.5778125 25 26.1875 C26 30 26 30 26 35 C20.72 35 15.44 35 10 35 C9.505 30.05 9.505 30.05 9 25 C7.68 25 6.36 25 5 25 C4.34 28.3 3.68 31.6 3 35 C-1.62 35 -6.24 35 -11 35 C-9.62497417 26.91605695 -7.23084186 19.55007499 -4.375 11.875 C-3.95476562 10.72773438 -3.53453125 9.58046875 -3.1015625 8.3984375 C-2.0741853 5.59649968 -1.04023306 2.79718478 0 0 Z " fill="#171919" transform="translate(260,278)"/>
<path d="M0 0 C2.19310422 -0.01718468 4.38468961 -0.06104973 6.57739258 -0.10522461 C7.97256377 -0.11535393 9.3677478 -0.12386929 10.76293945 -0.13061523 C12.03435791 -0.14519775 13.30577637 -0.15978027 14.61572266 -0.17480469 C17.8996582 0.29516602 17.8996582 0.29516602 20.34570312 2.15771484 C21.8996582 4.29516602 21.8996582 4.29516602 21.8996582 6.92016602 C17.81177222 20.71678122 17.81177222 20.71678122 11.8996582 24.29516602 C8.58971107 25.95013958 4.9084282 25.39600937 1.2746582 25.35766602 C0.47286133 25.3531543 -0.32893555 25.34864258 -1.1550293 25.34399414 C-3.13683186 25.3321977 -5.11859613 25.31426207 -7.1003418 25.29516602 C-8.0903418 28.59516602 -9.0803418 31.89516602 -10.1003418 35.29516602 C-14.7203418 35.29516602 -19.3403418 35.29516602 -24.1003418 35.29516602 C-22.81477633 29.07747918 -21.17766644 23.16561287 -19.1003418 17.17016602 C-18.57804449 15.64722981 -18.05718952 14.12379811 -17.5378418 12.59985352 C-17.29163086 11.87765625 -17.04541992 11.15545898 -16.79174805 10.41137695 C-16.13036795 8.38706809 -15.54065706 6.35591043 -14.9753418 4.30297852 C-13.08164469 -2.20660529 -5.80308715 0.03172501 0 0 Z " fill="#161819" transform="translate(218.100341796875,277.704833984375)"/>
<path d="M0 0 C2.18621534 0.00316279 4.37108058 -0.02031523 6.55712891 -0.0456543 C7.94645012 -0.04792711 9.33577496 -0.04863087 10.72509766 -0.04760742 C11.98902344 -0.05058838 13.25294922 -0.05356934 14.55517578 -0.05664062 C17.69384766 0.31567383 17.69384766 0.31567383 19.63647461 1.64550781 C21.08470418 3.93304845 20.72197876 5.67527475 20.21875 8.26000977 C19.20317621 12.23728016 17.90193994 16.08244895 16.50634766 19.94067383 C16.22726563 20.7734082 15.94818359 21.60614258 15.66064453 22.46411133 C14.15107618 26.6495812 12.58219193 30.80196254 8.85083008 33.5012207 C4.00172156 35.33219139 -1.35030831 34.92664506 -6.46630859 34.80273438 C-8.56456446 34.75297434 -10.6604824 34.74122972 -12.75927734 34.7355957 C-22.99426871 34.62755746 -22.99426871 34.62755746 -25.30615234 32.31567383 C-25.67485195 27.24761659 -24.94589524 22.88721784 -23.61865234 18.00317383 C-23.30541016 16.79016602 -22.99216797 15.5771582 -22.66943359 14.32739258 C-21.30615234 11.31567383 -21.30615234 11.31567383 -19.05615234 9.93676758 C-16.01471804 9.24985273 -13.10526854 8.89583534 -9.99365234 8.69067383 C-8.92501953 8.6159082 -7.85638672 8.54114258 -6.75537109 8.46411133 C-5.54300781 8.39063477 -5.54300781 8.39063477 -4.30615234 8.31567383 C-6.30615234 14.98234049 -8.30615234 21.64900716 -10.30615234 28.31567383 C-7.33615234 28.31567383 -4.36615234 28.31567383 -1.30615234 28.31567383 C-1.07927734 27.09879883 -0.85240234 25.88192383 -0.61865234 24.62817383 C0.77569098 18.25694082 3.27628582 12.35957841 5.69384766 6.31567383 C-1.89615234 6.31567383 -9.48615234 6.31567383 -17.30615234 6.31567383 C-15.19642661 -2.12322909 -7.16936136 -0.02178401 0 0 Z " fill="#111314" transform="translate(177.30615234375,278.684326171875)"/>
<path d="M0 0 C4.62 0 9.24 0 14 0 C12.125 9.625 12.125 9.625 11 13 C12.37607531 11.93889304 13.75079832 10.87603232 15.125 9.8125 C15.95257813 9.17828125 16.78015625 8.5440625 17.6328125 7.890625 C19.55289747 6.35709179 21.2532598 4.77963443 23 3.0625 C27.05354674 0.27568661 30.22894853 0.52289485 35 1 C30 6 30 6 27.625 7.6875 C25.33652438 10.94417685 26.00669051 13.08188847 26.5703125 16.91796875 C27.08985693 20.64451925 27.33353363 24.37231454 27.5625 28.125 C27.706875 30.39375 27.85125 32.6625 28 35 C23.05 35 18.1 35 13 35 C11 25.5 11 25.5 11 21 C10.34 21 9.68 21 9 21 C8.67 21.99 8.34 22.98 8 24 C7.34 24 6.68 24 6 24 C5.86722656 24.62648438 5.73445313 25.25296875 5.59765625 25.8984375 C5.42105469 26.71570313 5.24445313 27.53296875 5.0625 28.375 C4.88847656 29.18710937 4.71445312 29.99921875 4.53515625 30.8359375 C4 33 4 33 3 35 C-1.62 35 -6.24 35 -11 35 C-9.48281116 26.65546137 -6.57581828 18.8988311 -3.69873047 10.94970703 C-2.39854321 7.32172119 -1.19863638 3.66250005 0 0 Z " fill="#111314" transform="translate(385,278)"/>
<path d="M0 0 C1.63074674 0.05281771 3.26058591 0.14777106 4.88671875 0.28125 C5.72267578 0.31734375 6.55863281 0.3534375 7.41992188 0.390625 C9.47333781 0.48449544 11.52437965 0.627991 13.57421875 0.78125 C13.71369103 12.15598908 13.30992741 23.43031646 12.57421875 34.78125 C7.62421875 34.78125 2.67421875 34.78125 -2.42578125 34.78125 C-2.42578125 31.48125 -2.42578125 28.18125 -2.42578125 24.78125 C-7.54126383 24.69788078 -7.54126383 24.69788078 -12.42578125 25.78125 C-14.30346418 27.9976686 -15.57487175 30.27419469 -16.9765625 32.8125 C-17.69392578 33.78703125 -17.69392578 33.78703125 -18.42578125 34.78125 C-22.30078125 35.34375 -22.30078125 35.34375 -25.42578125 34.78125 C-22.56448371 28.74302018 -19.25519654 23.29289135 -15.48828125 17.78125 C-14.45718562 16.26119456 -13.42722804 14.7403665 -12.3984375 13.21875 C-11.89159424 12.48591797 -11.38475098 11.75308594 -10.86254883 10.99804688 C-9.38713914 8.81102275 -9.38713914 8.81102275 -8.26049805 6.45507812 C-6.11683323 2.27782233 -4.87316833 0.3241014 0 0 Z " fill="#101213" transform="translate(314.42578125,278.21875)"/>
<path d="M0 0 C1.43352212 0.00015908 2.86704998 0.00585132 4.30053711 0.01586914 C5.43041298 0.01799156 5.43041298 0.01799156 6.58311462 0.02015686 C8.99807646 0.02577163 11.41294687 0.03832656 13.82788086 0.05102539 C15.46134307 0.05603849 17.09480672 0.06060173 18.72827148 0.06469727 C22.74067671 0.07574585 26.75301326 0.09302033 30.76538086 0.11352539 C29.89038086 4.86352539 29.89038086 4.86352539 28.76538086 7.11352539 C26.48022461 7.52758789 26.48022461 7.52758789 23.70288086 7.73852539 C22.7837793 7.81329102 21.86467773 7.88805664 20.91772461 7.96508789 C19.85231445 8.03856445 19.85231445 8.03856445 18.76538086 8.11352539 C18.61842773 8.72196289 18.47147461 9.33040039 18.32006836 9.95727539 C16.10952358 18.59618602 12.98378857 26.81232492 9.76538086 35.11352539 C4.81538086 35.11352539 -0.13461914 35.11352539 -5.23461914 35.11352539 C-4.10943548 28.36242342 -4.10943548 28.36242342 -3.11352539 25.23852539 C-2.90018555 24.56305664 -2.6868457 23.88758789 -2.46704102 23.19165039 C-2.2459668 22.50586914 -2.02489258 21.82008789 -1.79711914 21.11352539 C-1.57991211 20.42774414 -1.36270508 19.74196289 -1.13891602 19.03540039 C0.1275559 15.04962691 1.43356584 11.07799801 2.76538086 7.11352539 C0.12538086 7.11352539 -2.51461914 7.11352539 -5.23461914 7.11352539 C-4.19709702 0.14730547 -4.19709702 0.14730547 0 0 Z " fill="#101313" transform="translate(127.234619140625,277.886474609375)"/>
<path d="M0 0 C4.50234373 -0.04944705 9.0045293 -0.08574161 13.50708008 -0.10986328 C15.03868361 -0.11991935 16.57026795 -0.133566 18.10180664 -0.15087891 C20.30359636 -0.17514498 22.50513219 -0.18648688 24.70703125 -0.1953125 C25.39150833 -0.20563507 26.07598541 -0.21595764 26.78120422 -0.22659302 C30.43061661 -0.22745382 31.87148502 -0.08567666 35 2 C35.77519553 8.72086995 33.93693304 13.95635576 31.5625 20.1875 C30.9150297 21.92990026 30.27040357 23.67336058 29.62890625 25.41796875 C29.34088135 26.17875732 29.05285645 26.9395459 28.75610352 27.72338867 C27.81055046 30.41446923 27.81055046 30.41446923 27 35 C22.38 35 17.76 35 13 35 C14.57009185 25.26543055 17.80397638 16.31015575 21 7 C13.74 7 6.48 7 -1 7 C-0.67 4.69 -0.34 2.38 0 0 Z " fill="#161718" transform="translate(342,278)"/>
<path d="M0 0 C7.26 0 14.52 0 22 0 C21.34 1.32 20.68 2.64 20 4 C17.69 4 15.38 4 13 4 C12.79503906 4.68707031 12.59007812 5.37414062 12.37890625 6.08203125 C12.10949219 6.98308594 11.84007812 7.88414062 11.5625 8.8125 C11.29566406 9.70582031 11.02882813 10.59914063 10.75390625 11.51953125 C10.19612127 13.35473055 9.60655425 15.18033726 9 17 C10.65 17 12.3 17 14 17 C13.67 18.65 13.34 20.3 13 22 C11.02 22.33 9.04 22.66 7 23 C6.01 26.3 5.02 29.6 4 33 C-0.62 33 -5.24 33 -10 33 C-8.65405883 25.30688362 -6.51799793 18.21562322 -3.875 10.875 C-3.50246094 9.823125 -3.12992188 8.77125 -2.74609375 7.6875 C-1.83680447 5.12283792 -0.91926128 2.5611047 0 0 Z " fill="#0E0F10" transform="translate(259,280)"/>
<path d="M0 0 C0.721875 0.00257813 1.44375 0.00515625 2.1875 0.0078125 C0.54981563 9.01507651 -2.68229697 17.43420608 -5.8125 26.0078125 C-10.7625 26.0078125 -15.7125 26.0078125 -20.8125 26.0078125 C-20.15330028 23.71796083 -19.4838104 21.43074671 -18.7734375 19.15625 C-18.08027791 16.88516614 -17.44680255 14.59556623 -16.8515625 12.296875 C-14.06556111 2.71382057 -14.06556111 2.71382057 -10.44140625 0.671875 C-6.90286242 -0.05371051 -3.59576989 0.00998825 0 0 Z " fill="#121315" transform="translate(351.8125,286.9921875)"/>
<path d="M0 0 C1.07765625 0.01804687 2.1553125 0.03609375 3.265625 0.0546875 C4.49539062 0.08949219 4.49539062 0.08949219 5.75 0.125 C3.59071065 7.51893019 1.2195482 14.82917741 -1.25 22.125 C-4.22 22.125 -7.19 22.125 -10.25 22.125 C-9.82534294 14.76427766 -7.26651083 8.80362176 -4.25 2.125 C-6.23 2.125 -8.21 2.125 -10.25 2.125 C-6.7733662 -0.01836161 -4.03770805 -0.08777626 0 0 Z " fill="#F4F5F5" transform="translate(177.25,284.875)"/>
<path d="M0 0 C2.64 0 5.28 0 8 0 C7.71758359 1.46015291 7.42373386 2.91809793 7.125 4.375 C6.96257812 5.18710937 6.80015625 5.99921875 6.6328125 6.8359375 C6 9 6 9 4 11 C0.375 11.125 0.375 11.125 -3 11 C-2.53199289 6.94393835 -2.12046792 3.53411321 0 0 Z " fill="#EDEEEF" transform="translate(272,285)"/>
<path d="M0 0 C2.64 0 5.28 0 8 0 C7.69078116 1.45903258 7.37751201 2.91720722 7.0625 4.375 C6.88847656 5.18710937 6.71445313 5.99921875 6.53515625 6.8359375 C6 9 6 9 5 11 C2.36 11 -0.28 11 -3 11 C-2.44894091 7.0507432 -1.61064629 3.65079826 0 0 Z " fill="#F7F9F8" transform="translate(217,285)"/>
<path d="M0 0 C2.5625 0.3125 2.5625 0.3125 4.4375 1.5 C5.5625 3.3125 5.5625 3.3125 5.375 5.875 C4.5625 8.3125 4.5625 8.3125 2.5625 10.3125 C0.0625 10.5625 0.0625 10.5625 -2.4375 10.3125 C-4.4375 8.3125 -4.4375 8.3125 -4.6875 5.3125 C-4.37675292 1.58353509 -3.7821044 0.48488518 0 0 Z " fill="#565859" transform="translate(429.4375,277.6875)"/>
<path d="M0 0 C11.22 0 22.44 0 34 0 C33.67 1.65 33.34 3.3 33 5 C32.505 3.515 32.505 3.515 32 2 C15.665 2.495 15.665 2.495 -1 3 C-0.67 2.01 -0.34 1.02 0 0 Z " fill="#535556" transform="translate(124,278)"/>
<path d="M0 0 C1.4536406 0.02642983 2.90702568 0.07390931 4.359375 0.140625 C5.47699219 0.16769531 5.47699219 0.16769531 6.6171875 0.1953125 C8.44847201 0.24226851 10.27909149 0.31400848 12.109375 0.390625 C11.779375 1.710625 11.449375 3.030625 11.109375 4.390625 C4.839375 4.390625 -1.430625 4.390625 -7.890625 4.390625 C-3.890625 0.390625 -3.890625 0.390625 0 0 Z " fill="#080A09" transform="translate(168.890625,279.609375)"/>
<path d="M0 0 C0.99 0 1.98 0 3 0 C3.33 0.99 3.66 1.98 4 3 C4.66 2.01 5.32 1.02 6 0 C6.99 0 7.98 0 9 0 C9 2.97 9 5.94 9 9 C6.03 9 3.06 9 0 9 C0 6.03 0 3.06 0 0 Z " fill="#353535" transform="translate(472,87)"/>
<path d="M0 0 C2.64 0 5.28 0 8 0 C7.34 1.65 6.68 3.3 6 5 C3.36 4.67 0.72 4.34 -2 4 C-1.34 2.68 -0.68 1.36 0 0 Z " fill="#090A0C" transform="translate(220,280)"/>
<path d="M0 0 C0.90492188 0.02320313 1.80984375 0.04640625 2.7421875 0.0703125 C4.10730469 0.09738281 4.10730469 0.09738281 5.5 0.125 C6.19867188 0.14820313 6.89734375 0.17140625 7.6171875 0.1953125 C7.2871875 1.5153125 6.9571875 2.8353125 6.6171875 4.1953125 C6.6171875 3.5353125 6.6171875 2.8753125 6.6171875 2.1953125 C5.95332031 2.3396875 5.28945313 2.4840625 4.60546875 2.6328125 C3.72246094 2.8184375 2.83945312 3.0040625 1.9296875 3.1953125 C0.62451172 3.47375 0.62451172 3.47375 -0.70703125 3.7578125 C-3.31994214 4.18503297 -5.74094288 4.27147451 -8.3828125 4.1953125 C-7.7640625 3.9065625 -7.1453125 3.6178125 -6.5078125 3.3203125 C-0.27936422 0.02289871 -0.27936422 0.02289871 0 0 Z " fill="#E4E5E5" transform="translate(347.3828125,284.8046875)"/>
<path d="M0 0 C2.64 0 5.28 0 8 0 C8 0.66 8 1.32 8 2 C7.01 2 6.02 2 5 2 C5 4.31 5 6.62 5 9 C4.34 9 3.68 9 3 9 C3 6.69 3 4.38 3 2 C2.01 2 1.02 2 0 2 C0 1.34 0 0.68 0 0 Z " fill="#151515" transform="translate(463,87)"/>
<path d="M0 0 C0.33 0 0.66 0 1 0 C1 2.64 1 5.28 1 8 C-0.98 8 -2.96 8 -5 8 C-1.125 1.125 -1.125 1.125 0 0 Z " fill="#DFE0E2" transform="translate(312,288)"/>
<path d="M0 0 C5.94 0 11.88 0 18 0 C18 0.33 18 0.66 18 1 C12.39 1 6.78 1 1 1 C0.67 2.32 0.34 3.64 0 5 C-0.66 5 -1.32 5 -2 5 C-1.34 3.35 -0.68 1.7 0 0 Z " fill="#282A2A" transform="translate(310,279)"/>
<path d="M0 0 C0.99 0 1.98 0 3 0 C3 2.97 3 5.94 3 9 C2.34 9 1.68 9 1 9 C0.67 6.03 0.34 3.06 0 0 Z " fill="#0C0C0C" transform="translate(478,87)"/>
<path d="M0 0 C0.66 0 1.32 0 2 0 C2 1.32 2 2.64 2 4 C-1 6.25 -1 6.25 -4 8 C-2.25 2.25 -2.25 2.25 0 0 Z " fill="#C6C5C1" transform="translate(369,94)"/>
</svg>
