<?xml version="1.0" encoding="UTF-8" standalone="no"?>
<svg
   xmlns:dc="http://purl.org/dc/elements/1.1/"
   xmlns:cc="http://creativecommons.org/ns#"
   xmlns:rdf="http://www.w3.org/1999/02/22-rdf-syntax-ns#"
   xmlns:svg="http://www.w3.org/2000/svg"
   xmlns="http://www.w3.org/2000/svg"
   width="64"
   height="64"
   viewBox="0 0 16.933333 16.933334"
   version="1.1"
   id="svg8">
  <defs
     id="defs2" />
  <metadata
     id="metadata5">
    <rdf:RDF>
      <cc:Work
         rdf:about="">
        <dc:format>image/svg+xml</dc:format>
        <dc:type
           rdf:resource="http://purl.org/dc/dcmitype/StillImage" />
        <dc:title></dc:title>
      </cc:Work>
    </rdf:RDF>
  </metadata>
  <g
     id="layer1">
    <g
       id="g877"
       transform="matrix(0.03863818,0,0,0.03863818,-38.48857,-11.111027)">
      <path
         d="m 0,0 c 14.309915,1.2521176 25.957932,14.748516 35,25 3.676108,4.441368 6.923406,9.128611 10,14 0.361743,0.570732 0.723486,1.141465 1.096191,1.729492 22.788755,36.548586 21.111388,75.844668 13.524903,116.735348 -0.227923,1.23887 -0.455845,2.47774 -0.690674,3.75415 -0.438214,2.3546 -0.888911,4.70692 -1.354981,7.05616 -1.628329,8.58114 -3.229297,17.92866 -0.325439,26.34985 1.790212,2.42957 3.197018,3.79023 5.75,5.375 6.356867,0.80147 11.870714,-1.26737 16.90625,-5.03516 C 90.624879,184.90613 95.712543,167.29521 97,153 96.98453,151.65615 96.98453,151.65615 96.96875,150.28516 97,148 97,148 98.125,146.1875 c 2.81584,-1.78337 4.5944,-1.63778 7.875,-1.1875 6.71524,3.70023 11.38139,9.34881 16.25391,15.13281 1.77528,1.89841 3.6714,3.31334 5.74609,4.86719 0.43312,0.7425 0.86625,1.485 1.3125,2.25 1.53468,2.50096 2.83508,3.90715 4.95312,5.86719 3.89774,3.84704 6.52257,7.99259 9.17188,12.75781 0.46809,0.82935 0.93618,1.6587 1.41846,2.51318 19.42795,34.86677 26.85061,74.17244 16.39795,113.36182 -11.15385,38.96095 -36.96623,73.04795 -72.37891,93.125 -34.855184,19.10052 -74.491329,23.4579 -112.75,12.5625 C -39.80552,402.58134 -54.829861,395.20913 -68,385 c -0.903633,-0.6832 -1.807266,-1.36641 -2.738281,-2.07031 C -83.810935,372.67588 -94.817563,360.81687 -104,347 c -0.60086,-0.8984 -0.60086,-0.8984 -1.21387,-1.81494 -20.96326,-31.82511 -29.017,-72.3032 -21.75879,-109.73584 6.3475,-29.86015 20.22615,-54.78906 40.929691,-77.21485 1.894322,-2.0718 3.693079,-4.19546 5.480469,-6.35937 0.845625,-0.94875 1.69125,-1.8975 2.5625,-2.875 0.66,0 1.32,0 2,0 0.26389,-0.58986 0.52778,-1.17972 0.799667,-1.78746 1.249172,-2.30256 2.541895,-3.78352 4.405655,-5.61317 0.651506,-0.6449 1.303011,-1.2898 1.974259,-1.95424 0.705152,-0.68856 1.410305,-1.37712 2.136825,-2.08654 0.730491,-0.72291 1.460981,-1.44583 2.213608,-2.19065 3.117338,-3.08481 6.246146,-6.15787 9.374527,-9.23147 C -46.583303,117.7607 -38.246482,109.51952 -31,100 c 0.458503,-0.579192 0.917007,-1.158384 1.389404,-1.755127 C -10.580627,74.201824 -1.4724961,50.397712 -2,19.9375 -2.0532343,16.800796 -2.0930751,13.664328 -2.125,10.527344 -2.1415967,9.81489 -2.1581934,9.1024362 -2.175293,8.3683929 -2.2123014,4.6612592 -2.1171519,3.1757278 0,0 Z"
         fill="#f14318"
         transform="translate(1198,298)"
         id="path833" />
      <path
         d="m 0,0 c 3.25,0.125 3.25,0.125 7,1 3.871089,4.6915515 5.474606,9.832211 7.3125,15.5625 7.649534,22.652013 19.147948,34.757382 40.5,45.4375 2.059498,1.006167 4.120889,2.008523 6.1875,3 -0.175781,3.3125 -0.175781,3.3125 -1,7 -2.230469,1.75 -2.230469,1.75 -5.1875,3 -1.624219,0.732832 -1.624219,0.732832 -3.28125,1.480469 C 50.365937,76.981914 49.200625,77.483359 48,78 32.533209,84.943244 23.490822,93.324367 17,109 c -1.660113,4.60365 -3.17565,9.25057 -4.566895,13.94238 C 9.8819363,131.31424 9.8819363,131.31424 6,134 2.5,134.125 2.5,134.125 -1,133 -4.8243274,128.23849 -6.7420386,122.92274 -8.875,117.25 -14.548715,102.70988 -22.290959,88.150857 -37,81 -40.372025,79.883852 -43.732467,78.91038 -47.179687,78.054687 -50.406957,76.847814 -51.388381,76.00907 -53,73 c -0.652344,-2.4375 -0.652344,-2.4375 -0.9375,-5 -0.112148,-0.845625 -0.224297,-1.69125 -0.339844,-2.5625 C -54,63 -54,63 -52.359375,60.808594 -49.700001,58.770034 -47.52786,57.97457 -44.3125,57.0625 -30.022235,52.570778 -19.922406,44.292245 -12.906738,30.912598 -10.309901,25.435046 -8.5319291,19.620205 -6.640625,13.87207 -4.9506984,8.9336721 -2.8919403,4.3379104 0,0 Z"
         fill="#f14218"
         transform="translate(1333,324)"
         id="path839" />
      <path
         d="M 0,0 C 0,9.24 0,18.48 0,28 -0.99,27.67 -1.98,27.34 -3,27 -3,18.42 -3,9.84 -3,1 -1,0 -1,0 0,0 Z"
         fill="#f24a22"
         transform="translate(1072,547)"
         id="path841" />
      <path
         d="m 0,0 c 0.99,0 1.98,0 3,0 0.7144255,11.422708 1.3744884,22.602319 0,34 -0.99,0 -1.98,0 -3,0 0,-2.31 0,-4.62 0,-7 0.66,0 1.32,0 2,0 C 1.8596751,23.812233 1.7117336,20.624862 1.5625,17.4375 1.5231836,16.542246 1.4838672,15.646992 1.4433594,14.724609 1.2066722,9.7541781 0.80178328,4.9117648 0,0 Z"
         fill="#f14428"
         transform="translate(1360,545)"
         id="path843" />
      <path
         d="m 0,0 c 0,4.1252735 -1.4912594,5.765045 -4,9 -1.9310207,1.540107 -3.8643054,2.737999 -6,4 -0.66,-0.33 -1.32,-0.66 -2,-1 C -8.04,8.04 -4.08,4.08 0,0 Z"
         fill="#f3573e"
         transform="translate(1142,425)"
         id="path845" />
    </g>
  </g>
</svg>
