<?xml version="1.0" encoding="UTF-8" standalone="no"?>
<svg
   xmlns:dc="http://purl.org/dc/elements/1.1/"
   xmlns:cc="http://creativecommons.org/ns#"
   xmlns:rdf="http://www.w3.org/1999/02/22-rdf-syntax-ns#"
   xmlns:svg="http://www.w3.org/2000/svg"
   xmlns="http://www.w3.org/2000/svg"
   width="64"
   height="64"
   viewBox="0 0 16.933333 16.933334"
   version="1.1"
   id="svg8">
  <defs
     id="defs2" />
  <metadata
     id="metadata5">
    <rdf:RDF>
      <cc:Work
         rdf:about="">
        <dc:format>image/svg+xml</dc:format>
        <dc:type
           rdf:resource="http://purl.org/dc/dcmitype/StillImage" />
        <dc:title></dc:title>
      </cc:Work>
    </rdf:RDF>
  </metadata>
  <g
     id="layer1">
    <g
       id="g877"
       transform="matrix(0.03881903,0,0,0.03881903,-1.3439274,-11.16492)">
      <path
         d="m 0,0 c 3.0063815,2.2861408 5.6411962,4.898137 8.3125,7.5625 1.5109206,1.4669683 3.022634,2.93312 4.535156,4.398438 0.719458,0.703505 1.438916,1.407011 2.180176,2.131835 2.346958,2.269676 4.76751,4.442367 7.222168,6.594727 31.810394,28.515939 53.875339,65.058554 56.621094,108.46484 0.06381,1.40959 0.06381,1.40959 0.128906,2.84766 0.07928,1.39412 0.07928,1.39412 0.160156,2.81641 C 79.829646,157.14244 74.207973,179.3835 66,200 c 14.217428,-3.93181 24.882995,-16.445 32.062012,-28.83252 4.425698,-8.02909 7.999928,-16.31812 10.860598,-25.02783 1.328,-3.86778 2.40811,-6.18687 6.07739,-8.13965 3.38768,-0.67754 4.82106,-0.96067 8,0 26.74197,20.45922 40.71119,67.12653 45,99 0.49377,4.33368 0.81914,8.64249 1,13 0.0619,1.35158 0.0619,1.35158 0.125,2.73047 C 170.10023,295.94539 153.29974,335.73755 124,367 c -23.25263,23.93699 -55.837114,40.1716 -89,44 -0.870117,0.10957 -1.740234,0.21914 -2.636719,0.33203 -38.0168189,4.16243 -76.60465,-6.94541 -106.652099,-30.4602 -33.537912,-26.92451 -53.982612,-64.04105 -59.057132,-106.78589 -4.10429,-42.30302 8.0507,-85.56322 34.78345,-118.83594 1.504537,-1.76403 3.02571,-3.514 4.5625,-5.25 0.806953,-0.91652 1.613906,-1.83305 2.445313,-2.77734 5.409476,-6.01502 11.036248,-11.80138 16.742187,-17.53516 0.652991,-0.65766 1.305981,-1.31533 1.97876,-1.99292 3.847932,-3.83534 7.815204,-7.46584 11.925293,-11.01758 C -49.000084,106.21282 -38.739097,94.21419 -30,81 c 0.513047,-0.765703 1.026094,-1.531406 1.554688,-2.320313 C -23.912951,71.564115 -20.686,63.971418 -18,56 c 0.214629,-0.632769 0.429258,-1.265537 0.650391,-1.91748 3.894441,-12.168583 3.667513,-24.458876 3.290527,-37.090088 -0.01532,-0.679633 -0.03064,-1.359266 -0.04643,-2.059494 C -14.149675,13.065941 -14.21278,11.199419 -14.2771,9.3330078 -13.912224,4.9442106 -12.64961,1.4139511 -9.25,-1.5 -5.8182132,-2.2626193 -3.1104483,-1.4514412 0,0 Z M 10,43 C 8.5412567,47.192301 7.4089429,51.372962 6.375,55.6875 -0.28356284,81.443236 -15.078087,104.34731 -34.488281,122.39844 -36.228805,123.87535 -36.228805,123.87535 -36,126 c -0.589862,0.26553 -1.179724,0.53105 -1.78746,0.80463 -2.275924,1.22961 -3.782016,2.5052 -5.613175,4.32135 -0.644899,0.63536 -1.289797,1.27073 -1.954239,1.92535 -0.688555,0.68947 -1.377111,1.37893 -2.086532,2.08929 -0.722918,0.71864 -1.445835,1.43727 -2.190659,2.17768 -1.533156,1.52741 -3.063695,3.05745 -4.591812,4.5899 -2.297191,2.30031 -4.60724,4.58709 -6.918701,6.87305 -10.859473,10.8119 -21.077162,21.96402 -29.107422,35.09375 -0.406377,0.66234 -0.812754,1.32467 -1.231445,2.00708 -17.620825,29.43873 -23.826565,67.08935 -16.156735,100.61743 8.64821,33.88486 27.053674,63.60432 56.88818,82.68799 29.505893,17.28556 64.099373,24.39305 97.75,15.8125 19.131928,-5.16451 35.872423,-13.18035 51,-26 1.005469,-0.84176 2.01094,-1.68352 3.04688,-2.55078 C 126.32819,334.66412 142.23037,302.21 145,269 c 1.55005,-32.92118 -5.12063,-63.51606 -22,-92 -2.64213,2.4041 -4.34152,5.0151 -6.1875,8.0625 C 105.89846,202.42887 91.273876,217.46177 71,223 c -7.426836,1.64793 -14.149226,1.52503 -21,-2 -4.612743,-3.79815 -7.123298,-8.05791 -8,-14 0.03648,-9.16955 2.372896,-17.09856 5.375,-25.6875 C 57.953634,149.49562 58.653145,116.23846 43.890625,85.476562 38.189384,74.128864 31.049738,64.30989 22.875,54.625 22.384109,54.041458 21.893218,53.457915 21.387451,52.856689 18.194394,49.149192 14.873039,45.997396 11,43 c -0.33,0 -0.66,0 -1,0 z"
         fill="#f27707"
         transform="translate(235,301)"
         id="path837" />
      <path
         d="m 0,0 c 3.3562027,1.3887735 5.0729873,2.9167797 7,6 0,0.66 0,1.32 0,2 0.99,0.33 1.98,0.66 3,1 0.33,1.65 0.66,3.3 1,5 C 7.1180787,10.232253 3.2046812,6.3720221 0,2 0,1.34 0,0.68 0,0 Z"
         fill="#f3741a"
         transform="translate(256,353)"
         id="path847" />
      <path
         d="M 0,0 C 3,1 3,1 4.1875,3.0625 4.455625,3.701875 4.72375,4.34125 5,5 5.66,5 6.32,5 7,5 7,7.31 7,9.62 7,12 3.6497537,8.1876508 1.8302521,4.6671429 0,0 Z"
         fill="#f2771d"
         transform="translate(119,631)"
         id="path851" />
      <path
         d="M 0,0 C 0.99,0.33 1.98,0.66 3,1 0.69,3.64 -1.62,6.28 -4,9 -4.66,8.67 -5.32,8.34 -6,8 -4.02,5.36 -2.04,2.72 0,0 Z"
         fill="#f37419"
         transform="translate(203,385)"
         id="path853" />
      <path
         d="M 0,0 C 1.1375795,4.5503179 0.4283779,6.6308441 -1,11 -1.66,10.67 -2.32,10.34 -3,10 -2.01,6.7 -1.02,3.4 0,0 Z"
         fill="#f37516"
         transform="translate(113,496)"
         id="path855" />
    </g>
  </g>
</svg>
