<?xml version="1.0" encoding="UTF-8" standalone="no"?>
<svg
   xmlns:dc="http://purl.org/dc/elements/1.1/"
   xmlns:cc="http://creativecommons.org/ns#"
   xmlns:rdf="http://www.w3.org/1999/02/22-rdf-syntax-ns#"
   xmlns:svg="http://www.w3.org/2000/svg"
   xmlns="http://www.w3.org/2000/svg"
   width="64"
   height="64"
   viewBox="0 0 16.933333 16.933334"
   version="1.1"
   id="svg8">
  <defs
     id="defs2" />
  <metadata
     id="metadata5">
    <rdf:RDF>
      <cc:Work
         rdf:about="">
        <dc:format>image/svg+xml</dc:format>
        <dc:type
           rdf:resource="http://purl.org/dc/dcmitype/StillImage" />
        <dc:title></dc:title>
      </cc:Work>
    </rdf:RDF>
  </metadata>
  <g
     id="layer1">
    <g
       id="g877"
       transform="matrix(0.03863818,0,0,0.03863818,-19.967734,-11.111027)">
      <path
         d="m 0,0 c 4.9485809,0.50008284 8.4735931,2.1107762 12.5625,4.8125 0.604248,0.3945337 1.208496,0.7890674 1.831055,1.1955566 6.285548,4.2397184 11.738295,9.2542604 17.135254,14.5559084 1.340825,1.308784 2.711223,2.587096 4.084472,3.861816 25.498376,24.197024 40.81068,59.006148 41.779785,94.050779 0.26632,19.61984 -3.16797,38.51288 -7.030273,57.68677 -1.165934,5.91916 -1.61962,11.49564 -1.487793,17.52417 0.009,0.80889 0.01805,1.61777 0.02734,2.45117 0.02312,1.95391 0.05897,3.90767 0.09766,5.86133 9.644455,-3.94124 16.371652,-10.18451 23.75,-17.4375 0.638086,-0.62036 1.276172,-1.24072 1.933594,-1.87988 C 108.48845,168.85606 111.54175,150.2572 113.48828,131.44922 114,128 114,128 116,126 c 4.11088,0.0771 6.30897,0.40045 9.44922,3.125 0.73863,0.94875 1.47726,1.8975 2.23828,2.875 0.41588,0.53053 0.83177,1.06106 1.26025,1.60767 1.37644,1.77939 2.71588,3.58269 4.05225,5.39233 0.47099,0.62503 0.94198,1.25007 1.42725,1.89404 C 147.64738,158.51942 158.03511,177.47095 166,198 c 0.25862,0.66129 0.51724,1.32258 0.78369,2.00391 7.3339,19.15048 10.44698,39.40978 10.46631,59.80859 0.001,0.73571 0.002,1.47142 0.003,2.22943 -0.0107,11.55293 -0.63672,22.6746 -3.25305,33.95807 -0.2168,0.97477 -0.2168,0.97477 -0.43799,1.96924 -6.24376,27.48501 -19.56537,52.34365 -39.1499,72.56299 -1.41303,1.46872 -2.79578,2.96202 -4.17774,4.45996 -24.12393,25.665 -60.064522,41.68737 -95.184565,43.1289 C -7.6805614,419.39473 -46.745262,407.78794 -78.507812,378.35937 -79.330234,377.58078 -80.152656,376.80219 -81,376 c -0.884297,-0.81984 -1.768594,-1.63969 -2.679687,-2.48438 -26.604233,-25.47373 -43.442523,-63.65695 -44.593753,-100.41796 -0.84501,-47.31767 15.67606,-88.034 48.407229,-122.18604 5.053594,-5.17656 10.192702,-10.27045 15.342285,-15.35132 4.522475,-4.47761 8.908911,-8.98972 13.023438,-13.84717 1.548525,-1.76797 3.180667,-3.39835 4.875488,-5.02563 3.74994,-3.69135 7.01919,-7.71439 10.308594,-11.81641 1.486292,-1.8422 2.997513,-3.66472 4.539062,-5.460934 15.893842,-18.640925 29.2603487,-42.673688 28.7695315,-67.730469 -0.017504,-1.602858 -0.034414,-3.205723 -0.050781,-4.808593 -0.031026,-2.50621 -0.0667,-5.012086 -0.1127929,-7.518067 -0.042331,-2.432822 -0.065765,-4.86525 -0.086426,-7.298339 -0.027931,-1.121983 -0.027931,-1.121983 -0.056427,-2.2666326 C -3.3305423,6.4792615 -3.2187646,4.3612259 -1.4838867,1.496582 -0.9942041,1.00271 -0.50452148,0.50883789 0,0 Z m 3,231 c -4.3267999,3.53755 -7.432334,8.07181 -10.625,12.625 -0.7777881,1.10783 -0.7777881,1.10783 -1.5712891,2.23804 C -28.508902,273.8206 -46.05685,306.78164 -39.8125,341.75 c 2.51748,11.13546 6.780883,20.27444 13.8125,29.25 0.81791,1.06541 0.81791,1.06541 1.652344,2.15234 10.469913,12.83489 26.0805611,19.39712 42.277343,21.16797 14.55792,0.59179 28.32865,-4.19544 39.5625,-13.35156 9.496728,-8.82524 16.138238,-20.42714 16.785157,-33.46484 C 74.524525,339.02517 74.594482,330.84251 71,323 70.396719,321.66969 70.396719,321.66969 69.78125,320.3125 62.400586,305.55117 50.60631,297.28327 36.277832,290.08789 22.419864,283.07534 13.743169,274.59025 8,260 c -1.0113739,-3.26702 -1.1158115,-6.22744 -1.0976563,-9.64063 0.00322,-1.06992 0.00645,-2.13984 0.00977,-3.24218 0.012568,-1.66676 0.012568,-1.66676 0.025391,-3.36719 0.00451,-1.12664 0.00902,-2.25328 0.013672,-3.41406 C 6.962946,237.55724 6.9793916,234.77865 7,232 5.1255414,231.31767 5.1255414,231.31767 3,231 Z"
         fill="#f97f07"
         transform="translate(711,298)"
         id="path835" />
      <path
         d="M 0,0 C 2.31,0.33 4.62,0.66 7,1 7,1.99 7,2.98 7,4 4.03,3.505 4.03,3.505 1,3 0.67,3.66 0.34,4.32 0,5 0,3.35 0,1.7 0,0 Z"
         fill="#fb7c14"
         transform="translate(827,424)"
         id="path849" />
    </g>
  </g>
</svg>
